<?xml version="1.0" encoding="UTF-8" standalone="no"?>
<!-- Created with Inkscape (http://www.inkscape.org/) -->

<svg
   xmlns:dc="http://purl.org/dc/elements/1.1/"
   xmlns:cc="http://creativecommons.org/ns#"
   xmlns:rdf="http://www.w3.org/1999/02/22-rdf-syntax-ns#"
   xmlns:svg="http://www.w3.org/2000/svg"
   xmlns="http://www.w3.org/2000/svg"
   xmlns:sodipodi="http://sodipodi.sourceforge.net/DTD/sodipodi-0.dtd"
   xmlns:inkscape="http://www.inkscape.org/namespaces/inkscape"
   id="svg2"
   version="1.1"
   inkscape:version="0.48.4 r9939"
   width="506.25"
   height="397.5"
   xml:space="preserve"
   sodipodi:docname="A_posVariation.pdf"><metadata
     id="metadata8"><rdf:RDF><cc:Work
         rdf:about=""><dc:format>image/svg+xml</dc:format><dc:type
           rdf:resource="http://purl.org/dc/dcmitype/StillImage" /><dc:title></dc:title></cc:Work></rdf:RDF></metadata><defs
     id="defs6"><clipPath
       clipPathUnits="userSpaceOnUse"
       id="clipPath18"><path
         d="m 4,0 1683,0 0,1325 L 4,1325 4,0 z"
         id="path20" /></clipPath><clipPath
       clipPathUnits="userSpaceOnUse"
       id="clipPath142"><path
         d="m 339,1190 1171,0 0,-1005 -1171,0 0,1005 z"
         id="path144" /></clipPath><clipPath
       clipPathUnits="userSpaceOnUse"
       id="clipPath154"><path
         d="m 4,0 0,1325 1683,0 L 1687,0 4,0 z"
         id="path156" /></clipPath><clipPath
       clipPathUnits="userSpaceOnUse"
       id="clipPath204"><path
         d="m 0,0 1687,0 0,1325 L 0,1325 0,0 z"
         id="path206" /></clipPath></defs><sodipodi:namedview
     pagecolor="#ffffff"
     bordercolor="#666666"
     borderopacity="1"
     objecttolerance="10"
     gridtolerance="10"
     guidetolerance="10"
     inkscape:pageopacity="0"
     inkscape:pageshadow="2"
     inkscape:window-width="1366"
     inkscape:window-height="705"
     id="namedview4"
     showgrid="false"
     inkscape:zoom="2.3748428"
     inkscape:cx="242.90108"
     inkscape:cy="375.51932"
     inkscape:window-x="-8"
     inkscape:window-y="-8"
     inkscape:window-maximized="1"
     inkscape:current-layer="g12" /><g
     id="g10"
     inkscape:groupmode="layer"
     inkscape:label="A_posVariation"
     transform="matrix(1.25,0,0,-1.25,0,397.5)"><g
       id="g12"
       transform="scale(0.24,0.24)"><g
         id="g14"><g
           id="g16"
           clip-path="url(#clipPath18)"><path
             d="m 4,0 1672,0 0,1312 L 4,1312 4,0 z"
             style="fill:#ffffff;fill-opacity:1;fill-rule:nonzero;stroke:none"
             id="path22" /><path
             d="m 339,186 1170,0 0,1005 -1170,0 0,-1005 z"
             style="fill:#ffffff;fill-opacity:1;fill-rule:evenodd;stroke:none"
             id="path24" /><path
             d="m 339,186 0,1005 1170,0 0,-1005 -1170,0"
             style="fill:none;stroke:#ffffff;stroke-opacity:1;stroke-width:2.08333;stroke-linecap:butt;stroke-linejoin:round;stroke-miterlimit:10;stroke-dasharray:none"
             id="path26" /><path
             d="m 339,1191 1170,0"
             style="fill:none;stroke:#000000;stroke-opacity:1;stroke-width:2.08333;stroke-linecap:butt;stroke-linejoin:round;stroke-miterlimit:10;stroke-dasharray:none"
             id="path28" /><path
             d="m 339,186 1170,0"
             style="fill:none;stroke:#000000;stroke-opacity:1;stroke-width:2.08333;stroke-linecap:butt;stroke-linejoin:round;stroke-miterlimit:10;stroke-dasharray:none"
             id="path30" /><path
             d="m 1509,186 0,1005"
             style="fill:none;stroke:#000000;stroke-opacity:1;stroke-width:2.08333;stroke-linecap:butt;stroke-linejoin:round;stroke-miterlimit:10;stroke-dasharray:none"
             id="path32" /><path
             d="m 339,186 0,1005"
             style="fill:none;stroke:#000000;stroke-opacity:1;stroke-width:2.08333;stroke-linecap:butt;stroke-linejoin:round;stroke-miterlimit:10;stroke-dasharray:none"
             id="path34" /><path
             d="m 339,186 1170,0"
             style="fill:none;stroke:#000000;stroke-opacity:1;stroke-width:2.08333;stroke-linecap:butt;stroke-linejoin:round;stroke-miterlimit:10;stroke-dasharray:none"
             id="path36" /><path
             d="m 339,186 0,1005"
             style="fill:none;stroke:#000000;stroke-opacity:1;stroke-width:2.08333;stroke-linecap:butt;stroke-linejoin:round;stroke-miterlimit:10;stroke-dasharray:none"
             id="path38" /><path
             d="m 339,186 0,12"
             style="fill:none;stroke:#000000;stroke-opacity:1;stroke-width:2.08333;stroke-linecap:butt;stroke-linejoin:round;stroke-miterlimit:10;stroke-dasharray:none"
             id="path40" /><path
             d="m 339,1191 0,-12"
             style="fill:none;stroke:#000000;stroke-opacity:1;stroke-width:2.08333;stroke-linecap:butt;stroke-linejoin:round;stroke-miterlimit:10;stroke-dasharray:none"
             id="path42" /><g
             id="g44"
             transform="scale(4.16667,4.16667)"><text
               transform="matrix(1,0,0,-1,75.84,23.52)"
               id="text46"><tspan
                 style="fill:#000000;fill-opacity:1;fill-rule:nonzero;stroke:none;font-family:Helvetica;font-variant:normal;font-weight:normal;font-size:20;writing-mode:lr;-inkscape-font-specification:Helvetica"
                 x="0"
                 y="0"
                 id="tspan48">0</tspan></text>
</g><path
             d="m 683,186 0,12"
             style="fill:none;stroke:#000000;stroke-opacity:1;stroke-width:2.08333;stroke-linecap:butt;stroke-linejoin:round;stroke-miterlimit:10;stroke-dasharray:none"
             id="path50" /><path
             d="m 683,1191 0,-12"
             style="fill:none;stroke:#000000;stroke-opacity:1;stroke-width:2.08333;stroke-linecap:butt;stroke-linejoin:round;stroke-miterlimit:10;stroke-dasharray:none"
             id="path52" /><g
             id="g54"
             transform="scale(4.16667,4.16667)"><text
               transform="matrix(1,0,0,-1,158.4,23.52)"
               id="text56"><tspan
                 style="fill:#000000;fill-opacity:1;fill-rule:nonzero;stroke:none;font-family:Helvetica;font-variant:normal;font-weight:normal;font-size:20;writing-mode:lr;-inkscape-font-specification:Helvetica"
                 x="0"
                 y="0"
                 id="tspan58">5</tspan></text>
</g><path
             d="m 1027,186 0,12"
             style="fill:none;stroke:#000000;stroke-opacity:1;stroke-width:2.08333;stroke-linecap:butt;stroke-linejoin:round;stroke-miterlimit:10;stroke-dasharray:none"
             id="path60" /><path
             d="m 1027,1191 0,-12"
             style="fill:none;stroke:#000000;stroke-opacity:1;stroke-width:2.08333;stroke-linecap:butt;stroke-linejoin:round;stroke-miterlimit:10;stroke-dasharray:none"
             id="path62" /><g
             id="g64"
             transform="scale(4.16667,4.16667)"><text
               transform="matrix(1,0,0,-1,235.44,23.52)"
               id="text66"><tspan
                 style="fill:#000000;fill-opacity:1;fill-rule:nonzero;stroke:none;font-family:Helvetica;font-variant:normal;font-weight:normal;font-size:20;writing-mode:lr;-inkscape-font-specification:Helvetica"
                 x="0 11.12"
                 y="0"
                 sodipodi:role="line"
                 id="tspan68">10</tspan></text>
</g><path
             d="m 1371,186 0,12"
             style="fill:none;stroke:#000000;stroke-opacity:1;stroke-width:2.08333;stroke-linecap:butt;stroke-linejoin:round;stroke-miterlimit:10;stroke-dasharray:none"
             id="path70" /><path
             d="m 1371,1191 0,-12"
             style="fill:none;stroke:#000000;stroke-opacity:1;stroke-width:2.08333;stroke-linecap:butt;stroke-linejoin:round;stroke-miterlimit:10;stroke-dasharray:none"
             id="path72" /><g
             id="g74"
             transform="scale(4.16667,4.16667)"><text
               transform="matrix(1,0,0,-1,318,23.52)"
               id="text76"><tspan
                 style="fill:#000000;fill-opacity:1;fill-rule:nonzero;stroke:none;font-family:Helvetica;font-variant:normal;font-weight:normal;font-size:20;writing-mode:lr;-inkscape-font-specification:Helvetica"
                 x="0 11.12"
                 y="0"
                 sodipodi:role="line"
                 id="tspan78">15</tspan></text>
</g><path
             d="m 339,186 11,0"
             style="fill:none;stroke:#000000;stroke-opacity:1;stroke-width:2.08333;stroke-linecap:butt;stroke-linejoin:round;stroke-miterlimit:10;stroke-dasharray:none"
             id="path80" /><path
             d="m 1509,186 -12,0"
             style="fill:none;stroke:#000000;stroke-opacity:1;stroke-width:2.08333;stroke-linecap:butt;stroke-linejoin:round;stroke-miterlimit:10;stroke-dasharray:none"
             id="path82" /><g
             id="g84"
             transform="scale(4.16667,4.16667)"><text
               transform="matrix(1,0,0,-1,67.44,37.44)"
               id="text86"><tspan
                 style="fill:#000000;fill-opacity:1;fill-rule:nonzero;stroke:none;font-family:Helvetica;font-variant:normal;font-weight:normal;font-size:20;writing-mode:lr;-inkscape-font-specification:Helvetica"
                 x="0"
                 y="0"
                 id="tspan88">0</tspan></text>
</g><path
             d="m 339,391 11,0"
             style="fill:none;stroke:#000000;stroke-opacity:1;stroke-width:2.08333;stroke-linecap:butt;stroke-linejoin:round;stroke-miterlimit:10;stroke-dasharray:none"
             id="path90" /><path
             d="m 1509,391 -12,0"
             style="fill:none;stroke:#000000;stroke-opacity:1;stroke-width:2.08333;stroke-linecap:butt;stroke-linejoin:round;stroke-miterlimit:10;stroke-dasharray:none"
             id="path92" /><g
             id="g94"
             transform="scale(4.16667,4.16667)"><text
               transform="matrix(1,0,0,-1,28.56,86.64)"
               id="text96"><tspan
                 style="fill:#000000;fill-opacity:1;fill-rule:nonzero;stroke:none;font-family:Helvetica;font-variant:normal;font-weight:normal;font-size:20;writing-mode:lr;-inkscape-font-specification:Helvetica"
                 x="0 11.12 16.68 27.8 38.92"
                 y="0"
                 sodipodi:role="line"
                 id="tspan98">0.005</tspan></text>
</g><path
             d="m 339,596 11,0"
             style="fill:none;stroke:#000000;stroke-opacity:1;stroke-width:2.08333;stroke-linecap:butt;stroke-linejoin:round;stroke-miterlimit:10;stroke-dasharray:none"
             id="path100" /><path
             d="m 1509,596 -12,0"
             style="fill:none;stroke:#000000;stroke-opacity:1;stroke-width:2.08333;stroke-linecap:butt;stroke-linejoin:round;stroke-miterlimit:10;stroke-dasharray:none"
             id="path102" /><g
             id="g104"
             transform="scale(4.16667,4.16667)"><text
               transform="matrix(1,0,0,-1,39.6,135.84)"
               id="text106"><tspan
                 style="fill:#000000;fill-opacity:1;fill-rule:nonzero;stroke:none;font-family:Helvetica;font-variant:normal;font-weight:normal;font-size:20;writing-mode:lr;-inkscape-font-specification:Helvetica"
                 x="0 11.12 16.68 27.8"
                 y="0"
                 sodipodi:role="line"
                 id="tspan108">0.01</tspan></text>
</g><path
             d="m 339,801 11,0"
             style="fill:none;stroke:#000000;stroke-opacity:1;stroke-width:2.08333;stroke-linecap:butt;stroke-linejoin:round;stroke-miterlimit:10;stroke-dasharray:none"
             id="path110" /><path
             d="m 1509,801 -12,0"
             style="fill:none;stroke:#000000;stroke-opacity:1;stroke-width:2.08333;stroke-linecap:butt;stroke-linejoin:round;stroke-miterlimit:10;stroke-dasharray:none"
             id="path112" /><g
             id="g114"
             transform="scale(4.16667,4.16667)"><text
               transform="matrix(1,0,0,-1,28.56,185.04)"
               id="text116"><tspan
                 style="fill:#000000;fill-opacity:1;fill-rule:nonzero;stroke:none;font-family:Helvetica;font-variant:normal;font-weight:normal;font-size:20;writing-mode:lr;-inkscape-font-specification:Helvetica"
                 x="0 11.12 16.68 27.8 38.92"
                 y="0"
                 sodipodi:role="line"
                 id="tspan118">0.015</tspan></text>
</g><path
             d="m 339,1006 11,0"
             style="fill:none;stroke:#000000;stroke-opacity:1;stroke-width:2.08333;stroke-linecap:butt;stroke-linejoin:round;stroke-miterlimit:10;stroke-dasharray:none"
             id="path120" /><path
             d="m 1509,1006 -12,0"
             style="fill:none;stroke:#000000;stroke-opacity:1;stroke-width:2.08333;stroke-linecap:butt;stroke-linejoin:round;stroke-miterlimit:10;stroke-dasharray:none"
             id="path122" /><g
             id="g124"
             transform="scale(4.16667,4.16667)"><text
               transform="matrix(1,0,0,-1,39.6,234.24)"
               id="text126"><tspan
                 style="fill:#000000;fill-opacity:1;fill-rule:nonzero;stroke:none;font-family:Helvetica;font-variant:normal;font-weight:normal;font-size:20;writing-mode:lr;-inkscape-font-specification:Helvetica"
                 x="0 11.12 16.68 27.8"
                 y="0"
                 sodipodi:role="line"
                 id="tspan128">0.02</tspan></text>
</g><path
             d="m 339,1191 1170,0"
             style="fill:none;stroke:#000000;stroke-opacity:1;stroke-width:2.08333;stroke-linecap:butt;stroke-linejoin:round;stroke-miterlimit:10;stroke-dasharray:none"
             id="path130" /><path
             d="m 339,186 1170,0"
             style="fill:none;stroke:#000000;stroke-opacity:1;stroke-width:2.08333;stroke-linecap:butt;stroke-linejoin:round;stroke-miterlimit:10;stroke-dasharray:none"
             id="path132" /><path
             d="m 1509,186 0,1005"
             style="fill:none;stroke:#000000;stroke-opacity:1;stroke-width:2.08333;stroke-linecap:butt;stroke-linejoin:round;stroke-miterlimit:10;stroke-dasharray:none"
             id="path134" /><path
             d="m 339,186 0,1005"
             style="fill:none;stroke:#000000;stroke-opacity:1;stroke-width:2.08333;stroke-linecap:butt;stroke-linejoin:round;stroke-miterlimit:10;stroke-dasharray:none"
             id="path136" /></g></g><g
         id="g138"><g
           id="g140"
           clip-path="url(#clipPath142)"><path
             d="m 407,970 69,-37 69,-9 69,17 69,30 68,32 69,27 69,17 69,7 69,3 69,8 68,23 69,36 69,38 69,25 69,3"
             style="fill:none;stroke:#0100ff;stroke-opacity:1;stroke-width:2.08333;stroke-linecap:butt;stroke-linejoin:round;stroke-miterlimit:10;stroke-dasharray:none"
             id="path146" /><path
             d="m 1440,1190 69,-21"
             style="fill:none;stroke:#0100ff;stroke-opacity:1;stroke-width:2.08333;stroke-linecap:butt;stroke-linejoin:round;stroke-miterlimit:10;stroke-dasharray:none"
             id="path148" /></g></g><g
         id="g150"
         transform="translate(21.054025,0)"><g
           id="g152"
           clip-path="url(#clipPath154)"><g
             id="g158"
             transform="scale(4.16667,4.16667)"><text
               transform="matrix(1,0,0,-1,35.04,300.24)"
               id="text160"
               style="font-family:Times New Roman;-inkscape-font-specification:Times New Roman"><tspan
                 style="font-size:20px;font-variant:normal;font-weight:normal;writing-mode:lr-tb;fill:#000000;fill-opacity:1;fill-rule:nonzero;stroke:none;font-family:Times New Roman;-inkscape-font-specification:Times New Roman"
                 sodipodi:role="line"
                 id="tspan162"
                 x="0"
                 y="0">varying starting position for the best orbit</tspan></text>
<text
               transform="matrix(0,1,1,0,18.72,172.56)"
               id="text180"><tspan
                 style="font-size:20px;font-variant:normal;font-weight:normal;writing-mode:lr-tb;fill:#000000;fill-opacity:1;fill-rule:nonzero;stroke:none;font-family:mwa_cmex10;-inkscape-font-specification:mwa_cmex10"
                 x="0"
                 y="0"
                 id="tspan182"></tspan></text>
<text
               transform="matrix(1,0,0,-1,147.84,4.8)"
               id="text196"><tspan
                 style="font-size:20px;font-variant:normal;font-weight:normal;writing-mode:lr-tb;fill:#000000;fill-opacity:1;fill-rule:nonzero;stroke:none;font-family:mwa_cmr10;-inkscape-font-specification:mwa_cmr10"
                 x="0 11.04 18.48 29.040001 37.200001 44.639999 49.68 60.720001 77.519997 89.279999 99.599998 107.76 112.8 120.24 125.28 135.60001"
                 y="0"
                 sodipodi:role="line"
                 id="tspan198">Startingposition</tspan></text>
</g></g></g><g
         id="g200"><g
           id="g202"
           clip-path="url(#clipPath204)" /></g></g><g
       transform="translate(-0.63469545,-3.5658731)"
       id="g3427"><path
         inkscape:connector-curvature="0"
         d="m 18.227,142.082 0.019,0 0.043,-0.019 0.066,0 0.063,-0.024 0.066,-0.023 0.067,-0.02 0.086,0 0.062,-0.023 0.067,-0.02 0.023,0 0.043,-0.023 0.086,0 0.02,-0.02 0.089,0 0.02,-0.023 0.109,0 c 0.391,0 0.563,0.304 0.563,0.629 0,0.257 -0.153,0.629 -0.586,0.8 -0.043,0 -1.059,0.258 -1.602,0.391 l -1.926,0.477 c -0.476,0.129 -0.953,0.257 -1.449,0.367 -0.367,0.086 -0.996,0.258 -1.082,0.281 -0.652,0.324 -2.621,1.473 -2.621,3.508 0,0.973 0.801,1.168 1.516,1.168 1.32,0 4.09,-1.063 5,-1.406 0.5,-0.196 0.758,-0.219 0.996,-0.219 1.015,0 1.754,0.758 1.754,1.777 0,2.012 -3.141,2.813 -3.313,2.813 -0.215,0 -0.215,-0.196 -0.215,-0.262 0,-0.215 0.086,-0.215 0.387,-0.324 1.473,-0.41 2.684,-1.125 2.684,-2.184 0,-0.371 -0.215,-0.519 -0.711,-0.519 -0.543,0 -1.063,0.195 -1.539,0.386 -1.125,0.414 -3.508,1.321 -4.719,1.321 -1.449,0 -2.316,-0.93 -2.316,-2.489 0,-1.925 1.386,-2.988 1.882,-3.355 -1.211,-0.106 -1.882,-0.996 -1.882,-1.992 0,-0.973 0.843,-1.383 1.234,-1.602 0.738,-0.344 1.992,-0.648 2.078,-0.648 0.215,0 0.215,0.218 0.215,0.261 0,0.215 -0.02,0.239 -0.473,0.368 -1.539,0.367 -2.578,0.8 -2.578,1.578 0,0.414 0.281,0.652 0.996,0.652 0.453,0 0.692,-0.066 1.797,-0.348 l 4.981,-1.234 z"
         style="fill:#000000;fill-opacity:1;fill-rule:nonzero;stroke:none"
         id="path3429" /><path
         inkscape:connector-curvature="0"
         d="m 21.406,155.656 -0.086,0.086 -0.066,0.063 -0.063,0.066 -0.324,0.324 -0.047,0.043 -0.043,0.067 -0.043,0.043 -0.043,0.062 -0.062,0.047 -0.043,0.063 -0.066,0.066 -0.043,0.086 -0.067,0.066 -0.062,0.086 -0.067,0.063 -0.086,0.09 -0.066,0.086 -0.086,0.105 -0.066,0.109 -0.086,0.086 -0.11,0.133 -0.086,0.106 c -0.257,0.324 -1.144,1.453 -1.578,1.882 -0.91,0.934 -1.668,1.496 -1.84,1.496 -0.195,0 -0.195,-0.195 -0.195,-0.261 0,-0.129 0.043,-0.172 0.152,-0.258 0.692,-0.457 0.93,-0.781 0.93,-1.148 0,-0.172 -0.023,-0.391 -0.453,-0.844 -0.52,-0.52 -0.629,-0.844 -0.629,-1.192 0,-1.211 1.32,-2.035 1.773,-2.035 0.133,0 0.176,0.153 0.176,0.262 0,0.195 -0.043,0.215 -0.218,0.281 -0.52,0.215 -0.563,1.059 -0.563,1.297 0,0.348 0.109,0.758 0.152,0.953 0.172,0.844 0.172,0.93 0.172,1.32 0.414,-0.39 0.672,-0.671 1.821,-2.097 0.929,-1.172 1.32,-1.582 1.621,-1.863 0.89,-0.911 1.539,-1.344 1.668,-1.344 0.195,0 0.195,0.195 0.195,0.262 0,0.128 -0.043,0.171 -0.152,0.238 -0.586,0.41 -0.911,0.887 -0.911,1.387 0,0.191 0,0.41 0.391,0.82 0.434,0.476 0.672,0.781 0.672,1.258 0,1.601 -1.82,2.617 -2.34,2.617 -0.172,0 -0.191,-0.172 -0.191,-0.258 0,-0.176 0.062,-0.219 0.238,-0.262 0.754,-0.304 1.125,-1.191 1.125,-1.925 0,-0.348 -0.09,-0.715 -0.176,-1.106 -0.148,-0.691 -0.148,-0.801 -0.148,-1.082 0,-0.02 0,-0.258 0.019,-0.344 z"
         style="fill:#000000;fill-opacity:1;fill-rule:nonzero;stroke:none"
         id="path3431" /><path
         inkscape:connector-curvature="0"
         d="m 14.543,182.039 0,0.305 -0.02,0.043 0,0.086 -0.023,0.023 0,0.063 -0.02,0.023 -0.023,0.023 0,0.043 -0.086,0.086 -0.019,0 0,0.02 -0.043,0 0,0.023 -0.067,0 -0.023,0.02 -0.106,0 c -0.433,0 -0.433,-0.387 -0.433,-0.758 l 0,-11.644 c 0,-0.368 0,-0.758 0.433,-0.758 0.43,0 0.43,0.39 0.43,0.758 l 0,11.644 z"
         style="fill:#000000;fill-opacity:1;fill-rule:nonzero;stroke:none"
         id="path3433" /><path
         inkscape:connector-curvature="0"
         d="m 3.355,211.371 0.043,-0.066 0.043,-0.063 0.043,-0.086 0.043,-0.109 0.067,-0.109 0.062,-0.129 0.067,-0.153 0.062,-0.152 0.067,-0.152 0.086,-0.172 0.085,-0.196 0.067,-0.195 0.086,-0.191 0.086,-0.196 0.09,-0.218 0.062,-0.239 0.086,-0.215 0.086,-0.238 0.066,-0.238 0.086,-0.238 0.067,-0.258 0.066,-0.238 0.063,-0.262 L 5,207 l 0.063,-0.262 0.042,-0.258 0.047,-0.261 0.043,-0.258 0.02,-0.262 0.023,-0.258 0.02,-0.261 0,-0.258 c 0,-1.582 -0.387,-2.535 -1.039,-4.008 -0.434,-1.039 -0.864,-2.098 -0.864,-3.57 0,-2.531 1.211,-5.02 2.293,-7.274 l 0.434,0.219 c -0.305,0.582 -1.906,3.723 -1.906,6.473 0,1.558 0.39,2.508 1.039,4.004 0.433,1.039 0.867,2.078 0.867,3.57 0,2.512 -1.211,5.023 -2.297,7.25 l -0.43,-0.215 z"
         style="fill:#000000;fill-opacity:1;fill-rule:nonzero;stroke:none"
         id="path3435" /><path
         inkscape:connector-curvature="0"
         d="m 18.227,191.305 0.086,0 0.042,-0.02 0.063,0 0.133,-0.047 0.086,-0.019 0.062,0 0.067,-0.024 0.023,0 0.043,-0.019 0.063,0 0.023,-0.024 0.062,0 0.024,-0.019 0.129,0 0.023,-0.024 c 0.391,0 0.563,0.305 0.563,0.629 0,0.258 -0.153,0.649 -0.586,0.801 -0.043,0.024 -1.059,0.281 -1.602,0.41 l -1.926,0.477 c -0.476,0.129 -0.953,0.262 -1.449,0.367 -0.367,0.09 -0.996,0.262 -1.082,0.281 -0.652,0.328 -2.621,1.473 -2.621,3.508 0,0.973 0.801,1.168 1.516,1.168 1.32,0 4.09,-1.059 5,-1.406 0.5,-0.196 0.758,-0.215 0.996,-0.215 1.015,0 1.754,0.758 1.754,1.773 0,2.012 -3.141,2.817 -3.313,2.817 -0.215,0 -0.215,-0.196 -0.215,-0.262 0,-0.215 0.086,-0.215 0.387,-0.324 1.473,-0.434 2.684,-1.149 2.684,-2.188 0,-0.367 -0.215,-0.519 -0.711,-0.519 -0.543,0 -1.063,0.195 -1.539,0.39 -1.125,0.411 -3.508,1.297 -4.719,1.297 -1.449,0 -2.316,-0.906 -2.316,-2.465 0,-1.949 1.386,-2.988 1.882,-3.355 -1.211,-0.109 -1.882,-0.996 -1.882,-1.992 0,-0.996 0.843,-1.387 1.234,-1.602 0.738,-0.347 1.992,-0.648 2.078,-0.648 0.215,0 0.215,0.215 0.215,0.258 0,0.218 -0.02,0.238 -0.473,0.367 -1.539,0.371 -2.578,0.781 -2.578,1.558 0,0.434 0.281,0.672 0.996,0.672 0.453,0 0.692,-0.062 1.797,-0.343 l 4.981,-1.258 z"
         style="fill:#000000;fill-opacity:1;fill-rule:nonzero;stroke:none"
         id="path3437" /><path
         inkscape:connector-curvature="0"
         d="m 21.406,204.898 -0.086,0.067 -0.066,0.086 -0.063,0.062 -0.086,0.067 -0.066,0.086 -0.086,0.086 -0.043,0.046 -0.043,0.043 -0.047,0.043 -0.043,0.043 -0.043,0.063 -0.043,0.043 -0.062,0.066 -0.043,0.067 -0.066,0.062 -0.043,0.067 -0.067,0.085 -0.062,0.067 -0.067,0.086 -0.086,0.086 -0.066,0.086 -0.086,0.109 -0.066,0.086 -0.086,0.109 -0.11,0.11 -0.086,0.129 c -0.257,0.3 -1.144,1.449 -1.578,1.882 -0.91,0.911 -1.668,1.493 -1.84,1.493 -0.195,0 -0.195,-0.196 -0.195,-0.258 0,-0.129 0.043,-0.176 0.152,-0.262 0.692,-0.453 0.93,-0.777 0.93,-1.144 0,-0.176 -0.023,-0.414 -0.453,-0.868 -0.52,-0.5 -0.629,-0.843 -0.629,-1.191 0,-1.191 1.32,-2.012 1.773,-2.012 0.133,0 0.176,0.153 0.176,0.258 0,0.176 -0.043,0.219 -0.218,0.262 -0.52,0.238 -0.563,1.082 -0.563,1.32 0,0.344 0.109,0.735 0.152,0.953 0.172,0.821 0.172,0.93 0.172,1.321 0.414,-0.414 0.672,-0.672 1.821,-2.102 0.929,-1.191 1.32,-1.578 1.621,-1.883 0.89,-0.887 1.539,-1.344 1.668,-1.344 0.195,0 0.195,0.196 0.195,0.262 0,0.153 -0.043,0.195 -0.152,0.258 -0.586,0.414 -0.911,0.891 -0.911,1.387 0,0.172 0,0.41 0.391,0.824 0.434,0.453 0.672,0.758 0.672,1.234 0,1.621 -1.82,2.641 -2.34,2.641 -0.172,0 -0.191,-0.176 -0.191,-0.262 0,-0.172 0.062,-0.215 0.238,-0.281 0.754,-0.281 1.125,-1.168 1.125,-1.906 0,-0.344 -0.09,-0.735 -0.176,-1.102 -0.148,-0.695 -0.148,-0.801 -0.148,-1.082 0,-0.023 0,-0.262 0.019,-0.348 z"
         style="fill:#000000;fill-opacity:1;fill-rule:nonzero;stroke:none"
         id="path3439" /></g></g></svg>