<?xml version="1.0" encoding="UTF-8" standalone="no"?>
<!-- Created with Inkscape (http://www.inkscape.org/) -->

<svg
   xmlns:ns0="http://www.iki.fi/pav/software/textext/"
   xmlns:dc="http://purl.org/dc/elements/1.1/"
   xmlns:cc="http://creativecommons.org/ns#"
   xmlns:rdf="http://www.w3.org/1999/02/22-rdf-syntax-ns#"
   xmlns:svg="http://www.w3.org/2000/svg"
   xmlns="http://www.w3.org/2000/svg"
   xmlns:sodipodi="http://sodipodi.sourceforge.net/DTD/sodipodi-0.dtd"
   xmlns:inkscape="http://www.inkscape.org/namespaces/inkscape"
   id="svg2"
   version="1.1"
   inkscape:version="0.48.4 r9939"
   width="486.25"
   height="387.5"
   xml:space="preserve"
   sodipodi:docname="B_orbitVariation.pdf"><sodipodi:namedview
     pagecolor="#ffffff"
     bordercolor="#666666"
     borderopacity="1"
     objecttolerance="10"
     gridtolerance="10"
     guidetolerance="10"
     inkscape:pageopacity="0"
     inkscape:pageshadow="2"
     inkscape:window-width="1366"
     inkscape:window-height="705"
     id="namedview4"
     showgrid="false"
     inkscape:zoom="0.86130168"
     inkscape:cx="233.07625"
     inkscape:cy="119.72345"
     inkscape:window-x="-8"
     inkscape:window-y="-8"
     inkscape:window-maximized="1"
     inkscape:current-layer="g10" /><metadata
     id="metadata8"><rdf:RDF><cc:Work
         rdf:about=""><dc:format>image/svg+xml</dc:format><dc:type
           rdf:resource="http://purl.org/dc/dcmitype/StillImage" /><dc:title></dc:title></cc:Work></rdf:RDF></metadata><defs
     id="defs6"><clipPath
       id="clipPath18"
       clipPathUnits="userSpaceOnUse"><path
         id="path20"
         d="m 4,0.667969 1617,0 0,1291.330031 -1617,0 L 4,0.667969 z" /></clipPath><clipPath
       id="clipPath152"
       clipPathUnits="userSpaceOnUse"><path
         id="path154"
         d="m 293,1156.66 1217,0 0,-1046.992 -1217,0 0,1046.992 z" /></clipPath><clipPath
       id="clipPath162"
       clipPathUnits="userSpaceOnUse"><path
         id="path164"
         d="m 4,0 0,1292 1617,0 L 1621,0 4,0 z" /></clipPath><clipPath
       id="clipPath3411"
       clipPathUnits="userSpaceOnUse"><path
         id="path3413"
         d="m 0,26.351 0,310.079 378.961,0 0,-310.079 -378.961,0 z"
         inkscape:connector-curvature="0" /></clipPath><clipPath
       id="clipPath3419"
       clipPathUnits="userSpaceOnUse"><path
         id="path3421"
         d="M 0,0 379,0 379,334 0,334 0,0 z"
         inkscape:connector-curvature="0" /></clipPath></defs><g
     transform="matrix(1.25,0,0,-1.25,0,387.5)"
     inkscape:label="B_orbitVariation"
     inkscape:groupmode="layer"
     id="g10"><g
   transform="scale(0.24,0.24)"
   id="g12"><g
     id="g14"><g
       clip-path="url(#clipPath18)"
       id="g16"><path
         id="path22"
         style="fill:#ffffff;fill-opacity:1;fill-rule:nonzero;stroke:none"
         d="m 4,0.667969 1617,0 0,1278.000031 -1617,0 L 4,0.667969 z" /><path
         id="path24"
         style="fill:#ffffff;fill-opacity:1;fill-rule:evenodd;stroke:none"
         d="m 293,110.668 1216,0 0,1046 -1216,0 0,-1046 z" /><path
         id="path26"
         style="fill:none;stroke:#ffffff;stroke-opacity:1;stroke-width:2.08333;stroke-linecap:butt;stroke-linejoin:round;stroke-miterlimit:10;stroke-dasharray:none"
         d="m 293,110.668 0,1045.992 1216,0 0,-1045.992 -1216,0" /><path
         id="path28"
         style="fill:none;stroke:#000000;stroke-opacity:1;stroke-width:2.08333;stroke-linecap:butt;stroke-linejoin:round;stroke-miterlimit:10;stroke-dasharray:none"
         d="m 293,1156.66 1216,0" /><path
         id="path30"
         style="fill:none;stroke:#000000;stroke-opacity:1;stroke-width:2.08333;stroke-linecap:butt;stroke-linejoin:round;stroke-miterlimit:10;stroke-dasharray:none"
         d="m 293,110.668 1216,0" /><path
         id="path32"
         style="fill:none;stroke:#000000;stroke-opacity:1;stroke-width:2.08333;stroke-linecap:butt;stroke-linejoin:round;stroke-miterlimit:10;stroke-dasharray:none"
         d="m 1509,110.668 0,1045.992" /><path
         id="path34"
         style="fill:none;stroke:#000000;stroke-opacity:1;stroke-width:2.08333;stroke-linecap:butt;stroke-linejoin:round;stroke-miterlimit:10;stroke-dasharray:none"
         d="m 293,110.668 0,1045.992" /><path
         id="path36"
         style="fill:none;stroke:#000000;stroke-opacity:1;stroke-width:2.08333;stroke-linecap:butt;stroke-linejoin:round;stroke-miterlimit:10;stroke-dasharray:none"
         d="m 293,110.668 1216,0" /><path
         id="path38"
         style="fill:none;stroke:#000000;stroke-opacity:1;stroke-width:2.08333;stroke-linecap:butt;stroke-linejoin:round;stroke-miterlimit:10;stroke-dasharray:none"
         d="m 293,110.668 0,1045.992" /><path
         id="path40"
         style="fill:none;stroke:#000000;stroke-opacity:1;stroke-width:2.08333;stroke-linecap:butt;stroke-linejoin:round;stroke-miterlimit:10;stroke-dasharray:none"
         d="m 293,110.668 0,13" /><path
         id="path42"
         style="fill:none;stroke:#000000;stroke-opacity:1;stroke-width:2.08333;stroke-linecap:butt;stroke-linejoin:round;stroke-miterlimit:10;stroke-dasharray:none"
         d="m 293,1156.66 0,-12" /><g
         transform="scale(4.16667,4.16667)"
         id="g44"><text
   id="text46"
   transform="matrix(1,0,0,-1,64.8,5.20031)"><tspan
     id="tspan48"
     y="0"
     x="0"
     style="fill:#000000;fill-opacity:1;fill-rule:nonzero;stroke:none;font-family:Helvetica;font-variant:normal;font-weight:normal;font-size:20;writing-mode:lr;-inkscape-font-specification:Helvetica">0</tspan></text>

</g><path
         id="path50"
         style="fill:none;stroke:#000000;stroke-opacity:1;stroke-width:2.08333;stroke-linecap:butt;stroke-linejoin:round;stroke-miterlimit:10;stroke-dasharray:none"
         d="m 698,110.668 0,13" /><path
         id="path52"
         style="fill:none;stroke:#000000;stroke-opacity:1;stroke-width:2.08333;stroke-linecap:butt;stroke-linejoin:round;stroke-miterlimit:10;stroke-dasharray:none"
         d="m 698,1156.66 0,-12" /><g
         transform="scale(4.16667,4.16667)"
         id="g54"><text
   id="text56"
   transform="matrix(1,0,0,-1,156.48,5.20031)"><tspan
     id="tspan58"
     sodipodi:role="line"
     y="0"
     x="0 11.12"
     style="fill:#000000;fill-opacity:1;fill-rule:nonzero;stroke:none;font-family:Helvetica;font-variant:normal;font-weight:normal;font-size:20;writing-mode:lr;-inkscape-font-specification:Helvetica">20</tspan></text>

</g><path
         id="path60"
         style="fill:none;stroke:#000000;stroke-opacity:1;stroke-width:2.08333;stroke-linecap:butt;stroke-linejoin:round;stroke-miterlimit:10;stroke-dasharray:none"
         d="m 1103,110.668 0,13" /><path
         id="path62"
         style="fill:none;stroke:#000000;stroke-opacity:1;stroke-width:2.08333;stroke-linecap:butt;stroke-linejoin:round;stroke-miterlimit:10;stroke-dasharray:none"
         d="m 1103,1156.66 0,-12" /><g
         transform="scale(4.16667,4.16667)"
         id="g64"><text
   id="text66"
   transform="matrix(1,0,0,-1,253.68,5.20031)"><tspan
     id="tspan68"
     sodipodi:role="line"
     y="0"
     x="0 11.12"
     style="fill:#000000;fill-opacity:1;fill-rule:nonzero;stroke:none;font-family:Helvetica;font-variant:normal;font-weight:normal;font-size:20;writing-mode:lr;-inkscape-font-specification:Helvetica">40</tspan></text>

</g><path
         id="path70"
         style="fill:none;stroke:#000000;stroke-opacity:1;stroke-width:2.08333;stroke-linecap:butt;stroke-linejoin:round;stroke-miterlimit:10;stroke-dasharray:none"
         d="m 1509,110.668 0,13" /><path
         id="path72"
         style="fill:none;stroke:#000000;stroke-opacity:1;stroke-width:2.08333;stroke-linecap:butt;stroke-linejoin:round;stroke-miterlimit:10;stroke-dasharray:none"
         d="m 1509,1156.66 0,-12" /><g
         transform="scale(4.16667,4.16667)"
         id="g74"><text
   id="text76"
   transform="matrix(1,0,0,-1,351.12,5.20031)"><tspan
     id="tspan78"
     sodipodi:role="line"
     y="0"
     x="0 11.12"
     style="fill:#000000;fill-opacity:1;fill-rule:nonzero;stroke:none;font-family:Helvetica;font-variant:normal;font-weight:normal;font-size:20;writing-mode:lr;-inkscape-font-specification:Helvetica">60</tspan></text>

</g><path
         id="path80"
         style="fill:none;stroke:#000000;stroke-opacity:1;stroke-width:2.08333;stroke-linecap:butt;stroke-linejoin:round;stroke-miterlimit:10;stroke-dasharray:none"
         d="m 293,110.668 12,0" /><path
         id="path82"
         style="fill:none;stroke:#000000;stroke-opacity:1;stroke-width:2.08333;stroke-linecap:butt;stroke-linejoin:round;stroke-miterlimit:10;stroke-dasharray:none"
         d="m 1509,110.668 -13,0" /><g
         transform="scale(4.16667,4.16667)"
         id="g84"><text
   id="text86"
   transform="matrix(1,0,0,-1,56.4,19.3603)"><tspan
     id="tspan88"
     y="0"
     x="0"
     style="fill:#000000;fill-opacity:1;fill-rule:nonzero;stroke:none;font-family:Helvetica;font-variant:normal;font-weight:normal;font-size:20;writing-mode:lr;-inkscape-font-specification:Helvetica">0</tspan></text>

</g><path
         id="path90"
         style="fill:none;stroke:#000000;stroke-opacity:1;stroke-width:2.08333;stroke-linecap:butt;stroke-linejoin:round;stroke-miterlimit:10;stroke-dasharray:none"
         d="m 293,320.668 12,0" /><path
         id="path92"
         style="fill:none;stroke:#000000;stroke-opacity:1;stroke-width:2.08333;stroke-linecap:butt;stroke-linejoin:round;stroke-miterlimit:10;stroke-dasharray:none"
         d="m 1509,320.668 -13,0" /><g
         transform="scale(4.16667,4.16667)"
         id="g94"><text
   id="text96"
   transform="matrix(1,0,0,-1,28.56,69.7603)"><tspan
     id="tspan98"
     sodipodi:role="line"
     y="0"
     x="0 11.12 16.68 27.8"
     style="fill:#000000;fill-opacity:1;fill-rule:nonzero;stroke:none;font-family:Helvetica;font-variant:normal;font-weight:normal;font-size:20;writing-mode:lr;-inkscape-font-specification:Helvetica">0.05</tspan></text>

</g><path
         id="path100"
         style="fill:none;stroke:#000000;stroke-opacity:1;stroke-width:2.08333;stroke-linecap:butt;stroke-linejoin:round;stroke-miterlimit:10;stroke-dasharray:none"
         d="m 293,529.668 12,0" /><path
         id="path102"
         style="fill:none;stroke:#000000;stroke-opacity:1;stroke-width:2.08333;stroke-linecap:butt;stroke-linejoin:round;stroke-miterlimit:10;stroke-dasharray:none"
         d="m 1509,529.668 -13,0" /><g
         transform="scale(4.16667,4.16667)"
         id="g104"><text
   id="text106"
   transform="matrix(1,0,0,-1,39.84,119.92)"><tspan
     id="tspan108"
     sodipodi:role="line"
     y="0"
     x="0 11.12 16.68"
     style="fill:#000000;fill-opacity:1;fill-rule:nonzero;stroke:none;font-family:Helvetica;font-variant:normal;font-weight:normal;font-size:20;writing-mode:lr;-inkscape-font-specification:Helvetica">0.1</tspan></text>

</g><path
         id="path110"
         style="fill:none;stroke:#000000;stroke-opacity:1;stroke-width:2.08333;stroke-linecap:butt;stroke-linejoin:round;stroke-miterlimit:10;stroke-dasharray:none"
         d="m 293,738.664 12,0" /><path
         id="path112"
         style="fill:none;stroke:#000000;stroke-opacity:1;stroke-width:2.08333;stroke-linecap:butt;stroke-linejoin:round;stroke-miterlimit:10;stroke-dasharray:none"
         d="m 1509,738.664 -13,0" /><g
         transform="scale(4.16667,4.16667)"
         id="g114"><text
   id="text116"
   transform="matrix(1,0,0,-1,28.56,170.08)"><tspan
     id="tspan118"
     sodipodi:role="line"
     y="0"
     x="0 11.12 16.68 27.8"
     style="fill:#000000;fill-opacity:1;fill-rule:nonzero;stroke:none;font-family:Helvetica;font-variant:normal;font-weight:normal;font-size:20;writing-mode:lr;-inkscape-font-specification:Helvetica">0.15</tspan></text>

</g><path
         id="path120"
         style="fill:none;stroke:#000000;stroke-opacity:1;stroke-width:2.08333;stroke-linecap:butt;stroke-linejoin:round;stroke-miterlimit:10;stroke-dasharray:none"
         d="m 293,947.664 12,0" /><path
         id="path122"
         style="fill:none;stroke:#000000;stroke-opacity:1;stroke-width:2.08333;stroke-linecap:butt;stroke-linejoin:round;stroke-miterlimit:10;stroke-dasharray:none"
         d="m 1509,947.664 -13,0" /><g
         transform="scale(4.16667,4.16667)"
         id="g124"><text
   id="text126"
   transform="matrix(1,0,0,-1,39.84,220.239)"><tspan
     id="tspan128"
     sodipodi:role="line"
     y="0"
     x="0 11.12 16.68"
     style="fill:#000000;fill-opacity:1;fill-rule:nonzero;stroke:none;font-family:Helvetica;font-variant:normal;font-weight:normal;font-size:20;writing-mode:lr;-inkscape-font-specification:Helvetica">0.2</tspan></text>

</g><path
         id="path130"
         style="fill:none;stroke:#000000;stroke-opacity:1;stroke-width:2.08333;stroke-linecap:butt;stroke-linejoin:round;stroke-miterlimit:10;stroke-dasharray:none"
         d="m 293,1156.66 12,0" /><path
         id="path132"
         style="fill:none;stroke:#000000;stroke-opacity:1;stroke-width:2.08333;stroke-linecap:butt;stroke-linejoin:round;stroke-miterlimit:10;stroke-dasharray:none"
         d="m 1509,1156.66 -13,0" /><g
         transform="scale(4.16667,4.16667)"
         id="g134"><text
   id="text136"
   transform="matrix(1,0,0,-1,28.56,270.399)"><tspan
     id="tspan138"
     sodipodi:role="line"
     y="0"
     x="0 11.12 16.68 27.8"
     style="fill:#000000;fill-opacity:1;fill-rule:nonzero;stroke:none;font-family:Helvetica;font-variant:normal;font-weight:normal;font-size:20;writing-mode:lr;-inkscape-font-specification:Helvetica">0.25</tspan></text>

</g><path
         id="path140"
         style="fill:none;stroke:#000000;stroke-opacity:1;stroke-width:2.08333;stroke-linecap:butt;stroke-linejoin:round;stroke-miterlimit:10;stroke-dasharray:none"
         d="m 293,1156.66 1216,0" /><path
         id="path142"
         style="fill:none;stroke:#000000;stroke-opacity:1;stroke-width:2.08333;stroke-linecap:butt;stroke-linejoin:round;stroke-miterlimit:10;stroke-dasharray:none"
         d="m 293,110.668 1216,0" /><path
         id="path144"
         style="fill:none;stroke:#000000;stroke-opacity:1;stroke-width:2.08333;stroke-linecap:butt;stroke-linejoin:round;stroke-miterlimit:10;stroke-dasharray:none"
         d="m 1509,110.668 0,1045.992" /><path
         id="path146"
         style="fill:none;stroke:#000000;stroke-opacity:1;stroke-width:2.08333;stroke-linecap:butt;stroke-linejoin:round;stroke-miterlimit:10;stroke-dasharray:none"
         d="m 293,110.668 0,1045.992" /></g></g><g
     id="g148"><g
       clip-path="url(#clipPath152)"
       id="g150"><path
         id="path156"
         style="fill:none;stroke:#0100ff;stroke-opacity:1;stroke-width:2.08333;stroke-linecap:butt;stroke-linejoin:round;stroke-miterlimit:10;stroke-dasharray:none"
         d="m 313,272.668 20,6 20,7 21,6 20,5 20,5 20,3 21,0 20,-3 20,-7 20,-12 21,-15 20,-17 20,-17 21,-9 20,55 20,103 20,-8 21,-3 20,55 20,24 20,18 21,22 20,27 20,27 20,15 21,23 20,21 20,24 21,19 20,19 20,24 20,20 21,18.996 20,20 20,21 20,19 21,15 20,26 20,20 20,19 21,20 20,19 20,19 21,17 20,18 20,29 20,16.996 21,18 20,19" /></g></g><g
     id="g158"><g
       clip-path="url(#clipPath162)"
       id="g160"><g
         transform="scale(4.16667,4.16667)"
         id="g166"><text
   style="font-size:12px"
   y="-292.94342"
   x="63.341217"
   id="text168"
   transform="scale(1,-1)"><tspan
     id="tspan170"
     sodipodi:role="line"
     y="-292.94342"
     x="63.341217"
     style="font-size:20px;font-variant:normal;font-weight:normal;writing-mode:lr-tb;fill:#000000;fill-opacity:1;fill-rule:nonzero;stroke:none;font-family:Times New Roman;-inkscape-font-specification:Times New Roman">varying orbit around the best position</tspan></text>

<text
   id="text188"
   transform="matrix(0,1,1,0,18.72,159.76)"><tspan
     id="tspan190"
     y="0"
     x="0"
     style="fill:#000000;fill-opacity:1;fill-rule:nonzero;stroke:none;font-family:mwa_cmex10;font-variant:normal;font-weight:normal;font-size:20;writing-mode:lr;-inkscape-font-specification:mwa_cmex10" /></text>

</g></g></g></g><text
   transform="matrix(0.8,0,0,-0.8,0,310)"
   sodipodi:linespacing="125%"
   id="text3520"
   y="238.30721"
   x="20.318085"
   style="font-size:32px;font-style:normal;font-variant:normal;font-weight:normal;font-stretch:normal;text-align:center;line-height:125%;letter-spacing:0px;word-spacing:0px;text-anchor:middle;fill:#000000;fill-opacity:1;stroke:none;font-family:Times New Roman;-inkscape-font-specification:Times New Roman"
   xml:space="preserve"><tspan
     id="tspan3522"
     sodipodi:role="line" /></text>

<text
   transform="scale(1,-1)"
   sodipodi:linespacing="125%"
   id="text3564"
   y="23.220657"
   x="214.09456"
   style="font-size:25.60000038px;font-style:normal;font-variant:normal;font-weight:normal;font-stretch:normal;text-align:center;line-height:125%;letter-spacing:0px;word-spacing:0px;text-anchor:middle;fill:#000000;fill-opacity:1;stroke:none;font-family:Times New Roman;-inkscape-font-specification:Times New Roman"
   xml:space="preserve"><tspan
     y="23.220657"
     x="214.09456"
     id="tspan3566"
     sodipodi:role="line"># orbit</tspan></text>

<g
   ns0:preamble="C:\\Users\\Fjafjan\\Documents\\GitHub\\Report\\Images\\preamble.ini"
   ns0:text="$|n_z - \\widetilde{n_z}|$"
   word-spacing="normal"
   letter-spacing="normal"
   font-size-adjust="none"
   font-stretch="normal"
   font-weight="normal"
   font-variant="normal"
   font-style="normal"
   stroke-miterlimit="10.433"
   xml:space="preserve"
   transform="matrix(0,2.2730629,-2.2730629,0,1627.0159,-403.43775)"
   id="content"
   style="font-style:normal;font-variant:normal;font-weight:normal;font-stretch:normal;letter-spacing:normal;word-spacing:normal;text-anchor:start;fill:none;stroke:#000000;stroke-linecap:butt;stroke-linejoin:miter;stroke-miterlimit:10.43299961;stroke-opacity:1;stroke-dasharray:none;stroke-dashoffset:0">
<path
   id="path3680"
   d="m 225.01,714.22 0,0.03 0,0.03 0,0.04 0,0.01 0,0.02 0,0.01 0,0.02 0,0.02 -0.01,0.01 0,0.01 0,0.02 -0.01,0.01 0,0.01 -0.01,0.02 0,0.01 -0.01,0.01 0,0.01 -0.01,0.01 -0.01,0.01 -0.01,0.01 -0.01,0 -0.01,0.01 -0.01,0 0,0.01 -0.01,0 -0.01,0 0,0 -0.01,0.01 -0.01,0 0,0 -0.01,0 -0.01,0 -0.01,0 -0.01,0 -0.01,0 0,0.01 c -0.2,0 -0.2,-0.18 -0.2,-0.36 V 705 c 0,-0.18 0,-0.36 0.2,-0.36 0.19,0 0.19,0.18 0.19,0.36 z"
   inkscape:connector-curvature="0"
   style="fill:#000000;stroke-width:0" />
<path
   id="path3682"
   d="m 227.08,707.71 -0.01,-0.01 0,-0.02 0,-0.01 -0.01,-0.02 0,-0.03 -0.01,-0.03 -0.01,-0.03 -0.01,-0.04 0,-0.03 -0.01,-0.03 0,-0.01 -0.01,-0.02 0,-0.01 0,-0.02 -0.01,-0.01 0,-0.01 0,-0.02 0,-0.01 -0.01,-0.01 0,-0.01 0,-0.01 0,-0.01 0,-0.01 0,0 0,-0.01 0,-0.01 c 0,-0.18 0.14,-0.26 0.28,-0.26 0.12,0 0.3,0.07 0.37,0.27 0.01,0.02 0.13,0.49 0.19,0.74 l 0.22,0.89 c 0.06,0.22 0.12,0.44 0.17,0.67 0.04,0.17 0.12,0.46 0.13,0.5 0.15,0.3 0.68,1.21 1.62,1.21 0.45,0 0.54,-0.37 0.54,-0.7 0,-0.61 -0.49,-1.89 -0.65,-2.31 -0.09,-0.23 -0.1,-0.35 -0.1,-0.46 0,-0.47 0.35,-0.81 0.82,-0.81 0.93,0 1.3,1.45 1.3,1.53 0,0.1 -0.09,0.1 -0.12,0.1 -0.1,0 -0.1,-0.04 -0.15,-0.18 -0.2,-0.68 -0.52,-1.24 -1.01,-1.24 -0.17,0 -0.24,0.1 -0.24,0.33 0,0.25 0.09,0.49 0.18,0.71 0.19,0.52 0.61,1.62 0.61,2.18 0,0.67 -0.43,1.07 -1.15,1.07 -0.9,0 -1.38,-0.64 -1.55,-0.87 -0.05,0.56 -0.46,0.87 -0.92,0.87 -0.45,0 -0.64,-0.39 -0.74,-0.57 -0.16,-0.34 -0.3,-0.92 -0.3,-0.96 0,-0.1 0.1,-0.1 0.12,-0.1 0.1,0 0.11,0.01 0.17,0.22 0.17,0.71 0.37,1.19 0.72,1.19 0.2,0 0.31,-0.13 0.31,-0.46 0,-0.21 -0.03,-0.32 -0.16,-0.83 z"
   inkscape:connector-curvature="0"
   style="fill:#000000;stroke-width:0" />
<path
   id="path3684"
   d="m 233.35,706.24 0.03,0.04 0.04,0.03 0.03,0.03 0.03,0.04 0.04,0.03 0.02,0.02 0.02,0.02 0.02,0.02 0.02,0.02 0.02,0.02 0.02,0.02 0.03,0.02 0.02,0.02 0.03,0.03 0.03,0.02 0.03,0.03 0.03,0.02 0.04,0.03 0.03,0.03 0.04,0.03 0.04,0.04 0.04,0.03 0.05,0.04 0.04,0.03 0.05,0.04 0.05,0.05 0.06,0.04 c 0.14,0.12 0.67,0.53 0.87,0.73 0.42,0.42 0.69,0.77 0.69,0.85 0,0.09 -0.09,0.09 -0.12,0.09 -0.06,0 -0.08,-0.02 -0.12,-0.07 -0.22,-0.32 -0.36,-0.43 -0.53,-0.43 -0.08,0 -0.19,0.01 -0.4,0.21 -0.23,0.24 -0.39,0.29 -0.55,0.29 -0.55,0 -0.93,-0.61 -0.93,-0.82 0,-0.06 0.07,-0.08 0.12,-0.08 0.08,0 0.1,0.02 0.12,0.1 0.11,0.24 0.5,0.26 0.61,0.26 0.16,0 0.34,-0.05 0.44,-0.07 0.38,-0.08 0.43,-0.08 0.6,-0.08 -0.18,-0.19 -0.3,-0.31 -0.96,-0.84 -0.55,-0.43 -0.73,-0.61 -0.87,-0.75 -0.41,-0.41 -0.62,-0.71 -0.62,-0.77 0,-0.09 0.09,-0.09 0.12,-0.09 0.07,0 0.09,0.02 0.12,0.07 0.19,0.27 0.4,0.42 0.64,0.42 0.09,0 0.19,0 0.38,-0.18 0.21,-0.2 0.35,-0.31 0.57,-0.31 0.75,0 1.22,0.84 1.22,1.08 0,0.08 -0.08,0.09 -0.12,0.09 -0.08,0 -0.1,-0.03 -0.13,-0.11 -0.13,-0.35 -0.54,-0.52 -0.88,-0.52 -0.16,0 -0.34,0.04 -0.51,0.08 -0.32,0.07 -0.38,0.07 -0.5,0.07 -0.02,0 -0.12,0 -0.16,-0.01 z"
   inkscape:connector-curvature="0"
   style="fill:#000000;stroke-width:0" />
<path
   id="path3686"
   d="m 245.54,709.41 0.03,0 0.03,0 0.04,0 0.01,0 0.02,0 0.01,0 0.02,0.01 0.01,0 0.02,0 0.01,0 0.01,0.01 0.02,0 0.01,0 0.01,0.01 0.01,0.01 0.01,0 0.01,0.01 0.01,0.01 0.01,0 0.01,0.01 0.01,0.01 0,0.01 0.01,0 0,0.01 0,0.01 0,0 0.01,0.01 0,0.01 0,0 0,0.01 0,0.01 0.01,0.01 0,0 0,0.01 0,0.01 0,0.01 0,0.01 c 0,0.2 -0.18,0.2 -0.35,0.2 h -5.38 c -0.17,0 -0.35,0 -0.35,-0.2 0,-0.2 0.18,-0.2 0.35,-0.2 z"
   inkscape:connector-curvature="0"
   style="fill:#000000;stroke-width:0" />
<path
   id="path3688"
   d="m 259.09,714.58 -0.03,-0.02 -0.03,-0.02 -0.05,-0.02 -0.04,-0.02 -0.06,-0.03 -0.06,-0.03 -0.06,-0.03 -0.07,-0.03 -0.08,-0.03 -0.08,-0.04 -0.08,-0.04 -0.09,-0.03 -0.09,-0.04 -0.1,-0.04 -0.1,-0.04 -0.1,-0.03 -0.1,-0.04 -0.11,-0.04 -0.11,-0.03 -0.12,-0.04 -0.11,-0.03 -0.12,-0.03 -0.11,-0.03 -0.12,-0.03 -0.12,-0.03 -0.12,-0.02 -0.12,-0.02 -0.12,-0.02 -0.13,-0.01 -0.12,-0.01 -0.12,-0.01 -0.11,0 c -0.73,0 -1.17,0.18 -1.85,0.48 -0.48,0.2 -0.97,0.4 -1.66,0.4 -1.16,0 -2.31,-0.56 -3.35,-1.06 l 0.1,-0.2 c 0.27,0.14 1.72,0.88 2.98,0.88 0.73,0 1.17,-0.18 1.85,-0.48 0.48,-0.2 0.97,-0.4 1.66,-0.4 1.16,0 2.31,0.56 3.35,1.06 z"
   inkscape:connector-curvature="0"
   style="fill:#000000;stroke-width:0" />
<path
   id="path3690"
   d="m 249.82,707.71 0,-0.01 0,-0.02 -0.01,-0.01 0,-0.02 -0.01,-0.03 0,-0.03 -0.01,-0.03 -0.01,-0.04 -0.01,-0.03 0,-0.03 -0.01,-0.01 0,-0.02 0,-0.01 -0.01,-0.02 0,-0.01 0,-0.01 -0.01,-0.02 0,-0.01 0,-0.01 0,-0.01 0,-0.01 -0.01,-0.01 0,-0.01 0,0 0,-0.01 0,-0.01 c 0,-0.18 0.14,-0.26 0.29,-0.26 0.12,0 0.3,0.07 0.37,0.27 0.01,0.02 0.13,0.49 0.19,0.74 l 0.22,0.89 c 0.06,0.22 0.12,0.44 0.17,0.67 0.04,0.17 0.12,0.46 0.13,0.5 0.14,0.3 0.67,1.21 1.62,1.21 0.44,0 0.53,-0.37 0.53,-0.7 0,-0.61 -0.48,-1.89 -0.64,-2.31 -0.09,-0.23 -0.1,-0.35 -0.1,-0.46 0,-0.47 0.35,-0.81 0.81,-0.81 0.94,0 1.31,1.45 1.31,1.53 0,0.1 -0.09,0.1 -0.12,0.1 -0.1,0 -0.1,-0.04 -0.15,-0.18 -0.2,-0.68 -0.53,-1.24 -1.02,-1.24 -0.17,0 -0.24,0.1 -0.24,0.33 0,0.25 0.09,0.49 0.18,0.71 0.19,0.52 0.61,1.62 0.61,2.18 0,0.67 -0.43,1.07 -1.14,1.07 -0.9,0 -1.39,-0.64 -1.56,-0.87 -0.04,0.56 -0.45,0.87 -0.91,0.87 -0.46,0 -0.65,-0.39 -0.75,-0.57 -0.16,-0.34 -0.29,-0.92 -0.29,-0.96 0,-0.1 0.09,-0.1 0.11,-0.1 0.1,0 0.11,0.01 0.17,0.22 0.17,0.71 0.37,1.19 0.73,1.19 0.2,0 0.31,-0.13 0.31,-0.46 0,-0.21 -0.03,-0.32 -0.16,-0.83 z"
   inkscape:connector-curvature="0"
   style="fill:#000000;stroke-width:0" />
<path
   id="path3692"
   d="m 256.1,706.24 0.03,0.04 0.03,0.03 0.04,0.03 0.03,0.04 0.04,0.03 0.01,0.02 0.02,0.02 0.02,0.02 0.03,0.02 0.02,0.02 0.02,0.02 0.03,0.02 0.02,0.02 0.03,0.03 0.03,0.02 0.03,0.03 0.03,0.02 0.03,0.03 0.04,0.03 0.04,0.03 0.04,0.04 0.04,0.03 0.04,0.04 0.05,0.03 0.05,0.04 0.05,0.05 0.05,0.04 c 0.15,0.12 0.67,0.53 0.87,0.73 0.43,0.42 0.69,0.77 0.69,0.85 0,0.09 -0.09,0.09 -0.11,0.09 -0.07,0 -0.09,-0.02 -0.12,-0.07 -0.22,-0.32 -0.36,-0.43 -0.53,-0.43 -0.09,0 -0.19,0.01 -0.4,0.21 -0.24,0.24 -0.39,0.29 -0.55,0.29 -0.56,0 -0.93,-0.61 -0.93,-0.82 0,-0.06 0.07,-0.08 0.12,-0.08 0.08,0 0.09,0.02 0.12,0.1 0.11,0.24 0.5,0.26 0.61,0.26 0.16,0 0.34,-0.05 0.44,-0.07 0.38,-0.08 0.43,-0.08 0.6,-0.08 -0.18,-0.19 -0.3,-0.31 -0.97,-0.84 -0.54,-0.43 -0.73,-0.61 -0.86,-0.75 -0.42,-0.41 -0.62,-0.71 -0.62,-0.77 0,-0.09 0.09,-0.09 0.12,-0.09 0.07,0 0.08,0.02 0.12,0.07 0.19,0.27 0.4,0.42 0.64,0.42 0.08,0 0.19,0 0.37,-0.18 0.22,-0.2 0.36,-0.31 0.58,-0.31 0.75,0 1.21,0.84 1.21,1.08 0,0.08 -0.07,0.09 -0.11,0.09 -0.09,0 -0.1,-0.03 -0.13,-0.11 -0.13,-0.35 -0.54,-0.52 -0.88,-0.52 -0.16,0 -0.34,0.04 -0.51,0.08 -0.32,0.07 -0.38,0.07 -0.5,0.07 -0.02,0 -0.12,0 -0.16,-0.01 z"
   inkscape:connector-curvature="0"
   style="fill:#000000;stroke-width:0" />
<path
   id="path3694"
   d="m 261.1,714.22 0,0.03 0,0.03 0,0.04 0,0.01 0,0.02 -0.01,0.01 0,0.02 0,0.02 0,0.01 0,0.01 -0.01,0.02 0,0.01 -0.01,0.01 0,0.02 -0.01,0.01 0,0.01 -0.01,0.01 -0.01,0.01 -0.01,0.01 0,0.01 -0.01,0 -0.02,0.01 0,0 -0.01,0.01 0,0 -0.01,0 -0.01,0 0,0.01 -0.01,0 -0.01,0 -0.01,0 0,0 -0.01,0 -0.01,0 -0.01,0 -0.01,0.01 c -0.2,0 -0.2,-0.18 -0.2,-0.36 V 705 c 0,-0.18 0,-0.36 0.2,-0.36 0.2,0 0.2,0.18 0.2,0.36 z"
   inkscape:connector-curvature="0"
   style="fill:#000000;stroke-width:0" />
</g>
</g></svg>