<?xml version="1.0" encoding="UTF-8" standalone="no"?>
<!-- Created with Inkscape (http://www.inkscape.org/) -->

<svg
   xmlns:dc="http://purl.org/dc/elements/1.1/"
   xmlns:cc="http://creativecommons.org/ns#"
   xmlns:rdf="http://www.w3.org/1999/02/22-rdf-syntax-ns#"
   xmlns:svg="http://www.w3.org/2000/svg"
   xmlns="http://www.w3.org/2000/svg"
   xmlns:sodipodi="http://sodipodi.sourceforge.net/DTD/sodipodi-0.dtd"
   xmlns:inkscape="http://www.inkscape.org/namespaces/inkscape"
   id="svg2"
   version="1.1"
   inkscape:version="0.48.4 r9939"
   width="1051.101"
   height="598.251"
   xml:space="preserve"
   sodipodi:docname="October_11_Particle_2_run_2_B.pdf"><metadata
     id="metadata8"><rdf:RDF><cc:Work
         rdf:about=""><dc:format>image/svg+xml</dc:format><dc:type
           rdf:resource="http://purl.org/dc/dcmitype/StillImage" /><dc:title></dc:title></cc:Work></rdf:RDF></metadata><defs
     id="defs6"><clipPath
       clipPathUnits="userSpaceOnUse"
       id="clipPath18"><path
         d="M 0,0 841,0 841,479 0,479 0,0 z"
         id="path20" /></clipPath><clipPath
       clipPathUnits="userSpaceOnUse"
       id="clipPath158"><path
         d="m 59.039,445.679 772.082,0 0,-169.918 -772.082,0 0,169.918 z"
         id="path160" /></clipPath><clipPath
       clipPathUnits="userSpaceOnUse"
       id="clipPath166"><path
         d="M 0,0 841,0 841,479 0,479 0,0 z"
         id="path168" /></clipPath><clipPath
       clipPathUnits="userSpaceOnUse"
       id="clipPath202"><path
         d="M 0,0 841,0 841,479 0,479 0,0 z"
         id="path204" /></clipPath><clipPath
       clipPathUnits="userSpaceOnUse"
       id="clipPath364"><path
         d="m 59.281,209.519 772.078,0 0,-169.68 -772.078,0 0,169.68 z"
         id="path366" /></clipPath><clipPath
       clipPathUnits="userSpaceOnUse"
       id="clipPath372"><path
         d="M 0,0 841,0 841,479 0,479 0,0 z"
         id="path374" /></clipPath><clipPath
       clipPathUnits="userSpaceOnUse"
       id="clipPath428"><path
         d="M 0,0 841,0 841,479 0,479 0,0 z"
         id="path430" /></clipPath></defs><sodipodi:namedview
     pagecolor="#ffffff"
     bordercolor="#666666"
     borderopacity="1"
     objecttolerance="10"
     gridtolerance="10"
     guidetolerance="10"
     inkscape:pageopacity="0"
     inkscape:pageshadow="2"
     inkscape:window-width="640"
     inkscape:window-height="480"
     id="namedview4"
     showgrid="false"
     inkscape:zoom="0.39448327"
     inkscape:cx="529.79276"
     inkscape:cy="344.69832"
     inkscape:window-x="0"
     inkscape:window-y="0"
     inkscape:window-maximized="0"
     inkscape:current-layer="g10" /><g
     id="g10"
     inkscape:groupmode="layer"
     inkscape:label="October_11_Particle_2_run_2_B"
     transform="matrix(1.25,0,0,-1.25,0,598.251)"><g
       id="g12"><g
         id="g14"
         transform="translate(0,-0.3992)"><g
           id="g16" /><g
           id="g22"><g
             clip-path="url(#clipPath18)"
             id="g24"><g
               id="g26"><path
                 d="m 0,479 840.879,0 0,-478.602 L 0,0.398 0,479 z"
                 style="fill:#ffffff;fill-opacity:1;fill-rule:nonzero;stroke:none"
                 id="path28" /><path
                 d="m 59.039,446.32 772.082,0 0,-169.922 -772.082,0 0,169.922 z"
                 style="fill:#ffffff;fill-opacity:1;fill-rule:evenodd;stroke:none"
                 id="path30" /><g
                 transform="translate(0,479)"
                 id="g32"><path
                   d="m 59.039,-202.602 0,169.922 772.082,0 0,-169.922 -772.082,0"
                   style="fill:none;stroke:#ffffff;stroke-opacity:1;stroke-width:0.499999;stroke-linecap:butt;stroke-linejoin:round;stroke-miterlimit:10;stroke-dasharray:none"
                   id="path34" /></g><g
                 transform="translate(0,479)"
                 id="g36"><path
                   d="m 59.039,-202.602 772.082,0"
                   style="fill:none;stroke:#000000;stroke-opacity:1;stroke-width:0.499999;stroke-linecap:butt;stroke-linejoin:round;stroke-miterlimit:10;stroke-dasharray:none"
                   id="path38" /></g><g
                 transform="translate(0,479)"
                 id="g40"><path
                   d="m 59.039,-202.602 0,169.922"
                   style="fill:none;stroke:#000000;stroke-opacity:1;stroke-width:0.499999;stroke-linecap:butt;stroke-linejoin:round;stroke-miterlimit:10;stroke-dasharray:none"
                   id="path42" /></g><g
                 transform="translate(0,479)"
                 id="g44"><path
                   d="m 101.762,-202.602 0,7.922"
                   style="fill:none;stroke:#000000;stroke-opacity:1;stroke-width:0.499999;stroke-linecap:butt;stroke-linejoin:round;stroke-miterlimit:10;stroke-dasharray:none"
                   id="path46" /></g><text
                 transform="matrix(1,0,0,-1,92.880087,258.63973)"
                 id="text48"><tspan
                   style="fill:#000000;fill-opacity:1;fill-rule:nonzero;stroke:none;font-family:Arial;font-variant:normal;font-weight:normal;font-size:16.000013;writing-mode:lr;-inkscape-font-specification:ArialMT"
                   x="0 8.89600723"
                   y="0"
                   sodipodi:role="line"
                   id="tspan50">50</tspan></text>
<g
                 transform="translate(0,479)"
                 id="g52"><path
                   d="m 237.602,-202.602 0,7.922"
                   style="fill:none;stroke:#000000;stroke-opacity:1;stroke-width:0.499999;stroke-linecap:butt;stroke-linejoin:round;stroke-miterlimit:10;stroke-dasharray:none"
                   id="path54" /></g><text
                 transform="matrix(1,0,0,-1,224.40049,258.63973)"
                 id="text56"><tspan
                   style="fill:#000000;fill-opacity:1;fill-rule:nonzero;stroke:none;font-family:Arial;font-variant:normal;font-weight:normal;font-size:16.000013;writing-mode:lr;-inkscape-font-specification:ArialMT"
                   x="0 8.89600723 17.79201446"
                   y="0"
                   sodipodi:role="line"
                   id="tspan58">100</tspan></text>
<g
                 transform="translate(0,479)"
                 id="g60"><path
                   d="m 373.441,-202.602 0,7.922"
                   style="fill:none;stroke:#000000;stroke-opacity:1;stroke-width:0.499999;stroke-linecap:butt;stroke-linejoin:round;stroke-miterlimit:10;stroke-dasharray:none"
                   id="path62" /></g><text
                 transform="matrix(1,0,0,-1,360.2406,258.63973)"
                 id="text64"><tspan
                   style="fill:#000000;fill-opacity:1;fill-rule:nonzero;stroke:none;font-family:Arial;font-variant:normal;font-weight:normal;font-size:16.000013;writing-mode:lr;-inkscape-font-specification:ArialMT"
                   x="0 8.89600723 17.79201446"
                   y="0"
                   sodipodi:role="line"
                   id="tspan66">150</tspan></text>
<g
                 transform="translate(0,479)"
                 id="g68"><path
                   d="m 509.039,-202.602 0,7.922"
                   style="fill:none;stroke:#000000;stroke-opacity:1;stroke-width:0.499999;stroke-linecap:butt;stroke-linejoin:round;stroke-miterlimit:10;stroke-dasharray:none"
                   id="path70" /></g><text
                 transform="matrix(1,0,0,-1,495.84071,258.63973)"
                 id="text72"><tspan
                   style="fill:#000000;fill-opacity:1;fill-rule:nonzero;stroke:none;font-family:Arial;font-variant:normal;font-weight:normal;font-size:16.000013;writing-mode:lr;-inkscape-font-specification:ArialMT"
                   x="0 8.89600723 17.79201446"
                   y="0"
                   sodipodi:role="line"
                   id="tspan74">200</tspan></text>
<g
                 transform="translate(0,479)"
                 id="g76"><path
                   d="m 644.879,-202.602 0,7.922"
                   style="fill:none;stroke:#000000;stroke-opacity:1;stroke-width:0.499999;stroke-linecap:butt;stroke-linejoin:round;stroke-miterlimit:10;stroke-dasharray:none"
                   id="path78" /></g><text
                 transform="matrix(1,0,0,-1,631.68082,258.63973)"
                 id="text80"><tspan
                   style="fill:#000000;fill-opacity:1;fill-rule:nonzero;stroke:none;font-family:Arial;font-variant:normal;font-weight:normal;font-size:16.000013;writing-mode:lr;-inkscape-font-specification:ArialMT"
                   x="0 8.89600723 17.79201446"
                   y="0"
                   sodipodi:role="line"
                   id="tspan82">250</tspan></text>
<g
                 transform="translate(0,479)"
                 id="g84"><path
                   d="m 780.48,-202.602 0,7.922"
                   style="fill:none;stroke:#000000;stroke-opacity:1;stroke-width:0.499999;stroke-linecap:butt;stroke-linejoin:round;stroke-miterlimit:10;stroke-dasharray:none"
                   id="path86" /></g><text
                 transform="matrix(1,0,0,-1,767.28093,258.63973)"
                 id="text88"><tspan
                   style="fill:#000000;fill-opacity:1;fill-rule:nonzero;stroke:none;font-family:Arial;font-variant:normal;font-weight:normal;font-size:16.000013;writing-mode:lr;-inkscape-font-specification:ArialMT"
                   x="0 8.89600723 17.79201446"
                   y="0"
                   sodipodi:role="line"
                   id="tspan90">300</tspan></text>
<g
                 transform="translate(0,479)"
                 id="g92"><path
                   d="m 59.039,-169.242 7.922,0"
                   style="fill:none;stroke:#000000;stroke-opacity:1;stroke-width:0.499999;stroke-linecap:butt;stroke-linejoin:round;stroke-miterlimit:10;stroke-dasharray:none"
                   id="path94" /></g><text
                 transform="matrix(1,0,0,-1,25.440033,303.99976)"
                 id="text96"><tspan
                   style="fill:#000000;fill-opacity:1;fill-rule:nonzero;stroke:none;font-family:Arial;font-variant:normal;font-weight:normal;font-size:16.000013;writing-mode:lr;-inkscape-font-specification:ArialMT"
                   x="0 8.89600723 13.32801083 22.22401806"
                   y="0"
                   sodipodi:role="line"
                   id="tspan98">0.95</tspan></text>
<g
                 transform="translate(0,479)"
                 id="g100"><path
                   d="m 59.039,-124.84 7.922,0"
                   style="fill:none;stroke:#000000;stroke-opacity:1;stroke-width:0.499999;stroke-linecap:butt;stroke-linejoin:round;stroke-miterlimit:10;stroke-dasharray:none"
                   id="path102" /></g><text
                 transform="matrix(1,0,0,-1,47.520051,348.3998)"
                 id="text104"><tspan
                   style="fill:#000000;fill-opacity:1;fill-rule:nonzero;stroke:none;font-family:Arial;font-variant:normal;font-weight:normal;font-size:16.000013;writing-mode:lr;-inkscape-font-specification:ArialMT"
                   x="0"
                   y="0"
                   id="tspan106">1</tspan></text>
<g
                 transform="translate(0,479)"
                 id="g108"><path
                   d="m 59.039,-80.203 7.922,0"
                   style="fill:none;stroke:#000000;stroke-opacity:1;stroke-width:0.499999;stroke-linecap:butt;stroke-linejoin:round;stroke-miterlimit:10;stroke-dasharray:none"
                   id="path110" /></g><text
                 transform="matrix(1,0,0,-1,25.440033,393.03983)"
                 id="text112"><tspan
                   style="fill:#000000;fill-opacity:1;fill-rule:nonzero;stroke:none;font-family:Arial;font-variant:normal;font-weight:normal;font-size:16.000013;writing-mode:lr;-inkscape-font-specification:ArialMT"
                   x="0 8.89600723 13.32801083 22.22401806"
                   y="0"
                   sodipodi:role="line"
                   id="tspan114">1.05</tspan></text>
<g
                 transform="translate(0,479)"
                 id="g116"><path
                   d="m 59.039,-35.801 7.922,0"
                   style="fill:none;stroke:#000000;stroke-opacity:1;stroke-width:0.499999;stroke-linecap:butt;stroke-linejoin:round;stroke-miterlimit:10;stroke-dasharray:none"
                   id="path118" /></g><text
                 transform="matrix(1,0,0,-1,34.32004,437.43987)"
                 id="text120"><tspan
                   style="fill:#000000;fill-opacity:1;fill-rule:nonzero;stroke:none;font-family:Arial;font-variant:normal;font-weight:normal;font-size:16.000013;writing-mode:lr;-inkscape-font-specification:ArialMT"
                   x="0 8.89600723 13.32801083"
                   y="0"
                   sodipodi:role="line"
                   id="tspan122">1.1</tspan><tspan
                   style="fill:#000000;fill-opacity:1;fill-rule:nonzero;stroke:none;font-family:Arial;font-variant:normal;font-weight:normal;font-size:16.000013;writing-mode:lr;-inkscape-font-specification:ArialMT"
                   x="24.72002008 32.72002658 37.15203019 46.04803741"
                   y="-12.960011"
                   sodipodi:role="line"
                   id="tspan124">xu10</tspan></text>
<text
                 transform="matrix(1,0,0,-1,89.280084,460.23989)"
                 id="text126"><tspan
                   style="fill:#000000;fill-opacity:1;fill-rule:nonzero;stroke:none;font-family:Arial;font-variant:normal;font-weight:normal;font-size:10.666609;writing-mode:lr;-inkscape-font-specification:ArialMT"
                   x="0"
                   y="0"
                   id="tspan128">−</tspan></text>
<text
                 transform="matrix(1,0,0,-1,95.498717,460.23989)"
                 id="text130"><tspan
                   style="fill:#000000;fill-opacity:1;fill-rule:nonzero;stroke:none;font-family:Arial;font-variant:normal;font-weight:normal;font-size:10.666609;writing-mode:lr;-inkscape-font-specification:ArialMT"
                   x="0"
                   y="0"
                   id="tspan132">3</tspan></text>
<text
                 transform="matrix(1,0,0,-1,302.64026,458.55989)"
                 id="text134"><tspan
                   style="font-size:16.00001335px;font-variant:normal;font-weight:normal;writing-mode:lr-tb;fill:#000000;fill-opacity:1;fill-rule:nonzero;stroke:none;font-family:Arial;-inkscape-font-specification:ArialMT"
                   x="0 10.656009 18.656015 23.088018 26.640022 39.968033 48.86404 53.296043 56.848045 65.744057 79.072067 87.968071 96.832077 105.72809 111.05609 114.60809 119.0401 127.90411 131.4561 144.78412"
                   y="0"
                   sodipodi:role="line"
                   id="tspan136">Estimationofdriftin<tspan
   style="font-style:italic"
   id="tspan3425">y</tspan></tspan></text>
<text
                 transform="matrix(1,0,0,-1,455.42438,458.55989)"
                 id="text138"><tspan
                   style="fill:#000000;fill-opacity:1;fill-rule:nonzero;stroke:none;font-family:Arial;font-variant:normal;font-weight:normal;font-size:16.000013;writing-mode:lr;-inkscape-font-specification:ArialMT"
                   x="0"
                   y="0"
                   id="tspan140">−</tspan></text>
<text
                 transform="matrix(1,0,0,-1,464.75239,458.55989)"
                 id="text142"><tspan
                   style="font-size:16.00001335px;font-variant:normal;font-weight:normal;writing-mode:lr-tb;fill:#000000;fill-opacity:1;fill-rule:nonzero;stroke:none;font-family:Arial;-inkscape-font-specification:ArialMT"
                   x="4.4320035 13.328011 22.224018 35.552029"
                   sodipodi:role="line"
                   id="tspan144">and<tspan
   style="font-style:italic"
   id="tspan3427">z</tspan></tspan></text>
<text
                 transform="matrix(1,0,0,-1,508.30442,458.55989)"
                 id="text146"><tspan
                   style="fill:#000000;fill-opacity:1;fill-rule:nonzero;stroke:none;font-family:Arial;font-variant:normal;font-weight:normal;font-size:16.000013;writing-mode:lr;-inkscape-font-specification:ArialMT"
                   x="0"
                   y="0"
                   id="tspan148">−</tspan></text>
<text
                 transform="matrix(1,0,0,-1,517.63243,458.55989)"
                 id="text150"><tspan
                   style="fill:#000000;fill-opacity:1;fill-rule:nonzero;stroke:none;font-family:Arial;font-variant:normal;font-weight:normal;font-size:16.000013;writing-mode:lr;-inkscape-font-specification:ArialMT"
                   x="0 8.89600723 12.44801011 17.77601444 26.67202167 34.67202817 39.10403177 42.65603466 51.55204189 60.44804911"
                   y="0"
                   sodipodi:role="line"
                   id="tspan152">directions</tspan></text>
</g></g></g></g></g><g
       id="g154"><g
         id="g156"
         clip-path="url(#clipPath158)"><g
           id="g162"
           transform="translate(0,-0.3992)"><g
             id="g164" /><g
             id="g170"><g
               clip-path="url(#clipPath166)"
               id="g172"><g
                 id="g174"><g
                   transform="translate(0,479)"
                   id="g176"><path
                     d="m 59.039,-156.762 10.801,9.602 8.879,20.879 7.922,-9.36 6.718,-62.879 6.961,68.399 6.239,-72.481 6.722,47.039 6.481,13.922 6.476,-1.679 6.242,-30.961 6.481,25.922 6.48,-16.801 7.2,43.918 6.961,-24.238 7.437,5.519 8.883,4.801 13.437,-9.602"
                     style="fill:none;stroke:#0100ff;stroke-opacity:1;stroke-width:0.499999;stroke-linecap:butt;stroke-linejoin:round;stroke-miterlimit:10;stroke-dasharray:none"
                     id="path178" /></g><g
                   transform="translate(0,479)"
                   id="g180"><path
                     d="m 273.598,-112.359 56.16,-45.364 33.84,-23.277 22.082,15.84 17.519,19.918 14.399,5.762 12.48,0.96 10.801,-10.082 10.082,8.879 9.359,18 8.879,-36.718 8.399,16.082 8.402,34.558 8.641,6 10.32,-20.879 21.117,-19.203"
                     style="fill:none;stroke:#ff0000;stroke-opacity:1;stroke-width:0.499999;stroke-linecap:butt;stroke-linejoin:round;stroke-miterlimit:10;stroke-dasharray:none"
                     id="path182" /></g><g
                   transform="translate(0,479)"
                   id="g184"><path
                     d="m 189.359,-144.762 84.239,32.403"
                     style="fill:none;stroke:#0100ff;stroke-opacity:1;stroke-width:0.499999;stroke-linecap:butt;stroke-linejoin:round;stroke-miterlimit:10;stroke-dasharray:none"
                     id="path186" /></g><g
                   transform="translate(0,479)"
                   id="g188"><path
                     d="m 675.598,-182.68 29.761,84.957 15.602,-51.84 11.277,-24.48 9.121,0.48 8.399,25.204 7.683,-12 6.957,-19.442 7.2,30.719 6.722,-25.199 6.961,40.32 7.199,-10.801 6.961,-19.199 7.438,8.16 8.879,49.918 15.363,72.961"
                     style="fill:none;stroke:#00ff00;stroke-opacity:1;stroke-width:0.499999;stroke-linecap:butt;stroke-linejoin:round;stroke-miterlimit:10;stroke-dasharray:none"
                     id="path190" /></g><g
                   transform="translate(0,479)"
                   id="g192"><path
                     d="m 526.078,-141.883 149.52,-40.797"
                     style="fill:none;stroke:#ff0000;stroke-opacity:1;stroke-width:0.499999;stroke-linecap:butt;stroke-linejoin:round;stroke-miterlimit:10;stroke-dasharray:none"
                     id="path194" /></g></g></g></g></g></g></g><g
       id="g196"><g
         id="g198"
         transform="translate(0,-0.3992)"><g
           id="g200" /><g
           id="g206"><g
             clip-path="url(#clipPath202)"
             id="g208"><g
               id="g210"><text
                 transform="matrix(0,1,1,0,17.040026,338.31979)"
                 id="text212"><tspan
                   style="fill:#000000;fill-opacity:1;fill-rule:nonzero;stroke:none;font-family:Arial;font-variant:normal;font-weight:normal;font-size:16.000013;writing-mode:lr;-inkscape-font-specification:ArialMT"
                   x="0 10.65600866 19.55201589 24.88002021 28.4320231 37.32803033"
                   y="0"
                   sodipodi:role="line"
                   id="tspan214">Period</tspan></text>
<text
                 transform="matrix(1,0,0,-1,416.40065,242.07971)"
                 id="text216"><tspan
                   style="font-size:16.00001335px;font-variant:normal;font-weight:normal;writing-mode:lr-tb;fill:#000000;fill-opacity:1;fill-rule:nonzero;stroke:none;font-family:Arial;-inkscape-font-specification:ArialMT"
                   x="0 9.7600079 13.312011 26.640022 39.968033 44.400036 52.400043"
                   y="0"
                   sodipodi:role="line"
                   id="tspan218">Time[s]</tspan></text>
<path
                 d="m 59.281,209.918 771.598,0 0,-169.438 -771.598,0 0,169.438 z"
                 style="fill:#ffffff;fill-opacity:1;fill-rule:evenodd;stroke:none"
                 id="path220" /><g
                 transform="translate(0,479)"
                 id="g222"><path
                   d="m 59.281,-438.52 0,169.438 771.598,0 0,-169.438 -771.598,0"
                   style="fill:none;stroke:#ffffff;stroke-opacity:1;stroke-width:0.499999;stroke-linecap:butt;stroke-linejoin:round;stroke-miterlimit:10;stroke-dasharray:none"
                   id="path224" /></g><g
                 transform="translate(0,479)"
                 id="g226"><path
                   d="m 59.281,-438.52 771.598,0"
                   style="fill:none;stroke:#000000;stroke-opacity:1;stroke-width:0.499999;stroke-linecap:butt;stroke-linejoin:round;stroke-miterlimit:10;stroke-dasharray:none"
                   id="path228" /></g><g
                 transform="translate(0,479)"
                 id="g230"><path
                   d="m 59.281,-438.52 0,169.438"
                   style="fill:none;stroke:#000000;stroke-opacity:1;stroke-width:0.499999;stroke-linecap:butt;stroke-linejoin:round;stroke-miterlimit:10;stroke-dasharray:none"
                   id="path232" /></g><g
                 transform="translate(0,479)"
                 id="g234"><path
                   d="m 59.281,-438.52 0,7.918"
                   style="fill:none;stroke:#000000;stroke-opacity:1;stroke-width:0.499999;stroke-linecap:butt;stroke-linejoin:round;stroke-miterlimit:10;stroke-dasharray:none"
                   id="path236" /></g><text
                 transform="matrix(1,0,0,-1,54.960057,22.719238)"
                 id="text238"><tspan
                   style="fill:#000000;fill-opacity:1;fill-rule:nonzero;stroke:none;font-family:Arial;font-variant:normal;font-weight:normal;font-size:16.000013;writing-mode:lr;-inkscape-font-specification:ArialMT"
                   x="0"
                   y="0"
                   id="tspan240">0</tspan></text>
<g
                 transform="translate(0,479)"
                 id="g242"><path
                   d="m 135.359,-438.52 0,7.918"
                   style="fill:none;stroke:#000000;stroke-opacity:1;stroke-width:0.499999;stroke-linecap:butt;stroke-linejoin:round;stroke-miterlimit:10;stroke-dasharray:none"
                   id="path244" /></g><text
                 transform="matrix(1,0,0,-1,115.44041,22.719238)"
                 id="text246"><tspan
                   style="fill:#000000;fill-opacity:1;fill-rule:nonzero;stroke:none;font-family:Arial;font-variant:normal;font-weight:normal;font-size:16.000013;writing-mode:lr;-inkscape-font-specification:ArialMT"
                   x="0 8.89600723 13.32801083 22.22401806 31.12002529"
                   y="0"
                   sodipodi:role="line"
                   id="tspan248">0.005</tspan></text>
<g
                 transform="translate(0,479)"
                 id="g250"><path
                   d="m 211.68,-438.52 0,7.918"
                   style="fill:none;stroke:#000000;stroke-opacity:1;stroke-width:0.499999;stroke-linecap:butt;stroke-linejoin:round;stroke-miterlimit:10;stroke-dasharray:none"
                   id="path252" /></g><text
                 transform="matrix(1,0,0,-1,196.32047,22.719238)"
                 id="text254"><tspan
                   style="fill:#000000;fill-opacity:1;fill-rule:nonzero;stroke:none;font-family:Arial;font-variant:normal;font-weight:normal;font-size:16.000013;writing-mode:lr;-inkscape-font-specification:ArialMT"
                   x="0 8.89600723 13.32801083 22.22401806"
                   y="0"
                   sodipodi:role="line"
                   id="tspan256">0.01</tspan></text>
<g
                 transform="translate(0,479)"
                 id="g258"><path
                   d="m 287.758,-438.52 0,7.918"
                   style="fill:none;stroke:#000000;stroke-opacity:1;stroke-width:0.499999;stroke-linecap:butt;stroke-linejoin:round;stroke-miterlimit:10;stroke-dasharray:none"
                   id="path260" /></g><text
                 transform="matrix(1,0,0,-1,267.84053,22.719238)"
                 id="text262"><tspan
                   style="fill:#000000;fill-opacity:1;fill-rule:nonzero;stroke:none;font-family:Arial;font-variant:normal;font-weight:normal;font-size:16.000013;writing-mode:lr;-inkscape-font-specification:ArialMT"
                   x="0 8.89600723 13.32801083 22.22401806 31.12002529"
                   y="0"
                   sodipodi:role="line"
                   id="tspan264">0.015</tspan></text>
<g
                 transform="translate(0,479)"
                 id="g266"><path
                   d="m 364.078,-438.52 0,7.918"
                   style="fill:none;stroke:#000000;stroke-opacity:1;stroke-width:0.499999;stroke-linecap:butt;stroke-linejoin:round;stroke-miterlimit:10;stroke-dasharray:none"
                   id="path268" /></g><text
                 transform="matrix(1,0,0,-1,348.72059,22.719238)"
                 id="text270"><tspan
                   style="fill:#000000;fill-opacity:1;fill-rule:nonzero;stroke:none;font-family:Arial;font-variant:normal;font-weight:normal;font-size:16.000013;writing-mode:lr;-inkscape-font-specification:ArialMT"
                   x="0 8.89600723 13.32801083 22.22401806"
                   y="0"
                   sodipodi:role="line"
                   id="tspan272">0.02</tspan></text>
<g
                 transform="translate(0,479)"
                 id="g274"><path
                   d="m 440.16,-438.52 0,7.918"
                   style="fill:none;stroke:#000000;stroke-opacity:1;stroke-width:0.499999;stroke-linecap:butt;stroke-linejoin:round;stroke-miterlimit:10;stroke-dasharray:none"
                   id="path276" /></g><text
                 transform="matrix(1,0,0,-1,420.24065,22.719238)"
                 id="text278"><tspan
                   style="fill:#000000;fill-opacity:1;fill-rule:nonzero;stroke:none;font-family:Arial;font-variant:normal;font-weight:normal;font-size:16.000013;writing-mode:lr;-inkscape-font-specification:ArialMT"
                   x="0 8.89600723 13.32801083 22.22401806 31.12002529"
                   y="0"
                   sodipodi:role="line"
                   id="tspan280">0.025</tspan></text>
<g
                 transform="translate(0,479)"
                 id="g282"><path
                   d="m 516.48,-438.52 0,7.918"
                   style="fill:none;stroke:#000000;stroke-opacity:1;stroke-width:0.499999;stroke-linecap:butt;stroke-linejoin:round;stroke-miterlimit:10;stroke-dasharray:none"
                   id="path284" /></g><text
                 transform="matrix(1,0,0,-1,501.12071,22.719238)"
                 id="text286"><tspan
                   style="fill:#000000;fill-opacity:1;fill-rule:nonzero;stroke:none;font-family:Arial;font-variant:normal;font-weight:normal;font-size:16.000013;writing-mode:lr;-inkscape-font-specification:ArialMT"
                   x="0 8.89600723 13.32801083 22.22401806"
                   y="0"
                   sodipodi:role="line"
                   id="tspan288">0.03</tspan></text>
<g
                 transform="translate(0,479)"
                 id="g290"><path
                   d="m 592.559,-438.52 0,7.918"
                   style="fill:none;stroke:#000000;stroke-opacity:1;stroke-width:0.499999;stroke-linecap:butt;stroke-linejoin:round;stroke-miterlimit:10;stroke-dasharray:none"
                   id="path292" /></g><text
                 transform="matrix(1,0,0,-1,572.64077,22.719238)"
                 id="text294"><tspan
                   style="fill:#000000;fill-opacity:1;fill-rule:nonzero;stroke:none;font-family:Arial;font-variant:normal;font-weight:normal;font-size:16.000013;writing-mode:lr;-inkscape-font-specification:ArialMT"
                   x="0 8.89600723 13.32801083 22.22401806 31.12002529"
                   y="0"
                   sodipodi:role="line"
                   id="tspan296">0.035</tspan></text>
<g
                 transform="translate(0,479)"
                 id="g298"><path
                   d="m 668.879,-438.52 0,7.918"
                   style="fill:none;stroke:#000000;stroke-opacity:1;stroke-width:0.499999;stroke-linecap:butt;stroke-linejoin:round;stroke-miterlimit:10;stroke-dasharray:none"
                   id="path300" /></g><text
                 transform="matrix(1,0,0,-1,653.52084,22.719238)"
                 id="text302"><tspan
                   style="fill:#000000;fill-opacity:1;fill-rule:nonzero;stroke:none;font-family:Arial;font-variant:normal;font-weight:normal;font-size:16.000013;writing-mode:lr;-inkscape-font-specification:ArialMT"
                   x="0 8.89600723 13.32801083 22.22401806"
                   y="0"
                   sodipodi:role="line"
                   id="tspan304">0.04</tspan></text>
<g
                 transform="translate(0,479)"
                 id="g306"><path
                   d="m 745.199,-438.52 0,7.918"
                   style="fill:none;stroke:#000000;stroke-opacity:1;stroke-width:0.499999;stroke-linecap:butt;stroke-linejoin:round;stroke-miterlimit:10;stroke-dasharray:none"
                   id="path308" /></g><text
                 transform="matrix(1,0,0,-1,725.28089,22.719238)"
                 id="text310"><tspan
                   style="fill:#000000;fill-opacity:1;fill-rule:nonzero;stroke:none;font-family:Arial;font-variant:normal;font-weight:normal;font-size:16.000013;writing-mode:lr;-inkscape-font-specification:ArialMT"
                   x="0 8.89600723 13.32801083 22.22401806 31.12002529"
                   y="0"
                   sodipodi:role="line"
                   id="tspan312">0.045</tspan></text>
<g
                 transform="translate(0,479)"
                 id="g314"><path
                   d="m 821.281,-438.52 0,7.918"
                   style="fill:none;stroke:#000000;stroke-opacity:1;stroke-width:0.499999;stroke-linecap:butt;stroke-linejoin:round;stroke-miterlimit:10;stroke-dasharray:none"
                   id="path316" /></g><text
                 transform="matrix(1,0,0,-1,805.92096,22.719238)"
                 id="text318"><tspan
                   style="fill:#000000;fill-opacity:1;fill-rule:nonzero;stroke:none;font-family:Arial;font-variant:normal;font-weight:normal;font-size:16.000013;writing-mode:lr;-inkscape-font-specification:ArialMT"
                   x="0 8.89600723 13.32801083 22.22401806"
                   y="0"
                   sodipodi:role="line"
                   id="tspan320">0.05</tspan></text>
<g
                 transform="translate(0,479)"
                 id="g322"><path
                   d="m 59.281,-414.281 7.68,0"
                   style="fill:none;stroke:#000000;stroke-opacity:1;stroke-width:0.499999;stroke-linecap:butt;stroke-linejoin:round;stroke-miterlimit:10;stroke-dasharray:none"
                   id="path324" /></g><text
                 transform="matrix(1,0,0,-1,38.160043,58.959267)"
                 id="text326"><tspan
                   style="fill:#000000;fill-opacity:1;fill-rule:nonzero;stroke:none;font-family:Arial;font-variant:normal;font-weight:normal;font-size:16.000013;writing-mode:lr;-inkscape-font-specification:ArialMT"
                   x="0"
                   y="0"
                   id="tspan328">−</tspan></text>
<text
                 transform="matrix(1,0,0,-1,47.488051,58.959267)"
                 id="text330"><tspan
                   style="fill:#000000;fill-opacity:1;fill-rule:nonzero;stroke:none;font-family:Arial;font-variant:normal;font-weight:normal;font-size:16.000013;writing-mode:lr;-inkscape-font-specification:ArialMT"
                   x="0"
                   y="0"
                   id="tspan332">5</tspan></text>
<g
                 transform="translate(0,479)"
                 id="g334"><path
                   d="m 59.281,-349.242 7.68,0"
                   style="fill:none;stroke:#000000;stroke-opacity:1;stroke-width:0.499999;stroke-linecap:butt;stroke-linejoin:round;stroke-miterlimit:10;stroke-dasharray:none"
                   id="path336" /></g><text
                 transform="matrix(1,0,0,-1,47.520051,123.99962)"
                 id="text338"><tspan
                   style="fill:#000000;fill-opacity:1;fill-rule:nonzero;stroke:none;font-family:Arial;font-variant:normal;font-weight:normal;font-size:16.000013;writing-mode:lr;-inkscape-font-specification:ArialMT"
                   x="0"
                   y="0"
                   id="tspan340">0</tspan></text>
<g
                 transform="translate(0,479)"
                 id="g342"><path
                   d="m 59.281,-284.199 7.68,0"
                   style="fill:none;stroke:#000000;stroke-opacity:1;stroke-width:0.499999;stroke-linecap:butt;stroke-linejoin:round;stroke-miterlimit:10;stroke-dasharray:none"
                   id="path344" /></g><text
                 transform="matrix(1,0,0,-1,47.520051,189.03967)"
                 id="text346"><tspan
                   style="fill:#000000;fill-opacity:1;fill-rule:nonzero;stroke:none;font-family:Arial;font-variant:normal;font-weight:normal;font-size:16.000013;writing-mode:lr;-inkscape-font-specification:ArialMT"
                   x="0"
                   y="0"
                   id="tspan348">5</tspan><tspan
                   style="fill:#000000;fill-opacity:1;fill-rule:nonzero;stroke:none;font-family:Arial;font-variant:normal;font-weight:normal;font-size:16.000013;writing-mode:lr;-inkscape-font-specification:ArialMT"
                   x="11.76000956 19.76001606 24.19201966 33.08802688"
                   y="-25.20002"
                   sodipodi:role="line"
                   id="tspan350">xu10</tspan></text>
<text
                 transform="matrix(1,0,0,-1,89.520084,224.0797)"
                 id="text352"><tspan
                   style="fill:#000000;fill-opacity:1;fill-rule:nonzero;stroke:none;font-family:Arial;font-variant:normal;font-weight:normal;font-size:10.666609;writing-mode:lr;-inkscape-font-specification:ArialMT"
                   x="0"
                   y="0"
                   id="tspan354">−</tspan></text>
<text
                 transform="matrix(1,0,0,-1,95.738717,224.0797)"
                 id="text356"><tspan
                   style="fill:#000000;fill-opacity:1;fill-rule:nonzero;stroke:none;font-family:Arial;font-variant:normal;font-weight:normal;font-size:10.666609;writing-mode:lr;-inkscape-font-specification:ArialMT"
                   x="0"
                   y="0"
                   id="tspan358">6</tspan></text>
</g></g></g></g></g><g
       id="g360"><g
         id="g362"
         clip-path="url(#clipPath364)"><g
           id="g368"
           transform="translate(0,-0.3992)"><g
             id="g370" /><g
             id="g376"><g
               clip-path="url(#clipPath372)"
               id="g378"><g
                 id="g380"><g
                   transform="translate(0,479)"
                   id="g382"><path
                     d="m 191.039,-405.402 0.723,-1.2 0.476,0.961 0.723,-9.601 0.48,9.84 0.719,0.242 0.719,0.719 0.48,-3.122 0.719,0.961 0.481,0.481 0.722,0.242 0.719,0.238 0.48,0.719 0.719,-1.68 0.481,1.922 0.718,1.438 0.723,-2.16 0.481,0.722 0.718,6.481 0.481,0.238 0.719,2.398 0.718,0 0.481,-1.437 0.722,1.918 0.481,-1.918 0.719,-1.441 0.718,-0.961 1.2,1.679 0.48,2.403 0.723,0.48 0.718,-0.961 0.481,1.442 0.719,-1.204 0.48,0.961 0.719,0.723 0.723,1.199 0.476,1.2 0.723,-2.641 0.48,0.719 0.719,2.882 0.48,4.321 0.719,-1.68 0.723,2.399 0.476,1.679 0.723,1.199 1.199,0.243 0.719,4.32 0.481,5.519 0.718,2.641 0.481,3.598 0.722,3.121 0.719,3.597 0.481,2.641 0.718,4.082 0.719,1.68 0.481,1.437 0.722,2.641 0.481,1.203 0.718,0.477 0.719,-0.239 0.481,-1.441 0.718,0.723 1.204,-1.204 0.718,-1.199 0.481,-0.718 0.719,0.718 0.48,-0.961 0.719,-1.679 0.722,-0.957 0.481,1.437 0.719,-4.558 0.48,0.238 0.719,-1.438 0.719,0 0.48,-0.961 0.723,-0.961 0.476,3.122 0.723,0.96 0.719,0.719 0.48,-0.961 0.719,-0.718 0.48,1.679 0.719,-0.719 0.481,-1.921 0.722,3.359 0.719,-0.238 0.48,-1.2 0.719,-6 0.481,-0.722 0.718,-4.078 0.481,-0.243 0.719,0.243 0.48,2.398 0.723,3.84 0.48,2.641 0.719,1.679 0.719,1.922 0.48,-0.723 0.719,2.403 0.48,-0.961 0.723,-1.199 0.477,-2.403 0.722,1.922 0.481,1.199 0.719,0.243 0.48,2.398 0.719,1.922 0.48,3.598 0.719,3.121 0.48,0.961 0.723,2.16 0.719,4.797 0.48,3.121 0.719,-4.078 0.481,3.359 0.48,1.68 0.719,-1.2 0.48,1.68 0.719,-2.402 0.48,-0.481 0.723,0.961 0.477,1.922 0.722,-5.281 0.481,3.359 0.719,-1.918 0.48,1.2 0.719,0.48 0.48,-1.199 0.719,-1.203 0.48,0.722 0.723,-0.48 0.477,-1.442 0.48,0.243 0.723,0.48 0.48,1.199 0.719,0.481 0.48,-1.442 1.2,2.399 0.48,-0.238 0.719,0.48 0.48,-0.242 0.719,0.722 0.481,-1.203 0.722,0.723 0.477,0.961 0.48,0.238 0.723,0.481 0.48,-0.243 0.719,-0.238 0.481,1.922 0.48,-1.441 0.719,1.679 0.48,0 0.719,1.2 0.481,0.961 0.48,-1.922 0.719,-2.637 0.48,-1.441 0.719,-3.602 0.48,-0.481 0.481,-0.957 0.719,-0.722 0.48,-0.481 0.481,-0.718 0.722,-1.68 0.477,1.68 0.48,0.961 0.723,-0.481 0.48,2.641 0.477,0.718 0.723,0.723 0.48,0.477 0.477,1.441 0.722,1.922 0.481,-0.481 0.48,0.239 0.719,1.679 0.48,0.481 0.481,0.719 0.719,-0.719 0.48,1.199 0.481,0.961 0.718,-1.918 0.481,-1.684 0.48,0.481 0.481,-3.117 0.719,-0.961 0.48,-1.442 0.48,-2.398 0.719,-0.242 0.481,-2.399 0.48,0 1.199,-4.32 0.481,-2.398 0.48,-5.043 0.719,-5.039 0.481,-4.321 0.48,-2.16 0.48,-6.957 0.719,-0.723 0.481,-2.16 0.48,1.68 0.481,2.883 0.48,3.117 0.477,2.16 0.48,0.961 0.961,3.359 0.481,-1.918 0.238,-0.48 0.48,2.16 0.481,0 0.48,-1.441 0.481,1.199 0.238,1.203 0.48,-0.723 0.481,0.961 0.242,0.719 0.477,0.242 0.48,0.719 0.242,3.121 0.481,-0.723 0.48,2.641 0.239,2.883 0.48,-0.481 0.238,7.438 0.481,-5.52 0.48,0.243 0.242,-1.922 0.477,-2.399 0.242,-2.402 0.481,-2.16 0.48,-0.957 0.238,-3.364 0.481,1.204 0.238,-2.161 0.481,2.641 0.242,-2.883 0.48,0.242 0.239,0.481 0.238,-2.16 0.48,3.597 0.242,0.481 0.481,0.242 0.238,-0.242 0.481,-1.199 0.238,1.441 0.48,1.68 0.243,2.16 0.238,0 0.48,1.918 0.239,-4.559 0.48,0.239 0.242,0.718 0.481,2.16 0.238,1.204 0.242,0.48 0.239,4.078 0.238,1.922 0.242,0.477 0.238,1.203 0.242,0.238 0.239,0.719 0.242,2.883 0.238,0.238 0.242,1.68 0.239,1.679 0.238,1.199 0,0.243 0.242,-0.961 0.238,0.961 0.243,1.441 0,1.918 0.238,1.68 0.242,0.242 0.238,-6.961 0,-5.52 0.239,-3.601 0,-2.879 0.242,-6.242 0,-5.039 0.238,-0.719 0,-6 0.242,-0.242 0,-1.68 0.239,-0.48 0,0.722 0.242,0.719 0,-0.719 0,1.918 0.238,-1.199 0,2.398 0,-0.476 0.242,2.637 0,-0.719 0.239,1.68 0,-0.239 0,12.957"
                     style="fill:none;stroke:#0100ff;stroke-opacity:1;stroke-width:0.499999;stroke-linecap:butt;stroke-linejoin:round;stroke-miterlimit:10;stroke-dasharray:none"
                     id="path384" /></g><g
                   transform="translate(0,479)"
                   id="g386"><path
                     d="m 64.078,-339.16 0,1.918 0.242,1.922 0.239,-0.719 0,1.918 0.242,1.68 0.238,0.48 0,-1.199 0.242,0.238 0.239,0.961 0,-0.238 0.242,-3.121 0.238,0 0,1.199 0.238,-2.399 0.242,-2.882 0,0.722 0.239,-0.242 0.242,2.16 0,-0.718 0.238,-0.719 0.242,0.957 0.239,-0.957 0.242,-1.922 0,2.16 0.238,1.199 0.238,-1.199 0.243,0.719 0,-0.957 0.238,-1.203 0.242,0.48 0.238,-1.918 0.243,0.961 0,-0.723 0.238,0.243 0.238,0 0.242,-1.922 0.239,0.718 0.242,-2.636 0.238,0.957 0,-2.16 0.242,1.679 0.239,-0.718 0.242,2.16 0.238,1.441 0.238,4.801 0.242,-1.922 0.239,2.16 0.242,-1.199 0,0.48 0.238,0 0.242,-3.601 0.239,-1.918 0.242,2.637 0.238,-0.957 0.238,-1.204 0.243,-0.957 0.238,-0.48 0.242,1.199 0.238,-0.961 0.243,3.602 0.238,0.961 0.238,2.636 0.242,4.801 0.239,3.602 0.242,2.879 0.48,-2.399 0.239,0.239 0.242,-1.68 0.238,-0.961 0.238,-1.68 0.242,-3.359 0.239,-2.641 0.242,0.481 0.238,-1.199 0.481,-1.442 0.242,1.922 0.238,-0.48 0.238,2.64 0.243,-2.883 0.238,0.481 0.242,4.082 0.481,-0.242 0.238,10.32 0.238,-7.68 0.242,8.641 0.481,7.68 0.238,-17.039 0.242,-8.879 0.481,0.718 0.238,-3.601 0.238,-0.719 0.481,-3.359 0.242,-3.36 0.238,-1.199 0.481,-2.16 0.242,-3.84 0.238,0.238 0.481,0 0.238,0.481 0.242,-1.442 0.481,3.36 0.238,2.64 0.48,3.84 0.239,3.36 0.242,0.242 0.48,4.078 0.239,-0.238 0.48,-0.961 0.238,0 0.481,-1.199 0.242,-2.161 0.48,-0.961 0.239,-1.918 0.48,-2.882 0.238,0.48 0.481,-5.039 0.48,0.238 0.243,-1.918 0.476,-1.441 0.242,-1.918 0.481,0.238 0.238,-0.961 0.481,3.844 0.48,0.719 0.238,3.359 0.481,6.961 0.242,-5.281 0.48,0.242 0.481,0.719 0.238,-10.32 0.481,-4.559 0.48,-1.441 0.481,-1.2 0.238,-0.961 0.48,-0.238 0.481,-0.961 0.48,1.199 0.239,0.239 0.48,3.363 0.48,1.68 0.239,-2.161 0.48,-0.242 0.481,0.961 0.48,-0.238 0.481,-0.481 0.238,-3.839 0.48,0.718 0.481,-1.679 0.48,-2.16 0.481,0.96 0.48,0.239 0.481,3.84 0.238,-0.481 0.48,2.641 0.481,-0.719 0.48,1.199 0.481,0.719 0.476,-4.559 0.481,-0.238 0.48,-4.082 0.481,-5.039 0.48,-1.199 0.481,0 0.48,1.918 0.481,-1.199 0.476,0.238 0.481,1.679 0.48,2.641 0.481,1.442 0.48,1.917 0.481,-1.437 0.961,0.961 0.476,-4.082 0.481,0.48 0.48,-1.199 0.481,0.961 0.48,0.238 0.961,4.321 0.719,1.199 0.48,-0.481 0.961,3.36 0.481,-1.68 0.476,-0.957 0.723,0.477 0.48,0.242 0.481,-2.16 0.476,-1.442 0.481,-1.437 0.722,-4.563 0.481,-3.117 0.476,-4.32 0.481,-2.641 0.48,-2.16 0.481,-3.121 0.719,-1.68 0.48,-3.84 0.481,0.239 1.199,-1.438 0.48,-0.961 0.481,1.68 0.48,1.441 0.719,2.641 0.48,2.637 0.481,2.402 0.719,0.961 0.48,0.719 0.481,2.16 0.718,2.398 0.481,0 0.48,3.602 0.723,-0.242 0.476,0.242 0.481,2.16 0.723,-3.84 0.476,0.481 0.481,-1.922 0.722,-5.282 0.481,-1.199 0.718,-5.039 0.481,2.399 0.48,-0.239 0.719,-3.601 0.481,0.242 0.48,0.719 0.719,-6.719 0.48,-0.961 0.481,3.359 0.719,1.2 0.48,1.679 0.719,0.961 0.48,1.68 0.481,0.48 0.718,-1.437 0.481,1.199 0.723,4.32 0.476,-0.96 0.723,-4.801 0.48,-4.321 0.719,-4.078 0.48,-3.84 0.481,4.321 0.719,0.719 0.48,-0.481 0.719,1.68 0.48,-0.481 0.719,2.403 0.481,1.437 0.722,-0.48 0.481,1.922 0.718,-0.481 0.481,-0.48 0.719,-0.481 0.48,-0.238 0.719,-1.922 0.48,-0.957 0.719,0.238 0.481,0.481 0.722,-1.68 0.481,-0.48 0.718,-1.2 0.481,0.719 0.719,1.199 0.48,0.723 0.719,0.476 0.48,-0.238 0.719,-2.16 1.203,0 0.719,0.961 0.48,1.68 0.719,-1.922 0.481,-0.719 0.718,-2.16 0.481,0.719 0.723,0.242 0.476,0.48 0.723,-0.48 0.48,-0.242 0.719,0.242 0.48,1.437 0.719,1.922 0.723,-1.679 0.476,0.48 0.723,0.961 0.481,-1.203 0.718,-1.199 0.481,-1.918 0.719,0.238 0.48,1.199 0.719,-2.641 0.722,2.641 0.481,0.242 0.719,0.719 0.48,-1.441 0.719,2.16 0.48,-0.481 0.719,-1.679"
                     style="fill:none;stroke:#0100ff;stroke-opacity:1;stroke-width:0.499999;stroke-linecap:butt;stroke-linejoin:round;stroke-miterlimit:10;stroke-dasharray:none"
                     id="path388" /></g><g
                   transform="translate(0,479)"
                   id="g390"><path
                     d="m 59.281,-349.242 0.239,-1.68 0,-1.68 0.242,-1.918 0,-1.441 0.238,-1.441 0,5.281 0.238,3.121 0,2.398 0.242,1.68 0.239,-0.238 0,-1.922 0.242,-0.957 0,-1.922 0.238,-1.68 0,-1.199 0.242,-0.961 0,0.238 0.239,-1.437 0,0.48 0.242,-1.203 0.238,0.961 0,-1.918 0.238,2.879 0,-1.922 0.243,0.243 0,-1.2 0.238,1.68 0.242,3.359 0,1.442 0.238,2.16 0,2.398 0.243,1.442 0.238,0.719 0,3.359 0.238,0.961"
                     style="fill:none;stroke:#0100ff;stroke-opacity:1;stroke-width:0.499999;stroke-linecap:butt;stroke-linejoin:round;stroke-miterlimit:10;stroke-dasharray:none"
                     id="path392" /></g><g
                   transform="translate(0,479)"
                   id="g394"><path
                     d="m 487.199,-358.121 0.242,2.641 0.477,-1.68 0.48,-0.719 0.481,1.199 0.961,1.918 0.48,0.481 0.239,0.718 0.48,0 0.481,0.481 0.48,0.723 0.48,2.398 0.481,-0.48 0.48,1.921 0.477,-0.48 0.242,-0.961 0.481,1.922 0.48,-1.203 0.477,1.441 0.48,0.719 0.481,0.723 0.48,-2.161 0.481,1.68 0.48,-0.48 0.238,1.199 0.481,0.242 0.48,2.399 0.481,1.441 0.48,-0.481 0.481,0.957 0.48,-0.238 0.477,0.238 0.48,0.481 0.481,0.242 0.242,-0.723 0.48,-3.359 0.477,-1.68 0.48,-3.359 0.481,-4.801 0.48,-0.48 0.481,-1.438 0.48,-2.402 0.961,3.359 0.477,-2.879 0.48,16.321 0.481,-13.68 0.48,-0.238 0.481,-0.481 0.48,-1.922 0.48,0.961 0.481,-1.679 0.48,-0.481 0.477,-1.922 0.48,-0.476 0.481,1.679 0.48,0.239 0.481,-1.442 0.48,2.403 0.481,0.718 0.48,1.442 0.477,1.199 0.48,0.719 0.481,2.16 0.48,-0.481 0.481,-0.238 0.48,0.719 0.481,2.641 0.48,-0.719 0.477,0.48 0.48,0.481 0.481,1.437 0.48,0.723 0.481,0.476 0.48,0.961 0.48,2.879 0.719,-0.957 0.481,0.481 0.48,0.476 0.481,1.203 0.48,-0.722 0.477,0.48 0.48,-1.199 0.481,0 0.48,-0.961 0.481,-1.199 0.48,0.48 0.48,0 0.481,-1.441 0.48,-1.68 0.477,-1.437 0.48,0.476 0.723,-2.636 0.477,-0.481 0.48,0.719 0.481,-0.238 0.48,1.437 0.481,-0.238 0.48,-0.481 0.48,6 0.719,4.078 0.481,7.204 0.48,2.16 0.481,3.84 0.48,0.48 0.477,4.559 0.48,0.718 0.961,0.961 0.719,0.961 0.48,0 0.481,1.2 0.48,2.64 0.481,-0.961 0.48,-1.199 0.481,0.719 0.718,-1.442 0.481,0 0.48,2.16 0.481,-1.917 0.48,-0.719 0.477,4.558 0.48,-0.718 0.481,0.48 0.48,0 0.481,-1.684 0.48,0.243 0.481,-0.481 0.48,-2.879 0.477,-0.242 0.48,-0.719 0.481,-1.922 0.48,-1.437 0.481,-1.441 0.48,-1.68 0.238,2.16 0.481,-3.84 0.48,3.36 0.481,0 0.48,0.961 0.481,3.839 0.238,0.961 0.48,-0.48 0.481,0 0.48,3.359 0.239,-1.199 0.48,-0.961 0.481,0.238 0.48,0.961 0.238,0.961 0.481,-2.398 0.48,-0.723 0.481,-0.719 0.238,-1.441 0.961,-1.438 0.242,-1.921 0.477,-0.719 0.48,-0.961 0.242,-1.68 0.481,1.442 0.48,0 0.239,0.718 0.48,-2.398 0.238,-0.723 0.481,1.68 0.48,-1.199 0.242,2.16 0.477,-0.238 0.242,0 0.481,-1.442 0.48,-0.48 0.238,2.16 0.481,0.719 0.48,-1.918 0.239,0.48 0.242,-3.84 0.48,-1.679 0.239,-2.883 0.238,-5.52 0.242,-1.918 0.48,-1.441 0.239,-3.359 0.242,-1.922 0.238,-0.239 0.242,-0.961 0.477,-0.238 0.242,2.641 0.238,3.597 0.243,1.2 0.238,4.32 0.242,1.441 0.238,2.399 0.239,0.961 0.242,0 0.238,1.199 0.242,-1.68 0.239,0.481 0,0.961 0.242,-1.922 0.238,2.402 0.242,0 0.239,0.238 0.238,0 0.242,-0.238 0,-0.48 0.238,2.64 0.242,-1.679 0.239,-0.723 0.242,-0.719 0,-0.961 0.238,1.442 0.242,0 0.239,0.238 0.238,-0.481 0,2.161 0.242,0.722 0.238,-0.48 0.243,0.961 0,1.918 0.238,-0.961 0.242,1.679 0,1.204 0.238,0.957 0.239,-0.957 0,-1.204 0.242,0.961 0.238,-2.398 0,-1.199 0.242,2.16 0.239,0 0,-0.481 0.242,-2.64 0.238,0 0,0.719 0.242,0.961 0.239,-1.2 0,-0.961 0.238,0.961 0,1.2 0.242,-0.243 0,-0.957 0.238,1.68 0,-3.359 0.242,-0.243 0,-0.961 0.239,2.161 0,-0.957 0.242,-3.121 0.238,8.16 0,-11.039 0,0.48 0.242,-5.523 0,7.203 0.239,-1.922 0,2.398 0.238,-1.918 0,2.879 0,-0.48 0.242,2.402 0,2.879 0.238,0.719 0,3.601 0.243,-1.199 0,-2.64 0.238,-1.442 0,-1.918 0,0.238 0.242,-1.199 0,-0.719 0,0.957 0.238,1.684 0,1.199 0,-1.199 0.239,-0.961 0,-0.723 0,3.364 0.242,0.238 0,-1.199 0,1.68 0.238,1.199 0,0.718 0,-2.398 0.242,0.238 0,-0.238 0,2.16 0,-0.238 0.239,-0.242 0,-2.399 0,0.957 0.242,-2.636 0,-1.442 0,3.602 0,-2.883 0.238,1.203 0,0.477 0,-5.52 0.242,0.961 0,-3.359 0,3.84"
                     style="fill:none;stroke:#ff0000;stroke-opacity:1;stroke-width:0.499999;stroke-linecap:butt;stroke-linejoin:round;stroke-miterlimit:10;stroke-dasharray:none"
                     id="path396" /></g><g
                   transform="translate(0,479)"
                   id="g398"><path
                     d="m 395.281,-302.199 0,-1.203 0.239,1.203 0.238,3.84 0.242,-0.723 0.238,0.723 0,2.636 0.242,1.684 0.239,-1.684 0.242,0.481 0,3.363 0.238,-0.48 0.242,-2.161 0.239,-0.242 0.238,0.723 0,-0.481 0.242,1.2 0.238,0.238 0.243,-0.481 0.238,-1.199 0.242,-0.718 0.238,0.718 0.239,0.242 0.242,-0.722 0.238,1.922 0.242,1.441 0,-2.16 0.239,1.68 0.242,-2.883 0.238,1.441 0.242,-3.121 0.239,0.481 0,-2.641 0.238,-2.16 0.242,0.961 0.238,-0.719 0.242,-24.961 0.239,21.359 0.242,-3.839 0.238,0.718 0,-1.199 0.242,2.641 0.239,-0.239 0.238,0.957 0.242,1.684 0.238,2.399 0.243,1.199 0.238,1.679 0.242,2.879 0.238,1.442 0,-0.239 0.239,-0.48 0.242,0.961 0.238,2.637 0.242,-2.637 0.239,-1.684 0.242,5.043 0.238,-0.722 0.242,4.562 0.239,-1.68 0.238,2.161 0.242,-3.602 0.238,3.84 0,1.199 0.242,3.121 0.239,-1.679 0.242,-0.719 0.238,0.476 0.242,-1.918 0.239,-1.679 0.238,0.718 0.242,0.723 0.238,1.438 0.243,-2.641 0.238,0.242 0.242,-1.68 0.238,0.957 0.239,-0.718 0.242,-1.68 0.238,0 0.242,2.398 0.239,-0.718 0.242,-1.442 0.238,0.481 0.242,-1.199 0.239,1.679 0.238,-0.718 0.242,0.48 0.238,0.48 0.242,0 0.239,-0.96 0.242,1.917 0.238,-0.718 0.481,-2.641 0.238,2.641 0.242,-0.481 0.238,-0.718 0.243,-2.399 0.238,3.117 0.242,0.481 0.238,1.679 0.239,-0.718 0.242,-1.442 0.238,1.199 0.242,1.442 0.239,-1.68 0.48,0.238 0.242,0.481 0.239,-0.719 0.238,1.199 0.242,-3.359 0.238,1.68 0.242,0.48 0.239,1.68 0.48,4.082 0.242,1.437 0.239,1.2 0.238,-0.239 0.242,-0.238 0.238,2.399 0.243,-0.961 0.238,-0.961 0.48,1.679 0.239,-1.437 0.242,1.199 0.238,1.199 0.242,-1.199 0.239,0 0.48,0.719 0.242,-1.918 0.239,-0.481 0.48,0 0.48,-0.718 0.239,-0.723 0.242,-0.238 0.238,-0.243 0.242,0.961 0.477,-2.64 0.242,0.242 0.238,1.918 0.243,1.203 0.48,-0.242 0.238,-1.442 0.239,-0.718 0.242,1.199 0.48,1.203 0.239,-0.242 0.242,1.441 0.238,-1.441 0.481,1.68 0.238,-0.239 0.242,1.68 0.238,1.918 0.481,0.242 0.242,-1.199 0.238,1.918 0.481,0.961 0.238,-1.199 0.242,0.957 0.481,1.203 0.238,-0.481 0.242,0.239 0.238,0.961 0.481,-1.68 0.238,3.359 0.242,-0.48 0.481,0.961 0.238,-0.243 0.242,-2.16 0.477,2.641 0.242,-4.078 0.238,-0.242 0.242,-4.078 0.481,-2.879 0.238,-1.204 0.481,-3.359 0.238,-4.32 0.242,-0.957 0.481,0.957 0.238,1.441 0.242,-4.558 0.477,2.636 0.242,2.883 0.48,-0.48 0.239,1.441 0.242,2.156 0.48,-0.476 0.239,-1.68 0.48,0.238 0.238,-1.922 0.242,-0.718 0.481,0 0.238,-1.442 0.481,-1.199 0.238,0 0.48,2.16 0.243,2.641 0.48,-5.52 0.238,-1.441 0.481,3.121 0.238,-1.441 0.242,-1.68 0.481,1.203 0.238,0.957 0.481,-1.437 0.238,0.238 0.48,0 0.242,1.441 0.481,-0.722 0.238,0.961 0.481,0 0.238,0.961 0.48,2.878 0.243,-0.961 0.48,1.204 0.477,2.16 0.242,0.238 0.48,1.68 0.239,1.441 0.48,0.481 0.242,0.238 0.477,-0.719 0.242,1.199 0.48,2.879 0.239,-2.16 0.48,0.481 0.481,-2.161 0.718,-0.718 0.243,-0.719 0.48,-1.684 0.477,-1.679 0.242,-5.039 0.48,0.718 0.239,-2.879 0.48,-1.918 0.481,-0.96 0.238,-0.243 0.48,-0.476 0.242,-4.801 0.481,0.238 0.48,-1.199 0.239,-1.918 0.48,0.477 0.481,-0.957 0.238,0.718 0.48,0.239 0.239,-2.637 0.48,-1.203 0.481,-0.238 0.242,-0.481 0.48,0.719 0.477,-2.16 0.242,0.242 0.48,-0.242 0.481,-1.438 0.238,-1.199 0.481,0 0.48,-3.363 0.238,-2.399 0.481,-1.679 0.48,-0.961 0.481,-4.079 0.238,1.918 0.481,-1.199 0.48,-0.961 0.242,-2.16 0.477,-0.48 0.48,-1.2 0.481,-4.8 0.242,1.679 0.48,-1.437 0.477,-1.199 0.48,0.48 0.243,1.68 0.48,-1.922 0.477,-1.918 0.48,0.476 0.481,0.243 0.242,-0.243 0.48,-0.718 0.477,-1.199 0.48,-1.442 0.242,-3.359 0.481,-0.719 0.48,-3.359 0.477,-1.68 0.48,-1.203 0.243,-2.16 0.48,-1.2 0.477,-0.48 0.48,-2.641 0.481,0.481 0.242,-1.199 0.48,-0.961 0.477,0 0.48,-0.477 0.481,-0.961 0.48,0.719"
                     style="fill:none;stroke:#ff0000;stroke-opacity:1;stroke-width:0.499999;stroke-linecap:butt;stroke-linejoin:round;stroke-miterlimit:10;stroke-dasharray:none"
                     id="path400" /></g><g
                   transform="translate(0,479)"
                   id="g402"><path
                     d="m 360.961,-323.082 0,-0.957 0,0.957 0.238,-0.238 0,0.961 0,-0.723 0.242,2.883 0,-0.961 0,1.437 0.239,2.883 0,-1.441 0,0.718 0.238,0 0,1.442 0,-1.442 0.242,0.243 0,0.961 0,-1.922 0.238,-0.481 0,2.403 0,-1.204 0.243,-0.718 0,1.679 0.238,-0.718 0,2.16 0,-0.719 0.242,0.719 0,0.961 0,-2.403 0.238,1.922 0,1.2 0,-2.161 0.239,-0.961 0,2.161 0.242,-1.68 0,1.68 0,-0.961 0.238,0.961 0,-1.438 0,2.399 0.242,-0.481 0,-2.641 0,0.481 0.239,2.398 0,-2.156 0,1.438 0.242,-0.239 0,0.719 0,-1.199 0.238,2.16 0,0.48 0,-1.921 0.242,1.199 0,-1.918 0.239,0.961 0,-0.723 0.238,0.481 0,1.921 0.242,-1.441 0,1.922 0.238,0.957 0,-2.398 0.242,0.238 0,2.402 0.239,-2.402 0,0.961 0,-0.719 0.242,2.879 0,-2.16 0,2.16 0.238,0 0,-1.918 0,1.437 0.242,0.243 0,1.437 0,-0.719 0.239,0.481 0,1.68 0,-1.442 0.238,1.922 0,0.961 0.242,-0.481 0,0.481 0,-1.684 0.238,0.243 0,-3.36 0,1.438 0.243,-1.68 0,-2.641 0.238,-1.199 0,-2.641 0.242,-1.917 0,-0.961 0.238,-2.641 0,1.441 0.239,-0.48 0,1.441 0.242,-0.961 0,-0.48 0,0.242 0.238,1.68 0,-0.961 0,0.238 0.242,1.199 0,-0.238 0,0.719 0.239,-0.481 0,1.203 0.242,0 0,0.719 0,-1.199 0.238,0.238 0,1.199 0.242,1.204 0,-1.442 0.239,2.399 0,-1.438 0,1.68 0.238,0.48 0,-1.922 0.242,0.723 0,0.957 0,-0.48 0.238,0.48 0,1.442 0.242,0.48 0,-1.199 0.239,0.719 0,1.441 0.242,1.437 0,-0.961 0,0.481 0.238,-1.918 0,1.437 0.242,0 0,0.723 0,-2.402 0.239,7.922 0,-6 0.238,12 0,-11.52 0.242,1.918 0,-2.641 0,1.684 0.238,0.957 0,-0.48 0.243,1.922 0,-0.481 0.238,0.719 0,-0.957 0,0.957 0.242,1.203 0,-0.242 0.238,0.48 0,-1.679 0.239,0 0,0.96 0.242,-1.921 0,1.921 0,-2.882 0.238,-0.957 0,-0.481 0.242,0.481 0,0.718 0.239,-1.679 0,-0.481 0,0.238 0.242,0.481 0,-1.438 0.238,1.2 0,-0.961 0.242,-1.68 0,1.441 0.239,-0.48 0,0.238 0.238,-2.16 0,1.68 0,-0.957 0.242,-0.242 0,0.48 0.238,-1.918 0,-0.48 0.242,0.957 0,-0.477 0.239,0.477 0,1.679 0,-0.238 0.242,-1.68 0,1.68 0.238,-0.238 0,0.719 0.242,-0.719 0,0.719 0.239,-0.961 0.238,0.961 0,-0.481 0.242,0 0,1.199 0.238,-0.238 0,-1.922 0.243,2.16 0,0.481 0,-0.719 0.238,1.68 0,-0.243 0.242,0.723 0,-0.242 0.238,0.242 0,-0.48 0.239,0.48 0,-0.723 0.242,0.723 0,2.399 0.238,-1.68 0.242,0 0,1.68 0.239,0 0,1.679 0.242,0.961 0.238,-1.441 0,0.242 0.242,1.68 0,1.199 0.239,-0.238 0,0.957 0.238,0 0,-2.161 0.242,2.641 0,-1.437 0.238,2.16 0.242,-2.16 0,1.679 0.239,0.239 0,-0.239 0.242,1.2 0,-0.243 0.238,-2.398 0.242,2.641 0,-1.922 0.239,2.402 0,-1.199 0.238,-0.481 0,1.68 0.242,-0.242 0.238,1.922 0,-2.16 0.243,2.64 0,-1.68 0.238,-0.242 0.242,0.961 0,-0.719 0.238,0.719 0.239,1.199 0.242,1.442 0,1.918 0.238,-2.637 0,-0.961 0.242,0.481 0.239,0.718 0,0.961 0.242,-0.48 0.238,1.437 0,-3.359 0.242,0.242 0,1.918 0.239,-2.879 0.238,0.961 0,0.719 0.242,-1.199 0.238,0 0,2.398 0.242,-2.398 0.239,1.918 0,0.722 0.242,-0.48 0.238,-2.403 0,1.684 0.242,-0.48 0,-3.364 0.239,-1.199 0.238,-2.16 0.242,-4.078 0,-1.199 0.238,-2.403 0.243,-7.199 0.238,-4.32 0.242,-0.719 0.238,1.68 0,3.121 0.239,-1.203 0.242,5.281 0.238,0.242 0,5.277 0.242,-0.238 0.239,-3.84 0,6.719 0.242,-0.961 0.238,-3.117 0.242,9.84"
                     style="fill:none;stroke:#ff0000;stroke-opacity:1;stroke-width:0.499999;stroke-linecap:butt;stroke-linejoin:round;stroke-miterlimit:10;stroke-dasharray:none"
                     id="path404" /></g><g
                   transform="translate(0,479)"
                   id="g406"><path
                     d="m 341.758,-348.281 0,7.199 0.242,1.441 0,4.801 0.238,-0.961 0,1.68 0.242,0.242 0,-1.684 0,2.403 0.239,0.48 0,-0.722 0,1.203 0.242,0 0,1.679 0.238,1.68 0,0.238 0.242,5.52 0,-3.117 0,2.636 0.239,2.641 0,0.723 0,-0.242 0.238,1.921 0,1.2 0.242,0.238 0.238,2.402 0,-0.48 0.243,0.48 0,-1.441 0.238,0.48 0,0.481 0.242,-1.442 0,-1.437 0.238,-1.203 0,1.922 0,-2.879 0.239,0.238 0,1.199 0.242,-0.961 0,0.243 0.238,-0.243 0,-2.398 0,0.719 0.242,0 0,-2.399 0,0.481 0.239,-0.961 0,1.679 0.242,0.481 0,0.961 0,-0.242 0.238,0.961 0,-0.481 0,0.723 0.242,2.398 0,1.199 0,-0.48 0.239,0.48 0,-1.199 0,2.16 0.238,-2.64 0,2.402 0.242,-0.242 0,0.961 0,-0.719 0.238,0 0,1.199 0,-1.199 0.242,0.238 0,0.961 0,-0.48 0.239,0.238 0,1.442 0,-0.243 0.242,0.723 0,-1.199 0,1.679 0.238,-1.679 0,1.437 0,-1.199 0.242,-0.48 0,-0.719 0.239,-0.242 0,0.961 0,-0.481 0.238,-0.238 0,0.719 0.242,-0.481 0,0.481 0.238,-1.918 0,1.437 0,-1.199 0.243,0.242 0,1.199 0,-0.961 0.238,-1.679 0,0.238 0,-2.641 0.242,0.961 0,-1.918 0,0.481 0.238,1.437 0,-0.238 0,0.48 0.239,0.481 0,0.957 0,-1.918 0.242,0.719 0,1.199 0,-1.438 0.238,0.239 0,-0.481 0,0.961 0.242,-3.121 0,-9.598 0.239,-0.722 0,-4.321 0,5.282 0,-3.36 0.242,0.719 0,-10.558 0,1.917 0.238,0.961 0,6 0.242,5.039 0,-1.199 0,4.082 0.239,0.719 0,-0.961 0,1.68 0.238,-0.957 0,-2.16 0.242,-1.204 0,-3.117 0.238,0.481 0,-2.883 0,0.48 0.242,0.243 0,-0.481 0,3.117 0.239,-0.718 0,-0.239 0.242,-1.922 0,2.879 0.238,-1.437 0,1.68 0.242,-1.2 0,2.879 0.239,0.238 0,-1.199 0.238,1.442 0,-1.922 0.242,0.722 0,-0.96 0.238,-0.243 0,1.203 0,-0.242 0.243,0.723 0,0.957 0,-0.719 0.238,-0.238 0,0.957 0,-1.438 0.242,0.239 0,1.441 0.238,-1.441 0,1.199 0,-3.598 0.239,1.438 0,-0.957 0.242,0.719 0,-1.442 0,0.242 0.238,-0.242 0,0.961 0.242,-1.441 0,2.16 0,-1.438 0.239,0.957 0,-1.437 0,0.238 0.242,0.481 0,-1.2 0,0.481 0.238,1.918 0,-4.797 0,2.879 0.242,-1.68 0,-0.48 0,2.16 0,-0.481 0.239,0.719 0,-1.918 0,1.438 0.238,1.441 0,-0.719 0,3.117 0.242,-0.238 0,2.16 0,-1.679 0.238,2.64 0,0.239 0,-1.2 0.242,0.481 0,2.879 0,-1.918 0.239,1.199 0,-0.723 0,1.442 0.242,1.199"
                     style="fill:none;stroke:#ff0000;stroke-opacity:1;stroke-width:0.499999;stroke-linecap:butt;stroke-linejoin:round;stroke-miterlimit:10;stroke-dasharray:none"
                     id="path408" /></g><g
                   transform="translate(0,479)"
                   id="g410"><path
                     d="m 666.48,-432.762 0.481,0.242 0.48,-1.679 0.477,-0.242 0.48,0.242 0.481,-0.242 0.48,-1.2 0.481,1.442 0.48,-0.242 0.481,2.878 0.48,0.243 0.477,3.121 0.48,1.437 0.481,-1.199 0.48,-1.918 0.481,2.156 0.48,1.203 0.481,-1.203 0.48,0.723 0.477,-1.922 0.48,-1.918 0.481,2.641 0.48,-3.602 0.481,2.641 0.48,0.48 0.48,1.438 0.481,2.16 0.48,-0.719 0.477,-4.078 0.723,0.719 0.48,-0.481 0.477,-1.441 0.48,-1.918 0.481,-1.441 0.48,-2.641 0.481,0.48 0.718,-1.918 0.961,3.36 0.481,-0.242 0.48,1.203 0.481,0.957 0.718,1.203 0.481,-0.723 0.48,1.922 0.481,-0.48 0.48,0 0.719,-1.442 0.48,3.121 0.481,-1.199 0.48,0.481 0.477,3.359 0.723,-1.922 0.48,1.199 0.477,0 0.48,-4.316 0.723,4.316 0.48,-1.437 0.477,0.238 0.48,-1.437 0.723,-0.481 0.48,2.399 0.477,-1.68 0.723,0 0.48,-2.399 0.477,1.68 0.48,0.961 0.723,0.719 0.48,1.199 0.477,0.719 0.722,-0.238 0.481,2.398 0.48,3.84 0.719,0 0.481,2.64 0.48,6 0.719,0.961 0.48,3.36 0.481,1.679 0.48,4.563 0.719,3.598 0.48,-2.161 0.481,8.403 0.719,0 0.48,4.32 0.481,2.399 0.718,2.16 0.481,2.398 0.48,4.082 0.719,2.16 0.481,3.117 0.718,1.684 0.481,2.879 0.48,5.52 0.719,3.839 0.48,1.442 0.723,1.199 0.477,1.199 0.48,-3.84 0.723,-2.64 0.48,0.48 0.477,-5.039 0.722,-0.961 0.481,-0.238 0.719,-0.961 0.48,0.238 0.481,-0.718 0.718,-2.641 0.481,-0.719 0.48,-0.961 0.719,0.238 0.481,0.961 0.718,-3.597 0.481,-3.121 1.199,-0.719 0.48,0 0.723,-0.723 0.477,-2.64 0.722,0.242 0.481,-0.719 0.48,-0.723 0.719,-1.437 0.48,3.359 0.719,-1.922 0.481,-3.359 0.48,2.879 0.719,2.16 0.48,0 0.719,3.121 0.481,2.399 0.48,3.121 0.719,1.199 0.48,-1.438 0.723,3.118 0.48,1.203 0.477,0.957 0.723,0 0.48,1.203 0.719,0.476 0.48,0.723 0.719,1.68 0.481,2.16 0.718,-0.723 0.481,-4.558 0.48,-0.961 0.719,0 0.48,0.722 0.723,-1.441 0.477,0.238 0.48,-1.437 0.723,2.16 0.48,0 0.719,-1.199 0.48,-0.242 0.481,1.921 0.719,-0.48 0.48,0.961 0.719,-1.441 0.48,1.199 0.481,-0.239 0.719,-2.16 0.48,0.481 0.719,1.199 0.48,-0.723 0.481,-0.476 0.722,0.476 0.477,-0.476 0.723,-0.961 0.48,-1.199 0.477,0.238 0.722,0.48 0.481,1.2 0.719,-0.719 0.48,0 0.48,-2.403 0.719,0.481 0.481,0.961 0.718,-0.238 0.481,-0.723 0.48,0.242 0.719,-0.723 0.481,0 0.48,0.723 0.719,2.16 0.48,-1.679 0.481,-1.204 0.722,1.204 0.477,-1.68 0.48,-2.16 0.723,1.918 0.477,-0.481 0.48,-0.961 0.723,0.961 0.48,0 0.719,-0.718 0.48,0.48 0.481,-0.242 0.719,-0.719 0.48,2.398 0.481,-0.238 0.718,2.16 0.481,-1.922 0.48,1.442 0.719,-0.481 0.481,0.961 0.48,-1.922 0.719,0 0.48,-2.16 0.481,1.442 0.48,0 0.719,-0.481 0.48,-2.64 0.481,-4.078 0.48,-0.961 0.719,0.242 0.481,4.797 0.48,-6 0.719,-7.68 0.48,1.203 0.481,2.399 0.48,-3.122 0.719,-0.961 0.48,1.684 0.481,0.477 0.48,-0.957 0.719,4.078 0.481,0.718 0.48,0 0.719,2.641 0.48,1.68 0.481,0.722 0.48,4.321 0.719,-0.242 0.48,0.961 0.481,-0.243 0.48,-2.398 0.719,-2.879 1.441,1.199 0.719,-0.48 0.481,-0.481 0.48,-1.918 0.481,-0.48 0.718,-1.442 0.481,-2.398 0.48,-2.641 0.481,-1.922 0.48,0.481 0.477,-0.957 0.48,-0.481 0.481,0.957 0.48,0.961 0.481,0.243 0.48,2.636 0.481,1.203 0.48,1.438 0.477,2.402 0.48,5.039 0.242,-2.879 0.481,-2.64 0.48,-3.121 0.477,4.558 0.48,11.524 0.242,-2.16 0.481,0.957 0.48,2.16 0.239,-6 0.48,3.84 0.481,-4.078 0.238,-1.2 0.48,-1.441 0.239,-0.961 0.48,-0.719 0.242,-2.16 0.481,5.281 0.48,-3.121 0.239,-1.922 0.48,0 0.238,-3.117 0.481,-0.723 0.242,-0.238 0.48,-4.558 0.239,1.437 0.48,-3.84 0.238,0 0.481,1.68 0.242,-0.481 0.477,-0.238 0.242,2.399 0.48,-1.68 0.239,-1.199 0.48,-1.199 0.242,-1.2 0.477,0.719 0.242,-0.238 0.48,-1.68 0.239,-0.723 0.242,0.481 0.48,-5.039 0.477,0.238 5.523,5.52 1.438,-24.719"
                     style="fill:none;stroke:#00ff00;stroke-opacity:1;stroke-width:0.499999;stroke-linecap:butt;stroke-linejoin:round;stroke-miterlimit:10;stroke-dasharray:none"
                     id="path412" /></g><g
                   transform="translate(0,479)"
                   id="g414"><path
                     d="m 597.598,-357.641 0,0.961 0.242,0.239 0,-0.481 0,1.68 0.238,-2.16 0,-0.239 0,0.481 0.242,-0.961 0,0.719 0,-1.438 0.239,0 0,-1.199 0,2.16 0,-0.961 0.242,-1.199 0,1.68 0,-0.481 0.238,-0.961 0,1.199 0,-2.398 0.242,1.68 0,-3.36 0.239,0.481 0,-0.961 0,0.238 0.238,-0.238 0,-1.199 0,0.48 0.242,-1.203 0,-0.957 0,1.918 0,-0.961 0.238,0.242 0,1.199 0,-2.64 0.242,-0.481 0,1.922 0,-0.723 0.239,-0.238 0,-0.48 0,1.922 0.242,-2.641 0,1.918 0,-0.481 0.238,0 0,-2.878 0.242,-1.438 0,-0.48 0,1.199 0,-0.242 0.239,-0.477 0,-2.641 0.238,0.957 0,-2.636 0,1.199 0.242,0.719 0,-1.68 0.238,-0.238 0,-2.641 0.243,-1.199 0,-2.16 0,3.117 0.238,0.242 0,-0.48 0.48,0.961 1.922,-14.883 0.239,-8.16 0.96,16.8 0,1.442 0.239,-0.961 0,1.199 0.242,0.723 0,0.238 0.238,-0.719 0,0.239 0.242,1.921 0,-2.64 0.239,2.398 0,-1.918 0.238,-0.242 0.242,-1.437 0,-1.68 0.238,-2.402 0,0.48 0.243,-1.918 0,-2.883 0.238,-3.597 0,-0.723 0.242,1.68 0,2.402 0.238,0.48 0.239,0.239 0,1.922 0.242,-0.961 0,-0.481 0.238,0.481 0,-0.481 0.242,0 0,-1.922 0.239,-0.238 0,1.199 0.242,-0.718 0.238,-0.961 0,-0.961 0.242,0.48 0,1.199 0.239,1.442 0,2.64 0.238,2.879 0.242,-0.48 0,1.441 0.238,0.481 0.242,-0.961 0,2.16 0.239,1.68 0.242,0.718 0,-0.718 0.238,1.679 0.242,0 0,-1.918 0.239,4.321 0,-0.961 0.238,3.359 0.242,3.602 0,-4.563 0.238,-4.078 0.243,2.16 0,1.438 0.238,1.441 0,0.961 0.242,1.437 0.238,4.321 0,-1.438 0.239,2.879 0.242,1.199 0,-1.918 0.238,-2.16 0.242,-2.883 0.239,-3.117 0,-5.043 0.242,-4.078 0.238,0 0,-2.64 0.242,0.961 0.239,-0.961 0.238,0 0,0.718 0.242,-0.957 0.238,-0.242 0.242,0.723 0.239,0.238 0.242,-0.961 0.238,-1.199 0.242,-1.442 0.239,-0.718 0.48,-0.719 -0.242,0 0.242,0 0.238,-0.242 0.243,-3.84 0.238,2.883 0.242,-0.961 0.238,-3.84 0,-1.922 0.239,1.442 0.242,0 0.238,0.96 0.242,-0.48 0.239,-0.48 0.242,0.48 0.238,-0.961 0.242,0.238 0.239,1.442 0.238,-1.199 0.242,0.238 0,0.48 0.238,0 0.242,-1.918 0.239,-0.242 0.242,-0.957 0.238,0.957 0.242,-0.238 0.239,2.16 0.238,-5.762 0.48,0.481 0.243,-0.719 0.238,-8.16 0.242,0 0.238,-4.32 0.239,0.718 0.242,-0.961 0.238,-4.797 0.242,-1.921 0.239,0 0.242,0.718 0.238,1.203 0.242,-1.441 0.239,1.922 0.238,-0.723 0.242,0.723 0.48,0.719 0.239,-1.442 0.242,1.442 0.238,1.199 0.242,-1.199 0.239,3.597 0.238,-0.957 0.242,0.719 0.481,3.359 0.238,1.922 0.242,0.719 0.238,2.641 0.481,0.48 0.238,-3.359 0.242,3.117 0.239,-4.32 0.48,-0.957 0.242,-1.204 0.239,-0.476 0.48,12.957 0.238,-14.16 0.242,1.679 0.239,-0.238 0.48,0.961 0.242,1.438 0.719,-1.438 0.238,1.199 0.243,-0.961 0.48,1.68 0.238,-1.918 0.239,2.16 0.48,-2.64 0.242,-2.641 0.481,1.199 0.238,-5.519 0.481,0.718 0.238,-4.558 0.242,1.199 0.48,1.68 0.239,0 0.48,3.363 0.242,-2.16 0.477,1.68 0.242,2.636 0.481,-1.918 0.238,2.641 0.48,0.719 0.239,-0.239 0.48,0.719 0.242,1.199 0.481,-1.918 0.48,2.161 0.239,-1.442 0.48,-4.32 0.238,2.398 0.481,-3.84 0.48,-3.359 0.242,0.961 0.957,-2.641 0.243,-2.64 0.48,1.922 0.238,0.718 0.481,-1.199 0.48,0.719 0.239,1.68 0.48,-0.719 0.481,-2.641 0.238,-0.961 0.48,-1.199 0.481,-0.719 0.48,-1.679 0.242,1.441 0.477,0.957 0.48,-2.398 0.481,-1.442 0.242,-1.199 0.477,2.879 0.48,-0.957 0.481,2.16 0.48,1.68 0.242,-0.961 0.477,-0.242 0.48,1.203 0.481,0.957 0.242,0.722 0.48,-2.16 0.477,1.918 0.48,-0.48 0.481,-0.719 0.48,-0.48 0.481,0.48 0.48,-0.719 0.481,-1.679 0.238,-0.243 0.481,-0.48 0.48,-1.438 0.48,-0.242"
                     style="fill:none;stroke:#00ff00;stroke-opacity:1;stroke-width:0.499999;stroke-linecap:butt;stroke-linejoin:round;stroke-miterlimit:10;stroke-dasharray:none"
                     id="path416" /></g><g
                   transform="translate(0,479)"
                   id="g418"><path
                     d="m 587.281,-340.602 0,-5.519 0.239,-0.719 0,-2.883 0,4.563 0,-3.602 0.238,-1.437 0,-3.602 0,3.84 0,-2.879 0.242,0.719 0,-4.078 0,0.238 0.238,1.199 0,-3.117 0.242,0.719 0,-1.442 0,0.723 0.239,-0.242 0,-1.442 0,3.602 0,-0.48 0.242,-0.961 0,-0.477 0,2.879 0.238,-1.441 0,7.441 0.242,0.961 0,-1.203 0,3.121 0.239,1.441 0,-1.679 0,2.16 0,-1.442 0.238,-0.718 0,-2.641 0,0.48 0.242,0.957 0,-1.199 0,1.68 0,-1.438 0.238,1.2 0,-2.879 0,0.238 0.243,0.961 0,-1.441 0,8.64 0.238,-3.84 0,2.399 0,-12.481 0.242,-0.957 0,-1.441 0,6 0.238,0.242 0,10.078 0.239,0.238 0,3.364 0,-11.281 0.242,-0.243 0,-0.957 0,1.68 0,-1.199 0.238,0.719 0,0.238 0,-2.399 0.242,0.719 0,-1.199 0,1.199 0.239,-0.48 0,-3.84 0,0.242 0.242,0 0,-2.641 0.238,0.719 0,-3.359 0,2.64 0.242,-1.199 0,-4.082 0.239,0.723 0,-1.203 0,2.16 0,-1.918 0.238,-0.481 0,-0.238 0,1.438 0,-0.481 0.242,-0.238 0,-1.442 0,2.641 0,-2.398 0.238,-0.723 0,1.68 0.242,-0.719 0,-1.199 0,4.558 0.239,1.199 0,-1.679 0,2.402 0.242,-0.723 0,-1.917 0,1.917 0.238,0.481 0,-1.68 0,2.16 0.242,-0.961 0,1.684 0,-2.402 0.239,0.48 0,2.399 0,-2.879 0.238,0 0,-0.481 0,1.68 0.242,1.441 0,-1.922 0.238,1.922 0,-2.16 0.243,1.922 0,-3.121 0,3.121 0.238,-0.48 0,-1.442 0,2.16 0,-0.718 0.242,-0.481 0,1.438 0.238,0 0,0.48 0,-1.437 0.239,0.718"
                     style="fill:none;stroke:#00ff00;stroke-opacity:1;stroke-width:0.499999;stroke-linecap:butt;stroke-linejoin:round;stroke-miterlimit:10;stroke-dasharray:none"
                     id="path420" /></g></g></g></g></g></g></g><g
       id="g422"><g
         id="g424"
         transform="translate(0,-0.3992)"><g
           id="g426" /><g
           id="g432"><g
             clip-path="url(#clipPath428)"
             id="g434"><g
               id="g436"><text
                 transform="matrix(1,0,0,-1,314.64056,6.159215)"
                 id="text438"><tspan
                   style="font-size:16.00001335px;font-variant:normal;font-weight:normal;writing-mode:lr-tb;fill:#000000;fill-opacity:1;fill-rule:nonzero;stroke:none;font-family:Arial;-inkscape-font-specification:ArialMT"
                   x="0 11.55201 20.448017 33.776028 42.672035 46.272038 55.168045 59.600048 63.15205 71.152061 84.480072 93.376076 96.928078 104.92809 109.36009 118.2561 127.1521 135.15211 148.48012 152.03212 165.40813 173.40814 182.30415 191.20015 200.09616 208.99217 217.88818"
                   y="0"
                   sodipodi:role="line"
                   id="tspan440">Cumulativedistanceinchannel [m]</tspan></text>
<text
                 transform="matrix(0,1,1,0,28.800036,100.9596)"
                 id="text442"><tspan
                   style="fill:#000000;fill-opacity:1;fill-rule:nonzero;stroke:none;font-family:Arial;font-variant:normal;font-weight:normal;font-size:16.000013;writing-mode:lr;-inkscape-font-specification:ArialMT"
                   x="0"
                   y="0"
                   id="tspan444">∆</tspan></text>
<text
                 transform="matrix(0,1,1,0,28.800036,114.99161)"
                 id="text446"><tspan
                   style="fill:#000000;fill-opacity:1;fill-rule:nonzero;stroke:none;font-family:Arial;font-variant:normal;font-weight:normal;font-size:16.000013;writing-mode:lr;-inkscape-font-specification:ArialMT"
                   x="0 8.0000065 12.4320101 16.8640137 30.19202453"
                   y="0"
                   sodipodi:role="line"
                   id="tspan448">zu[m]</tspan></text>
</g></g></g></g></g></g></svg>