<?xml version="1.0" encoding="UTF-8" standalone="no"?>
<!-- Created with Inkscape (http://www.inkscape.org/) -->

<svg
   xmlns:dc="http://purl.org/dc/elements/1.1/"
   xmlns:cc="http://creativecommons.org/ns#"
   xmlns:rdf="http://www.w3.org/1999/02/22-rdf-syntax-ns#"
   xmlns:svg="http://www.w3.org/2000/svg"
   xmlns="http://www.w3.org/2000/svg"
   xmlns:sodipodi="http://sodipodi.sourceforge.net/DTD/sodipodi-0.dtd"
   xmlns:inkscape="http://www.inkscape.org/namespaces/inkscape"
   id="svg6021"
   version="1.1"
   inkscape:version="0.48.4 r9939"
   width="696.25"
   height="545"
   xml:space="preserve"
   sodipodi:docname="October_11_Particle_2_run_2_D.pdf"><metadata
     id="metadata6027"><rdf:RDF><cc:Work
         rdf:about=""><dc:format>image/svg+xml</dc:format><dc:type
           rdf:resource="http://purl.org/dc/dcmitype/StillImage" /><dc:title></dc:title></cc:Work></rdf:RDF></metadata><defs
     id="defs6025"><clipPath
       clipPathUnits="userSpaceOnUse"
       id="clipPath6037"><path
         d="m 2.33203,1.5 2318.66997,0 0,1815.5 -2318.66997,0 0,-1815.5 z"
         id="path6039" /></clipPath><clipPath
       clipPathUnits="userSpaceOnUse"
       id="clipPath6149"><path
         d="m 157.332,1701.5 2083.998,0 0,-637 -2083.998,0 0,637 z"
         id="path6151" /></clipPath><clipPath
       clipPathUnits="userSpaceOnUse"
       id="clipPath6177"><path
         d="m 2,1 0,1816 2319,0 L 2321,1 2,1 z"
         id="path6179" /></clipPath><clipPath
       clipPathUnits="userSpaceOnUse"
       id="clipPath6305"><path
         d="m 157.332,804.5 2083.998,0 0,-637 -2083.998,0 0,637 z"
         id="path6307" /></clipPath><clipPath
       clipPathUnits="userSpaceOnUse"
       id="clipPath6335"><path
         d="m 2,1 0,1816 2319,0 L 2321,1 2,1 z"
         id="path6337" /></clipPath></defs><sodipodi:namedview
     pagecolor="#ffffff"
     bordercolor="#666666"
     borderopacity="1"
     objecttolerance="10"
     gridtolerance="10"
     guidetolerance="10"
     inkscape:pageopacity="0"
     inkscape:pageshadow="2"
     inkscape:window-width="1366"
     inkscape:window-height="705"
     id="namedview6023"
     showgrid="false"
     inkscape:zoom="0.86605505"
     inkscape:cx="270.6743"
     inkscape:cy="287.86357"
     inkscape:window-x="-8"
     inkscape:window-y="-8"
     inkscape:window-maximized="1"
     inkscape:current-layer="g6029" /><g
     id="g6029"
     inkscape:groupmode="layer"
     inkscape:label="October_11_Particle_2_run_2_D"
     transform="matrix(1.25,0,0,-1.25,0,545)"><g
       id="g6031"
       transform="scale(0.24,0.24)"><g
         id="g6033"><g
           id="g6035"
           clip-path="url(#clipPath6037)"><path
             d="m 2.33203,1.5 2318.66997,0 0,1815.5 -2318.66997,0 0,-1815.5 z"
             style="fill:#ffffff;fill-opacity:1;fill-rule:nonzero;stroke:none"
             id="path6041" /><path
             d="m 157.332,1065.5 2083,0 0,637 -2083,0 0,-637 z"
             style="fill:#ffffff;fill-opacity:1;fill-rule:evenodd;stroke:none"
             id="path6043" /><path
             d="m 157.332,1065.5 0,637 2082.998,0 0,-637 -2082.998,0"
             style="fill:none;stroke:#ffffff;stroke-opacity:1;stroke-width:2.08333;stroke-linecap:butt;stroke-linejoin:round;stroke-miterlimit:10;stroke-dasharray:none"
             id="path6045" /><path
             d="m 157.332,1065.5 2082.998,0"
             style="fill:none;stroke:#000000;stroke-opacity:1;stroke-width:2.08333;stroke-linecap:butt;stroke-linejoin:round;stroke-miterlimit:10;stroke-dasharray:none"
             id="path6047" /><path
             d="m 157.332,1065.5 0,637"
             style="fill:none;stroke:#000000;stroke-opacity:1;stroke-width:2.08333;stroke-linecap:butt;stroke-linejoin:round;stroke-miterlimit:10;stroke-dasharray:none"
             id="path6049" /><path
             d="m 157.332,1065.5 0,21"
             style="fill:none;stroke:#000000;stroke-opacity:1;stroke-width:2.08333;stroke-linecap:butt;stroke-linejoin:round;stroke-miterlimit:10;stroke-dasharray:none"
             id="path6051" /><g
             id="g6053"
             transform="scale(4.16667,4.16667)"><text
               transform="matrix(1,0,0,-1,33.4397,237.96)"
               id="text6055"><tspan
                 style="fill:#000000;fill-opacity:1;fill-rule:nonzero;stroke:none;font-family:Helvetica;font-variant:normal;font-weight:normal;font-size:16;writing-mode:lr;-inkscape-font-specification:Helvetica"
                 x="0"
                 y="0"
                 id="tspan6057">0</tspan></text>
</g><path
             d="m 504.332,1065.5 0,21"
             style="fill:none;stroke:#000000;stroke-opacity:1;stroke-width:2.08333;stroke-linecap:butt;stroke-linejoin:round;stroke-miterlimit:10;stroke-dasharray:none"
             id="path6059" /><g
             id="g6061"
             transform="scale(4.16667,4.16667)"><text
               transform="matrix(1,0,0,-1,105.68,237.96)"
               id="text6063"><tspan
                 style="fill:#000000;fill-opacity:1;fill-rule:nonzero;stroke:none;font-family:Helvetica;font-variant:normal;font-weight:normal;font-size:16;writing-mode:lr;-inkscape-font-specification:Helvetica"
                 x="0 8.896 13.344 22.24"
                 y="0"
                 sodipodi:role="line"
                 id="tspan6065">0.01</tspan></text>
</g><path
             d="m 851.332,1065.5 0,21"
             style="fill:none;stroke:#000000;stroke-opacity:1;stroke-width:2.08333;stroke-linecap:butt;stroke-linejoin:round;stroke-miterlimit:10;stroke-dasharray:none"
             id="path6067" /><g
             id="g6069"
             transform="scale(4.16667,4.16667)"><text
               transform="matrix(1,0,0,-1,188.96,237.96)"
               id="text6071"><tspan
                 style="fill:#000000;fill-opacity:1;fill-rule:nonzero;stroke:none;font-family:Helvetica;font-variant:normal;font-weight:normal;font-size:16;writing-mode:lr;-inkscape-font-specification:Helvetica"
                 x="0 8.896 13.344 22.24"
                 y="0"
                 sodipodi:role="line"
                 id="tspan6073">0.02</tspan></text>
</g><path
             d="m 1198.33,1065.5 0,21"
             style="fill:none;stroke:#000000;stroke-opacity:1;stroke-width:2.08333;stroke-linecap:butt;stroke-linejoin:round;stroke-miterlimit:10;stroke-dasharray:none"
             id="path6075" /><g
             id="g6077"
             transform="scale(4.16667,4.16667)"><text
               transform="matrix(1,0,0,-1,272.24,237.96)"
               id="text6079"><tspan
                 style="fill:#000000;fill-opacity:1;fill-rule:nonzero;stroke:none;font-family:Helvetica;font-variant:normal;font-weight:normal;font-size:16;writing-mode:lr;-inkscape-font-specification:Helvetica"
                 x="0 8.896 13.344 22.24"
                 y="0"
                 sodipodi:role="line"
                 id="tspan6081">0.03</tspan></text>
</g><path
             d="m 1545.33,1065.5 0,21"
             style="fill:none;stroke:#000000;stroke-opacity:1;stroke-width:2.08333;stroke-linecap:butt;stroke-linejoin:round;stroke-miterlimit:10;stroke-dasharray:none"
             id="path6083" /><g
             id="g6085"
             transform="scale(4.16667,4.16667)"><text
               transform="matrix(1,0,0,-1,355.52,237.96)"
               id="text6087"><tspan
                 style="fill:#000000;fill-opacity:1;fill-rule:nonzero;stroke:none;font-family:Helvetica;font-variant:normal;font-weight:normal;font-size:16;writing-mode:lr;-inkscape-font-specification:Helvetica"
                 x="0 8.896 13.344 22.24"
                 y="0"
                 sodipodi:role="line"
                 id="tspan6089">0.04</tspan></text>
</g><path
             d="m 1892.33,1065.5 0,21"
             style="fill:none;stroke:#000000;stroke-opacity:1;stroke-width:2.08333;stroke-linecap:butt;stroke-linejoin:round;stroke-miterlimit:10;stroke-dasharray:none"
             id="path6091" /><g
             id="g6093"
             transform="scale(4.16667,4.16667)"><text
               transform="matrix(1,0,0,-1,438.8,237.96)"
               id="text6095"><tspan
                 style="fill:#000000;fill-opacity:1;fill-rule:nonzero;stroke:none;font-family:Helvetica;font-variant:normal;font-weight:normal;font-size:16;writing-mode:lr;-inkscape-font-specification:Helvetica"
                 x="0 8.896 13.344 22.24"
                 y="0"
                 sodipodi:role="line"
                 id="tspan6097">0.05</tspan></text>
</g><path
             d="m 2240.33,1065.5 0,21"
             style="fill:none;stroke:#000000;stroke-opacity:1;stroke-width:2.08333;stroke-linecap:butt;stroke-linejoin:round;stroke-miterlimit:10;stroke-dasharray:none"
             id="path6099" /><g
             id="g6101"
             transform="scale(4.16667,4.16667)"><text
               transform="matrix(1,0,0,-1,522.32,237.96)"
               id="text6103"><tspan
                 style="fill:#000000;fill-opacity:1;fill-rule:nonzero;stroke:none;font-family:Helvetica;font-variant:normal;font-weight:normal;font-size:16;writing-mode:lr;-inkscape-font-specification:Helvetica"
                 x="0 8.896 13.344 22.24"
                 y="0"
                 sodipodi:role="line"
                 id="tspan6105">0.06</tspan></text>
</g><path
             d="m 157.332,1065.5 20,0"
             style="fill:none;stroke:#000000;stroke-opacity:1;stroke-width:2.08333;stroke-linecap:butt;stroke-linejoin:round;stroke-miterlimit:10;stroke-dasharray:none"
             id="path6107" /><g
             id="g6109"
             transform="scale(4.16667,4.16667)"><text
               transform="matrix(1,0,0,-1,25.9997,249.96)"
               id="text6111"><tspan
                 style="fill:#000000;fill-opacity:1;fill-rule:nonzero;stroke:none;font-family:Helvetica;font-variant:normal;font-weight:normal;font-size:16;writing-mode:lr;-inkscape-font-specification:Helvetica"
                 x="0"
                 y="0"
                 id="tspan6113">0</tspan></text>
</g><path
             d="m 157.332,1277.5 20,0"
             style="fill:none;stroke:#000000;stroke-opacity:1;stroke-width:2.08333;stroke-linecap:butt;stroke-linejoin:round;stroke-miterlimit:10;stroke-dasharray:none"
             id="path6115" /><g
             id="g6117"
             transform="scale(4.16667,4.16667)"><text
               transform="matrix(1,0,0,-1,25.9997,300.84)"
               id="text6119"><tspan
                 style="fill:#000000;fill-opacity:1;fill-rule:nonzero;stroke:none;font-family:Helvetica;font-variant:normal;font-weight:normal;font-size:16;writing-mode:lr;-inkscape-font-specification:Helvetica"
                 x="0"
                 y="0"
                 id="tspan6121">2</tspan></text>
</g><path
             d="m 157.332,1489.5 20,0"
             style="fill:none;stroke:#000000;stroke-opacity:1;stroke-width:2.08333;stroke-linecap:butt;stroke-linejoin:round;stroke-miterlimit:10;stroke-dasharray:none"
             id="path6123" /><g
             id="g6125"
             transform="scale(4.16667,4.16667)"><text
               transform="matrix(1,0,0,-1,25.9997,351.72)"
               id="text6127"><tspan
                 style="fill:#000000;fill-opacity:1;fill-rule:nonzero;stroke:none;font-family:Helvetica;font-variant:normal;font-weight:normal;font-size:16;writing-mode:lr;-inkscape-font-specification:Helvetica"
                 x="0"
                 y="0"
                 id="tspan6129">4</tspan></text>
</g><path
             d="m 157.332,1701.5 20,0"
             style="fill:none;stroke:#000000;stroke-opacity:1;stroke-width:2.08333;stroke-linecap:butt;stroke-linejoin:round;stroke-miterlimit:10;stroke-dasharray:none"
             id="path6131" /><g
             id="g6133"
             transform="scale(4.16667,4.16667)"><text
               transform="matrix(1,0,0,-1,25.9997,402.6)"
               id="text6135"><tspan
                 style="fill:#000000;fill-opacity:1;fill-rule:nonzero;stroke:none;font-family:Helvetica;font-variant:normal;font-weight:normal;font-size:16;writing-mode:lr;-inkscape-font-specification:Helvetica"
                 x="0"
                 y="0"
                 id="tspan6137">6</tspan><tspan
                 style="fill:#000000;fill-opacity:1;fill-rule:nonzero;stroke:none;font-family:Helvetica;font-variant:normal;font-weight:normal;font-size:16;writing-mode:lr;-inkscape-font-specification:Helvetica"
                 x="11.76 19.76 24.208 33.104"
                 y="-10.08"
                 sodipodi:role="line"
                 id="tspan6139">x 10</tspan></text>
<text
               transform="matrix(1,0,0,-1,67.9997,422.52)"
               id="text6141"><tspan
                 style="fill:#000000;fill-opacity:1;fill-rule:nonzero;stroke:none;font-family:Helvetica;font-variant:normal;font-weight:normal;font-size:10.6666;writing-mode:lr;-inkscape-font-specification:Helvetica"
                 x="0 6.2292944"
                 y="0"
                 sodipodi:role="line"
                 id="tspan6143">−4</tspan></text>
</g></g></g><g
         id="g6145"><g
           id="g6147"
           clip-path="url(#clipPath6149)"><path
             d="m 446.332,1481.5 1,12 1,11 2,-14 1,5 2,9 1,-12 1,4 2,2 1,-4 2,-4 1,32 2,-45 1,20 1,-1 2,9 1,-16 2,6 1,7 1,-3 2,8 1,-9 2,5 1,-8 2,9 1,-7 1,7 2,-8 1,10 2,-15 1,13 2,-2 1,-1 1,-1 2,-3 3,0 1,2 1,4 2,-5 1,3 2,1 1,5 2,2 1,-25 1,13 2,1 1,-5 2,-6 1,13 1,-14 2,0 1,10 2,4 3,6 1,-10 1,2 2,8 1,-4 2,6 1,0 2,-2 1,-9 1,7 2,-18 1,13 2,20 1,-37 2,56 1,-49 1,8 2,0 1,1 2,0 1,-1 1,-6 2,10 1,-2 2,12 1,-3 2,-15 1,13 2,1 1,-15 1,7 2,-1 1,-10 2,8 1,-1 1,2 2,0 1,-14 2,18 1,-7 1,5 2,-7 1,4 2,-5 1,3 1,-6 2,2 1,-12 1,4 2,14 1,-12 2,-6 1,31 1,-18 2,11 1,-22 2,7 1,-3 1,9 2,-4 1,-7 2,4 1,-4 1,15 2,-17 1,1 1,16 2,-2 1,-14 2,2 1,-9 1,5 2,6 1,0 1,1 2,-8 1,3 1,2 2,0 1,-12 2,7 1,1 1,-4 2,-1 1,4 1,-9 2,5 1,-9 1,12 2,-9 1,2 1,-3 2,5 1,-11 1,20 1,-16 2,9 1,-10 1,11 2,-4 1,0 1,-5 2,8 1,-5 1,0 2,-5 1,1 1,-2 2,5 1,-1 1,-4 2,6 1,4 1,11 2,-35 1,21 1,-14 1,-13 2,17 1,-1 1,-5 1,-10 2,7 1,8 1,-4 2,-4 1,4 1,-5 1,13 2,-8 1,2 1,4 2,-8 1,-7 1,15 1,-13 2,4 1,3 1,5 1,0 2,-8 1,-9 1,8 1,-9 2,18 1,-22 1,-3 1,21 2,-21 2,13 1,9 2,-8 1,1 1,-11 1,4 2,4 1,-27 1,-8 1,0 1,-7 1,-2 1,0 1,-11 2,-7 1,19 1,-25 1,-10 1,4 1,-12 1,3 1,0 1,1 0,-21 1,17 1,-17 1,2 1,0 1,-12 1,5 1,-3 1,-13 1,15 0,-4 1,4 1,3 1,-3 1,-4 1,-17 1,11 1,-12 0,2 1,0 1,-1 1,-5 1,7 0,-8 1,2 1,-7 1,9 1,-12 0,3 1,5 1,-7 1,5 1,-7 0,-7 1,2 1,-3 1,39 1,1 0,-37 1,-10 1,-16 0,-4 1,-22 1,23 0,-19 1,-20 0,6 2,-19 -1,0 1,-3 1,-3 0,-10 1,-6 0,1 0,-10 1,-5 0,-6 1,13 0,27 0,-50 1,16 0,5 0,-47 1,25 0,-31 1,18 0,-14 0,2 1,-2 0,-11 1,-2 0,-57 1,10 0,-2 0,23"
             style="fill:none;stroke:#0100ff;stroke-opacity:1;stroke-width:2.08333;stroke-linecap:butt;stroke-linejoin:round;stroke-miterlimit:10;stroke-dasharray:none"
             id="path6153" /><path
             d="m 164.332,1157.5 0,11 0,-4 1,-7 0,-14 0,22 1,1 0,8 1,-10 0,-1 0,8 1,-6 0,5 0,-1 1,2 0,-2 1,7 0,-3 0,4 1,1 0,-4 0,10 1,-4 0,-7 1,7 0,8 0,-22 1,19 0,1 1,6 0,1 0,-3 1,5 0,5 1,-4 0,-4 0,6 1,-9 0,9 1,2 0,-9 1,14 0,-7 1,1 0,7 0,-3 1,0 0,6 1,7 0,-7 1,1 0,-29 1,38 0,4 1,-7 0,1 1,-1 0,12 1,-11 0,7 1,-2 0,2 1,-2 0,3 1,10 0,-5 1,-2 0,1 1,6 1,-2 0,-12 1,2 0,25 1,-13 0,19 1,1 2,-5 -1,0 1,-3 1,1 1,10 0,-9 1,-6 0,12 1,4 1,-6 1,-1 1,21 0,-14 1,-6 0,27 1,-12 1,6 1,4 0,-5 1,13 1,-10 0,36 1,-30 1,12 1,0 0,-13 1,8 1,-7 0,4 1,-5 1,-10 1,32 0,-18 1,17 1,-5 1,-2 0,17 1,-4 1,-9 1,24 1,-8 1,6 0,-13 1,19 1,-11 1,-6 1,22 0,-29 1,29 1,-12 1,12 1,-19 1,11 1,-2 0,5 1,5 1,6 1,4 1,-11 1,15 1,-1 1,3 1,-6 1,9 0,-2 1,6 1,-4 1,7 1,0 1,-10 1,4 1,-6 1,13 1,1 1,0 1,-6 1,20 1,5 1,-12 1,11 1,-6 1,1 1,6 1,-14 1,11 1,5 1,5 1,10 1,-20 1,16 1,-10 1,10 1,-6 1,-5 1,10 2,12 1,-6 1,1 1,-9 1,13 1,-5 1,18 1,1 1,-5 3,-3 1,-6 1,12 1,-12 1,-4 1,21 1,-9 1,0 2,18 1,-10 1,-1 1,19 1,-6 2,6 1,-20 1,21 1,-14 1,10 2,-4 1,17 1,-28 1,17 1,-11 2,15 1,-7 1,10 1,-3 1,9 3,-3 1,-9 1,-4 2,10 1,6 1,2 1,-6 2,6 1,8 1,-8 1,11 2,-14 1,5 1,6 2,3 1,-1 1,-9 1,16 2,-10 1,-3 1,14 2,-9 1,-3 1,1 1,15 2,-6 1,-11 1,13 2,-14 1,-6 1,26 2,-16 1,9 1,7 1,-10 2,14 1,-6 2,25 1,-18 1,-9 2,6 1,-32 1,20 1,2 2,19 1,-6 2,-9 1,15 1,-14 2,5 1,9 1,-5 2,9 1,-15 1,14 2,1 1,-3 2,0 1,-8 1,18 2,-6 1,-5 1,0 2,9 1,-15 2,8 1,-4 1,0 2,3 1,2 1,1 2,0 1,-28 2,52 1,-27 1,4 2,5 1,-9 2,6 1,6 1,-20 2,18 1,-15 1,0 2,11 1,-2 2,5 2,0 2,2 1,-5 2,-11"
             style="fill:none;stroke:#0100ff;stroke-opacity:1;stroke-width:2.08333;stroke-linecap:butt;stroke-linejoin:round;stroke-miterlimit:10;stroke-dasharray:none"
             id="path6155" /><path
             d="m 157.332,1155.5 0,-4 1,5 0,-42 1,45 0,-15 0,20 1,6 0,-26 0,13 1,-2 0,-8 0,10 1,2 0,-12 0,14 1,2 0,-1 0,2 1,-7"
             style="fill:none;stroke:#0100ff;stroke-opacity:1;stroke-width:2.08333;stroke-linecap:butt;stroke-linejoin:round;stroke-miterlimit:10;stroke-dasharray:none"
             id="path6157" /><path
             d="m 1106.33,1364.5 1,-10 1,3 1,11 1,-15 0,12 1,-9 1,8 1,-2 1,-3 1,4 1,-4 1,8 1,-10 1,4 1,12 1,-8 1,0 1,3 1,1 1,-1 1,8 1,-4 1,-5 1,7 1,-8 1,10 1,-3 1,0 1,-2 1,2 2,5 1,-1 1,2 1,-3 1,0 1,-1 1,20 1,-29 1,13 1,3 1,-4 2,4 1,-5 1,11 1,-10 1,0 1,2 1,0 1,1 1,6 1,-9 1,10 1,-2 1,1 1,-8 1,18 1,-16 1,-4 1,-7 1,11 1,-1 1,15 1,-5 1,6 1,-3 2,1 1,0 1,-1 1,6 1,-4 1,-16 1,30 1,-14 1,3 1,-4 1,-1 1,14 2,-4 1,-9 1,4 1,5 1,-10 1,14 1,-9 1,-1 1,0 1,17 2,-21 1,13 1,-12 1,6 1,-1 1,3 1,1 1,0 1,11 1,-6 2,9 1,-14 1,4 1,15 1,-18 1,5 1,2 1,-4 2,-6 1,4 1,6 1,7 1,-3 1,-10 1,-1 1,10 2,-7 1,2 1,8 1,-5 1,8 1,-3 1,-3 2,5 1,7 1,10 1,-16 1,-13 1,15 2,-18 1,13 1,2 1,-7 1,14 1,-1 2,-9 1,6 1,-3 1,0 1,7 1,-2 3,0 1,-7 1,5 1,5 1,1 2,-4 1,12 1,-17 1,-17 1,4 1,-14 1,5 1,-3 1,2 2,-9 1,-6 1,1 1,-3 1,14 1,-12 1,-3 1,-7 1,4 1,8 1,-9 1,-11 1,4 1,3 1,-11 1,4 1,-4 1,-9 1,16 1,-14 0,3 1,0 1,-3 1,-3 1,10 1,-21 1,5 1,3 1,-6 1,2 1,12 1,-11 1,2 0,-9 1,6 1,-9 1,6 1,-4 1,-7 1,2 1,3 0,-4 1,5 1,-3 1,13 1,-5 1,-14 1,-31 0,5 1,-21 1,9 0,-22 1,11 1,12 1,-28 0,-3 1,9 0,9 1,-16 1,3 0,-8 1,-27 0,15 1,-20 1,6 0,3 1,-12 0,5 1,-5 0,-3 1,4 0,-2 1,2 0,-8 1,-7 0,-4 1,-3 0,3 1,-6 0,-3 1,9 0,-8 0,2 1,7 0,-9 1,7 0,-7 1,-1 0,1 0,-8 1,4 0,-11 1,13 0,-12 1,7 0,-10 0,5 1,-5 0,3 1,0 0,-10 1,9 0,-13 1,1 0,-7 1,4 0,-5 0,2 1,-11 0,6 0,-3 1,-4 0,-4 1,38 0,-85 0,66 1,-42 0,35 0,-20 1,-6 0,-14 0,24 0,-8 1,-4 0,-33 0,18 1,23 0,-33 0,4 1,-4 0,2 0,-5 1,-1 0,-7 0,11 0,-9 1,-1 0,4 0,-10 1,3 0,-18 0,7 1,-5 0,-8 0,11"
             style="fill:none;stroke:#ff0000;stroke-opacity:1;stroke-width:2.08333;stroke-linecap:butt;stroke-linejoin:round;stroke-miterlimit:10;stroke-dasharray:none"
             id="path6159" /><path
             d="m 909.332,1174.5 0,-6 0,5 1,-1 0,-1 0,2 1,6 0,-8 0,4 1,1 0,-6 1,7 0,1 0,-3 1,-17 0,37 0,-26 1,17 0,15 0,-57 1,45 1,-3 0,19 0,-23 1,9 0,-10 1,9 0,-4 0,3 1,-1 0,5 1,-12 0,7 0,-5 1,8 0,-2 1,11 0,-4 1,-4 0,8 0,-4 1,6 0,-14 1,5 0,-6 0,11 1,-2 1,11 0,-8 1,3 0,2 1,-6 0,8 0,-6 1,8 0,-3 1,0 0,7 1,-4 0,-4 1,0 0,3 1,-4 0,10 1,-10 0,3 0,-2 1,12 0,-14 1,2 0,29 1,-31 0,9 1,-1 0,20 1,-1 0,-26 1,16 0,-15 1,7 0,10 1,-15 0,14 1,1 0,-14 1,14 0,-3 1,-1 0,6 1,-7 0,1 1,2 1,2 0,6 1,-7 0,4 1,0 0,-6 1,0 0,4 1,1 1,4 0,7 1,1 1,-7 0,5 2,-3 0,2 1,5 0,-6 1,4 0,1 1,-4 1,6 0,-4 1,1 0,3 1,3 0,-6 1,4 0,2 1,5 1,-10 0,10 1,-4 0,2 1,-6 1,12 0,-12 1,9 1,1 1,2 1,-7 0,8 1,-3 0,-7 1,6 1,4 0,-5 1,25 1,-9 0,-7 1,-12 1,8 1,-1 0,9 1,-1 0,-2 1,7 1,-7 0,7 1,-4 1,1 0,-4 1,3 1,1 0,2 1,4 1,-6 0,14 1,-9 0,-3 1,15 1,-15 0,6 1,5 1,0 0,-6 1,9 1,-5 0.998,1 0,-2 1,6 1,-3 0,5 1,-5 1,6 0,2 1,-6 1,5 0,7 1,-7 1,-1 1,4 0,-3 1,0 1,1 0,3 1,-5 1,1 1,0 0,7 1,-3 1,1 0,-1 1,8 1,-13 1,1 0,-14 1,34 1,-14 0,16 1,-11 1,-4 1,-2 0,12 1,-7 1,10 1,1 0,8 1,-18 1,14 1,-11 0,-5 1,11 1,-12 1,24 1,-10 0,-2 1,2 1,11 1,-8 0,1 1,-2 1,8 1,-12 1,11 0,7 1,-10 1,0 1,10 1,-6 0,-5 1,13 1,-10 1,11 1,-7 1,8 0,-9 1,9 1,-1 1,-4 1,9 1,-6 0,-3 1,13 1,-17 1,8 1,-1 1,5 1,8 1,-4 1,-4 1,12 1,-7 1,-4 1,8 0,-7 1,9 1,-7 1,2 1,2 1,1 1,0 1,-4 0,9 1,-4 1,-1 1,11 1,-15 1,7 1,9 1,-10 1,7 0,-5 1,1 1,2 1,-1 1,-1 1,11 1,-9 1,8 1,-9 1,5 1,-3 0,3 1,4 1,-5 1,2 1,14 1,-11 1,2 1,4 1,0 1,2 1,-6 1,14 1,-11 1,-1 1,11"
             style="fill:none;stroke:#ff0000;stroke-opacity:1;stroke-width:2.08333;stroke-linecap:butt;stroke-linejoin:round;stroke-miterlimit:10;stroke-dasharray:none"
             id="path6161" /><path
             d="m 817.332,1108.5 0,16 0,-9 1,3 0,3 0,-3 1,3 0,2 0,-8 1,5 0,-6 0,2 1,1 0,-8 0,11 0,-5 1,-1 0,-9 0,16 0,-13 1,-1 0,-12 0,11 1,-8 0,-28 0,32 0,-25 1,-2 0,-9 0,28 1,-1 0,25 0,-16 1,13 0,-7 0,19 1,-9 0,9 0,-13 1,10 0,-18 0,20 0,-19 1,4 0,-7 0,8 1,1 0,6 1,-3 0,-5 0,5 1,-7 0,7 0,-1 1,0 0,-3 0,4 0,-4 1,2 0,-5 0,7 0,-4 1,-1 0,-2 0,7 1,-6 0,4 0,-5 1,3 0,-5 0,6 0,-2 1,-3 0,-13 0,39 0,-21 1,-8 0,-7 0,18 0,-7 1,3 0,-14 0,5 1,2 0,-5 0,8 0,-5 1,-2 0,4 0,-3 1,-1 0,6 1,-5 0,9 0,-3 1,-2 0,4 0,-1 1,1 0,6 0,-11 1,7 0,-3 0,5 0,-1 1,-2 0,-3 0,5 0,-4 1,-1 0,7 0,-5 1,6 0,-4 0,1 1,0 0,-5 0,9 0,-7 1,2 0,8 1,-9 0,-1 0,7 0,-3 1,-3 0,-1 0,8 0,-3 1,1 0,-6 0,10 1,-3 0,-3 0,4 1,-4 0,7 1,-5 0,-4 0,11 0,-1 1,-5 0,3 0,-12 1,22 0,-13 0,2 1,11 0,-14 1,18 0,-17 0,5 1,-6 0,6 1,-1 0,-2 0,3 0,-1 1,4 0,-10 0,14 0,-7 1,-3 0,7 0,-2 1,1 0,-4 0,8 0,-2 1,-1 0,2 0,-5 1,6 0,-7 0,8 1,3 0,-11 0,10 1,-11 0,10 0,-6 1,24 0,-35 1,14 0,-3 0,7 0,-5 1,2 0,-2 0,7 0,-7 1,4 0,-3 0,7 0,-3 1,-1 0,-4 0,9 1,-7 0,10 1,-11 0,9 0,-6 1,7 0,-4 0,1 1,3 0,-3 0,2 1,0 0,-2 0,4 0,-1 1,1 0,2 0,-4 1,7 0,-7 0,3 1,2 0,-3 0,9 1,-6 0,-1 0,5 0,-3 1,-2 0,5 0,-4 1,7 0,-8 0,8 1,-7 0,9 0,-7 1,6 0,-5 0,5 1,-2 0,-1 0,8 0,-1 1,-7 0,6 0,-1 1,-2 0,-2 0,7 0,-1 1,2 0,-2 0,3 1,-5 0,4 1,2 0,-6 0,5 1,-1 0,-1 0,3 1,-3 0,9 0,-3 1,-3 0,6 0,-3 1,0 0,4 0,-2 1,2 0,-4 0,5 1,-4 0,5 0,-3 1,2 0,-3 0,1 1,1 0,2 1,-1 0,15 0,-8 1,-13 0,-14 0,37 1,-12 0,-7 0,10 1,-7 0,5 0,-2 1,4"
             style="fill:none;stroke:#ff0000;stroke-opacity:1;stroke-width:2.08333;stroke-linecap:butt;stroke-linejoin:round;stroke-miterlimit:10;stroke-dasharray:none"
             id="path6163" /><path
             d="m 800.332,1109.5 0,-8 0,9 1,3 0,-10 0,17 0,-11 1,11 0,9 1,1 0,-2 0,8 0,-6 1,15 0,-23 0,12 1,5 0,-18 0,36 0,-19 1,-3 0,-11 0,18 0,-3 1,2 0,-10 0,12 1,-4 0,-2 0,7 0,-2 1,-4 0,-3 0,1 1,-5 0,-10 0,11 0,-9 1,-7 0,9 1,-5 0,9 1,-2 0,-9 0,2 1,-4 0,6 1,-3 0,7 0,-4 1,-4 0,2 0,-4 1,3 0,-11"
             style="fill:none;stroke:#ff0000;stroke-opacity:1;stroke-width:2.08333;stroke-linecap:butt;stroke-linejoin:round;stroke-miterlimit:10;stroke-dasharray:none"
             id="path6165" /><path
             d="m 1540.33,1376.5 1,7 1,7 1,-5 1,4 1,-2 1,8 1,-3 1,3 1,6 1,0 2,-5 1,1 1,2 1,3 1,8 1,-9 1,16 1,-10 1,-2 2,-4 1,4 1,1 1,-7 1,12 1,4 1,-4 1,6 2,3 1,-4 1,6 1,7 1,-8 1,1 2,8 1,-12 1,-8 2,19 1,-4 2,3 1,0 1,7 1,-8 1,6 2,2 1,-7 1,7 1,0 1,4 2,-3 1,-2 1,0 1,1 2,-2 1,11 1,3 1,-12 1,16 2,-4 1,-5 1,10 1,-5 2,-2 1,4 1,-4 1,8 2,-5 1,4 1,-2 2,0 1,2 1,-2 1,-6 2,4 1,8 1,-7 1,-4 2,5 1,-2 1,-7 1,12 2,11 1,-12 1,6 1,2 2,9 1,-6 1,-12 2,5 1,12 1,-3 2,6 1,-18 1,8 1,4 2,11 1,-17 1,9 2,-4 1,-10 1,15 2,-5 1,-8 1,7 2,4 1,-8 1,1 1,6 2,-11 1,10 1,-5 2,14 1,-36 3,47 1,-32 1,22 2,-3 1,-2 1,-13 1,13 2,-5 1,11 1,-15 2,-10 1,26 1,-16 2,-2 1,15 1,-20 2,13 1,11 1,-18 2,14 1,-9 1,1 1,1 2,13 1,0 2,-5 1,1 1,1 2,-6 1,13 1,-25 2,14 1,-15 1,13 1,1 2,-11 1,9 1,3 2,-17 1,16 1,-7 2,-3 1,0 1,1 2,17 1,-10 1,-10 2,7 1,-1 1,3 1,-4 2,5 1,-7 1,5 2,-1 1,-6 1,3 2,0 1,-2 1,-1 2,7 1,-2 1,-6 1,7 2,-11 1,5 1,1 2,-10 1,4 1,2 1,-1 2,2 1,2 1,-11 2,8 1,6 1,-4 1,-2 2,4 1,0 1,-4 2,-1 1,10 1,-17 1,-3 2,2 1,9 1,-5 2,-8 1,10 1,3 1,-6 2,3 1,-13 1,7 1,0 2,-7 1,6 1,6 1,-17 2,8 1,11 1,-17 1,8 2,0 1,1 1,-1 1,0 2,-11 1,0 1,9 1,6 2,-14 1,1 1,11 1,-6 1,-4 2,9 1,3 1,-4 1,3 2,-14 1,-1 4,2 1,-1 1,-3 1,0 1,13 2,2 1,-9 1,-2 1,7 1,-35 2,5 1,-11 1,-8 1,4 1,-13 1,-3 1,0 1,-14 1,0 1,13 1,-33 1,7 1,21 1,-12 1,3 1,-16 1,-6 1,-8 1,6 0,-8 1,1 1,-1 1,-9 1,4 1,2 1,-5 1,26 0,-31 1,-8 1,10 1,-14 1,19 1,-9 0,-2 1,1 1,-7 1,3 1,-2 1,-3 0,3 1,-4 1,10 1,-11 1,-2 0,1 1,7 1,-8 1,-3 1,-9 0,9 1,33 1,-2 13,-116 3,-77"
             style="fill:none;stroke:#00ff00;stroke-opacity:1;stroke-width:2.08333;stroke-linecap:butt;stroke-linejoin:round;stroke-miterlimit:10;stroke-dasharray:none"
             id="path6167" /><path
             d="m 1374.33,1093.5 0,6 0,-3 1,1 0,2 0,-6 1,-1 0,-1 0,11 0,-8 1,3 0,2 0,-7 1,7 0,-5 0,6 0,-4 1,1 0,-5 0,7 0,-3 1,1 0,-2 0,5 0,-2 1,1 0,-5 0,6 0,-6 1,4 0,-4 0,8 0,-1 1,-5 0,4 1,-2 0,5 1,1 0,-7 1,3 0,5 0,-1 1,1 0,-4 0,5 0,-4 1,1 0,-3 0,6 0,-1 1,-2 0,-1 0,7 0,-2 1,-2 0,-4 0,5 0,-2 1,4 0,-6 0,8 0,-3 1,2 0,-6 0,8 0,-3 1,1 0,-5 0,11 1,-3 0,4 0,-5 1,-6 0,11 0,-9 1,11 5,6 0,4 2,6 0,6 1,3 0,-2 0,4 0,-1 1,-2 0,8 1,-3 0,-5 1,11 0,2 0,-7 1,-9 0,21 0,-10 1,-2 0,-1 0,2 1,7 0,9 0,-9 1,0 0,-2 0,6 1,-10 0,10 0,-6 1,3 0,1 0,-4 1,9 0,-15 0,1 1,18 0,4 1,-10 0,8 0,-12 1,6 0,6 0,-6 1,9 0,-10 0,6 1,-1 0,12 0,-8 1,4 0,-10 1,17 0,-17 1,13 0,-14 1,10 0,-8 0,3 1,0 1,24 0,8 0,-13 1,-12 0,16 1,-9 0,-4 0,11 1,-5 0,13 1,-8 0,7 0,-3 1,7 0,-7 1,3 0,1 1,5 1,-1 0,3 1,5 0,-7 1,6 0,3 1,-4 0,18 1,-30 0,22 1,-3 0,-5 1,7 0,-1 1,4 0,-6 1,6 0,-2 1,1 0,7 1,-4 0,-2 1,7 0,4 1,2 0,-3 1,2 0,6 1,0 1,-7 0,11 1,0 0,-7 1,9 0,-10 1,4 1,7 0,-12 1,7 0,3 1,2 0,1 1,5 1,-1 0,2 1,-5 0,3 1,8 1,-23 0,20 1,0 1,6 0,-2 1,1 0,6 1,-2 1,4 0,-1 1,17 1,-13 1,2 0,5 1,2 1,-6 0,-3 1,26 1,-33 0,10 1,9 1,7 1,-6 0,7 1,-6 1,-1 0,9 1,-4 1,9 1,1 0,-2 1,14 1,-13 1,23 1,-30 0,10 1,-1 1,11 1,-3 1,8 0,-2 1,-4 1,3 1,2 2,6 -1,0 1,0 1,2 1,-4 1,13 1,-5 1,12 0,-4 1,-3 1,2 1,8 1,-4 2,-1 1,-9 1,4 0,4 1,0 1,10 1,4 1,4 1,-3 1,-1 1,5 1,5 1,-6 1,-3 1,4 1,0 1,5 1,2 1,-3 1,10 1,-13 1,10 0,-2 1,-3 1,1 1,11 1,-9 1,16 1,-12 1,11 1,-3 1,-1 2,5 1,5 1,8 1,-1 1,-19 1,18 1,-15"
             style="fill:none;stroke:#00ff00;stroke-opacity:1;stroke-width:2.08333;stroke-linecap:butt;stroke-linejoin:round;stroke-miterlimit:10;stroke-dasharray:none"
             id="path6169" /><path
             d="m 1359.33,1075.5 0,4 1,-6 0,-1 0,10 0,-3 1,2 0,-2 0,8 0,-4 1,3 0,-4 0,9 0,-4 1,-3 0,-3 0,9 1,-6 0,-11 0,12 0,-5 1,-1 0,11 0,-3 1,2 0,-3 0,7 1,-4 0,-5 0,33 0,-31 1,3 0,-6 0,10 0,-6 1,3 0,-11 0,46 0,-36 1,-2 0,6 0,-2 1,-3 0,10 0,-1 1,0 0,-6 0,2 1,1 0,-3 0,7 0,-2 1,2 0,-5"
             style="fill:none;stroke:#00ff00;stroke-opacity:1;stroke-width:2.08333;stroke-linecap:butt;stroke-linejoin:round;stroke-miterlimit:10;stroke-dasharray:none"
             id="path6171" /></g></g><g
         id="g6173"><g
           id="g6175"
           clip-path="url(#clipPath6177)"><g
             id="g6181"
             transform="scale(4.16667,4.16667)"><text
               transform="matrix(1,0,0,-1,178.64,221.4)"
               id="text6183"><tspan
                 style="font-size:16px;font-variant:normal;font-weight:normal;writing-mode:lr-tb;fill:#000000;fill-opacity:1;fill-rule:nonzero;stroke:none;font-family:Helvetica;-inkscape-font-specification:Helvetica"
                 sodipodi:role="line"
                 id="tspan6185"
                 x="0"
                 y="0">Cumulative distance in channel</tspan></text>
<text
               transform="matrix(0,1,1,0,17.5997,304.44)"
               id="text6187"><tspan
                 style="fill:#000000;fill-opacity:1;fill-rule:nonzero;stroke:none;font-family:Helvetica;font-variant:normal;font-weight:normal;font-size:16;writing-mode:lr;-inkscape-font-specification:Helvetica"
                 x="0 10.672 19.568 23.12 32.016 40.016 43.568 48.016"
                 y="0"
                 sodipodi:role="line"
                 id="tspan6189">Velocity</tspan></text>
</g><path
             d="m 157.332,168.5 2083,0 0,636 -2083,0 0,-636 z"
             style="fill:#ffffff;fill-opacity:1;fill-rule:evenodd;stroke:none"
             id="path6191" /><path
             d="m 157.332,168.5 0,636 2082.998,0 0,-636 -2082.998,0"
             style="fill:none;stroke:#ffffff;stroke-opacity:1;stroke-width:2.08333;stroke-linecap:butt;stroke-linejoin:round;stroke-miterlimit:10;stroke-dasharray:none"
             id="path6193" /><path
             d="m 157.332,168.5 2082.998,0"
             style="fill:none;stroke:#000000;stroke-opacity:1;stroke-width:2.08333;stroke-linecap:butt;stroke-linejoin:round;stroke-miterlimit:10;stroke-dasharray:none"
             id="path6195" /><path
             d="m 157.332,168.5 0,636"
             style="fill:none;stroke:#000000;stroke-opacity:1;stroke-width:2.08333;stroke-linecap:butt;stroke-linejoin:round;stroke-miterlimit:10;stroke-dasharray:none"
             id="path6197" /><path
             d="m 157.332,168.5 0,21"
             style="fill:none;stroke:#000000;stroke-opacity:1;stroke-width:2.08333;stroke-linecap:butt;stroke-linejoin:round;stroke-miterlimit:10;stroke-dasharray:none"
             id="path6199" /><g
             id="g6201"
             transform="scale(4.16667,4.16667)"><text
               transform="matrix(1,0,0,-1,33.4397,22.68)"
               id="text6203"><tspan
                 style="fill:#000000;fill-opacity:1;fill-rule:nonzero;stroke:none;font-family:Helvetica;font-variant:normal;font-weight:normal;font-size:16;writing-mode:lr;-inkscape-font-specification:Helvetica"
                 x="0"
                 y="0"
                 id="tspan6205">0</tspan></text>
</g><path
             d="m 454.332,168.5 0,21"
             style="fill:none;stroke:#000000;stroke-opacity:1;stroke-width:2.08333;stroke-linecap:butt;stroke-linejoin:round;stroke-miterlimit:10;stroke-dasharray:none"
             id="path6207" /><g
             id="g6209"
             transform="scale(4.16667,4.16667)"><text
               transform="matrix(1,0,0,-1,100.16,22.68)"
               id="text6211"><tspan
                 style="fill:#000000;fill-opacity:1;fill-rule:nonzero;stroke:none;font-family:Helvetica;font-variant:normal;font-weight:normal;font-size:16;writing-mode:lr;-inkscape-font-specification:Helvetica"
                 x="0 8.896"
                 y="0"
                 sodipodi:role="line"
                 id="tspan6213">50</tspan></text>
</g><path
             d="m 752.332,168.5 0,21"
             style="fill:none;stroke:#000000;stroke-opacity:1;stroke-width:2.08333;stroke-linecap:butt;stroke-linejoin:round;stroke-miterlimit:10;stroke-dasharray:none"
             id="path6215" /><g
             id="g6217"
             transform="scale(4.16667,4.16667)"><text
               transform="matrix(1,0,0,-1,167.36,22.68)"
               id="text6219"><tspan
                 style="fill:#000000;fill-opacity:1;fill-rule:nonzero;stroke:none;font-family:Helvetica;font-variant:normal;font-weight:normal;font-size:16;writing-mode:lr;-inkscape-font-specification:Helvetica"
                 x="0 8.896 17.792"
                 y="0"
                 sodipodi:role="line"
                 id="tspan6221">100</tspan></text>
</g><path
             d="m 1049.33,168.5 0,21"
             style="fill:none;stroke:#000000;stroke-opacity:1;stroke-width:2.08333;stroke-linecap:butt;stroke-linejoin:round;stroke-miterlimit:10;stroke-dasharray:none"
             id="path6223" /><g
             id="g6225"
             transform="scale(4.16667,4.16667)"><text
               transform="matrix(1,0,0,-1,238.64,22.68)"
               id="text6227"><tspan
                 style="fill:#000000;fill-opacity:1;fill-rule:nonzero;stroke:none;font-family:Helvetica;font-variant:normal;font-weight:normal;font-size:16;writing-mode:lr;-inkscape-font-specification:Helvetica"
                 x="0 8.896 17.792"
                 y="0"
                 sodipodi:role="line"
                 id="tspan6229">150</tspan></text>
</g><path
             d="m 1347.33,168.5 0,21"
             style="fill:none;stroke:#000000;stroke-opacity:1;stroke-width:2.08333;stroke-linecap:butt;stroke-linejoin:round;stroke-miterlimit:10;stroke-dasharray:none"
             id="path6231" /><g
             id="g6233"
             transform="scale(4.16667,4.16667)"><text
               transform="matrix(1,0,0,-1,310.16,22.68)"
               id="text6235"><tspan
                 style="fill:#000000;fill-opacity:1;fill-rule:nonzero;stroke:none;font-family:Helvetica;font-variant:normal;font-weight:normal;font-size:16;writing-mode:lr;-inkscape-font-specification:Helvetica"
                 x="0 8.896 17.792"
                 y="0"
                 sodipodi:role="line"
                 id="tspan6237">200</tspan></text>
</g><path
             d="m 1644.33,168.5 0,21"
             style="fill:none;stroke:#000000;stroke-opacity:1;stroke-width:2.08333;stroke-linecap:butt;stroke-linejoin:round;stroke-miterlimit:10;stroke-dasharray:none"
             id="path6239" /><g
             id="g6241"
             transform="scale(4.16667,4.16667)"><text
               transform="matrix(1,0,0,-1,381.44,22.68)"
               id="text6243"><tspan
                 style="fill:#000000;fill-opacity:1;fill-rule:nonzero;stroke:none;font-family:Helvetica;font-variant:normal;font-weight:normal;font-size:16;writing-mode:lr;-inkscape-font-specification:Helvetica"
                 x="0 8.896 17.792"
                 y="0"
                 sodipodi:role="line"
                 id="tspan6245">250</tspan></text>
</g><path
             d="m 1942.33,168.5 0,21"
             style="fill:none;stroke:#000000;stroke-opacity:1;stroke-width:2.08333;stroke-linecap:butt;stroke-linejoin:round;stroke-miterlimit:10;stroke-dasharray:none"
             id="path6247" /><g
             id="g6249"
             transform="scale(4.16667,4.16667)"><text
               transform="matrix(1,0,0,-1,452.96,22.68)"
               id="text6251"><tspan
                 style="fill:#000000;fill-opacity:1;fill-rule:nonzero;stroke:none;font-family:Helvetica;font-variant:normal;font-weight:normal;font-size:16;writing-mode:lr;-inkscape-font-specification:Helvetica"
                 x="0 8.896 17.792"
                 y="0"
                 sodipodi:role="line"
                 id="tspan6253">300</tspan></text>
</g><path
             d="m 2240.33,168.5 0,21"
             style="fill:none;stroke:#000000;stroke-opacity:1;stroke-width:2.08333;stroke-linecap:butt;stroke-linejoin:round;stroke-miterlimit:10;stroke-dasharray:none"
             id="path6255" /><g
             id="g6257"
             transform="scale(4.16667,4.16667)"><text
               transform="matrix(1,0,0,-1,524.48,22.68)"
               id="text6259"><tspan
                 style="fill:#000000;fill-opacity:1;fill-rule:nonzero;stroke:none;font-family:Helvetica;font-variant:normal;font-weight:normal;font-size:16;writing-mode:lr;-inkscape-font-specification:Helvetica"
                 x="0 8.896 17.792"
                 y="0"
                 sodipodi:role="line"
                 id="tspan6261">350</tspan></text>
</g><path
             d="m 157.332,168.5 20,0"
             style="fill:none;stroke:#000000;stroke-opacity:1;stroke-width:2.08333;stroke-linecap:butt;stroke-linejoin:round;stroke-miterlimit:10;stroke-dasharray:none"
             id="path6263" /><g
             id="g6265"
             transform="scale(4.16667,4.16667)"><text
               transform="matrix(1,0,0,-1,25.9997,34.68)"
               id="text6267"><tspan
                 style="fill:#000000;fill-opacity:1;fill-rule:nonzero;stroke:none;font-family:Helvetica;font-variant:normal;font-weight:normal;font-size:16;writing-mode:lr;-inkscape-font-specification:Helvetica"
                 x="0"
                 y="0"
                 id="tspan6269">0</tspan></text>
</g><path
             d="m 157.332,380.5 20,0"
             style="fill:none;stroke:#000000;stroke-opacity:1;stroke-width:2.08333;stroke-linecap:butt;stroke-linejoin:round;stroke-miterlimit:10;stroke-dasharray:none"
             id="path6271" /><g
             id="g6273"
             transform="scale(4.16667,4.16667)"><text
               transform="matrix(1,0,0,-1,25.9997,85.56)"
               id="text6275"><tspan
                 style="fill:#000000;fill-opacity:1;fill-rule:nonzero;stroke:none;font-family:Helvetica;font-variant:normal;font-weight:normal;font-size:16;writing-mode:lr;-inkscape-font-specification:Helvetica"
                 x="0"
                 y="0"
                 id="tspan6277">2</tspan></text>
</g><path
             d="m 157.332,592.5 20,0"
             style="fill:none;stroke:#000000;stroke-opacity:1;stroke-width:2.08333;stroke-linecap:butt;stroke-linejoin:round;stroke-miterlimit:10;stroke-dasharray:none"
             id="path6279" /><g
             id="g6281"
             transform="scale(4.16667,4.16667)"><text
               transform="matrix(1,0,0,-1,25.9997,136.44)"
               id="text6283"><tspan
                 style="fill:#000000;fill-opacity:1;fill-rule:nonzero;stroke:none;font-family:Helvetica;font-variant:normal;font-weight:normal;font-size:16;writing-mode:lr;-inkscape-font-specification:Helvetica"
                 x="0"
                 y="0"
                 id="tspan6285">4</tspan></text>
</g><path
             d="m 157.332,804.5 20,0"
             style="fill:none;stroke:#000000;stroke-opacity:1;stroke-width:2.08333;stroke-linecap:butt;stroke-linejoin:round;stroke-miterlimit:10;stroke-dasharray:none"
             id="path6287" /><g
             id="g6289"
             transform="scale(4.16667,4.16667)"><text
               transform="matrix(1,0,0,-1,25.9997,187.32)"
               id="text6291"><tspan
                 style="fill:#000000;fill-opacity:1;fill-rule:nonzero;stroke:none;font-family:Helvetica;font-variant:normal;font-weight:normal;font-size:16;writing-mode:lr;-inkscape-font-specification:Helvetica"
                 x="0"
                 y="0"
                 id="tspan6293">6</tspan><tspan
                 style="fill:#000000;fill-opacity:1;fill-rule:nonzero;stroke:none;font-family:Helvetica;font-variant:normal;font-weight:normal;font-size:16;writing-mode:lr;-inkscape-font-specification:Helvetica"
                 x="11.76 19.76 24.208 33.104"
                 y="-10.08"
                 sodipodi:role="line"
                 id="tspan6295">x 10</tspan></text>
<text
               transform="matrix(1,0,0,-1,67.9997,207.24)"
               id="text6297"><tspan
                 style="fill:#000000;fill-opacity:1;fill-rule:nonzero;stroke:none;font-family:Helvetica;font-variant:normal;font-weight:normal;font-size:10.6666;writing-mode:lr;-inkscape-font-specification:Helvetica"
                 x="0 6.2292944"
                 y="0"
                 sodipodi:role="line"
                 id="tspan6299">−4</tspan></text>
</g></g></g><g
         id="g6301"><g
           id="g6303"
           clip-path="url(#clipPath6305)"><path
             d="m 482.332,580.5 0,20 1,-1 1,9 0,-16 1,6 0,7 1,-3 1,8 0,-9 1,5 0,-8 1,9 1,-7 0,7 1,-8 0,10 1,-15 1,13 0,-2 1,-1 0,-1 1,-3 1,0 1,2 0,4 1,-5 1,3 0,1 1,5 0,2 1,-25 1,13 0,1 1,-5 0,-6 1,13 0,-14 1,0 1,10 0,4 1,6 1,-10 1,2 0,8 1,-4 0,6 1,0 1,-2 0,-9 1,7 0,-18 1,13 1,20 0,-37 1,56 0,-49 1,8 1,1 1,-1 1,-6 1,10 0,-2 1,12 0,-3 1,-15 1,13 0,1 1,-15 0,7 1,-1 1,-10 0,8 1,-1 0,2 1,0 0,-14 1,18 1,-7 0,5 1,-7 0,4 1,-5 1,3 0,-6 1,2 0,-12 1,4 1,14 0,-12 1,-6 0,31 1,-18 1,11 0,-22 1,7 0,-3 1,9 1,-4 0,-7 1,4 0,-4 1,15 1,-17 0,1 1,16 0,-2 1,-14 1,2 0,-9 1,5 0,6 1,0 1,1 0,-8 1,3 0,2 1,0 0,-12 1,7 1,1 0,-4 1,-1 0,4 1,-9 1,5 0,-9 1,12 0,-9 1,2 1,-3 0,5 1,-11 0,20 1,-16 1,9 0,-10 1,11 0,-4 1,0 1,-5 0,8 1,-5 1,-5 1,1 0,-2 1,5 0,-1 1,-4 1,6 0,4 1,11 0,-35 1,21 1,-14 0,-13 1,17 0,-1 1,-5 0,-10 1,7 1,8 0,-4 1,-4 0,4 1,-5 1,13 0,-8 1,2 0,4 1,-8 1,-7 0,15 1,-13 0,4 1,3 1,5 1,-8 0,-9 1,8 1,-9 0,18 1,-22 0,-3 1,21 1,-21 1,13 0,9 1,-8 1,1 0,-11 1,4 0,4 1,-27 1,-8 1,-7 0,-2 1,0 0,-11 1,-7 1,19 0,-25 1,-10 0,4 1,-12 1,3 1,1 0,-21 1,17 1,-17 0,2 1,0 0,-12 1,5 1,-3 0,-13 1,15 0,-4 1,4 1,3 0,-3 1,-4 0,-17 1,11 1,-12 0,2 1,-1 1,-5 1,7 0,-8 1,2 0,-7 1,9 0,-12 1,3 1,5 0,-7 1,5 0,-7 1,-7 1,2 0,-3 1,39 0,1 1,-37 1,-10 0,-16 1,-4 0,-22 1,23 1,-19 0,-20 1,6 0,-20 1,1 1,0 0,-3 1,-3 0,-10 1,-6 1,1 0,-10 1,-5 0,-6 1,13 1,27 0,-50 1,16 0,5 1,-47 1,25 0,-8 1,-23 0,18 1,-14 0,1 1,6 1,-5 0,-2 1,-3 0,-1 1,-7 1,-2 0,-4 1,-7 0,-1 1,4 1,-19 0,-13 1,1 0,-9 1,-8 1,11 0,-12 1,10 0,-2 1,13 1,-8 0,18 1,-2"
             style="fill:none;stroke:#0100ff;stroke-opacity:1;stroke-width:2.08333;stroke-linecap:butt;stroke-linejoin:round;stroke-miterlimit:10;stroke-dasharray:none"
             id="path6309" /><path
             d="m 296.332,246.5 0,22 1,1 1,8 1,-10 0,-1 1,8 0,-6 1,5 1,-1 0,2 1,0 0,-2 1,7 1,-3 0,4 1,1 0,-4 1,10 0,-4 1,-7 1,7 0,8 1,-22 0,19 1,1 1,6 0,1 1,-3 0,5 1,5 1,-4 0,-4 1,6 0,-9 1,9 1,2 0,-9 1,14 0,-7 1,1 1,7 0,-3 1,0 0,6 1,7 1,-7 0,1 1,-29 0,38 1,4 1,-7 0,1 1,-1 0,12 1,-11 1,7 0,-2 1,2 0,-2 1,3 0,10 1,-5 1,-2 0,1 1,6 0,-2 1,-12 1,2 0,25 1,-13 0,19 1,1 2,-5 -1,0 1,-3 1,1 1,10 0,-9 1,-6 0,12 1,4 1,-6 1,-1 0,21 1,-14 1,-6 0,27 1,-12 0,6 1,4 1,-5 0,13 1,-10 0,36 1,-30 1,12 1,-13 0,8 1,-7 0,4 1,-5 1,-10 0,32 1,-18 0,17 1,-5 1,-2 0,17 1,-4 0,-9 1,24 1,-8 0,6 1,-13 0,19 1,-11 1,-6 0,22 1,-29 0,29 1,-12 1,12 0,-19 1,11 0,-2 1,5 1,5 0,6 1,4 0,-11 1,15 1,-1 0,3 1,-6 0,9 1,-2 1,6 0,-4 1,7 1,-10 0,4 1,-6 2,14 -1,0 1,-6 1,20 1,5 0,-12 1,11 0,-6 1,1 1,6 0,-14 1,11 0,5 1,5 1,10 0,-20 1,16 0,-10 1,10 1,-6 0,-5 1,10 0,12 1,-6 1,1 0,-9 1,13 0,-5 1,18 1,1 0,-5 1,-3 1,-6 1,12 0,-12 1,-4 0,21 1,-9 1,18 1,-10 0,-1 1,19 0,-6 1,6 1,-20 0,21 1,-14 0,10 1,-4 1,17 0,-28 1,17 0,-11 1,15 1,-7 0,10 1,-3 0,9 2,-3 0,-9 1,-4 0,10 1,6 1,2 0,-6 1,6 0,8 1,-8 1,11 0,-14 1,5 0,6 1,3 1,-1 0,-9 1,16 0,-10 1,-3 0,14 1,-9 1,-3 0,1 1,15 0,-6 1,-11 1,13 0,-14 1,-6 0,26 1,-16 1,9 0,7 1,-10 0,14 1,-6 1,25 0,-18 1,-9 0,6 1,-32 1,20 0,2 1,19 0,-6 1,-9 1,15 0,-14 1,5 0,9 1,-5 1,9 0,-15 1,14 0,1 1,-3 1,-8 1,18 0,-6 1,-5 1,9 1,-15 0,8 1,-4 1,3 2,3 -1,0 1,-28 1,52 1,-27 0,4 1,5 0,-9 1,6 1,6 0,-20 1,18 0,-15 1,0 1,11 0,-2 1,5 1,0 1,2 0,-5 1,-11 0,12 1,11 1,-14 0,5 1,9 0,-12 1,4 0,2 1,-4 1,-4 0,32 1,-45"
             style="fill:none;stroke:#0100ff;stroke-opacity:1;stroke-width:2.08333;stroke-linecap:butt;stroke-linejoin:round;stroke-miterlimit:10;stroke-dasharray:none"
             id="path6311" /><path
             d="m 279.332,258.5 1,0 0,-4 1,5 0,-13 1,-3 0,-26 1,45 1,-15 0,20 1,6 0,-11 1,-15 1,13 0,-2 1,-8 0,10 1,2 1,-12 0,10 1,4 0,2 1,-1 1,2 0,-7 1,11 0,-4 1,-7 1,-14"
             style="fill:none;stroke:#0100ff;stroke-opacity:1;stroke-width:2.08333;stroke-linecap:butt;stroke-linejoin:round;stroke-miterlimit:10;stroke-dasharray:none"
             id="path6313" /><path
             d="m 1273.33,502.5 0,3 1,1 1,0 0,11 1,-6 0,9 1,-14 1,4 0,15 1,-18 0,5 1,2 1,-4 0,-6 1,4 0,6 1,7 1,-3 0,-10 1,-1 0,10 1,-7 1,2 0,8 1,-5 0,8 1,-3 1,-3 0,5 1,7 0,10 1,-16 0,-13 1,15 1,-18 0,13 1,2 0,-7 1,14 1,-1 0,-9 1,6 0,-3 1,0 1,7 0,-2 1,0 1,-7 1,5 0,5 1,1 0,-4 1,12 1,-17 0,-17 1,4 0,-14 1,5 1,-3 0,2 1,-9 0,-6 1,1 1,-3 0,14 1,-12 0,-3 1,-7 1,4 0,8 1,-9 0,-11 1,4 0,3 1,-11 1,4 0,-4 1,-9 0,16 1,-14 1,3 1,-3 0,-3 1,10 1,-21 0,5 1,3 0,-6 1,2 1,12 0,-11 1,2 0,-9 1,6 1,-9 0,6 1,-4 0,-7 1,2 1,3 0,-4 1,5 0,-3 1,13 1,-5 0,-14 1,-31 0,5 1,-21 1,9 0,-22 1,11 0,12 1,-28 0,-3 1,9 1,9 0,-16 1,3 0,-8 1,-27 1,15 0,-20 1,6 0,3 1,-12 1,5 0,-5 1,-3 0,4 1,-2 1,2 0,-8 1,-7 1,-4 1,-3 0,3 1,-6 0,-3 1,9 1,-8 0,2 1,7 0,-9 1,7 1,-7 0,-1 1,1 0,-8 1,4 0,-11 1,13 1,-10 0,-2 1,7 0,-10 1,5 1,-5 0,3 1,0 0,-3 1,-7 1,9 0,-10 2,-2 -1,0 1,0 1,-7 0,4 1,-5 0,1 1,1 1,-11 0,6 1,-3 0,-4 1,-1 1,1 0,-4 1,38 0,-85 1,53 1,13 0,-42 1,35 0,-27 1,7 1,-6 0,10 1,-8 0,-16 1,16 0,-4 1,-17 1,15 0,-31 1,29 0,-11 1,23 1,-23 0,9 1,-10 0,-9 1,4 1,-4 0,-1 1,2 0,-3 1,3 1,1 0,-4 1,-1 0,-1 1,-2 1,5 0,1 1,-10 0,4 1,-2 1,-3 1,2 0,-1 1,4 1,-7 0,3 1,2 0,-6 1,3 1,-3 0,3 1,-2 0,3 1,-6 0,3 1,-3 1,2 0,-5 1,1 1,-2 1,3 0,-3 1,-1 1,2 1,-3 0,2 1,-2 0,-2 1,-7 1,7 0,-5 1,-1 1,4 1,-9 0,6 1,1 0,-1 1,-2 1,2 0,-4 1,3 0,-2 1,1 1,-3 0,1 1,-2 0,1 1,-3 1,3 0,-2 1,-1 0,4 2,-2 -1,0 1,0 1,-2 0,1 1,-1 1,0 1,1 0,1 1,-1 0,-1 1,1 1,1 0,1 1,1 2,0 0,3 1,-4 0,2 1,2 1,-6 0,6 1,-1 0,-3 1,2 1,-1 1,5"
             style="fill:none;stroke:#ff0000;stroke-opacity:1;stroke-width:2.08333;stroke-linecap:butt;stroke-linejoin:round;stroke-miterlimit:10;stroke-dasharray:none"
             id="path6315" /><path
             d="m 1088.33,320.5 1,2 1,0 0,2 1,6 0,-7 1,4 1,0 0,-6 1,0 0,4 1,1 1,4 1,7 0,1 1,-7 0,5 1,-4 1,1 1,2 0,5 1,-6 1,4 0,1 1,-4 0,6 1,-4 1,1 0,3 1,3 0,-6 1,4 1,2 0,5 1,-10 0,10 1,-4 1,2 0,-6 1,12 0,-12 1,9 1,1 1,2 1,-7 1,8 0,-3 1,-7 0,6 1,4 0,-5 1,25 1,-9 0,-7 1,-12 1,8 1,-1 0,9 1,-1 0,-2 1,7 1,-7 0,7 1,-4 0,1 1,-4 1,3 0,1 1,2 0,4 1,-6 1,14 0,-9 1,-3 0,15 1,-15 1,6 0,5 1,0 0,-6 1,9 1,-5 0,1 1,-2 0,6 1,-3 1,5 0,-5 1,6 0,2 1,-6 0,5 1,7 1,-7 0,-1 1,4 0,-3 1,0 1,1 0,3 2,-4 -1,0 1,0 1,7 0,-3 1,1 0,-1 1,8 1,-13 0,1 1,-14 0,34 1,-14 1,16 0,-11 1,-4 0,-2 1,12 1,-7 0,10 1,1 0,8 1,-18 1,14 0,-11 1,-5 0,11 1,-12 0,24 1,-10 1,-2 0,2 1,11 0,-8 1,1 1,-2 0,8 1,-12 0,11 1,7 1,-10 1,10 0,-6 1,-5 1,13 0,-10 1,11 0,-7 1,8 1,-9 0,9 1,-1 0,-4 1,9 1,-6 0,-3 1,13 0,-17 1,8 1,-1 0,5 1,0 0,8 1,-4 1,-4 0,12 1,-7 0,-4 1,8 0,-7 1,9 1,-7 0,2 2,3 -1,0 1,0 1,-4 0,9 1,-4 0,-1 1,11 1,-15 0,7 1,9 0,-10 1,7 1,-5 0,1 1,2 0,-1 1,-1 1,11 0,-9 1,8 0,-9 1,5 1,-3 0,3 1,4 0,-5 1,2 1,14 0,-11 1,2 0,4 1,0 1,2 0,-6 1,14 0,-11 1,-1 0,11 1,-10 1,3 0,11 1,-15 0,12 1,-9 1,8 0,-2 1,-3 0,4 1,-4 1,8 0,-10 1,4 0,12 1,-8 1,0 0,3 1,1 0,-1 1,8 1,-4 0,-5 1,7 0,-8 1,10 1,-3 1,-2 0,2 2,5 0,-1 1,2 0,-3 1,0 1,-1 0,20 1,-29 0,13 1,3 0,-4 1,4 1,-5 0,11 1,-10 1,2 1,1 1,6 0,-9 1,10 1,-2 0,1 1,-8 0,18 1,-16 1,-4 0,-7 1,11 0,-1 1,15 1,-5 0,6 2,-2 -1,0 1,0 1,-1 0,6 1,-4 0,-16 1,30 1,-14 0,3 1,-4 0,-1 1,14 1,-4 0,-9 1,4 0,5 1,-10 0,14 1,-9 1,-1 1,17 0,-21 1,13 1,-12 0,6 1,-1"
             style="fill:none;stroke:#ff0000;stroke-opacity:1;stroke-width:2.08333;stroke-linecap:butt;stroke-linejoin:round;stroke-miterlimit:10;stroke-dasharray:none"
             id="path6317" /><path
             d="m 904.332,221.5 1,0 1,-4 0,2 1,3 0,1 1,-6 1,7 0,-5 1,7 0,-11 1,7 1,2 0,1 1,-5 1,0 1,3 0,-5 1,-7 0,22 1,-13 1,8 0,-4 1,-2 0,11 1,-13 1,4 0,7 1,-8 0,-4 1,18 0,-8 1,-8 1,-1 0,5 1,-6 0,5 1,1 1,-5 0,1 1,4 0,-1 1,1 1,-3 0,3 1,-1 0,4 1,-10 1,14 0,-6 1,-1 0,-3 1,7 2,-2 -1,0 1,0 1,1 1,1 0,-5 1,8 0,-2 1,-1 1,-1 0,3 1,-1 0,-4 1,6 1,0 0,-5 1,-2 0,8 1,3 0,-11 1,6 1,-2 0,6 1,-11 0,9 1,1 1,-5 0,-1 1,24 0,-35 1,26 1,-26 0,14 1,-3 0,7 1,-2 1,-3 0,2 1,-2 0,4 1,3 1,-7 0,4 1,4 0,-7 1,4 1,-1 1,-4 0,6 1,3 1,-7 0,7 1,-5 1,8 1,-11 0,9 1,0 0,-6 1,7 0,-1 1,-3 1,1 0,3 1,-1 0,-2 1,1 1,1 1,2 0,-4 1,3 1,1 0,-1 1,3 0,-4 1,7 1,-7 0,7 1,-4 0,2 1,0 1,-3 0,9 1,-6 0,-1 1,5 1,-3 0,-2 1,5 0,-5 1,1 1,7 0,-8 1,7 0,1 1,-7 0,5 1,4 1,-7 0,6 1,-5 0,5 1,-2 0.998,-1 0,8 1,-1 0,-7 1,6 1,-1 0,-2 1,5 0,-7 1,6 1,2 0,-2 1,3 0,-5 1,1 1,1 0,2 1,2 0,-6 1,5 1,-1 1,-1 0,3 1,-3 1,9 0,-3 1,-3 0,6 1,-3 1,0 0,4 1,-2 0,2 1,-4 0,5 1,-4 1,5 0,-3 1,2 0,-3 1,1 1,1 0,1 1,1 0,-1 1,15 1,-8 0,-13 1,-14 0,37 1,-12 1,-7 0,10 1,-7 0,5 1,-2 1,4 0,-6 1,5 0,-1 1,-1 1,2 0,6 1,-8 0,4 1,1 1,-6 0,7 1,1 0,-3 1,-17 1,37 0,-26 1,17 0,15 1,-57 1,45 1,-3 0,19 1,-23 0,9 1,-10 1,9 0,-4 1,3 0,-1 1,5 1,-12 0,7 1,-5 0,8 1,-2 1,11 0,-4 1,-4 0,8 1,-4 1,6 0,-14 1,5 0,-6 1,11 1,-2 1,11 0,-8 1,3 1,2 0,-6 1,8 0,-6 1,8 1,-3 1,7 0,-4 1,-4 1,3 1,-4 0,10 1,-10 0,3 1,-2 1,12 0,-14 1,2 0,29 1,-31 1,9 0,-1 1,20 0,-1 1,-26 1,16 0,-15 1,7 0,10 1,-15 1,14 0,1 1,-14 0,14 1,-3 1,-1 0,6 1,-7 0,1"
             style="fill:none;stroke:#ff0000;stroke-opacity:1;stroke-width:2.08333;stroke-linecap:butt;stroke-linejoin:round;stroke-miterlimit:10;stroke-dasharray:none"
             id="path6319" /><path
             d="m 719.332,220.5 1,-2 1,3 0,1 1,2 0,-1 1,-2 1,3 0,-2 1,-3 0,7 1,-2 0,-6 1,5 1,-1 0,-2 1,-3 0,4 1,-2 1,1 0,-8 1,11 0,-4 1,0 1,-1 0,-1 1,7 0,-12 1,4 1,-5 0,-3 1,3 1,-2 1,1 0,-12 2,7 -1,0 1,0 1,4 0,-8 1,3 0,-2 1,2 1,1 0,-15 1,-2 0,9 1,-9 1,-7 0,8 1,-16 0,5 1,2 0,-2 1,-8 1,1 1,-1 1,-1 2,3 0,1 1,-1 1,3 0,-3 1,0 0,2 1,-3 1,0 0,-2 1,11 0,-2 1,4 1,-4 0,-1 1,-1 0,-2 1,1 1,0 0,4 1,-1 0,-6 1,5 1,-4 0,-1 1,4 0,-3 1,9 1,-11 0,9 1,-3 0,-1 1,2 0,10 1,9 1,-1 0,8 1,4 0,-7 1,20 1,-2 0,-14 1,13 0,8 1,-15 1,12 0,2 1,5 0,-9 1,9 1,-10 0,-2 1,12 0,-13 1,10 1,2 0,-15 1,-1 0,-4 1,1 1,4 0,-7 1,1 1,6 1,-2 0,3 1,1 0,1 1,1 0,-1 1,-1 1,6 0,-3 1,0 0,-3 1,-2 1,5 0,-3 1,3 0,-7 1,7 1,-3 0,1 1,-3 0,4 2,0 0,-3 1,2 0,2 1,-4 1,2 0,-5 1,4 0,3 1,-2 1,-3 0,1 1,-1 0,4 1,-6 1,1 0,4 1,2 0,-6 1,0 1,4 0,-3 1,2 1,-4 0,3 1,1 1,-2 0,-4 1,1 0,2 1,1 1,-3 0,-3 1,29 0,-39 1,14 1,-7 0,11 1,-8 0,11 1,-13 1,-5 0,15 1,-7 0,3 1,3 1,-14 0,8 1,-6 1,3 1,2 0,-2 1,2 0,1 1,-6 1,5 0,-4 1,7 0,-3 1,-2 1,-2 0,2 1,-1 0,3 1,-3 1,3 1,-3 0,-1 1,4 0,2 1,-5 1,5 0,-2 1,-3 0,5 1,-5 1,9 0,-3 1,2 0,-3 1,0 1,1 0,-2 1,2 0,1 1,-3 1,4 0,-3 2,3 -1,0 2,0 0,-2 1,2 0,6 1,-11 1,7 0,-1 1,-1 0,4 1,-4 1,-1 0,4 1,-2 0,-1 1,-2 0,5 1,-3 1,2 0,-3 1,-1 0,6 1,-2 1,-4 0,7 1,-3 0,-2 1,6 1,-4 1,1 0,2 1,-2 1,0 0,-5 1,5 1,4 1,-7 0,2 1,4 0,-2 1,3 1,-4 0,-1 1,8 0,-9 1,-1 1,3 0,4 1,-3 1,-3 1,5 0,-1 1,3 0,-8 2,6 -1,0 1,0 1,3 0,-9 1,7 0,3 1,-3 1,-3 0,1 1,1 0,2"
             style="fill:none;stroke:#ff0000;stroke-opacity:1;stroke-width:2.08333;stroke-linecap:butt;stroke-linejoin:round;stroke-miterlimit:10;stroke-dasharray:none"
             id="path6321" /><path
             d="m 667.332,212.5 1,0 0,-8 1,9 0,3 1,-10 1,13 0,4 1,-1 0,-10 1,11 1,6 0,1 1,-7 0,9 1,1 0,-1 1,-1 1,8 0,-6 1,15 0,-23 1,15 1,-3 0,5 1,-18 0,36 1,-19 1,-3 0,7 1,-18 0,7 1,8 1,2 0,-10 1,8 0,4 1,-4 1,-2 0,7 1,-2 0,-4 1,0 1,-3 0,1 1,-5 0,1 1,-7 1,-4 0,2 1,0 0,-7 1,6 1,-2 0,-2 1,7 0,-5 1,8 0,-5 1,-1 1,7 0,-2 1,-9 0,6 1,-3 1,-2 0,1 1,-4 0,4 1,-4 1,0 0,4 1,2 0,-3 1,4 1,-3 0,6 1,-4 0,-4 1,2 1,-3 0,3 1,-2 0,-2 1,3 1,0 0,-11 1,16 0,-7"
             style="fill:none;stroke:#ff0000;stroke-opacity:1;stroke-width:2.08333;stroke-linecap:butt;stroke-linejoin:round;stroke-miterlimit:10;stroke-dasharray:none"
             id="path6323" /><path
             d="m 1854.33,478.5 1,5 1,5 0,8 1,-1 0,-19 1,18 0,-15 1,7 1,7 0,-5 1,4 0,-2 1,8 1,-3 0,3 1,6 1,-5 1,1 0,2 1,3 0,8 1,-9 1,16 0,-10 1,-2 0,-4 1,4 1,1 0,-7 1,12 0,4 1,-4 1,6 0,3 1,-4 0,6 1,7 1,-8 0,1 1,8 0,-12 1,-8 1,19 1,-4 0,3 1,0 0,7 1,-8 1,6 0,2 1,-7 0,7 1,0 1,4 0,-3 1,-2 1,1 1,-2 0,11 1,3 0,-12 1,16 1,-4 0,-5 1,10 0,-5 1,-2 1,4 0,-4 1,8 0,-5 1,4 1,-2 1,2 0,-2 1,-6 1,4 0,8 1,-7 0,-4 1,5 0,-2 1,-7 1,12 0,11 1,-12 0,6 1,2 1,9 0,-6 1,-12 0,5 1,12 1,-3 0,6 1,-18 0,8 1,4 1,11 0,-17 1,9 0,-4 1,-10 1,15 0,-5 1,-8 0,7 1,4 1,-8 0,1 1,6 0,-11 1,10 1,-5 0,14 1,-36 1,47 1,-32 0,22 1,-3 0,-2 1,-13 0,13 1,-5 1,11 0,-15 1,-10 0,26 1,-16 1,-2 0,15 1,-20 0,13 1,11 1,-18 0,14 1,-9 0,1 1,1 1,13 1,-5 0,1 1,1 1,-6 0,13 1,-25 0,14 1,-15 1,13 0,1 1,-11 0,9 1,3 1,-17 0,16 1,-7 0,-3 1,0 1,1 0,17 1,-10 0,-10 1,7 0,-1 1,3 1,-4 0,5 1,-7 0,5 1,-1 1,-6 0,3 1,0 0,-2 1,-1 1,7 0,-2 1,-6 0,7 1,-11 1,5 0,1 1,-10 0,4 1,2 1,-1 0,2 1,2 0,-11 1,8 1,6 0,-4 1,-2 0,4 1,0 1,-4 0,-1 1,10 0,-17 1,-3 1,2 0,9 1,-5 0,-8 1,10 0,3 1,-6 1,3 0,-13 1,7 1,-7 1,6 0,6 1,-17 0,8 1,11 1,-17 0,8 1,1 1,-1 1,0 0,-11 1,0 0,9 1,6 1,-14 0,1 1,11 0,-6 1,-4 1,9 0,3 1,-4 0,3 1,-14 1,-1 1,2 1,-1 1,-3 1,13 0,2 1,-9 0,-2 1,7 1,-35 0,5 1,-11 0,-8 1,4 1,-13 0,-3 1,0 0,-14 1,0 1,13 0,-33 1,7 0,21 1,-12 1,3 0,-16 1,-6 0,-8 1,6 1,-8 0,1 1,-1 0,-9 1,4 1,2 0,-5 1,26 0,-31 1,-8 1,10 0,-14 1,19 0,-9 1,-2 1,1 0,-7 1,3 0,-2 1,-3 0,3 1,-4 1,10 0,-11 1,-2 0,1 1,7 1,-8 0,-3 1,-9 0,9 1,33 1,-2 15,-116 8,-77"
             style="fill:none;stroke:#00ff00;stroke-opacity:1;stroke-width:2.08333;stroke-linecap:butt;stroke-linejoin:round;stroke-miterlimit:10;stroke-dasharray:none"
             id="path6325" /><path
             d="m 1643.33,204.5 1,-2 0,2 1,1 1,-2 1,3 0,1 1,-2 0,-4 1,4 1,-1 0,-1 1,1 0,-1 1,-3 2,4 0,3 1,1 1,-2 0,-2 1,3 0,1 1,-2 1,-1 1,4 0,-4 2,0 -1,0 1,0 1,1 0,-3 1,4 0,-4 1,2 1,4 0,-1 1,-2 0,2 1,4 1,-6 0,2 1,-3 0,4 1,1 1,-2 1,-4 0,2 1,3 1,0 0,-3 1,1 0,4 1,-6 1,8 0,-2 1,1 0,-3 1,1 1,2 1,-2 0,4 1,-6 1,-2 0,5 1,1 0,-5 1,2 0,2 1,0 1,3 0,4 1,-3 1,0 1,4 1,-5 1,-6 1,11 0,-1 1,-8 2,11 15,6 1,4 6,6 0,3 1,3 0,3 1,-2 1,4 0,-1 1,-2 1,8 1,-3 1,-2 0,-3 1,11 1,-4 0,6 1,-7 0,-9 1,21 1,-18 0,8 1,-2 0,-1 1,2 0,7 1,9 1,-9 1,3 0,-5 1,6 1,-10 0,10 1,-6 0,3 1,1 1,-4 0,9 1,-15 0,12 1,-11 1,18 0,4 1,0 0,-10 1,8 1,-12 0,6 1,6 0,-6 1,9 1,-10 0,6 1,-1 0,12 1,-8 1,4 0,-7 1,-3 0,17 1,-14 1,-3 0,13 1,-11 0,-3 1,10 0,-8 1,3 1,0 1,24 0,8 1,-13 1,-12 0,16 1,-9 0,-4 1,11 1,-5 0,13 1,-8 0,7 1,-3 1,7 0,-7 1,3 0,1 1,5 1,-1 1,0 0,3 1,5 1,-7 0,6 1,3 0,-4 1,18 1,-30 0,22 1,-3 0,-5 1,7 1,-1 0,4 1,-6 0,6 1,-2 0,1 1,7 1,-4 0,-2 1,7 0,4 1,2 1,-3 0,2 1,6 1,-7 1,11 1,-7 0,9 1,-10 1,4 0,7 1,-12 0,7 1,3 1,2 0,1 1,5 0,-1 1,2 1,-5 0,3 1,8 0,-23 1,20 1,0 0,6 1,-2 0,1 1,6 1,-2 0,4 1,-1 0,17 1,-13 0,2 1,5 1,2 0,-6 1,-3 0,26 1,-33 1,10 0,9 1,7 0,-6 1,7 1,-6 0,-1 1,9 0,-4 1,9 1,1 0,-2 1,14 0,-13 1,23 1,-30 0,10 1,-1 0,11 1,-3 1,8 0,-2 1,-4 0,3 1,2 2,6 0,2 1,-4 1,13 0,-5 1,12 0,-4 1,-3 0,2 1,8 1,-4 1,-1 0,-9 1,4 1,4 1,10 0,4 1,4 1,-3 0,-1 1,5 0,5 1,-6 1,-3 0,4 1,0 0,5 1,2 1,-3 0,10 1,-13 0,10 1,-2 1,-3 0,1 1,11 0,-9 1,16 1,-12 0,11 1,-3 0,-1"
             style="fill:none;stroke:#00ff00;stroke-opacity:1;stroke-width:2.08333;stroke-linecap:butt;stroke-linejoin:round;stroke-miterlimit:10;stroke-dasharray:none"
             id="path6327" /><path
             d="m 1458.33,178.5 1,2 1,2 1,-6 1,4 0,-2 1,-2 0,1 1,-1 0,2 1,-3 1,2 0,-1 2,1 -1,0 1,0 1,1 1,3 0,1 1,-6 1,9 0,-5 1,-1 0,3 1,3 1,-4 0,-2 1,5 0,-3 1,-1 1,2 0,2 1,-2 0,2 1,0 1,4 0,-4 1,6 0,-3 1,-3 1,4 0,-2 1,2 0,-1 1,-2 1,1 0,-2 1,0 0,2 1,3 0,-1 1,-1 1,2 0,5 1,-9 0,7 1,-6 1,5 1,0 0,-3 1,0 1,2 0,-3 1,-1 0,3 1,-4 1,5 0,-4 1,2 0,1 1,2 1,-7 0,8 1,-6 0,3 1,-1 1,-2 0,7 1,-6 0,-3 1,0 1,-2 0,4 1,1 0,-9 1,2 1,8 0,-12 1,2 0,7 1,-4 0,5 1,0 1,-4 0,4 2,-2 -1,0 1,0 1,-1 0,-1 1,2 0,4 1,0 1,-1 0,3 1,3 0,-1 1,-2 1,0 1,2 0,-4 1,2 1,2 0,-3 1,3 0,1 1,-1 1,-1 1,3 0,-2 1,2 1,-2 1,4 0,-4 1,2 0,-2 1,3 1,-1 0,2 1,-1 0,25 1,-27 1,-2 0,-4 1,2 0,3 1,-2 1,0 0,6 1,-2 0,1 1,-1 1,-1 1,-1 0,1 1,-7 1,4 0,3 2,-3 -1,0 1,0 1,-1 0,1 2,-5 -1,0 1,0 1,1 0,-4 1,46 0,-36 1,-2 1,1 1,4 0,-1 1,-2 0,4 1,-2 1,0 0,2 1,-2 1,-3 1,7 0,-1 1,-1 0,4 1,-3 1,1 0,3 1,-4 1,3 1,0 0,-6 1,5 0,-1 1,-4 2,2 -1,0 1,1 1,-1 1,1 2,3 -1,0 1,0 1,-3 0,2 1,-3 0,-2 1,5 1,0 0,2 1,-2 0,-2 1,4 0,-4 1,-1 1,0 0,6 1,-2 0,-1 1,1 1,-1 0,-3 1,6 0,-1 1,-1 1,2 0,-3 1,1 0,-4 1,-1 1,2 0,-3 1,3 0,4 1,-3 1,2 0,5 1,-6 0,-2 1,3 1,-4 0,4 1,-3 0,4 1,-1 1,0 0,2 1,-5 0,-2 1,7 1,-2 1,1 0,-1 1,3 0,-6 1,6 2,-3 -1,0 2,0 1,-5 0,4 1,3 0,-3 1,3 1,-3 0,1 1,-2 0,4 1,-1 1,2 0,-5 1,3 0,2 1,-4 1,2 0,1 1,-5 0,5 1,-3 1,4 0,-3 1,-2 0,3 1,-3 1,-1 0,4 1,-3 0,5 2,0 0,-6 1,8 0,-3 1,2 0,-5 1,2 1,-2 0,4 1,-1 0,1 1,-3 1,0 0,3 1,-2 1,3"
             style="fill:none;stroke:#00ff00;stroke-opacity:1;stroke-width:2.08333;stroke-linecap:butt;stroke-linejoin:round;stroke-miterlimit:10;stroke-dasharray:none"
             id="path6329" /></g></g><g
         id="g6331"><g
           id="g6333"
           clip-path="url(#clipPath6335)"><g
             id="g6339"
             transform="scale(4.16667,4.16667)"><text
               transform="matrix(1,0,0,-1,269.6,6.12)"
               id="text6341"><tspan
                 style="fill:#000000;fill-opacity:1;fill-rule:nonzero;stroke:none;font-family:Helvetica;font-variant:normal;font-weight:normal;font-size:16;writing-mode:lr;-inkscape-font-specification:Helvetica"
                 x="0 9.776 13.328 26.656"
                 y="0"
                 sodipodi:role="line"
                 id="tspan6343">Time</tspan></text>
<text
               transform="matrix(0,1,1,0,17.5997,89.16)"
               id="text6345"><tspan
                 style="fill:#000000;fill-opacity:1;fill-rule:nonzero;stroke:none;font-family:Helvetica;font-variant:normal;font-weight:normal;font-size:16;writing-mode:lr;-inkscape-font-specification:Helvetica"
                 x="0 10.672 19.568 23.12 32.016 40.016 43.568 48.016"
                 y="0"
                 sodipodi:role="line"
                 id="tspan6347">Velocity</tspan></text>
</g></g></g></g></g></svg>