<?xml version="1.0" encoding="UTF-8" standalone="no"?>
<!-- Created with Inkscape (http://www.inkscape.org/) -->

<svg
   xmlns:dc="http://purl.org/dc/elements/1.1/"
   xmlns:cc="http://creativecommons.org/ns#"
   xmlns:rdf="http://www.w3.org/1999/02/22-rdf-syntax-ns#"
   xmlns:svg="http://www.w3.org/2000/svg"
   xmlns="http://www.w3.org/2000/svg"
   xmlns:sodipodi="http://sodipodi.sourceforge.net/DTD/sodipodi-0.dtd"
   xmlns:inkscape="http://www.inkscape.org/namespaces/inkscape"
   id="svg3161"
   version="1.1"
   inkscape:version="0.48.4 r9939"
   width="1053.75"
   height="573.75"
   xml:space="preserve"
   sodipodi:docname="October_11_Particle_2_run_1_A.pdf"><metadata
     id="metadata3167"><rdf:RDF><cc:Work
         rdf:about=""><dc:format>image/svg+xml</dc:format><dc:type
           rdf:resource="http://purl.org/dc/dcmitype/StillImage" /><dc:title></dc:title></cc:Work></rdf:RDF></metadata><defs
     id="defs3165"><marker
       inkscape:stockid="Arrow2Mstart"
       orient="auto"
       refY="0.0"
       refX="0.0"
       id="Arrow2Mstart"
       style="overflow:visible"><path
         id="path4307"
         style="fill-rule:evenodd;stroke-width:0.62500000;stroke-linejoin:round"
         d="M 8.7185878,4.0337352 L -2.2072895,0.016013256 L 8.7185884,-4.0017078 C 6.9730900,-1.6296469 6.9831476,1.6157441 8.7185878,4.0337352 z "
         transform="scale(0.6) translate(0,0)" /></marker><marker
       inkscape:stockid="Arrow2Mend"
       orient="auto"
       refY="0.0"
       refX="0.0"
       id="Arrow2Mend"
       style="overflow:visible;"><path
         id="path4310"
         style="fill-rule:evenodd;stroke-width:0.62500000;stroke-linejoin:round;"
         d="M 8.7185878,4.0337352 L -2.2072895,0.016013256 L 8.7185884,-4.0017078 C 6.9730900,-1.6296469 6.9831476,1.6157441 8.7185878,4.0337352 z "
         transform="scale(0.6) rotate(180) translate(0,0)" /></marker><marker
       inkscape:stockid="Arrow1Mstart"
       orient="auto"
       refY="0.0"
       refX="0.0"
       id="Arrow1Mstart"
       style="overflow:visible"><path
         id="path4289"
         d="M 0.0,0.0 L 5.0,-5.0 L -12.5,0.0 L 5.0,5.0 L 0.0,0.0 z "
         style="fill-rule:evenodd;stroke:#000000;stroke-width:1.0pt"
         transform="scale(0.4) translate(10,0)" /></marker><clipPath
       clipPathUnits="userSpaceOnUse"
       id="clipPath3177"><path
         d="m 2.66797,1.83203 3509.33003,0 0,1910.16997 -3509.33003,0 0,-1910.16997 z"
         id="path3179" /></clipPath><clipPath
       clipPathUnits="userSpaceOnUse"
       id="clipPath3311"><path
         d="m 280.668,1859.83 3216.992,0 0,-709 -3216.992,0 0,709 z"
         id="path3313" /></clipPath><clipPath
       clipPathUnits="userSpaceOnUse"
       id="clipPath3335"><path
         d="m 2,1 0,1911 3510,0 L 3512,1 2,1 z"
         id="path3337" /></clipPath><clipPath
       clipPathUnits="userSpaceOnUse"
       id="clipPath3467"><path
         d="m 280.668,876.832 3216.992,0 0,-709 -3216.992,0 0,709 z"
         id="path3469" /></clipPath><clipPath
       clipPathUnits="userSpaceOnUse"
       id="clipPath3493"><path
         d="m 2,1 0,1911 3510,0 L 3512,1 2,1 z"
         id="path3495" /></clipPath><clipPath
       clipPathUnits="userSpaceOnUse"
       id="clipPath3507"><path
         d="m 0,0 3512,0 0,1912 L 0,1912 0,0 z"
         id="path3509" /></clipPath></defs><sodipodi:namedview
     pagecolor="#ffffff"
     bordercolor="#666666"
     borderopacity="1"
     objecttolerance="10"
     gridtolerance="10"
     guidetolerance="10"
     inkscape:pageopacity="0"
     inkscape:pageshadow="2"
     inkscape:window-width="1366"
     inkscape:window-height="705"
     id="namedview3163"
     showgrid="false"
     inkscape:zoom="0.56904062"
     inkscape:cx="282.75278"
     inkscape:cy="268.36451"
     inkscape:window-x="-8"
     inkscape:window-y="-8"
     inkscape:window-maximized="1"
     inkscape:current-layer="g3171" /><g
     id="g3169"
     inkscape:groupmode="layer"
     inkscape:label="October_11_Particle_2_run_1_A"
     transform="matrix(1.25,0,0,-1.25,0,573.75)"><g
       id="g3171"
       transform="scale(0.24,0.24)"><g
         id="g3173"><g
           id="g3175"
           clip-path="url(#clipPath3177)"><path
             d="m 2.66797,1.83203 3509.33003,0 0,1910.16997 -3509.33003,0 0,-1910.16997 z"
             style="fill:#ffffff;fill-opacity:1;fill-rule:nonzero;stroke:none"
             id="path3181" /><path
             d="m 280.668,1151.83 3216,0 0,708 -3216,0 0,-708 z"
             style="fill:#ffffff;fill-opacity:1;fill-rule:evenodd;stroke:none"
             id="path3183" /><path
             d="m 280.668,1151.83 0,708 3215.992,0 0,-708 -3215.992,0"
             style="fill:none;stroke:#ffffff;stroke-opacity:1;stroke-width:2.08333;stroke-linecap:butt;stroke-linejoin:round;stroke-miterlimit:10;stroke-dasharray:none"
             id="path3185" /><path
             d="m 280.668,1151.83 3215.992,0"
             style="fill:none;stroke:#000000;stroke-opacity:1;stroke-width:2.08333;stroke-linecap:butt;stroke-linejoin:round;stroke-miterlimit:10;stroke-dasharray:none"
             id="path3187" /><path
             d="m 280.668,1151.83 0,708"
             style="fill:none;stroke:#000000;stroke-opacity:1;stroke-width:2.08333;stroke-linecap:butt;stroke-linejoin:round;stroke-miterlimit:10;stroke-dasharray:none"
             id="path3189" /><path
             d="m 658.664,1151.83 0,33"
             style="fill:none;stroke:#000000;stroke-opacity:1;stroke-width:2.08333;stroke-linecap:butt;stroke-linejoin:round;stroke-miterlimit:10;stroke-dasharray:none"
             id="path3191" /><g
             id="g3193"
             transform="scale(4.16667,4.16667)"><text
               transform="matrix(1,0,0,-1,138.16,258.68)"
               id="text3195"><tspan
                 style="fill:#000000;fill-opacity:1;fill-rule:nonzero;stroke:none;font-family:Helvetica;font-variant:normal;font-weight:normal;font-size:16;writing-mode:lr;-inkscape-font-specification:Helvetica"
                 x="0 8.896 13.344 22.24 31.136"
                 y="0"
                 sodipodi:role="line"
                 id="tspan3197">0.005</tspan></text>
</g><path
             d="m 1049.66,1151.83 0,33"
             style="fill:none;stroke:#000000;stroke-opacity:1;stroke-width:2.08333;stroke-linecap:butt;stroke-linejoin:round;stroke-miterlimit:10;stroke-dasharray:none"
             id="path3199" /><g
             id="g3201"
             transform="scale(4.16667,4.16667)"><text
               transform="matrix(1,0,0,-1,236.559,258.68)"
               id="text3203"><tspan
                 style="fill:#000000;fill-opacity:1;fill-rule:nonzero;stroke:none;font-family:Helvetica;font-variant:normal;font-weight:normal;font-size:16;writing-mode:lr;-inkscape-font-specification:Helvetica"
                 x="0 8.896 13.344 22.24"
                 y="0"
                 sodipodi:role="line"
                 id="tspan3205">0.01</tspan></text>
</g><path
             d="m 1439.66,1151.83 0,33"
             style="fill:none;stroke:#000000;stroke-opacity:1;stroke-width:2.08333;stroke-linecap:butt;stroke-linejoin:round;stroke-miterlimit:10;stroke-dasharray:none"
             id="path3207" /><g
             id="g3209"
             transform="scale(4.16667,4.16667)"><text
               transform="matrix(1,0,0,-1,325.599,258.68)"
               id="text3211"><tspan
                 style="fill:#000000;fill-opacity:1;fill-rule:nonzero;stroke:none;font-family:Helvetica;font-variant:normal;font-weight:normal;font-size:16;writing-mode:lr;-inkscape-font-specification:Helvetica"
                 x="0 8.896 13.344 22.24 31.136"
                 y="0"
                 sodipodi:role="line"
                 id="tspan3213">0.015</tspan></text>
</g><path
             d="m 1830.66,1151.83 0,33"
             style="fill:none;stroke:#000000;stroke-opacity:1;stroke-width:2.08333;stroke-linecap:butt;stroke-linejoin:round;stroke-miterlimit:10;stroke-dasharray:none"
             id="path3215" /><g
             id="g3217"
             transform="scale(4.16667,4.16667)"><text
               transform="matrix(1,0,0,-1,423.999,258.68)"
               id="text3219"><tspan
                 style="fill:#000000;fill-opacity:1;fill-rule:nonzero;stroke:none;font-family:Helvetica;font-variant:normal;font-weight:normal;font-size:16;writing-mode:lr;-inkscape-font-specification:Helvetica"
                 x="0 8.896 13.344 22.24"
                 y="0"
                 sodipodi:role="line"
                 id="tspan3221">0.02</tspan></text>
</g><path
             d="m 2220.66,1151.83 0,33"
             style="fill:none;stroke:#000000;stroke-opacity:1;stroke-width:2.08333;stroke-linecap:butt;stroke-linejoin:round;stroke-miterlimit:10;stroke-dasharray:none"
             id="path3223" /><g
             id="g3225"
             transform="scale(4.16667,4.16667)"><text
               transform="matrix(1,0,0,-1,513.039,258.68)"
               id="text3227"><tspan
                 style="fill:#000000;fill-opacity:1;fill-rule:nonzero;stroke:none;font-family:Helvetica;font-variant:normal;font-weight:normal;font-size:16;writing-mode:lr;-inkscape-font-specification:Helvetica"
                 x="0 8.896 13.344 22.24 31.136"
                 y="0"
                 sodipodi:role="line"
                 id="tspan3229">0.025</tspan></text>
</g><path
             d="m 2611.66,1151.83 0,33"
             style="fill:none;stroke:#000000;stroke-opacity:1;stroke-width:2.08333;stroke-linecap:butt;stroke-linejoin:round;stroke-miterlimit:10;stroke-dasharray:none"
             id="path3231" /><g
             id="g3233"
             transform="scale(4.16667,4.16667)"><text
               transform="matrix(1,0,0,-1,611.439,258.68)"
               id="text3235"><tspan
                 style="fill:#000000;fill-opacity:1;fill-rule:nonzero;stroke:none;font-family:Helvetica;font-variant:normal;font-weight:normal;font-size:16;writing-mode:lr;-inkscape-font-specification:Helvetica"
                 x="0 8.896 13.344 22.24"
                 y="0"
                 sodipodi:role="line"
                 id="tspan3237">0.03</tspan></text>
</g><path
             d="m 3001.66,1151.83 0,33"
             style="fill:none;stroke:#000000;stroke-opacity:1;stroke-width:2.08333;stroke-linecap:butt;stroke-linejoin:round;stroke-miterlimit:10;stroke-dasharray:none"
             id="path3239" /><g
             id="g3241"
             transform="scale(4.16667,4.16667)"><text
               transform="matrix(1,0,0,-1,700.479,258.68)"
               id="text3243"><tspan
                 style="fill:#000000;fill-opacity:1;fill-rule:nonzero;stroke:none;font-family:Helvetica;font-variant:normal;font-weight:normal;font-size:16;writing-mode:lr;-inkscape-font-specification:Helvetica"
                 x="0 8.896 13.344 22.24 31.136"
                 y="0"
                 sodipodi:role="line"
                 id="tspan3245">0.035</tspan></text>
</g><path
             d="m 3392.66,1151.83 0,33"
             style="fill:none;stroke:#000000;stroke-opacity:1;stroke-width:2.08333;stroke-linecap:butt;stroke-linejoin:round;stroke-miterlimit:10;stroke-dasharray:none"
             id="path3247" /><g
             id="g3249"
             transform="scale(4.16667,4.16667)"><text
               transform="matrix(1,0,0,-1,798.879,258.68)"
               id="text3251"><tspan
                 style="fill:#000000;fill-opacity:1;fill-rule:nonzero;stroke:none;font-family:Helvetica;font-variant:normal;font-weight:normal;font-size:16;writing-mode:lr;-inkscape-font-specification:Helvetica"
                 x="0 8.896 13.344 22.24"
                 y="0"
                 sodipodi:role="line"
                 id="tspan3253">0.04</tspan></text>
</g><path
             d="m 280.668,1151.83 32,0"
             style="fill:none;stroke:#000000;stroke-opacity:1;stroke-width:2.08333;stroke-linecap:butt;stroke-linejoin:round;stroke-miterlimit:10;stroke-dasharray:none"
             id="path3255" /><g
             id="g3257"
             transform="scale(4.16667,4.16667)"><text
               transform="matrix(1,0,0,-1,46.2403,270.68)"
               id="text3259"><tspan
                 style="fill:#000000;fill-opacity:1;fill-rule:nonzero;stroke:none;font-family:Helvetica;font-variant:normal;font-weight:normal;font-size:16;writing-mode:lr;-inkscape-font-specification:Helvetica"
                 x="0 9.344"
                 y="0"
                 sodipodi:role="line"
                 id="tspan3261">−1</tspan></text>
</g><path
             d="m 280.668,1328.83 32,0"
             style="fill:none;stroke:#000000;stroke-opacity:1;stroke-width:2.08333;stroke-linecap:butt;stroke-linejoin:round;stroke-miterlimit:10;stroke-dasharray:none"
             id="path3263" /><g
             id="g3265"
             transform="scale(4.16667,4.16667)"><text
               transform="matrix(1,0,0,-1,33.0403,313.16)"
               id="text3267"><tspan
                 style="fill:#000000;fill-opacity:1;fill-rule:nonzero;stroke:none;font-family:Helvetica;font-variant:normal;font-weight:normal;font-size:16;writing-mode:lr;-inkscape-font-specification:Helvetica"
                 x="0 9.344 18.24 22.688"
                 y="0"
                 sodipodi:role="line"
                 id="tspan3269">−0.5</tspan></text>
</g><path
             d="m 280.668,1505.83 32,0"
             style="fill:none;stroke:#000000;stroke-opacity:1;stroke-width:2.08333;stroke-linecap:butt;stroke-linejoin:round;stroke-miterlimit:10;stroke-dasharray:none"
             id="path3271" /><g
             id="g3273"
             transform="scale(4.16667,4.16667)"><text
               transform="matrix(1,0,0,-1,55.6003,355.64)"
               id="text3275"><tspan
                 style="fill:#000000;fill-opacity:1;fill-rule:nonzero;stroke:none;font-family:Helvetica;font-variant:normal;font-weight:normal;font-size:16;writing-mode:lr;-inkscape-font-specification:Helvetica"
                 x="0"
                 y="0"
                 id="tspan3277">0</tspan></text>
</g><path
             d="m 280.668,1682.83 32,0"
             style="fill:none;stroke:#000000;stroke-opacity:1;stroke-width:2.08333;stroke-linecap:butt;stroke-linejoin:round;stroke-miterlimit:10;stroke-dasharray:none"
             id="path3279" /><g
             id="g3281"
             transform="scale(4.16667,4.16667)"><text
               transform="matrix(1,0,0,-1,42.4003,398.12)"
               id="text3283"><tspan
                 style="fill:#000000;fill-opacity:1;fill-rule:nonzero;stroke:none;font-family:Helvetica;font-variant:normal;font-weight:normal;font-size:16;writing-mode:lr;-inkscape-font-specification:Helvetica"
                 x="0 8.896 13.344"
                 y="0"
                 sodipodi:role="line"
                 id="tspan3285">0.5</tspan></text>
</g><path
             d="m 280.668,1859.83 32,0"
             style="fill:none;stroke:#000000;stroke-opacity:1;stroke-width:2.08333;stroke-linecap:butt;stroke-linejoin:round;stroke-miterlimit:10;stroke-dasharray:none"
             id="path3287" /><g
             id="g3289"
             transform="scale(4.16667,4.16667)"><text
               transform="matrix(1,0,0,-1,55.6003,440.6)"
               id="text3291"><tspan
                 style="fill:#000000;fill-opacity:1;fill-rule:nonzero;stroke:none;font-family:Helvetica;font-variant:normal;font-weight:normal;font-size:16;writing-mode:lr;-inkscape-font-specification:Helvetica"
                 x="0"
                 y="0"
                 id="tspan3293">1</tspan></text>
<text
               transform="matrix(0,1,1,0,17.6803,353.72)"
               id="text3295"><tspan
                 style="fill:#000000;fill-opacity:1;fill-rule:nonzero;stroke:none;font-family:Helvetica;font-variant:normal;font-weight:normal;font-size:16;writing-mode:lr;-inkscape-font-specification:Helvetica"
                 x="0"
                 y="0"
                 id="tspan3297">n</tspan></text>
<text
               transform="matrix(0,1,1,0,25.6003,362.6)"
               id="text3299"><tspan
                 style="fill:#000000;fill-opacity:1;fill-rule:nonzero;stroke:none;font-family:Helvetica;font-variant:normal;font-weight:normal;font-size:12;writing-mode:lr;-inkscape-font-specification:Helvetica"
                 x="0"
                 y="0"
                 id="tspan3301">x</tspan></text>
<text
               transform="matrix(1,0,0,-1,335.919,242.12)"
               id="text3303"><tspan
                 style="font-size:16px;font-variant:normal;font-weight:normal;writing-mode:lr-tb;fill:#000000;fill-opacity:1;fill-rule:nonzero;stroke:none;font-family:Helvetica;-inkscape-font-specification:Helvetica"
                 sodipodi:role="line"
                 id="tspan3305"
                 x="0"
                 y="0">Cumulative distance in channel</tspan></text>
</g></g></g><g
         id="g3307"><g
           id="g3309"
           clip-path="url(#clipPath3311)"><path
             d="m 1460.66,1260.83 1,-24 2,-21 1,-17 1,-4 2,-11 1,-10 2,-2 1,-3 1,-4 2,-5 1,-2 1,0 2,-3 1,3 2,-5 28,0 2,15 1,-15 1,2 2,3 1,-1 2,-3 1,6 1,0 2,-3 1,9 1,2 2,-1 1,6 2,4 1,0 1,15 2,4 1,12 1,19 2,16 1,34 1,43 2,38 1,71 2,75 1,48 1,70 2,62 1,30 1,34 2,25 1,14 1,14 2,13 1,8 1,7 2,-1 1,10 2,-1 1,6 1,6 2,-1 1,0 1,3 2,4 1,-1 1,-4 2,4 1,-2 1,4 7,0 2,-2 1,2 1,-5 2,0 1,2 1,-1 2,-1 1,0 1,4 2,-1 1,1 1,0 2,-1 1,0 1,-3 2,3 1,0 1,-3 2,0 1,1 1,-7 2,0 1,-4 1,-1 2,-4 1,-3 1,-9 2,-4 1,-14 1,-8 2,-16 1,-16 1,-25 2,-38 1,-34 1,-62 2,-70 1,-48 1,-70 2,-60 1,-35 1,-42 2,-31 1,-16 1,-18 1,-19 2,-5 1,-10 1,-2 2,-2 1,-7 1,-6 2,-4 1,-3 1,-4 3,0 1,-1 1,3 2,-3 6,0 2,-1 5,0 1,1 15,0 2,1 1,0 1,3 1,-3 2,5 1,3 1,1 2,4 1,4 1,4 2,9 1,2 1,5 1,8 2,8 1,12 1,13 2,22 1,28 1,27 1,47 2,36 1,59 1,67 1,66 2,39 1,51 1,28 1,28 2,35 1,14 1,14 1,15 2,5 1,9 1,7 1,8 2,-1 1,10 1,2 1,1 2,-2 1,4 2,0 2,1 1,0 1,1 2,0 1,-1 1,2 1,0 2,-4 1,4 1,1 1,0 2,-1 8,0 1,1 1,-3 2,2 1,0 1,-1 2,-1 1,-2 2,-3 1,2 1,-2 2,0 1,-5 3,0 1,-3 2,-7 1,-7 1,-2 2,2 1,-17 1,-5 2,-14 1,-18 2,-15 1,-32 2,-26 1,-53 1,-65 2,-74 1,-54 1,-73 2,-35 1,-20 2,23 2,-55 2,40 1,-140 2,-4 1,-4 2,-6 1,-8 2,1 1,-4 1,-3 1,-6 2,9 1,-7 0,-3 2,9 0,-13 3,0 0,3 1,-3 1,1 1,-2 2,0 1,4 0,-4 0,7"
             style="fill:none;stroke:#0100ff;stroke-opacity:1;stroke-width:2.08333;stroke-linecap:butt;stroke-linejoin:round;stroke-miterlimit:10;stroke-dasharray:none"
             id="path3315" /><path
             d="m 1023.66,1786.83 1,18 2,12 1,7 2,10 1,5 2,-1 1,4 2,2 1,2 2,-1 1,5 2,-4 1,-1 2,7 1,-1 2,-1 1,-3 2,7 1,3 2,-9 1,2 2,1 1,6 2,1 1,0 1,-5 2,0 4,-4 2,0 1,2 2,-4 1,-2 2,-1 1,-5 2,5 1,-7 2,-2 1,4 2,-9 3,-9 1,-8 2,-7 1,-18 2,-7 1,-32 2,-38 1,-29 2,-67 1,-83 2,-54 1,-78 1,-51 2,-57 1,-35 2,-19 1,-21 2,-16 1,-2 2,-14 1,-4 2,0 1,-5 2,-5 1,1 1,1 2,-1 1,-1 2,-9 1,5 2,-8 1,3 2,-3 1,1 3,0 2,-2 1,0 2,2 1,-5 2,7 1,-6 1,1 2,5 1,-9 2,4 1,0 2,-2 1,5 2,2 1,0 2,-1 1,-2 2,2 1,0 1,2 2,2 1,2 2,3 1,5 2,7 1,7 2,11 1,19 1,22 2,24 1,51 2,41 1,79 2,82 1,55 2,77 1,54 1,32 2,32 1,10 2,25 1,9 2,12 1,8 1,4 2,-4 1,6 2,0 1,7 2,-2 1,0 2,1 1,3 1,7 2,-6 1,-1 2,1 1,5 2,2 1,-3 1,3 2,1 1,-1 2,0 1,-3 2,6 3,0 1,-1 4,-4 2,5 4,0 2,-1 3,0 1,-2 1,1 2,-4 1,-3 2,-3 1,-4 2,-6 1,-9 2,-4 1,-12 1,-12 2,-26 1,-33 2,-27 1,-59 2,-52 1,-82 1,-82 2,-78 1,-43 2,-51 1,-18 2,-27 1,-19 1,-12 2,-10 1,-3 2,-9 1,-7 2,2 1,-1 1,-9 2,1 1,-1 2,2 1,-2 4,0 2,2 1,-2 32,0 1,4 2,1 1,0 2,12 1,3 1,-5 2,10 1,11 2,1 1,13 1,14 2,17 1,35 1,50 2,44 1,80 2,72 1,50 1,82 2,40 1,47 2,36 1,24 1,9 2,14 1,8 2,8 1,5 1,7 2,2 1,3 2,2 1,3 1,1 2,0 1,2 7,0 2,1 4,0 1,-1 2,1 1,-1 9,0 1,-1 1,0 2,1 1,0 1,-1 2,1 1,-1 2,0 1,1 1,-4 2,0 1,-7 1,4 2,-8 1,-8 2,-3 1,-6 1,-12 2,-6 1,-22 1,-24 2,-25 1,-48 2,-69 1,-54 1,-69 2,-77 1,-56 2,-57 1,-46"
             style="fill:none;stroke:#0100ff;stroke-opacity:1;stroke-width:2.08333;stroke-linecap:butt;stroke-linejoin:round;stroke-miterlimit:10;stroke-dasharray:none"
             id="path3317" /><path
             d="m 575.668,1163.83 1.996,1 1,-5 2,1 1,0 2,-7 1,10 1,-3 2,-5 1,4 2,-3 1,4 2,1 1,-2 2,-1 1,0 2,-2 1,1 2,3 1,-3 1,-1 2,2 1,4 2,1 1,2 2,-4 1,3 2,-3 1,0 2,3 1,-6 2,4 1,7 2,-4 1,7 2,-2 1,2 2,5 1,-1 2,9 1,3 2,5 1,12 2,8 1,27 2,36 1,32 2,65 1,53 2,84 1,80 2,50 1,62 1,44 2,17 1,27 2,8 1,12 2,3 1,11 2,2 1,5 2,1 1,4 2,10 1,-3 5,0 1,6 2,-8 1,9 1,-2 2,-7 1,-12 2,18 2,2 1,-4 2,3 1,-1 2,4 1,1 2,-6 1,0 2,3 1,1 2,3 1,-2 2,4 1,0 2,-4 1,3 2,-2 1,3 2,-2 1,0 2,-3 1,-1 2,0 1,-5 2,-5 1,-8 2,-5 1,-3 2,-12 1,-14 2,-14 1,-27 2,-24 1,-49 2,-64 1,-55 2,-80 1,-79 2,-52 1,-61 2,-30 1,-25 2,-25 1,-5 2,-15 1,-6 2,-2 1,-7 2,1 1,-7 2,-1 1,1 2,-7 1,3 2,-3 1,1 2,-5 1,0 2,4 1,4 2,-9 1,4 2,1 2,-2 1,1 1,4 2,5 1,-9 2,-2 2,3 1,-5 2,8 1,5 2,9 1,-24 2,23 1,-5 2,0 1,-4 2,2 1,-3 2,10 1,-1 2,3 1,2 2,-5 1,2 2,13 1,-5 2,27 1,-9 2,21 1,22 2,27 1,51 1,43 2,78 1,79 2,53 1,74 2,35 1,46 2,28 1,16 2,16 1,15 2,7 2,3 1,-2 2,9 1,2 2,6 1,-4 2,9 1,0 2,8 1,-3 2,2 1,-3 2,11 1,-5 2,5 1,-3 2,-3 1,5 2,0 1,3 2,-5 1,0 2,1 2,4 1,-7 2,1 1,-1 2,0 1,-1 2,-1 1,0 2,-3 1,-4 2,3 1,3 2,-10 1,1 2,0 1,-1 2,-8 1,-5 2,-8 1,-14 2,-8 1,-21 2,-34 1,-28 2,-56 1,-53 2,-82 1,-74 2,11 1,-140 2,-47 1,-22 2,-31 1,-14 2,-10 1,-7 2,1 1,-16 2,5 1,-5 2,10 1,-15 2,0 1,-6 2,-1 1,-7 2,8 1,0 2,2 1,-3 2,-1 1,-1 2,-3 1,8 2,-5 1,1 2,0 1,-2 2,-3 1,7 2,-7 1,-1 2,8 1,-6 2,1 1,5 1,-4 2,4 1,3 2,4 1,-7 2,1 1,4 2,0 1,-1 2,9 2,6 1,3 1.996,1 1,6 2,15 1,16 1,30 2,23 1,54 2,69 1,54 2,79 1,56 2,71 1,52 2,27 1,31 2,19"
             style="fill:none;stroke:#0100ff;stroke-opacity:1;stroke-width:2.08333;stroke-linecap:butt;stroke-linejoin:round;stroke-miterlimit:10;stroke-dasharray:none"
             id="path3319" /><path
             d="m 280.668,1531.83 1,86 1,67 2,32 1,35 1,27 2,12 1,14 1,12 2,13 1,-1 1,3 2,6 1,3 2,4 1,2 1,1 2,4 1,1 4,0 3,2 3,-2 1,4 2,3 2,0 2,-6 1,2 2,-4 1,4 1,2 2,-2 1,3 2,-3 1,-4 1,5 2,-2 1,-2 2,0 1,1 1,-1 2,2 1,-1 2,4 1,-8 1,-2 2,-5 1,7 2,-6 1,-4 1,0 2,1 1,-11 2,-3 1,-1 1,-15 2,-7 1,-22 2,-24 1,-20 1,-49 2,-45 1,-88 3,-119 2,-78 1,-59 1,-28 2,-33 1,-11 2,-20 1,-9 2,-7 1,-9 2,-7 1,1 1,1 2,-7 1,1 1,-4 2,-3 1,-3 2,3 1,2 1,-6 2,1 1,-2 2,4 1,-3 2,6 1,-6 1,5 2,1 1,-6 2,7 1,-8 1,8 2,-2 1,-6 2,4 1,-3 2,16 1,-10 1,2 2,-6 1,0 2,3 1,0 1,-1 2,6 1,0 2,-11 1,5 2,11 1,-1 1,7 2,1 1,7 2,10 1,7 2,16 1,25 2,21 1,47 2,38 1,86 3,124 1,82 2,43 1,47 2,34 1,18 2,15 1,12 1,10 2,2 1,3 2,5 1,4 2,5 1,7 1,0 2,-3 1,6 2,0 1,1 2,-2 1,2 2,-3 1,4 1,-2 2,0 1,3 2,-6 1,1 2,0 1,1 4,0 2,-3 1,1 2,0 1,3 2,-3 1,-1 2,-3 1,-1 1,-1 2,4 1,-7 2,6 1,-4 2,-3 1,-1 2,-3 1,-2 1,0 2,-8 1,-6 2,-9 1,-9 2,-12 1,-19 2,-25 1,-43 1,-37 2,-74 1,-54 2,-78 1,-77 2,-49 1,-53 2,-37 1,-16 2,-16 1,-17 1,-4 2,-9 1,-7 2,-4 1,-6 1.996,5 1,-7"
             style="fill:none;stroke:#0100ff;stroke-opacity:1;stroke-width:2.08333;stroke-linecap:butt;stroke-linejoin:round;stroke-miterlimit:10;stroke-dasharray:none"
             id="path3321" /><path
             d="m 2832.66,1847.83 2,3 3,5 2,3 3,1 39,0 3,-1 2,1 3,0 3,-8 2,-3 3,-6 3,-11 2,-20 3,-14 3,-51 2,-94 3,-143 2,-87 3,-128 3,-47 2,-40 3,-20 3,-13 3,-10 2,-1 3,-4 2,-2 3,-4 38,0 3,3 2,2 3,9 3,13 3,17 2,31 3,41 3,114 2,110 3,134 3,118 3,56 3,26 2,17 3,5 3,9 3,1 2,-3 3,3 3,-4 5,-3 9,7 28,0 2,-6 3,-5 3,-7 3,-14 3,-21 3,-51 2,-64 6,-283 3,-95 3,-78 2,-38 3,-18 3,-11 3,-10 2,2 3,-7 3,1 3,-1 23,-1 17,0 3,7 3,7 3,5 3,11 3,11 2,23 3,47 3,110 3,152 3,91 3,124 3,40 2,35 3,20 3,5 3,11 3,3 3,5 43,0 3,-5 3,2 3,-1 3,-15 3,-13 2,-13 3,-42 2,-38 3,-117 3,-124 2,-91 3,-116 2,-56 3,-25 2,-20 3,-11 2,-4 3,-6 2,-5 3,0 2,-4 5,7 2,-10 3,0 2,1 9,0 2,-1 3,3 2,-3 7,0 2,1 2,2 2,-2 2,4 2,2 3,-1 2,6 2,4 2,10 2,8 2,15 2,27 2,23 3,50 2,89 2,82 10,341 2,7 2,8 2,4 1,0 2,10 3,-7 11,24 1,-2 2,2 32,0 1,-2 1,-6 1,-2 1,3 0,4 1,0 1,1 1,-4 1,1 1,-3 1,0 1,3 0,-3 1,-6 1,-3 1,-5 0,-4 1,-2 1,-2 0,-5 1,-6 1,-3 0,-6 1,-9 1,-6 0,-7 1,-2 0,-10 1,-3 0,-15 1,-17 0,-7 1,-15 0,-18 1,-16 0,-21 1,-27 0,-17 1,-34 0,-69 1,32 1,-44 1,0 0,-32 1,-17 0,-49 1,-12 0,-38 1,-11 0,-32 1,-10 0,-22 1,-6 0,-19 1,-2 0,-9 1,-5 0,-17 1,3 0,-12 1,-5"
             style="fill:none;stroke:#ff0000;stroke-opacity:1;stroke-width:2.08333;stroke-linecap:butt;stroke-linejoin:round;stroke-miterlimit:10;stroke-dasharray:none"
             id="path3323" /><path
             d="m 2231.66,1153.83 1,0 2,5 1,3 1,5 1,-1 2,8 1,4 1,12 2,13 1,11 1,14 2,26 1,34 1,33 1,63 2,81 1,40 1,66 2,56 1,64 1,55 1,7 2,44 1,20 2,7 1,12 2,7 1,9 1,-1 2,6 1,0 1,1 2,2 5,0 2,-14 1,-5 2,19 42,0 2,-5 2,1 1,-3 2,2 1,-12 2,-3 1,-8 2,-10 2,-21 1,-12 2,-40 2,-57 1,-52 3,-170 2,-70 2,-81 1,-58 2,-28 1,-27 2,-24 2,-10 1,-11 2,-2 2,1 1,-6 2,2 2,-2 16,0 1,18 2,-18 24,0 1,2 2,-1 2,9 2,0 2,6 2,7 1,16 2,6 2,17 2,33 2,37 2,72 2,112 1,54 2,111 2,61 2,65 2,38 2,31 2,4 2,12 2,1 7,13 50,0 3,-1 2,-9 2,-5 2,-7 2,-14 2,-15 2,-36 2,-58 2,-61 2,-137 2,-89 2,-85 3,-76 2,-50 2,-16 2,-17 2,-9 2,-6 2,-8 2,-7 3,3 2,-3 2,0 2,-1 35,0 7,1 2,0 2,6 2,5 3,8 2,5 2,11 3,15 2,32 2,61 2,66 5,245 2,85 2,68 3,48 2,15 2,20 3,1 2,9 2,6 52,0 3,-4 2,-6 2,-10 3,-22 2,-33 3,-41 2,-101 3,-131 2,-83 3,-116 2,-75 3,-26 2,-30 2,-10 3,-8 2,-8 3,-1 2,1 2,-2 43,0 3,1 2,3 3,11 3,8 2,17 3,24 2,52 3,56 2,141 3,127 2,90 3,86 3,47 2,8 3,23"
             style="fill:none;stroke:#ff0000;stroke-opacity:1;stroke-width:2.08333;stroke-linecap:butt;stroke-linejoin:round;stroke-miterlimit:10;stroke-dasharray:none"
             id="path3325" /><path
             d="m 1983.66,1248.83 0,-10 1,-7 0,-11 0,1 1,-2 0,-10 0,3 1,-3 0,-7 1,-2 0,-4 1,-7 0,-2 1,-5 0,3 1,-4 0,-2 1,0 0,3 0,-9 1,2 0,-7 0,8 1,-2 0,-10 1,4 0,-6 1,2 0,-3 0,3 2,-7 -1,0 1,-1 1,0 0,-3 5,0 1,-1 1,1 1,-1 2,0 1,1 1,-1 23,0 -1,0 8,0 1,3 0,-3 1,1 1,2 0,1 1,-2 0,2 1,0 0,4 1,-6 1,-1 0,6 1,-6 0,9 1,1 0,-1 1,-1 0,-2 1,0 0,10 1,1 0,-4 1,10 0,-6 1,5 0,7 1,-3 0,5 1,2 1,-3 0,9 1,8 0,4 1,13 1,8 0,10 1,12 1,7 0,11 1,17 0,10 1,21 1,24 0,17 1,31 0,21 1,34 0,35 1,27 1,20 0,32 1,22 0,34 1,30 1,21 0,24 1,23 0,15 1,15 0,18 1,9 1,11 0,8 1,1 1,16 0,5 1,2 0,4 1,10 1,5 0,4 1,1 0,1 1,4 1,4 0,2 1,3 1,-1 0,3 1,3 1,1 0,-1 1,5 1,1 7,0 1,1 2,0 1,-1 2,0 1,1 7,0 1,1 1,-1 1,0 1,1 1,-1 1,0 1,1 14,0 1,-1 1,0 1,1 1,0 1,-1 2,0 1,-2 1,-1 2,0 1,-3 0,-1 1,1 1,-4 1,-3 1,0 1,-8 1,-1 1,-9 1,-1 1,-13 0,-14 1,-4 1,-20 1,-21 1,-20 1,-33 1,-43 1,-33 1,-63 1,-45 1,-25 1,-45 1,-64 1,-36 1,-43 1,-27 1,-21 1,-20 1,-20 1,-6 1,-16 1,-7 1,-3 1,-5 1,-5 1,-10 0,-3 2,-4 1,-3 1,3 1,-4 1,6 1,-4 1,-3 33,0 1,1 1,0 1,-1 4,0 1,1 2,0 1,1 1,-1"
             style="fill:none;stroke:#ff0000;stroke-opacity:1;stroke-width:2.08333;stroke-linecap:butt;stroke-linejoin:round;stroke-miterlimit:10;stroke-dasharray:none"
             id="path3327" /><path
             d="m 1852.66,1152.83 0,2 0,-2 1,2 0,2 1,-1 0,1 1,1 0,-1 1,-1 0,-1 1,1 0,9 1,-8 0,1 1,2 1,1 0,7 1,-6 0,3 1,5 1,-4 0,-1 1,1 1,0 1,3 1,3 0,2 1,4 0,3 1,-2 1,1 0,4 1,4 0,5 1,0 1,6 0,2 1,-3 0,8 1,11 0,7 1,12 0,5 1,7 0,8 1,12 0,12 1,13 0,18 1,11 0,17 1,26 1,20 0,28 1,30 0,22 1,31 0,20 1,30 1,29 0,30 1,17 0,23 1,15 0,34 1,9 0,18 1,7 0,9 1,10 0,10 1,7 0,6 1,9 0,10 1,-2 0,11 1,3 0,1 1,1 0,3 1,1 0,8 1,-1 0,8 1,2 0,-1 1,2 0,5 1,7 0,-6 0,6 1,-5 0,3 1,3 0,4 0,-9 1,2 0,5 1,5 0,5 2,-7 0,1 1,2 0,7 1,-3 1,5 0,-7 1,5 0,-1 1,-2 0,-1 1,1 0,4 1,-6 0,8 1,-2 1,-1 0,3 1,-3 1,3 0,-4 1,2 0,3 1,-4 0,3 1,0 0,-4 1,5 0,-2 2,1 0,-2 0,3 1,0 0,-3 0,3 1,-3 0,3 1,1 1,-4 0,4 0,-1 2,0 1,-2 0,2 2,0 1,-1 1,1 3,0 1,-1 0,1 1,-2 0,2 0,-1 1,1 1,-1 0,-1 0,2 2,0 1,-1 0,-1 0,1 1,1 1,-2 0,2 1,-2 0,1 1,-2 0,2 1,-1 0,1 1,-5 0,2 1,1 0,-1 1,2 1,-4 0,-3 0,7 1,-8 0,5 1,-3 0,-1 1,2 0,-3 1,-1 0,-4 0,2 1,-3 0,-5 1,4 0,-2 1,-4 0,-3 1,3 0,-7 1,1 0,-2 1,-4 0,-4 1,-6 0,-5 1,-1 0,-3 1,-5 0,-7 1,-9 0,-8 1,1 0,-21 1,-3 0,-20 1,-10 0,-26 1,-10 0,-26 1,-17 0,-32 1,-13 0,-28 1,-19 0,-35 1,-12 0,-30 1,-16 0,-28 1,-14 0,-40 1,-17 0,-22 1,-10 0,-21 1,-12 0,-20 1,-7 0,-11 1,-6"
             style="fill:none;stroke:#ff0000;stroke-opacity:1;stroke-width:2.08333;stroke-linecap:butt;stroke-linejoin:round;stroke-miterlimit:10;stroke-dasharray:none"
             id="path3329" /></g></g><g
         id="g3331"><g
           id="g3333"
           clip-path="url(#clipPath3335)"><path
             d="m 280.668,168.832 3216,0 0,708 -3216,0 0,-708 z"
             style="fill:#ffffff;fill-opacity:1;fill-rule:evenodd;stroke:none;marker-end:url(#Arrow1Mstart)"
             id="path3339" /><path
             d="m 280.668,168.832 0,708 3215.992,0 0,-708 -3215.992,0"
             style="fill:none;stroke:#ffffff;stroke-opacity:1;stroke-width:2.08333;stroke-linecap:butt;stroke-linejoin:round;stroke-miterlimit:10;stroke-dasharray:none"
             id="path3341" /><path
             d="m 280.668,168.832 3215.992,0"
             style="fill:none;stroke:#000000;stroke-opacity:1;stroke-width:2.08333;stroke-linecap:butt;stroke-linejoin:round;stroke-miterlimit:10;stroke-dasharray:none"
             id="path3343" /><path
             d="m 280.668,168.832 0,708"
             style="fill:none;stroke:#000000;stroke-opacity:1;stroke-width:2.08333;stroke-linecap:butt;stroke-linejoin:round;stroke-miterlimit:10;stroke-dasharray:none"
             id="path3345" /><path
             d="m 658.664,168.832 0,33"
             style="fill:none;stroke:#000000;stroke-opacity:1;stroke-width:2.08333;stroke-linecap:butt;stroke-linejoin:round;stroke-miterlimit:10;stroke-dasharray:none"
             id="path3347" /><g
             id="g3349"
             transform="scale(4.16667,4.16667)"><text
               transform="matrix(1,0,0,-1,138.16,22.7597)"
               id="text3351"><tspan
                 style="fill:#000000;fill-opacity:1;fill-rule:nonzero;stroke:none;font-family:Helvetica;font-variant:normal;font-weight:normal;font-size:16;writing-mode:lr;-inkscape-font-specification:Helvetica"
                 x="0 8.896 13.344 22.24 31.136"
                 y="0"
                 sodipodi:role="line"
                 id="tspan3353">0.005</tspan></text>
</g><path
             d="m 1049.66,168.832 0,33"
             style="fill:none;stroke:#000000;stroke-opacity:1;stroke-width:2.08333;stroke-linecap:butt;stroke-linejoin:round;stroke-miterlimit:10;stroke-dasharray:none"
             id="path3355" /><g
             id="g3357"
             transform="scale(4.16667,4.16667)"><text
               transform="matrix(1,0,0,-1,236.559,22.7597)"
               id="text3359"><tspan
                 style="fill:#000000;fill-opacity:1;fill-rule:nonzero;stroke:none;font-family:Helvetica;font-variant:normal;font-weight:normal;font-size:16;writing-mode:lr;-inkscape-font-specification:Helvetica"
                 x="0 8.896 13.344 22.24"
                 y="0"
                 sodipodi:role="line"
                 id="tspan3361">0.01</tspan></text>
</g><path
             d="m 1439.66,168.832 0,33"
             style="fill:none;stroke:#000000;stroke-opacity:1;stroke-width:2.08333;stroke-linecap:butt;stroke-linejoin:round;stroke-miterlimit:10;stroke-dasharray:none"
             id="path3363" /><g
             id="g3365"
             transform="scale(4.16667,4.16667)"><text
               transform="matrix(1,0,0,-1,325.599,22.7597)"
               id="text3367"><tspan
                 style="fill:#000000;fill-opacity:1;fill-rule:nonzero;stroke:none;font-family:Helvetica;font-variant:normal;font-weight:normal;font-size:16;writing-mode:lr;-inkscape-font-specification:Helvetica"
                 x="0 8.896 13.344 22.24 31.136"
                 y="0"
                 sodipodi:role="line"
                 id="tspan3369">0.015</tspan></text>
</g><path
             d="m 1830.66,168.832 0,33"
             style="fill:none;stroke:#000000;stroke-opacity:1;stroke-width:2.08333;stroke-linecap:butt;stroke-linejoin:round;stroke-miterlimit:10;stroke-dasharray:none"
             id="path3371" /><g
             id="g3373"
             transform="scale(4.16667,4.16667)"><text
               transform="matrix(1,0,0,-1,423.999,22.7597)"
               id="text3375"><tspan
                 style="fill:#000000;fill-opacity:1;fill-rule:nonzero;stroke:none;font-family:Helvetica;font-variant:normal;font-weight:normal;font-size:16;writing-mode:lr;-inkscape-font-specification:Helvetica"
                 x="0 8.896 13.344 22.24"
                 y="0"
                 sodipodi:role="line"
                 id="tspan3377">0.02</tspan></text>
</g><path
             d="m 2220.66,168.832 0,33"
             style="fill:none;stroke:#000000;stroke-opacity:1;stroke-width:2.08333;stroke-linecap:butt;stroke-linejoin:round;stroke-miterlimit:10;stroke-dasharray:none"
             id="path3379" /><g
             id="g3381"
             transform="scale(4.16667,4.16667)"><text
               transform="matrix(1,0,0,-1,513.039,22.7597)"
               id="text3383"><tspan
                 style="fill:#000000;fill-opacity:1;fill-rule:nonzero;stroke:none;font-family:Helvetica;font-variant:normal;font-weight:normal;font-size:16;writing-mode:lr;-inkscape-font-specification:Helvetica"
                 x="0 8.896 13.344 22.24 31.136"
                 y="0"
                 sodipodi:role="line"
                 id="tspan3385">0.025</tspan></text>
</g><path
             d="m 2611.66,168.832 0,33"
             style="fill:none;stroke:#000000;stroke-opacity:1;stroke-width:2.08333;stroke-linecap:butt;stroke-linejoin:round;stroke-miterlimit:10;stroke-dasharray:none"
             id="path3387" /><g
             id="g3389"
             transform="scale(4.16667,4.16667)"><text
               transform="matrix(1,0,0,-1,611.439,22.7597)"
               id="text3391"><tspan
                 style="fill:#000000;fill-opacity:1;fill-rule:nonzero;stroke:none;font-family:Helvetica;font-variant:normal;font-weight:normal;font-size:16;writing-mode:lr;-inkscape-font-specification:Helvetica"
                 x="0 8.896 13.344 22.24"
                 y="0"
                 sodipodi:role="line"
                 id="tspan3393">0.03</tspan></text>
</g><path
             d="m 3001.66,168.832 0,33"
             style="fill:none;stroke:#000000;stroke-opacity:1;stroke-width:2.08333;stroke-linecap:butt;stroke-linejoin:round;stroke-miterlimit:10;stroke-dasharray:none"
             id="path3395" /><g
             id="g3397"
             transform="scale(4.16667,4.16667)"><text
               transform="matrix(1,0,0,-1,700.479,22.7597)"
               id="text3399"><tspan
                 style="fill:#000000;fill-opacity:1;fill-rule:nonzero;stroke:none;font-family:Helvetica;font-variant:normal;font-weight:normal;font-size:16;writing-mode:lr;-inkscape-font-specification:Helvetica"
                 x="0 8.896 13.344 22.24 31.136"
                 y="0"
                 sodipodi:role="line"
                 id="tspan3401">0.035</tspan></text>
</g><path
             d="m 3392.66,168.832 0,33"
             style="fill:none;stroke:#000000;stroke-opacity:1;stroke-width:2.08333;stroke-linecap:butt;stroke-linejoin:round;stroke-miterlimit:10;stroke-dasharray:none"
             id="path3403" /><g
             id="g3405"
             transform="scale(4.16667,4.16667)"><text
               transform="matrix(1,0,0,-1,798.879,22.7597)"
               id="text3407"><tspan
                 style="fill:#000000;fill-opacity:1;fill-rule:nonzero;stroke:none;font-family:Helvetica;font-variant:normal;font-weight:normal;font-size:16;writing-mode:lr;-inkscape-font-specification:Helvetica"
                 x="0 8.896 13.344 22.24"
                 y="0"
                 sodipodi:role="line"
                 id="tspan3409">0.04</tspan></text>
</g><path
             d="m 280.668,168.832 32,0"
             style="fill:none;stroke:#000000;stroke-opacity:1;stroke-width:2.08333;stroke-linecap:butt;stroke-linejoin:round;stroke-miterlimit:10;stroke-dasharray:none"
             id="path3411" /><g
             id="g3413"
             transform="scale(4.16667,4.16667)"><text
               transform="matrix(1,0,0,-1,46.2403,34.7597)"
               id="text3415"><tspan
                 style="fill:#000000;fill-opacity:1;fill-rule:nonzero;stroke:none;font-family:Helvetica;font-variant:normal;font-weight:normal;font-size:16;writing-mode:lr;-inkscape-font-specification:Helvetica"
                 x="0 9.344"
                 y="0"
                 sodipodi:role="line"
                 id="tspan3417">−1</tspan></text>
</g><path
             d="m 280.668,345.832 32,0"
             style="fill:none;stroke:#000000;stroke-opacity:1;stroke-width:2.08333;stroke-linecap:butt;stroke-linejoin:round;stroke-miterlimit:10;stroke-dasharray:none"
             id="path3419" /><g
             id="g3421"
             transform="scale(4.16667,4.16667)"><text
               transform="matrix(1,0,0,-1,33.0403,77.2397)"
               id="text3423"><tspan
                 style="fill:#000000;fill-opacity:1;fill-rule:nonzero;stroke:none;font-family:Helvetica;font-variant:normal;font-weight:normal;font-size:16;writing-mode:lr;-inkscape-font-specification:Helvetica"
                 x="0 9.344 18.24 22.688"
                 y="0"
                 sodipodi:role="line"
                 id="tspan3425">−0.5</tspan></text>
</g><path
             d="m 280.668,522.832 32,0"
             style="fill:none;stroke:#000000;stroke-opacity:1;stroke-width:2.08333;stroke-linecap:butt;stroke-linejoin:round;stroke-miterlimit:10;stroke-dasharray:none"
             id="path3427" /><g
             id="g3429"
             transform="scale(4.16667,4.16667)"><text
               transform="matrix(1,0,0,-1,55.6003,119.72)"
               id="text3431"><tspan
                 style="fill:#000000;fill-opacity:1;fill-rule:nonzero;stroke:none;font-family:Helvetica;font-variant:normal;font-weight:normal;font-size:16;writing-mode:lr;-inkscape-font-specification:Helvetica"
                 x="0"
                 y="0"
                 id="tspan3433">0</tspan></text>
</g><path
             d="m 280.668,699.832 32,0"
             style="fill:none;stroke:#000000;stroke-opacity:1;stroke-width:2.08333;stroke-linecap:butt;stroke-linejoin:round;stroke-miterlimit:10;stroke-dasharray:none"
             id="path3435" /><g
             id="g3437"
             transform="scale(4.16667,4.16667)"><text
               transform="matrix(1,0,0,-1,42.4003,162.2)"
               id="text3439"><tspan
                 style="fill:#000000;fill-opacity:1;fill-rule:nonzero;stroke:none;font-family:Helvetica;font-variant:normal;font-weight:normal;font-size:16;writing-mode:lr;-inkscape-font-specification:Helvetica"
                 x="0 8.896 13.344"
                 y="0"
                 sodipodi:role="line"
                 id="tspan3441">0.5</tspan></text>
</g><path
             d="m 280.668,876.832 32,0"
             style="fill:none;stroke:#000000;stroke-opacity:1;stroke-width:2.08333;stroke-linecap:butt;stroke-linejoin:round;stroke-miterlimit:10;stroke-dasharray:none"
             id="path3443" /><g
             id="g3445"
             transform="scale(4.16667,4.16667)"><text
               transform="matrix(1,0,0,-1,55.6003,204.68)"
               id="text3447"><tspan
                 style="fill:#000000;fill-opacity:1;fill-rule:nonzero;stroke:none;font-family:Helvetica;font-variant:normal;font-weight:normal;font-size:16;writing-mode:lr;-inkscape-font-specification:Helvetica"
                 x="0"
                 y="0"
                 id="tspan3449">1</tspan></text>
<text
               transform="matrix(0,1,1,0,17.6803,117.8)"
               id="text3451"><tspan
                 style="fill:#000000;fill-opacity:1;fill-rule:nonzero;stroke:none;font-family:Helvetica;font-variant:normal;font-weight:normal;font-size:16;writing-mode:lr;-inkscape-font-specification:Helvetica"
                 x="0"
                 y="0"
                 id="tspan3453">n</tspan></text>
<text
               transform="matrix(0,1,1,0,25.6003,126.68)"
               id="text3455"><tspan
                 style="fill:#000000;fill-opacity:1;fill-rule:nonzero;stroke:none;font-family:Helvetica;font-variant:normal;font-weight:normal;font-size:12;writing-mode:lr;-inkscape-font-specification:Helvetica"
                 x="0"
                 y="0"
                 id="tspan3457">z</tspan></text>
<text
               transform="matrix(1,0,0,-1,335.919,6.19969)"
               id="text3459"><tspan
                 style="font-size:16px;font-variant:normal;font-weight:normal;writing-mode:lr-tb;fill:#000000;fill-opacity:1;fill-rule:nonzero;stroke:none;font-family:Helvetica;-inkscape-font-specification:Helvetica"
                 x="0"
                 y="0"
                 sodipodi:role="line"
                 id="tspan3461">Cumulative distance in channel</tspan></text>
</g></g></g><g
         id="g3463"><g
           id="g3465"
           clip-path="url(#clipPath3467)"><path
             d="m 1459.66,459.832 1,8 1,7 2,6 1,7 1,3 2,2 1,5 2,4 1,4 1,1 2,-1 1,0 1,-1 2,2 1,-2 2,2 1,0 1,3 2,-1 3,0 1,2 1,-2 2,1 1,0 1,1 2,1 1,-2 1,0 2,2 1,0 1,-2 2,-1 1,1 2,-1 2,0 2,1 1,-1 1,-1 2,-1 1,-1 2,-1 1,-2 1,-1 2,-1 1,-2 1,-5 2,-2 1,-4 2,-2 1,-6 1,-8 2,-6 1,-8 1,-10 2,-6 1,-10 1,-12 2,-9 1,-6 2,-2 1,-5 1,0 2,7 1,4 1,8 2,6 1,7 1,8 2,4 1,3 1,5 2,4 1,-1 2,4 2,0 2,4 1,2 1,-1 3,0 1,1 2,-1 1,2 1,1 2,3 1,0 2,-2 1,1 4,0 1,1 2,-2 1,1 1,2 2,1 1,-3 1,-1 2,0 1,-4 1,0 2,-1 1,-3 1,1 2,-4 1,0 1,-1 2,-1 1,-2 1,-1 2,-1 1,-2 1,-2 2,-4 1,-3 1,-2 2,-8 1,-4 1,-6 2,-9 1,-8 1,-12 2,-14 1,-4 1,-6 2,-3 1,0 1,4 2,16 1,7 1,14 2,14 1,7 1,11 1,7 2,6 1,7 1,6 2,4 1,2 1,4 2,2 1,6 1,2 2,2 1,4 1,0 1,3 2,1 1,2 1,1 2,0 1,2 1,0 2,1 1,1 1,-1 1,1 2,0 1,-1 1,-1 1,-1 2,-1 6,0 1,-2 2,-3 1,0 1,-1 2,-2 1,-1 1,-3 1,-4 2,1 1,-2 1,-3 2,-6 1,-3 1,-6 2,0 1,-8 1,-6 1,-5 2,-10 1,-7 1,-13 2,-11 1,-16 1,-8 1,-15 2,-10 1,-12 1,-5 1,-1 2,4 1,10 1,6 1,17 2,5 1,6 1,12 1,9 2,5 1,6 1,6 1,4 2,5 1,3 1,5 1,5 2,4 1,2 1,2 1,3 2,1 1,1 1,3 2,0 1,2 1,3 1,0 2,2 1,1 1,2 1,-2 2,-2 1,1 1,2 2,-1 1,0 1,-1 2,1 1,0 1,-2 2,-2 1,-1 1,0 2,-1 1,-2 2,-1 1,-3 1,-2 2,-2 1,1 1,-3 2,-2 1,-1 2,-2 1,-4 1,-4 2,-7 1,-2 1,-8 2,-10 1,-9 2,-10 1,-10 2,-9 1,-12 1,-8 2,-5 1,6 1,11 2,14 1,30 2,40 2,9 2,18 1,-27 2,10 1,5 2,6 1,7 2,4 1,2 1,3 1,4 2,3 1,2 3,0 1,2 2,1 -1,0 1,0 1,2 1,3 1,2 0,-2 1,1 0,1 1,2 0,7"
             style="fill:none;stroke:#0100ff;stroke-opacity:1;stroke-width:2.08333;stroke-linecap:butt;stroke-linejoin:round;stroke-miterlimit:10;stroke-dasharray:none"
             id="path3471" /><path
             d="m 1021.66,438.832 2,4 1,5 2,5 1,1 2,4 1,3 2,3 1,4 2,2 1,3 2,3 1,0 2,2 1,0 2,-2 1,0 2,1 1,1 2,1 1,1 2,0 1,3 2,-1 1,-2 2,1 1,-1 1,0 2,-1 4,-4 3,0 2,-2 1,1 3,0 2,-1 1,-1 2,-1 1,-3 2,-2 3,-8 1,-5 2,-4 1,-3 2,-7 1,-4 2,-8 1,-8 2,-6 1,4 2,4 1,3 1,4 2,13 1,14 2,6 1,8 2,4 1,7 2,5 1,3 2,4 1,3 2,2 1,2 3,0 1,2 2,1 1,1 2,2 1,1 2,2 1,-1 2,1 3,0 1,-1 2,3 1,0 2,1 1,0 1,-1 2,0 1,-1 2,-1 1,-1 2,1 1,-2 2,-1 1,-2 2,-1 1,-3 2,-1 1,-2 1,-5 2,-2 1,-1 2,-3 1,-5 2,-4 1,-6 2,-5 1,-8 1,-8 2,-7 1,-10 2,-6 1,-5 2,-5 1,-1 2,2 1,7 1,3 2,10 1,5 2,6 1,5 2,3 1,5 1,0 2,4 1,2 2,1 1,2 2,3 3,0 1,1 1,0 2,3 1,0 2,3 1,3 2,1 1,2 1,-1 2,2 3,0 1,1 2,-3 1,-1 2,-2 1,0 4,-6 2,3 3,0 1,-1 2,-3 1,-1 2,-2 1,-3 1,-1 2,-3 1,-4 2,1 1,-3 2,-7 1,-1 2,-5 1,-3 1,-8 2,-6 1,-7 2,-7 1,-5 2,0 1,6 1,0 2,6 1,7 2,12 1,10 2,9 1,6 1,4 2,7 1,7 2,4 1,3 2,4 1,2 1,2 2,4 1,0 2,-1 1,3 1,1 2,1 1,0 2,1 1,1 3,0 1,2 2,1 1,-1 2,2 3,0 1,1 2,1 1,2 2,-1 1,2 1,-1 2,-1 1,-1 2,-2 1,-1 2,-1 1,0 1,-2 2,-1 1,0 2,-2 1,-1 2,-1 1,-2 1,-2 2,-4 1,-3 2,-1 1,-5 1,-7 2,-5 1,-5 1,-8 2,-3 1,-2 2,7 1,-10 1,-9 2,1 1,3 2,2 1,5 1,3 2,5 1,3 2,2 1,3 1,0 2,3 1,2 2,1 1,0 1,2 2,2 1,2 2,0 1,1 2,-1 1,1 1,-1 2,2 1,0 2,1 1,-1 3,0 1,-1 2,-1 1,-2 1,0 2,-1 1,1 2,0 1,2 1,0 2,-2 1,0 1,-1 2,-1 1,1 2,-1 1,-2 1,-2 2,0 1,1 1,-3 2,-1 1,-5 2,-2 1,-4 1,-2 2,-2 1,-3 1,-7 2,-3 1,-4 2,-1 1,7 1,14 2,-7 1,1 2,5"
             style="fill:none;stroke:#0100ff;stroke-opacity:1;stroke-width:2.08333;stroke-linecap:butt;stroke-linejoin:round;stroke-miterlimit:10;stroke-dasharray:none"
             id="path3473" /><path
             d="m 574.668,503.832 0.996,2 2,2 1,1 2,-2 1,1 2,2 1,1 1,1 2,2 1,1 2,-1 1,0 2,-2 3,0 1,-1 2,1 1,1 7,0 2,-1 1,-1 2,-3 1,4 2,-3 1,-2 2,0 1,-2 2,-1 1,-1 2,1 1,-3 2,-2 1,-3 2,-4 1,-1 2,-3 1,-4 2,-6 1,-8 2,-6 1,-7 2,-14 1,-9 2,-9 1,-8 2,-4 1,3 2,0 1,4 1,7 2,6 1,6 2,3 1,6 2,8 1,2 2,4 1,1 2,5 1,4 2,1 1,4 2,2 3,0 1,1 2,3 1,-1 4,0 2,-1 2,0 1,1 2,-2 1,0 2,1 1,0 2,3 1,-1 2,-4 3,0 1,1 2,-1 1,-1 2,1 1,-2 2,-2 1,-1 2,-1 1,1 2,-3 1,1 2,-3 1,-2 2,-2 1,-2 2,-6 1,-3 2,-7 1,-6 2,-4 1,-8 2,-4 1,-9 2,-8 1,3 2,3 1,3 2,5 1,12 2,9 1,15 2,9 1,7 2,5 1,7 2,4 1,3 2,3 1,3 2,4 1,1 2,3 1,3 2,0 1,1 2,-1 1,2 2,3 1,0 2,2 1,1 2,0 2,-2 1,1 1,1 3,0 2,1 2,0 1,-1 2,1 3,0 1,-2 2,-1 1,0 2,1 1,-3 2,-1 1,-1 2,-4 1,-1 2,-1 1,-4 2,-3 1,-4 2,-2 1,-7 2,-3 1,-9 2,-9 1,-13 2,-9 1,-11 1,-6 2,-5 1,-2 2,-4 1,2 2,4 1,8 2,10 1,5 2,8 1,4 2,2 2,3 1,6 2,3 1,3 2,2 1,7 2,-1 1,3 2,2 1,0 2,2 1,1 2,-1 1,1 2,0 1,2 2,1 1,1 2,2 1,0 2,1 1,1 2,1 2,-2 1,0 2,1 1,-2 2,0 1,-1 2,-1 1,0 2,-1 1,0 2,-2 1,-3 2,0 1,-3 2,-3 1,0 2,-3 1,-1 2,-5 1,-3 2,-3 1,-6 2,-7 1,-3 2,-7 1,3 2,12 1,-2 2,26 1,-19 2,12 1,6 2,7 1,2 2,6 1,6 2,4 1,4 2,0 1,3 2,2 1,0 2,2 1,-2 2,1 1,2 2,1 1,-1 2,-1 1,-1 2,-2 1,1 2,1 1,-1 2,-1 4,0 2,-1 1,1 2,-1 1,-1 2,0 1,1 2,1 2,0 2,-2 1,-1 2,-4 1,1 2,-4 1,-2 2,-2 1,-4 2,-1 2,-4 1,-7 1.996,-4 1,-8 2,-3 1,-10 1,-9 2,-7 1,-11 2,-10 1,-5 2,-1 1,-2 2,4 1,9 2,6 1,6"
             style="fill:none;stroke:#0100ff;stroke-opacity:1;stroke-width:2.08333;stroke-linecap:butt;stroke-linejoin:round;stroke-miterlimit:10;stroke-dasharray:none"
             id="path3475" /><path
             d="m 280.668,507.832 1,-6 1,-3 2,-1 1,-1 1,-1 2,1 1,0 1,1 2,0 1,1 3,0 1,1 2,3 1,-1 3,0 1,-1 1,1 3,1 3,-1 3,2 1,-3 2,2 1,-1 1,2 2,-1 1,-3 2,2 1,0 1,-1 2,1 1,-2 2,-1 1,-1 1,-1 2,-1 1,-1 2,-1 1,2 1,1 5,0 1,-1 1,-1 2,-1 1,-1 2,0 1,-1 1,-2 2,-1 1,-1 2,0 1,-4 1,-1 2,-2 1,-2 2,-5 1,-4 1,-4 2,0 1,10 3,5 2,1 1,5 1,4 2,7 1,4 2,5 1,5 2,2 1,0 2,4 1,1 1,1 2,3 1,0 1,-3 2,3 1,-1 2,1 1,1 1,-1 2,-1 1,-1 2,3 1,0 2,1 1,-1 3,0 1,-1 2,3 1,-1 1,1 2,1 1,-2 2,1 1,0 2,1 1,-1 1,-2 2,2 1,-3 2,-1 1,-2 1,-1 2,-1 1,0 2,-1 1,0 2,-1 1,-1 1,-3 2,-3 1,-1 2,-4 1,-2 2,-4 1,-5 2,-4 1,-7 2,-4 1,-2 3,-6 1,-4 2,-1 1,2 2,3 1,2 2,4 1,2 1,1 2,1 1,3 2,1 1,3 2,2 1,-1 1,0 2,2 1,1 2,0 1,2 2,2 1,1 2,-2 1,0 1,1 5,0 1,-1 2,1 1,-2 2,1 1,2 1,-1 2,-2 1,-1 2,0 1,-1 2,-2 1,-1 2,-1 1,-1 1,0 2,-1 1,-1 2,-3 3,0 1,-2 2,-2 1,-2 1,-4 2,-2 1,-3 2,-4 1,-4 2,-6 1,-4 2,-9 1,-6 1,-6 2,-2 1,4 2,4 1,1 2,5 1,11 2,11 1,7 2,8 1,4 1,6 2,5 1,2 2,5 1,4 1.996,2"
             style="fill:none;stroke:#0100ff;stroke-opacity:1;stroke-width:2.08333;stroke-linecap:butt;stroke-linejoin:round;stroke-miterlimit:10;stroke-dasharray:none"
             id="path3477" /><path
             d="m 2842.66,529.832 3,2 2,-4 3,1 2,-2 6,0 2,-2 3,2 2,-1 3,-2 3,-2 2,1 3,0 3,-3 2,3 3,-1 2,2 3,0 3,2 2,1 3,0 3,1 2,6 3,3 3,8 2,9 3,-2 2,10 3,7 3,-1 2,-4 3,-4 3,0 3,-3 2,0 3,-1 2,-3 3,-1 3,-1 3,-1 2,1 3,2 3,-1 2,0 3,1 3,1 2,-2 3,0 3,1 3,0 2,-1 3,1 3,-1 2,0 3,-1 3,-2 5,0 3,1 3,-3 2,-7 3,-2 3,-7 3,-6 3,-4 2,1 3,-2 3,-2 3,-2 2,0 3,2 3,1 5,1 9,-2 2,2 3,0 3,-1 3,-1 3,1 2,1 3,-2 6,0 3,2 2,1 3,1 3,4 3,2 3,4 3,5 2,4 6,13 3,6 3,1 2,-2 3,-1 3,-4 3,0 2,-1 3,1 3,-2 3,-1 23,-3 3,-1 3,1 3,1 2,-1 3,-1 3,-1 3,0 3,-2 3,-1 3,-1 3,1 2,-2 3,-3 3,-5 3,-12 3,2 3,-3 3,0 2,-3 3,-3 3,1 3,-2 3,-1 3,0 3,2 3,-1 2,1 3,1 3,-4 3,1 3,-1 3,1 3,3 3,0 3,1 3,0 2,1 6,0 3,2 3,1 3,1 3,1 3,3 2,7 3,4 2,6 3,4 3,-5 2,12 3,7 5,0 2,-1 3,-1 2,-2 3,-1 2,-1 3,-2 2,-1 5,-2 5,0 2,2 2,-1 3,1 2,-1 2,0 2,-1 3,-2 2,2 7,0 2,2 2,0 2,2 2,-1 2,2 3,1 6,0 2,2 2,1 2,2 2,2 3,2 2,-4 2,-13 10,-12 2,-4 2,0 2,-2 1,1 2,-1 3,-3 11,-4 1,-1 2,1 1,3 1,1 1,1 2,-4 1,0 1,1 1,-1 1,0 1,-2 2,0 1,-2 1,-3 1,1 1,-1 1,-1 1,2 1,0 1,1 1,-1 1,-1 1,0 1,1 1,-1 1,0 1,-1 0,-1 1,1 1,-1 1,-2 1,0 1,-2 1,0 1,2 1,1 1,0 0,-3 1,-2 1,0 1,-1 1,0 0,2 1,-2 2,0 0,2 1,1 1,0 1,1 0,-1 1,-1 1,-1 0,-1 1,2 2,1 -1,0 1,0 1,-2 0,2 1,-1 0,3 1,1 0,-2 2,0 1,1 2,4 0,7 1,-8 1,10 0,-1 1,11 0,-14 1,3 0,2 1,-1 0,-2 0,1 1,2 0,-1 0,2 1,-2 0,1 0,-3 1,1 0,1 0,-1 1,1 0,3 1,-1 0,2 0,-2 1,-1 0,-2 1,-1"
             style="fill:none;stroke:#ff0000;stroke-opacity:1;stroke-width:2.08333;stroke-linecap:butt;stroke-linejoin:round;stroke-miterlimit:10;stroke-dasharray:none"
             id="path3479" /><path
             d="m 2236.66,558.832 1,1 2,1 1,3 1,0 2,3 1,2 1,2 2,1 1,3 2,0 2,-11 1,-8 1,10 2,1 1,-6 1,-9 1,-9 2,-1 1,-3 2,-3 1,-2 2,-5 1,-1 1,-3 2,-1 1,-1 1,-1 2,-1 1,2 2,-3 2,0 2,-3 1,0 2,-3 1,1 1,2 2,-1 1,-1 2,2 1,0 2,-2 1,-1 2,0 1,1 2,0 1,1 2,1 2,-2 1,1 2,0 1,1 3,0 2,2 1,0 2,-2 1,-1 2,1 2,-1 1,3 2,-1 1,-1 2,1 2,1 1,2 2,1 1,0 2,1 1,2 2,3 2,4 1,5 2,4 2,4 1,4 3,2 2,10 2,3 1,-1 2,0 1,-2 4,0 1,-2 2,-1 2,-2 1,0 2,-2 2,0 1,-1 2,1 2,1 2,1 1,-1 2,-1 2,2 2,0 2,2 1,-2 2,2 2,-1 2,-2 1,-1 2,-1 2,0 2,1 2,1 1,-1 2,-2 2,0 2,2 2,1 2,1 3,0 2,2 2,2 2,2 2,2 1,0 2,3 2,4 2,3 2,2 2,-1 2,-12 1,-4 2,6 2,-5 2,-10 2,-6 2,-8 2,-2 2,-7 2,0 7,-7 2,1 2,1 2,-1 2,-1 2,-1 2,1 2,-1 2,0 2,-3 2,1 2,-2 2,3 2,-1 2,-2 2,1 2,-2 2,2 4,0 2,2 2,0 2,1 2,2 2,1 2,2 5,0 2,2 2,2 2,1 2,3 2,5 2,7 2,4 2,-15 2,22 2,7 3,-1 2,-2 2,-1 2,-3 2,-2 2,1 2,1 2,-2 3,-1 2,2 2,-3 2,-1 2,-2 2,-1 3,1 2,-4 2,1 2,0 2,-3 3,2 2,0 2,4 2,-2 2,0 2,1 3,0 2,1 2,2 7,4 2,1 2,0 2,4 3,1 2,0 2,3 3,0 2,5 2,2 2,-1 5,-8 2,-5 2,-10 3,-5 2,-4 2,-3 3,-3 2,-1 2,-4 2,-1 3,0 2,-2 2,-1 3,1 2,2 2,-4 5,0 3,-1 2,3 2,-3 3,3 2,2 3,0 2,1 2,-1 3,2 2,0 2,1 3,3 2,2 3,2 2,5 2,6 3,7 2,11 3,6 2,12 3,-3 2,14 3,1 2,-4 3,-8 2,-6 2,-5 3,-1 2,-5 3,-2 2,-2 2,-1 3,0 2,-1 10,0 3,-1 2,-2 3,2 7,0 3,1 3,-1 2,-1 3,3 2,1 3,4 2,1 3,1 3,7 2,1 3,5 2,5 3,5 2,-11 3,0 2,-3 3,-12 3,-10 2,-6 3,-6 2,-3 3,-2 2,-3 3,-4"
             style="fill:none;stroke:#ff0000;stroke-opacity:1;stroke-width:2.08333;stroke-linecap:butt;stroke-linejoin:round;stroke-miterlimit:10;stroke-dasharray:none"
             id="path3481" /><path
             d="m 1999.66,489.832 0,1 1,-1 1,0 0,3 0,-2 1,2 0,2 1,-1 1,0 0,4 2,0 0,2 1,0 0,2 1,1 0,1 1,1 0,2 0,-1 1,2 1,2 0,-3 1,-3 0,1 0,-1 1,1 0,2 1,0 1,1 0,1 1,1 0,1 1,1 0,1 0,-2 2,2 -1,0 2,0 0,2 1,-1 0,2 1,1 0,-2 1,0 1,2 0,2 1,0 1,1 0,1 2,0 0,2 1,1 1,1 2,-1 -1,0 1,0 2,2 -1,0 1,0 1,1 0,1 0,-1 1,-1 0,-2 1,-1 2,-3 -1,0 1,0 1,-3 0,-1 1,1 0,-1 1,-2 1,0 1,-1 0,1 1,1 1,-1 1,1 0,-1 1,-2 0,-1 2,0 -1,0 1,-2 1,-1 1,-1 1,-3 0,-3 1,1 0,-1 1,-1 0,-2 1,-2 0,-4 1,-2 0,-3 1,-3 1,0 0,-5 1,-2 0,-3 1,-4 1,-3 0,-6 1,-2 0,-4 1,-4 1,-5 0,-2 1,1 0,-3 1,-1 0,3 1,-1 1,-3 0,-6 2,-4 -1,0 1,0 1,2 0,1 1,2 0,1 1,5 0,2 1,2 1,3 0,5 1,2 1,1 0,3 1,2 0,2 1,3 1,0 0,-2 1,3 0,2 1,1 1,2 1,1 1,0 1,3 1,1 0,2 1,2 1,-1 0,1 1,-1 1,2 1,2 1,-1 0,-1 1,2 1,-1 1,2 1,0 0,3 2,0 1,-3 1,-2 2,3 -1,0 1,0 1,1 1,3 1,2 1,1 1,0 0,2 1,1 1,0 1,2 0,1 1,-2 1,-1 1,2 1,-2 0,-2 1,2 1,2 1,1 0,-1 1,2 1,-2 4,0 1,-1 1,1 1,0 1,-1 1,2 1,0 1,-1 1,-2 1,0 1,1 1,2 1,0 0,-2 1,0 1,-2 1,-1 1,2 1,0 1,-2 1,-1 1,-1 1,0 1,-1 1,-2 1,1 1,1 1,0 1,-2 1,-1 0,-1 1,-1 1,0 1,2 1,-2 1,-2 1,1 1,3 1,7 1,5 1,-2 3,0 1,3 1,3 1,2 1,4 1,5 1,1 1,5 1,1 1,2 1,1 1,-2 1,1 0,2 2,1 1,-2 2,0 1,1 1,-1 1,1 1,2 1,1 1,1 1,4 1,-2 1,1 1,0 2,1 1,1 1,0 1,5 1,1 1,-2 1,2 1,1 2,0 1,2 1,-1 1,2 1,-1 1,0 2,2 1,-2 1,1 1,0 1,-1 1,0 2,4 1,1 1,2 1,0 1,-4 2,0 1,2 1,1 1,3 2,2 1,0 1,1 3,0 1,1 1,2"
             style="fill:none;stroke:#ff0000;stroke-opacity:1;stroke-width:2.08333;stroke-linecap:butt;stroke-linejoin:round;stroke-miterlimit:10;stroke-dasharray:none"
             id="path3483" /><path
             d="m 1852.66,507.832 0,-3 1,-1 1,0 0,-2 1,-1 0,-3 1,2 0,-1 1,-2 0,1 1,-1 0,1 1,-1 1,-2 0,-2 1,-1 0,-1 1,2 1,-2 1,-3 1,-3 0,-3 1,-1 2,-4 0,-3 1,-3 1,-3 0,-3 1,-2 0,-4 1,-4 1,-3 0,-3 1,-5 0,-2 1,-4 0,-4 1,-4 0,-8 1,-2 0,-9 1,-7 0,-3 1,-4 0,-4 1,-5 0,-8 1,-3 1,-1 0,-2 1,-5 0,-3 1,-4 0,1 1,-3 1,5 0,3 1,3 0,2 1,1 0,6 1,1 0,-1 1,5 0,8 1,3 0,-1 1,3 0,10 1,1 1,4 0,3 1,2 0,2 1,1 0,6 1,3 0,3 1,4 0,1 1,2 0,3 1,1 0,-2 1,2 0,3 1,3 0,1 1,2 0,-2 0,1 1,-1 0,1 1,3 1,1 0,3 1,1 0,1 1,-1 0,1 1,2 2,0 0,2 1,1 1,1 0,-1 1,2 0,1 1,1 1,-2 0,1 1,-1 1,-1 0,2 1,3 1,2 1,1 0,-2 1,-2 0,-2 0,1 2,0 0,-1 0,2 2,2 0,4 0,-1 1,0 0,2 1,-1 0,1 0,-1 1,0 2,-3 -1,0 1,2 1,-1 1,-1 1,-1 0,-3 1,-1 0,3 1,-1 0,2 1,-1 0,1 1,-1 0,-1 1,-3 0,4 1,1 0,-1 1,1 0,4 1,-1 0,-2 1,-1 0,-2 2,0 -1,0 1,1 1,-1 0,1 1,-1 1,-1 0,-2 1,-1 0,1 1,-3 0,1 1,-1 0,-1 2,-2 -1,0 1,0 1,-1 0,-2 1,2 0,-1 1,-2 0,1 1,-2 0,1 1,-1 0,-4 1,-1 0,-1 1,-4 1,-2 0,-2 1,-3 0,-4 1,0 1,-2 0,-3 1,-1 0,-2 1,-2 0,-1 1,-1 0,-2 1,-4 0,-5 1,-2 0,-3 1,-4 0,-7 1,-1 0,-3 1,-2 0,-1 1,1 0,-4 1,2 0,-2 0,1 1,4 0,2 1,1 0,2 1,1 0,-1 1,1 0,5 1,4 0,-1 0,1 1,3 0,4 1,2 0,8 1,1 0,5 1,4 0,4 1,3 0,8 1,3 0,4 1,2 0,-1 0,1 1,2 0,2 1,3 0,3 1,1 0,2 1,2 0,2 1,2 0,2 0,-2 1,2 0,2 1,0 0,-2 1,1 0,2 1,2 0,-1 1,-1 0,3 0,-1 1,3 0,3 1,1 0,2 1,-2 0,-1"
             style="fill:none;stroke:#ff0000;stroke-opacity:1;stroke-width:2.08333;stroke-linecap:butt;stroke-linejoin:round;stroke-miterlimit:10;stroke-dasharray:none"
             id="path3485" /><path
             d="m 1594.66,530.832 140,196"
             style="fill:none;stroke:#000000;stroke-opacity:1;stroke-width:2.08333332999999990;stroke-linecap:butt;stroke-linejoin:round;stroke-miterlimit:10;stroke-dasharray:none;stroke-dashoffset:0;marker-end:none;marker-start:url(#Arrow2Mstart)"
             id="path3487" /></g></g><g
         id="g3489"><g
           id="g3491"
           clip-path="url(#clipPath3493)"><g
             id="g3497"
             transform="scale(4.16667,4.16667)"><text
               transform="scale(1,-1)"
               id="text3499"
               x="416.319"
               y="-173.44952"
               style="font-size:12px"><tspan
                 style="font-size:10px;font-variant:normal;font-weight:normal;writing-mode:lr-tb;fill:#000000;fill-opacity:1;fill-rule:nonzero;stroke:none;font-family:Helvetica;-inkscape-font-specification:Helvetica"
                 x="416.319"
                 y="-173.44952"
                 id="tspan3501">1</tspan></text>
</g></g></g><g
         id="g3503"><g
           id="g3505"
           clip-path="url(#clipPath3507)" /></g></g></g></svg>