<?xml version="1.0" encoding="UTF-8" standalone="no"?>
<!-- Created with Inkscape (http://www.inkscape.org/) -->

<svg
   xmlns:dc="http://purl.org/dc/elements/1.1/"
   xmlns:cc="http://creativecommons.org/ns#"
   xmlns:rdf="http://www.w3.org/1999/02/22-rdf-syntax-ns#"
   xmlns:svg="http://www.w3.org/2000/svg"
   xmlns="http://www.w3.org/2000/svg"
   xmlns:sodipodi="http://sodipodi.sourceforge.net/DTD/sodipodi-0.dtd"
   xmlns:inkscape="http://www.inkscape.org/namespaces/inkscape"
   id="svg2"
   version="1.1"
   inkscape:version="0.48.4 r9939"
   width="1060.299"
   height="598.251"
   xml:space="preserve"
   sodipodi:docname="October_11_Particle_2_run_2_A.pdf"><metadata
     id="metadata8"><rdf:RDF><cc:Work
         rdf:about=""><dc:format>image/svg+xml</dc:format><dc:type
           rdf:resource="http://purl.org/dc/dcmitype/StillImage" /><dc:title></dc:title></cc:Work></rdf:RDF></metadata><defs
     id="defs6"><clipPath
       clipPathUnits="userSpaceOnUse"
       id="clipPath18"><path
         d="M 0,0 849,0 849,479 0,479 0,0 z"
         id="path20" /></clipPath><clipPath
       clipPathUnits="userSpaceOnUse"
       id="clipPath206"><path
         d="m 66.719,445.921 772.078,0 0,-170.16 -772.078,0 0,170.16 z"
         id="path208" /></clipPath><clipPath
       clipPathUnits="userSpaceOnUse"
       id="clipPath214"><path
         d="M 0,0 849,0 849,479 0,479 0,0 z"
         id="path216" /></clipPath><clipPath
       clipPathUnits="userSpaceOnUse"
       id="clipPath270"><path
         d="M 0,0 849,0 849,479 0,479 0,0 z"
         id="path272" /></clipPath><clipPath
       clipPathUnits="userSpaceOnUse"
       id="clipPath446"><path
         d="m 66.719,209.999 772.078,0 0,-170.16 -772.078,0 0,170.16 z"
         id="path448" /></clipPath><clipPath
       clipPathUnits="userSpaceOnUse"
       id="clipPath454"><path
         d="M 0,0 849,0 849,479 0,479 0,0 z"
         id="path456" /></clipPath><clipPath
       clipPathUnits="userSpaceOnUse"
       id="clipPath514"><path
         d="M 0,0 849,0 849,479 0,479 0,0 z"
         id="path516" /></clipPath></defs><sodipodi:namedview
     pagecolor="#ffffff"
     bordercolor="#666666"
     borderopacity="1"
     objecttolerance="10"
     gridtolerance="10"
     guidetolerance="10"
     inkscape:pageopacity="0"
     inkscape:pageshadow="2"
     inkscape:window-width="1366"
     inkscape:window-height="705"
     id="namedview4"
     showgrid="false"
     inkscape:zoom="1.1157672"
     inkscape:cx="642.9434"
     inkscape:cy="412.39823"
     inkscape:window-x="-8"
     inkscape:window-y="-8"
     inkscape:window-maximized="1"
     inkscape:current-layer="g10" /><g
     id="g10"
     inkscape:groupmode="layer"
     inkscape:label="October_11_Particle_2_run_2_A"
     transform="matrix(1.25,0,0,-1.25,0,598.251)"><g
       id="g12"><g
         id="g14"
         transform="translate(0,-0.3992)"><g
           id="g16" /><g
           id="g22"><g
             clip-path="url(#clipPath18)"
             id="g24"><g
               id="g26"><path
                 d="m 0,479 848.238,0 0,-478.602 L 0,0.398 0,479 z"
                 style="fill:#ffffff;fill-opacity:1;fill-rule:nonzero;stroke:none"
                 id="path28" /><path
                 d="m 66.719,446.32 771.602,0 0,-169.922 -771.602,0 0,169.922 z"
                 style="fill:#ffffff;fill-opacity:1;fill-rule:evenodd;stroke:none"
                 id="path30" /><g
                 transform="translate(0,479)"
                 id="g32"><path
                   d="m 66.719,-202.602 0,169.922 771.597,0 0,-169.922 -771.597,0"
                   style="fill:none;stroke:#ffffff;stroke-opacity:1;stroke-width:0.499999;stroke-linecap:butt;stroke-linejoin:round;stroke-miterlimit:10;stroke-dasharray:none"
                   id="path34" /></g><g
                 transform="translate(0,479)"
                 id="g36"><path
                   d="m 66.719,-202.602 771.597,0"
                   style="fill:none;stroke:#000000;stroke-opacity:1;stroke-width:0.499999;stroke-linecap:butt;stroke-linejoin:round;stroke-miterlimit:10;stroke-dasharray:none"
                   id="path38" /></g><g
                 transform="translate(0,479)"
                 id="g40"><path
                   d="m 66.719,-202.602 0,169.922"
                   style="fill:none;stroke:#000000;stroke-opacity:1;stroke-width:0.499999;stroke-linecap:butt;stroke-linejoin:round;stroke-miterlimit:10;stroke-dasharray:none"
                   id="path42" /></g><g
                 transform="translate(0,479)"
                 id="g44"><path
                   d="m 66.719,-202.602 0,7.922"
                   style="fill:none;stroke:#000000;stroke-opacity:1;stroke-width:0.499999;stroke-linecap:butt;stroke-linejoin:round;stroke-miterlimit:10;stroke-dasharray:none"
                   id="path46" /></g><text
                 transform="matrix(1,0,0,-1,62.400038,258.63973)"
                 id="text48"><tspan
                   style="fill:#000000;fill-opacity:1;fill-rule:nonzero;stroke:none;font-family:Arial;font-variant:normal;font-weight:normal;font-size:16.000013;writing-mode:lr;-inkscape-font-specification:ArialMT"
                   x="0"
                   y="0"
                   id="tspan50">0</tspan></text>
<g
                 transform="translate(0,479)"
                 id="g52"><path
                   d="m 142.801,-202.602 0,7.922"
                   style="fill:none;stroke:#000000;stroke-opacity:1;stroke-width:0.499999;stroke-linecap:butt;stroke-linejoin:round;stroke-miterlimit:10;stroke-dasharray:none"
                   id="path54" /></g><text
                 transform="matrix(1,0,0,-1,122.87979,258.63973)"
                 id="text56"><tspan
                   style="fill:#000000;fill-opacity:1;fill-rule:nonzero;stroke:none;font-family:Arial;font-variant:normal;font-weight:normal;font-size:16.000013;writing-mode:lr;-inkscape-font-specification:ArialMT"
                   x="0 8.89600723 13.32801083 22.22401806 31.12002529"
                   y="0"
                   sodipodi:role="line"
                   id="tspan58">0.005</tspan></text>
<g
                 transform="translate(0,479)"
                 id="g60"><path
                   d="m 219.117,-202.602 0,7.922"
                   style="fill:none;stroke:#000000;stroke-opacity:1;stroke-width:0.499999;stroke-linecap:butt;stroke-linejoin:round;stroke-miterlimit:10;stroke-dasharray:none"
                   id="path62" /></g><text
                 transform="matrix(1,0,0,-1,203.75885,258.63973)"
                 id="text64"><tspan
                   style="fill:#000000;fill-opacity:1;fill-rule:nonzero;stroke:none;font-family:Arial;font-variant:normal;font-weight:normal;font-size:16.000013;writing-mode:lr;-inkscape-font-specification:ArialMT"
                   x="0 8.89600723 13.32801083 22.22401806"
                   y="0"
                   sodipodi:role="line"
                   id="tspan66">0.01</tspan></text>
<g
                 transform="translate(0,479)"
                 id="g68"><path
                   d="m 295.199,-202.602 0,7.922"
                   style="fill:none;stroke:#000000;stroke-opacity:1;stroke-width:0.499999;stroke-linecap:butt;stroke-linejoin:round;stroke-miterlimit:10;stroke-dasharray:none"
                   id="path70" /></g><text
                 transform="matrix(1,0,0,-1,275.27891,258.63973)"
                 id="text72"><tspan
                   style="fill:#000000;fill-opacity:1;fill-rule:nonzero;stroke:none;font-family:Arial;font-variant:normal;font-weight:normal;font-size:16.000013;writing-mode:lr;-inkscape-font-specification:ArialMT"
                   x="0 8.89600723 13.32801083 22.22401806 31.12002529"
                   y="0"
                   sodipodi:role="line"
                   id="tspan74">0.015</tspan></text>
<g
                 transform="translate(0,479)"
                 id="g76"><path
                   d="m 371.52,-202.602 0,7.922"
                   style="fill:none;stroke:#000000;stroke-opacity:1;stroke-width:0.499999;stroke-linecap:butt;stroke-linejoin:round;stroke-miterlimit:10;stroke-dasharray:none"
                   id="path78" /></g><text
                 transform="matrix(1,0,0,-1,356.15897,258.63973)"
                 id="text80"><tspan
                   style="fill:#000000;fill-opacity:1;fill-rule:nonzero;stroke:none;font-family:Arial;font-variant:normal;font-weight:normal;font-size:16.000013;writing-mode:lr;-inkscape-font-specification:ArialMT"
                   x="0 8.89600723 13.32801083 22.22401806"
                   y="0"
                   sodipodi:role="line"
                   id="tspan82">0.02</tspan></text>
<g
                 transform="translate(0,479)"
                 id="g84"><path
                   d="m 447.598,-202.602 0,7.922"
                   style="fill:none;stroke:#000000;stroke-opacity:1;stroke-width:0.499999;stroke-linecap:butt;stroke-linejoin:round;stroke-miterlimit:10;stroke-dasharray:none"
                   id="path86" /></g><text
                 transform="matrix(1,0,0,-1,427.67903,258.63973)"
                 id="text88"><tspan
                   style="fill:#000000;fill-opacity:1;fill-rule:nonzero;stroke:none;font-family:Arial;font-variant:normal;font-weight:normal;font-size:16.000013;writing-mode:lr;-inkscape-font-specification:ArialMT"
                   x="0 8.89600723 13.32801083 22.22401806 31.12002529"
                   y="0"
                   sodipodi:role="line"
                   id="tspan90">0.025</tspan></text>
<g
                 transform="translate(0,479)"
                 id="g92"><path
                   d="m 523.918,-202.602 0,7.922"
                   style="fill:none;stroke:#000000;stroke-opacity:1;stroke-width:0.499999;stroke-linecap:butt;stroke-linejoin:round;stroke-miterlimit:10;stroke-dasharray:none"
                   id="path94" /></g><text
                 transform="matrix(1,0,0,-1,508.5591,258.63973)"
                 id="text96"><tspan
                   style="fill:#000000;fill-opacity:1;fill-rule:nonzero;stroke:none;font-family:Arial;font-variant:normal;font-weight:normal;font-size:16.000013;writing-mode:lr;-inkscape-font-specification:ArialMT"
                   x="0 8.89600723 13.32801083 22.22401806"
                   y="0"
                   sodipodi:role="line"
                   id="tspan98">0.03</tspan></text>
<g
                 transform="translate(0,479)"
                 id="g100"><path
                   d="m 600,-202.602 0,7.922"
                   style="fill:none;stroke:#000000;stroke-opacity:1;stroke-width:0.499999;stroke-linecap:butt;stroke-linejoin:round;stroke-miterlimit:10;stroke-dasharray:none"
                   id="path102" /></g><text
                 transform="matrix(1,0,0,-1,580.07915,258.63973)"
                 id="text104"><tspan
                   style="fill:#000000;fill-opacity:1;fill-rule:nonzero;stroke:none;font-family:Arial;font-variant:normal;font-weight:normal;font-size:16.000013;writing-mode:lr;-inkscape-font-specification:ArialMT"
                   x="0 8.89600723 13.32801083 22.22401806 31.12002529"
                   y="0"
                   sodipodi:role="line"
                   id="tspan106">0.035</tspan></text>
<g
                 transform="translate(0,479)"
                 id="g108"><path
                   d="m 676.316,-202.602 0,7.922"
                   style="fill:none;stroke:#000000;stroke-opacity:1;stroke-width:0.499999;stroke-linecap:butt;stroke-linejoin:round;stroke-miterlimit:10;stroke-dasharray:none"
                   id="path110" /></g><text
                 transform="matrix(1,0,0,-1,660.95922,258.63973)"
                 id="text112"><tspan
                   style="fill:#000000;fill-opacity:1;fill-rule:nonzero;stroke:none;font-family:Arial;font-variant:normal;font-weight:normal;font-size:16.000013;writing-mode:lr;-inkscape-font-specification:ArialMT"
                   x="0 8.89600723 13.32801083 22.22401806"
                   y="0"
                   sodipodi:role="line"
                   id="tspan114">0.04</tspan></text>
<g
                 transform="translate(0,479)"
                 id="g116"><path
                   d="m 752.637,-202.602 0,7.922"
                   style="fill:none;stroke:#000000;stroke-opacity:1;stroke-width:0.499999;stroke-linecap:butt;stroke-linejoin:round;stroke-miterlimit:10;stroke-dasharray:none"
                   id="path118" /></g><text
                 transform="matrix(1,0,0,-1,732.71927,258.63973)"
                 id="text120"><tspan
                   style="fill:#000000;fill-opacity:1;fill-rule:nonzero;stroke:none;font-family:Arial;font-variant:normal;font-weight:normal;font-size:16.000013;writing-mode:lr;-inkscape-font-specification:ArialMT"
                   x="0 8.89600723 13.32801083 22.22401806 31.12002529"
                   y="0"
                   sodipodi:role="line"
                   id="tspan122">0.045</tspan></text>
<g
                 transform="translate(0,479)"
                 id="g124"><path
                   d="m 828.719,-202.602 0,7.922"
                   style="fill:none;stroke:#000000;stroke-opacity:1;stroke-width:0.499999;stroke-linecap:butt;stroke-linejoin:round;stroke-miterlimit:10;stroke-dasharray:none"
                   id="path126" /></g><text
                 transform="matrix(1,0,0,-1,813.35934,258.63973)"
                 id="text128"><tspan
                   style="fill:#000000;fill-opacity:1;fill-rule:nonzero;stroke:none;font-family:Arial;font-variant:normal;font-weight:normal;font-size:16.000013;writing-mode:lr;-inkscape-font-specification:ArialMT"
                   x="0 8.89600723 13.32801083 22.22401806"
                   y="0"
                   sodipodi:role="line"
                   id="tspan130">0.05</tspan></text>
<g
                 transform="translate(0,479)"
                 id="g132"><path
                   d="m 66.719,-202.602 7.679,0"
                   style="fill:none;stroke:#000000;stroke-opacity:1;stroke-width:0.499999;stroke-linecap:butt;stroke-linejoin:round;stroke-miterlimit:10;stroke-dasharray:none"
                   id="path134" /></g><text
                 transform="matrix(1,0,0,-1,45.600024,270.63974)"
                 id="text136"><tspan
                   style="fill:#000000;fill-opacity:1;fill-rule:nonzero;stroke:none;font-family:Arial;font-variant:normal;font-weight:normal;font-size:16.000013;writing-mode:lr;-inkscape-font-specification:ArialMT"
                   x="0"
                   y="0"
                   id="tspan138">−</tspan></text>
<text
                 transform="matrix(1,0,0,-1,54.928032,270.63974)"
                 id="text140"><tspan
                   style="fill:#000000;fill-opacity:1;fill-rule:nonzero;stroke:none;font-family:Arial;font-variant:normal;font-weight:normal;font-size:16.000013;writing-mode:lr;-inkscape-font-specification:ArialMT"
                   x="0"
                   y="0"
                   id="tspan142">1</tspan></text>
<g
                 transform="translate(0,479)"
                 id="g144"><path
                   d="m 66.719,-160.121 7.679,0"
                   style="fill:none;stroke:#000000;stroke-opacity:1;stroke-width:0.499999;stroke-linecap:butt;stroke-linejoin:round;stroke-miterlimit:10;stroke-dasharray:none"
                   id="path146" /></g><text
                 transform="matrix(1,0,0,-1,32.400014,313.11977)"
                 id="text148"><tspan
                   style="fill:#000000;fill-opacity:1;fill-rule:nonzero;stroke:none;font-family:Arial;font-variant:normal;font-weight:normal;font-size:16.000013;writing-mode:lr;-inkscape-font-specification:ArialMT"
                   x="0"
                   y="0"
                   id="tspan150">−</tspan></text>
<text
                 transform="matrix(1,0,0,-1,41.728022,313.11977)"
                 id="text152"><tspan
                   style="fill:#000000;fill-opacity:1;fill-rule:nonzero;stroke:none;font-family:Arial;font-variant:normal;font-weight:normal;font-size:16.000013;writing-mode:lr;-inkscape-font-specification:ArialMT"
                   x="0 8.89600723 13.32801083"
                   y="0"
                   sodipodi:role="line"
                   id="tspan154">0.5</tspan></text>
<g
                 transform="translate(0,479)"
                 id="g156"><path
                   d="m 66.719,-117.641 7.679,0"
                   style="fill:none;stroke:#000000;stroke-opacity:1;stroke-width:0.499999;stroke-linecap:butt;stroke-linejoin:round;stroke-miterlimit:10;stroke-dasharray:none"
                   id="path158" /></g><text
                 transform="matrix(1,0,0,-1,54.960032,355.5998)"
                 id="text160"><tspan
                   style="fill:#000000;fill-opacity:1;fill-rule:nonzero;stroke:none;font-family:Arial;font-variant:normal;font-weight:normal;font-size:16.000013;writing-mode:lr;-inkscape-font-specification:ArialMT"
                   x="0"
                   y="0"
                   id="tspan162">0</tspan></text>
<g
                 transform="translate(0,479)"
                 id="g164"><path
                   d="m 66.719,-75.16 7.679,0"
                   style="fill:none;stroke:#000000;stroke-opacity:1;stroke-width:0.499999;stroke-linecap:butt;stroke-linejoin:round;stroke-miterlimit:10;stroke-dasharray:none"
                   id="path166" /></g><text
                 transform="matrix(1,0,0,-1,41.760021,398.07984)"
                 id="text168"><tspan
                   style="fill:#000000;fill-opacity:1;fill-rule:nonzero;stroke:none;font-family:Arial;font-variant:normal;font-weight:normal;font-size:16.000013;writing-mode:lr;-inkscape-font-specification:ArialMT"
                   x="0 8.89600723 13.32801083"
                   y="0"
                   sodipodi:role="line"
                   id="tspan170">0.5</tspan></text>
<g
                 transform="translate(0,479)"
                 id="g172"><path
                   d="m 66.719,-32.68 7.679,0"
                   style="fill:none;stroke:#000000;stroke-opacity:1;stroke-width:0.499999;stroke-linecap:butt;stroke-linejoin:round;stroke-miterlimit:10;stroke-dasharray:none"
                   id="path174" /></g><text
                 transform="matrix(1,0,0,-1,54.960032,440.55987)"
                 id="text176"><tspan
                   style="fill:#000000;fill-opacity:1;fill-rule:nonzero;stroke:none;font-family:Arial;font-variant:normal;font-weight:normal;font-size:16.000013;writing-mode:lr;-inkscape-font-specification:ArialMT"
                   x="0"
                   y="0"
                   id="tspan178">1</tspan><tspan
                   style="fill:#000000;fill-opacity:1;fill-rule:nonzero;stroke:none;font-family:Arial;font-variant:normal;font-weight:normal;font-size:16.000013;writing-mode:lr;-inkscape-font-specification:ArialMT"
                   x="215.99917"
                   y="-18.240015"
                   id="tspan180">A</tspan></text>
<text
                 transform="matrix(1,0,0,-1,281.61521,458.79989)"
                 id="text182"><tspan
                   style="fill:#000000;fill-opacity:1;fill-rule:nonzero;stroke:none;font-family:Arial;font-variant:normal;font-weight:normal;font-size:16.000013;writing-mode:lr;-inkscape-font-specification:ArialMT"
                   x="0"
                   y="0"
                   id="tspan184">−</tspan></text>
<text
                 transform="matrix(1,0,0,-1,290.94322,458.79989)"
                 id="text186"><tspan
                   style="fill:#000000;fill-opacity:1;fill-rule:nonzero;stroke:none;font-family:Arial;font-variant:normal;font-weight:normal;font-size:16.000013;writing-mode:lr;-inkscape-font-specification:ArialMT"
                   x="0 11.55200939 15.98401299 20.41601659 31.07202525 34.62402813 43.52003536 47.95203896 52.38404256 61.28004979 65.71205339 70.14405699 78.14406349 87.04007072 95.93607795 103.93608445 112.83209168 120.83209818 129.7281054 134.16010901 137.71211189 145.71211839 154.60812562 159.04012922 167.04013572 171.47213932 176.80014365 185.69615088 190.12815448 198.12816098 207.02416821 215.92017544 223.92018194 228.35218554 237.24819276 246.14419999 255.04020722 258.59221011 267.48821733 275.48822383 279.92022744 284.35223104 293.24823826 296.80024115 304.80024765 309.23225125 318.12825848 327.02426571 335.02427221"
                   y="0"
                   sodipodi:role="line"
                   id="tspan188">C: Plot of consecutive stretches against distance</tspan></text>
<text
                 transform="matrix(0,1,1,0,17.040001,353.6798)"
                 id="text190"><tspan
                   style="fill:#000000;fill-opacity:1;fill-rule:nonzero;stroke:none;font-family:Arial;font-variant:normal;font-weight:normal;font-size:16.000013;writing-mode:lr;-inkscape-font-specification:ArialMT"
                   x="0"
                   y="0"
                   id="tspan192">n</tspan></text>
<text
                 transform="matrix(0,1,1,0,24.960008,362.55981)"
                 id="text194"><tspan
                   style="fill:#000000;fill-opacity:1;fill-rule:nonzero;stroke:none;font-family:Arial;font-variant:normal;font-weight:normal;font-size:12.00001;writing-mode:lr;-inkscape-font-specification:ArialMT"
                   x="0"
                   y="0"
                   id="tspan196">x</tspan></text>
<text
                 transform="matrix(1,0,0,-1,335.27896,242.07971)"
                 id="text198"><tspan
                   style="font-size:16.00001335px;font-variant:normal;font-weight:normal;writing-mode:lr-tb;fill:#000000;fill-opacity:1;fill-rule:nonzero;stroke:none;font-family:Arial;-inkscape-font-specification:ArialMT"
                   sodipodi:role="line"
                   id="tspan200"
                   x="0"
                   y="0">Cumulative distance in channel [m]</tspan></text>
</g></g></g></g></g><g
       id="g202"><g
         id="g204"
         clip-path="url(#clipPath206)"><g
           id="g210"
           transform="translate(0,-0.3992)"><g
             id="g212" /><g
             id="g218"><g
               clip-path="url(#clipPath214)"
               id="g220"><g
                 id="g222"><g
                   transform="translate(0,479)"
                   id="g224"><path
                     d="m 197.277,-67.242 0.481,-67.438 0.722,-15.121 0.719,-31.441 0.481,-9.598 0.718,7.68 0.481,-15.84 0.719,-1.441 0.722,-0.719 0.481,-1.199 5.758,0 0.48,2.879 0.719,-0.243 0.48,0.961 0.723,5.52 0.719,12 0.48,19.199 0.719,46.563 0.48,48.48 0.719,15.598 0.723,10.562 1.199,4.559 0.48,3.601 0.719,-0.48 0.719,0.48 0.48,0 0.719,-0.722 0.481,0.722 3.121,0 0.719,-0.722 0.48,-0.239 0.723,-1.441 0.718,-4.078 0.481,-6 0.719,-10.082 1.199,-87.84 0.722,-29.039 0.481,-18 0.719,-6.719 0.48,-2.16 0.719,-1.68 0.719,-1.441 1.922,0 0.48,-0.238 2.641,0 0.476,0.476 0.723,-0.476 0.48,0 0.719,1.679 0.719,0.719 0.48,4.801 0.719,6 0.481,18.48 0.718,29.039 0.723,52.078 0.48,23.043 0.719,20.637 0.481,7.68 0.718,3.601 0.723,1.922 0.477,-1.441 0.722,1.441 1.199,0 0.719,-0.242 0.481,0.242 1.922,0 0.48,-0.722 0.719,0 0.719,-0.719 0.48,-1.199 0.719,-1.442 0.48,-3.359 0.723,-10.082 0.476,-12.719 0.723,-55.918 0.481,-37.922 0.718,-20.879 0.481,-13.199 0.719,-8.16 0.718,-1.441 0.481,-0.719 0.722,-0.961 0.481,-0.238 3.598,0 0.718,0.238 0.481,-0.238 0.722,0.476 0.481,0.723 0.719,0 0.718,2.64 0.481,4.317 0.719,5.281 0.48,18 0.481,54.481 0.718,18.238 0.481,39.363 0.722,9.598 0.481,8.402 0.719,4.078 0.48,2.403 0.719,0.718 0.48,0.961 1.2,0 0.718,-0.48 0.481,0.48 2.402,0 0.481,-0.961 0.718,0.481 0.481,-0.481 0.719,-2.16 0.48,-1.922 0.48,-3.597 0.719,-4.082 0.481,-15.36 0.718,-39.121 0.481,-21.84 0.723,-48.957 0.48,-18 0.719,-5.281 0.48,-5.519 0.481,-2.641 0.718,0.961 0.481,-1.199 0.719,0.718 0.48,-0.48 0.481,-0.238 1.199,0 0.719,0.718 0.48,-0.718 0.481,0 0.718,2.156 0.481,-2.156 0.722,1.679 0.481,-1.679 0.476,1.437 0.723,1.68 0.481,3.121 0.48,0.719 0.719,11.519 0.48,13.442 0.481,55.679 0.718,30.961 0.481,28.078 0.48,7.68 0.719,7.922 0.481,2.16 1.199,2.398 0.48,1.204 0.481,-0.243 0.719,0.719 0.48,-0.719 0.48,-0.48 0.719,1.922 0.481,-2.403 0.48,1.204 0.719,-0.243 0.48,0.243 0.481,-1.922 0.48,0.48 0.719,0.238 0.481,0 0.48,-3.839 0.719,-1.438 0.48,-6.723 0.481,-7.917 1.199,-70.563 0.48,-33.84 0.481,-23.758 0.719,-10.082 0.48,-2.636 0.481,-3.602 0.48,4.078 0.719,-5.519 0.48,-0.481 0.481,-0.476 0.48,0 0.481,0.476 0.48,-0.476 2.641,0 0.476,2.879 0.481,-2.879 0.722,0 0.481,0.238 0.476,1.441 0.243,0.239 0.48,1.199 0.481,0.961 0.238,3.601 0.48,3.117 0.481,7.922 0.238,14.879 0.481,19.442 0.242,31.918 0.476,30.722 0.481,17.278 0.242,15.121 0.48,6.238 0.239,3.602 0.48,3.359 0.481,2.16 0.238,0.961 0.48,0 0.243,2.641 0.48,-1.2 0.238,1.68 0.481,-0.242 0.238,0.723 0.242,-0.961 0.481,1.437 0.238,0.242 0.48,0.961 0.239,-1.203 0.48,-0.957 0.242,2.16 2.161,0 0.238,-0.242 0.48,-0.719 0.239,0.961 0.242,-0.48 0.238,0.48 0.242,-2.64 0.239,-1.922 0.48,0 0.238,-1.199 0.242,-0.481 0.239,-1.918 0.242,-0.723 0.238,-2.64 0.242,-1.918 0,-3.359 0.239,-2.879 0.242,-7.204 0.238,-7.199 0,-11.039 0.238,-9.121 0.243,-16.558 0.238,-19.442 0,5.281 0.242,-9.359 0,-9.359 0.238,-13.204 0,-10.558 0.243,-5.762 0,-6.238 0.238,-5.039 0,-2.16 0.242,-3.36 0,-3.363 0.238,-0.477 0,-2.64 0.239,-2.883 0,-0.957 0.242,-0.48 0,-1.68 0.238,0.48 0,-1.441 0,3.359"
                     style="fill:none;stroke:#0100ff;stroke-opacity:1;stroke-width:0.499999;stroke-linecap:butt;stroke-linejoin:round;stroke-miterlimit:10;stroke-dasharray:none"
                     id="path226" /></g><g
                   transform="translate(0,479)"
                   id="g228"><path
                     d="m 69.359,-32.68 1.442,0 0.238,-0.48 0.242,0.48 1.918,0 0.242,-0.242 0.239,0 0.242,0.242 0.476,0 0.243,-0.242 0.238,-0.961 0.242,-0.476 0.481,1.437 -0.243,0 0.719,0 0,-0.48 0.242,-0.239 0.481,0.481 0.238,-1.442 0,0.481 0.242,-1.68 0.239,-0.242 0.242,-1.199 0.238,0.722 0.238,-2.882 0.242,-3.36 0,-0.961 0.239,-9.597 0.242,0 0.238,-4.801 0.242,-9.359 0.239,-8.403 0.242,-15.597 0.238,-13.2 0.238,-16.082 0,-19.199 0.243,-12.719 0.238,-15.121 0.242,-10.32 0.238,-5.039 0.243,-5.762 0.238,-5.758 0.238,-0.242 0.242,-1.918 0.239,-2.402 0.242,0.48 0.238,-1.441 0.242,-0.477 0.239,-0.242 0.242,3.602 0.238,-5.039 0.961,0 0.238,0.238 0.242,-0.238 5.758,0 0.242,1.437 0.239,0.242 0.48,0.957 0.238,0.243 0.243,1.679 0.48,1.199 0.238,5.282 0.243,6.48 0.476,10.797 0.242,10.801 0.239,26.16 0.48,17.762 0.242,25.679 0.481,23.282 0.238,10.078 0.238,10.558 0.481,5.762 0.242,2.16 0.48,2.399 0.239,1.441 0.48,1.199 0.238,2.403 0.481,-0.723 0.242,0.723 0.481,1.199 0.238,-0.242 0.48,0.48 4.078,0 0.481,-0.238 0.48,0.238 0.243,0 0.476,-1.199 0.481,-0.481 0.48,-1.679 0.242,-1.199 0.481,-2.641 0.476,-2.641 0.481,-6.48 0.242,-7.918 0.48,-19.922 0.481,-34.32 0.238,-19.918 0.481,-34.321 0.48,-18 0.481,-6 0.476,-6.242 0.242,-2.637 0.481,-1.921 0.48,-0.719 0.481,-1.199 7.437,0 0.481,0.238 0.48,2.16 0.481,2.879 0.476,2.879 0.481,8.64 0.48,17.043 0.961,55.2 0.481,45.117 0.48,12 0.48,8.883 0.481,5.039 0.477,1.441 0.48,2.637 0.48,2.16 0.719,-0.238 0.481,0.238 0.48,0.48 0.481,0 0.48,1.442 0.481,0.238 0.718,0.481 0.481,-1.2 0.48,0.243 0.481,1.679 0.48,0 0.719,-2.402 0.48,2.402 0.481,0 0.48,-1.922 0.481,-0.961 0.476,-1.437 0.723,-4.32 0.48,-8.16 0.481,-21.602 1.199,-73.438 0.481,-33.121 0.476,-11.519 0.481,-6 0.722,-3.121 0.481,-2.399 0.476,-1.679 7.442,0 0.48,2.398 0.719,0.961 0.48,4.797 0.481,9.844 0.719,13.918 0.48,55.441 0.481,34.078 0.718,20.402 0.481,15.598 0.48,6.961 0.723,1.68 0.477,1.441 0.722,0.481 0.481,1.679 0.476,0 0.723,-0.722 0.48,0.722 0.719,-0.48 0.481,0 0.718,0.48 0.481,-0.242 0.719,0.242 0.96,0 0.719,-0.722 0.481,-0.239 0.722,-4.32 0.481,-1.199 0.719,-6.242 0.48,-17.52 0.719,-26.398 0.48,-47.52 0.719,-40.32 0.48,-12.481 0.719,-6 0.481,-3.839 0.722,-0.961 0.481,-1.2 0.719,-0.48 0.48,-0.238 4.801,0 0.719,0.238 0.718,-0.238 0.481,1.918 0.719,3.601 0.48,15.84 0.723,5.758 0.476,68.64 0.723,25.442 0.48,22.558 0.719,14.161 0.481,4.32 0.718,2.398 0.481,2.641 0.719,1.68 0.48,0.722 0.723,-0.242 0.718,0.242 3.602,0 0.477,-0.242 0.722,0.242 0.719,-0.961 0.48,-2.16 0.719,-3.121 0.481,-6.961 0.718,-21.359"
                     style="fill:none;stroke:#0100ff;stroke-opacity:1;stroke-width:0.499999;stroke-linecap:butt;stroke-linejoin:round;stroke-miterlimit:10;stroke-dasharray:none"
                     id="path230" /></g><g
                   transform="translate(0,479)"
                   id="g232"><path
                     d="m 66.719,-42.52 0,2.637 0.242,0.242 0.238,0.719 0,0.719 0.242,1.922 0,0.48 0,-0.961 0.239,1.199 0,-0.48 0.242,0.723 0.238,-0.243 0.238,0.481 0,1.199 0.243,1.203 0,-0.722 0.238,0.48 0,0.242 0.242,-0.48 0,-0.723 0.238,1.203"
                     style="fill:none;stroke:#0100ff;stroke-opacity:1;stroke-width:0.499999;stroke-linecap:butt;stroke-linejoin:round;stroke-miterlimit:10;stroke-dasharray:none"
                     id="path234" /></g><g
                   transform="translate(0,479)"
                   id="g236"><path
                     d="m 492,-202.359 4.316,0 0.961,1.679 0.481,1.918 0.242,3.36 0.477,3.601 0.48,10.078 0.481,21.121 0.48,47.282 0.48,12 0.481,34.8 0.48,12.957 0.239,9.84 0.48,4.082 0.481,3.598 0.48,1.684 0.481,0.476 0.48,0.481 0.477,0.722 5.523,0 0.238,-0.242 0.481,-0.719 0.48,0.481 0.481,-2.641 0.476,-3.359 0.481,-3.36 0.48,-8.882 0.481,-20.399 0.48,-24.961 0.481,-33.359 0.48,-38.641 0.481,5.762 0.48,-29.043 0.477,-2.16 0.48,-3.117 0.481,-2.403 0.48,-1.437 0.48,-0.723 0.481,-0.238 0.48,0.238 0.481,-0.476 2.398,0 0.481,0.238 0.48,-0.238 2.399,0 0.48,1.199 0.481,1.918 0.48,2.402 0.481,2.399 0.48,6 0.477,14.16 0.48,19.441 0.481,37.68 0.48,43.199 0.719,17.758 0.48,10.801 0.481,7.441 0.48,2.641 0.481,0.961 0.48,0.238 0.481,1.441 0.48,-0.961 0.477,0.481 0.48,0.48 0.481,-0.961 0.48,-0.242 0.48,1.203 0.961,0 0.481,-0.722 0.719,0.722 0.961,0 0.48,-0.242 0.477,0.242 0.961,0 0.48,-1.679 0.719,-3.844 0.48,-1.918 0.481,-4.559 0.48,-10.8 0.481,-13.68 0.48,-54 0.481,-27.36 0.48,-21.363 0.477,-15.84 0.722,-9.117 0.481,-1.203 0.476,-1.199 0.481,-3.117 6.961,0 0.48,0.238 0.481,1.199 0.48,1.922 0.481,0.238 0.48,-0.48 0.477,1.441 0.48,3.84 0.481,10.32 0.242,9.36 0.476,28.801 0.481,31.917 0.48,28.563 0.481,27.359 0.48,11.758 0.238,4.32 0.481,3.36 0.48,2.402 0.481,2.399 0.242,0.242 0.477,0.48 0.48,0 0.481,-0.242 0.242,0.242 0.957,0 0.48,-0.242 0.242,0.242 0.481,-1.441 0.476,1.199 0.243,0 0.48,0.242 0.481,-0.961 0.238,0.961 0.48,-1.679 0.481,1.199 0.238,0.48 0.481,-0.722 0.242,-0.719 0.476,-1.922 0.481,0.961 0.242,-2.641 0.48,-0.238 0.239,-3.121 0.48,-3.598 0.481,-4.082 0.238,-8.16 0.48,-14.879 0.481,-39.84 0.242,-6 0.238,-24.718 0.481,-25.204 0.238,-8.64 0.242,-10.078 0.239,-6.481 0.48,-2.398 0.238,-2.403 0.242,-0.718 0.239,-1.442 0.242,-0.238 0.48,0 0.239,-1.441 0.242,0.48 0.238,0.481 0.238,0 0.243,-1.918 0.238,0.238 0.242,0 0.238,0.719 0.243,-0.957 0.718,0 0.239,0.238 0.242,-0.238 0.961,0 0.238,0.957 0.238,0 0.242,0.722 0,0.477 0.239,0 0.242,-1.199 0.238,0.961 0.242,1.679 0,-2.398 0.239,0 0.242,-0.961 0.238,0.238 0,0.242 0.238,-0.242 0.243,0.242 0,0.719 0.238,0.961 0.242,-0.48 0,0.238 0.238,1.441 0.243,-1.441 0,2.883 0.238,0.48 0.242,0 0,1.438 0.477,1.922 0.242,0.718 0.238,-0.961 0,2.641 0.242,2.641 0,0.718 0.239,1.203 0,-0.242 0.242,3.602 0,1.918 0.238,4.082 0,4.801 0.238,3.359 0,6.719 0.242,8.879 0.239,31.441 0,-14.879 0,16.559 0.242,2.16 0,0.719 0.238,0.48 0,1.68 0.242,14.883 0,17.757 0.239,6.481 0,9.84 0.242,3.84 0,5.761 0.238,2.879 0,-0.48 0,2.64 0.238,0.239 0,2.64 0.243,0.961 0,2.879 0.238,0 0,3.359 0.242,-0.238 0,1.199 0.238,1.2 0,-1.438 0,1.438 0.243,0.48 0,1.922 0.238,-1.441 0,1.679 0,-0.48 0.242,0.722 0,-1.203 0,1.922 0,-0.242 0.238,-0.238 0,-1.199 0,2.64 0,-0.961 0.239,-0.242 0,-0.238 0,2.398 0,-1.68 0.242,0.723 0,-2.402 0,3.121"
                     style="fill:none;stroke:#ff0000;stroke-opacity:1;stroke-width:0.499999;stroke-linecap:butt;stroke-linejoin:round;stroke-miterlimit:10;stroke-dasharray:none"
                     id="path238" /></g><g
                   transform="translate(0,479)"
                   id="g240"><path
                     d="m 401.039,-202.359 0.238,0 0.243,0.957 0,-0.957 1.199,0 0.238,0.238 0.242,-0.238 0.239,0 0.242,0.238 0.238,-0.238 1.441,0 0,1.437 0.239,-0.48 0.242,-0.481 0.238,1.68 0.238,-0.957 0,1.68 0.243,0 0.238,0.96 0.242,-0.48 0.238,0.719 0.243,1.922 0.238,1.679 0,0.719 0.242,-0.719 0.238,3.117 0.239,2.883 0.242,3.84 0.238,4.559 0,7.199 0.242,8.402 0.239,13.2 0.242,21.359 0.238,8.879 0.238,13.679 0.242,14.403 0.239,17.277 0,12.723 0.242,8.398 0.238,3.121 0.242,3.121 0.239,3.84 0.242,1.918 0.238,2.403 0.238,0.238 0.243,2.16 0.238,0.719 0,0.48 0.242,1.442 0.238,0.238 0.243,1.68 0.238,-0.957 0.242,1.679 0.477,0 0.242,-0.242 0.238,0.242 0.723,0 0,-0.48 0.238,0.48 0.961,0 0.238,-0.48 0.242,0.48 1.918,0 0.243,-0.242 0.238,0.242 0.242,0 0.238,-0.48 0.239,0.48 0.242,-1.679 0.238,-0.723 0.242,0.242 0.239,-0.48 0.242,-0.481 0.238,0.481 0.238,-1.68 0.242,-0.723 0.239,-2.879 0.48,-1.679 0.242,-3.84 0.239,-3.121 0.242,-5.52 0.238,-11.039 0.238,-10.082 0.243,-22.797 0.238,-18.722 0.242,-10.559 0.238,-25.68 0.243,-16.082 0.238,-8.398 0.242,-7.68 0.477,-4.558 0.242,-4.321 0.238,-1.441 0.242,-1.68 0.239,-0.242 0.242,-1.918 0.238,-1.68 0.238,0.961 0.481,-1.441 0.242,-0.238 0.238,0 0.242,0.476 0.239,-0.476 6,0 0.242,1.199 0.238,0 0.481,1.199 0.238,0.238 0.242,0 0.238,1.442 0.481,0.48 0.242,2.879 0.238,4.563 0.239,2.398 0.48,8.398 0.242,13.442 0.239,13.68 0.242,35.281 0.476,12 0.242,21.117 0.239,18.48 0.48,12.961 0.242,4.082 0.239,5.758 0.48,2.641 0.238,3.121 0.243,0.238 0.238,1.199 0.48,0.481 0.243,1.199 0.238,0.961 0.48,0.242 0.239,-0.961 0.242,0.961 3.359,0 0.238,-0.242 0.243,-0.719 0.48,0.239 0.238,0.48 0.481,0.242 0.242,-0.242 0.238,-0.961 0.481,0.961 0.238,-0.48 0.481,0 0.242,-2.399 0.238,-1.441 0.48,0.48 0.239,-3.121 0.48,-1.918 0.242,-6.719 0.481,-18.48 0.238,-9.359 0.481,-14.403 0.238,-27.597 0.48,-18 0.243,-28.082 0.238,-16.801 0.48,-6 0.239,-5.278 0.48,-4.32 0.242,-1.203 0.481,-0.719 0.238,-2.64 0.48,0.961 0.239,-1.442 0.48,0.961 0.242,-1.199 0.481,-0.238 6,0 0.238,1.437 0.481,0.242 0.48,2.399 0.238,0.961 0.481,1.437 0.242,3.84 0.477,7.684 0.48,8.879 0.242,21.359 0.481,36.719 0.238,14.16 0.48,33.121 0.481,17.039 0.238,6.242 0.481,4.32 0.48,3.84 0.238,2.879 0.481,0.238 0.242,1.442 0.481,1.199 0.48,0.242 4.316,0 0.481,-0.242 0.48,0.242 0.723,0 0.477,-0.242 0.242,-1.437 0.48,0 0.481,-2.641 0.476,-4.32 0.242,3.597 0.481,-4.32 0.48,-5.277 0.481,-6.961 0.238,-25.199 0.481,-32.641 0.48,-11.762 0.481,-36.719 0.48,-15.121 0.238,-11.757 0.481,-6.961 0.48,-4.559 0.481,0.238 0.238,3.36 0.48,-6.239 0.481,-0.718 3.121,0"
                     style="fill:none;stroke:#ff0000;stroke-opacity:1;stroke-width:0.499999;stroke-linecap:butt;stroke-linejoin:round;stroke-miterlimit:10;stroke-dasharray:none"
                     id="path242" /></g><g
                   transform="translate(0,479)"
                   id="g244"><path
                     d="m 361.918,-36.281 0,1.441 0.238,0 0,-1.203 0,0.48 0.242,-1.679 0,2.402 0,-1.68 0.239,0.477 0,-1.199 0.242,0.722 0,-0.722 0,1.199 0,-1.199 0.238,-1.199 0,-0.481 0,1.442 0.242,0.238 0,-1.918 0,1.437 0.239,-0.48 0,-2.637 0.242,-0.242 0,2.641 0,-1.68 0.238,0.719 0,-2.161 0.238,-1.199 0,0.719 0,-1.199 0.243,0.722 0,-2.16 0,1.2 0.238,-0.723 0,-2.637 0,3.117 0,-1.679 0.242,-1.918 0,-1.442 0.238,-1.199 0,-4.082 0,0.242 0.243,-1.199 0,-5.52 0.238,-1.203 0,-7.918 0.242,-5.281 0,-13.68 0.238,-6.961 0,-19.679 0.239,-2.399 0,-0.718 0.242,-1.442 0,-21.84 0.238,-4.32 0,-13.199 0.242,-3.602 0,-8.879 0.239,-2.16 0,-8.402 0.242,0.242 0,-4.32 0.238,-1.442 0,-2.879 0.238,-1.679 0,-2.16 0.242,-1.68 0,1.918 0,-2.399 0.239,1.442 0,-1.442 0.242,-1.679 0,0.961 0.238,-1.68 0,0.957 0,-0.957 0.242,0.238 0,-1.918 0.239,1.2 0,0.238 0,-1.438 0.242,0.477 0,0.48 0,-1.679 0.238,0.242 0,-0.481 0,0.961 0.238,0 0,-1.441 0,0.48 0.243,-0.48 0,0.719 0.238,-0.957 0.48,0 0,1.199 0,-1.199 0.243,0.238 0.238,-0.238 0.48,0 0.239,0.476 0,-0.476 1.921,0 0.239,0.238 0.242,-0.238 1.437,0 0.243,0.238 0.238,1.199 0,-1.437 0,1.199 0.242,0.48 0,0.239 0.238,-0.961 0,-0.239 0,0.481 0.243,1.68 0,-1.442 0.238,0.961 0,-0.48 0,0.961 0.242,-0.723 0,0.961 0.238,0 0,-0.719 0.239,0.481 0,1.917 0,-0.957 0.242,2.399 0,-0.238 0.238,-2.161 0,1.438 0,-0.481 0.242,0.723 0,2.399 0.239,0.48 0,1.68 0.242,0.238 0,2.16 0.238,1.442 0,2.16 0.238,3.84 0,3.121 0.242,1.918 0,6.242 0.239,5.519 0,2.879 0.242,6.719 0,12.961 0.238,30 0,-3.121 0.242,1.441 0,-0.718 0,3.597 0.239,-0.957 0,19.918 0.242,9.359 0,12.961 0.238,3.122 0,5.039 0.238,2.16 0,6.48 0.243,1.442 0,2.636 0.238,1.922 0,2.16 0.242,2.161 0,0.238 0.238,0.961 0,1.441 0.243,1.438 0,0.242 0.238,1.199 0,1.441 0.242,-1.683 0,1.203 0.238,0.48 0,1.2 0.239,-0.481 0,0.719 0,-0.719 0.242,0.481 0,0.718 0.238,-0.718 0,0.238 0.242,0.961 0,-0.238 0,0.238 0.239,0.48 0,-0.242 0.242,-1.437 0,1.437 0.238,0.481 0,-0.481 0.238,0.242 0,0.719 0.242,-1.199 0.239,-0.238 0,1.679 0.242,0 0.238,-0.48 0,0.48 0.481,0 0.242,-0.722 0,0.722 0.238,-0.722 0,0.722 0,-0.242 0.238,-0.238 0,0.48 0.243,0 0.238,-1.441 0,1.441 0.961,0 0.242,-0.242 0,0.242 0.238,-0.722 0,0.722 0.239,-0.722 0,0.722 0.961,0 0.242,-0.961 0.238,0.481 0,-0.481 0.238,-0.718 0,1.437 0.242,-1.437 0,-0.243 0.239,-1.679 0.242,-0.239 0,-0.48 0.238,-0.242 0,-1.199 0.242,-0.481 0,-0.961 0.239,-2.637 0.242,-1.441 0,-2.16 0.238,-1.68 0,-3.84 0.238,-4.32 0.243,-3.602 0,-5.039 0.238,-7.679 0,-6.719 0.242,-12.723 0.238,-19.199 0,-6.961 0.243,0.242 0,-4.32 0.238,-22.801 0.242,-13.679 0,-7.442 0.238,-7.68 0.239,-7.437 0,-3.359 0.242,-3.602 0,-3.121 0.238,-1.918 0.242,-1.203 0,-2.156 0.239,-1.442 0.242,-0.961 0,-0.961 0.238,-0.48 0.238,-0.477 0,-0.242 0.242,-1.437 0.961,0 0.239,2.156 0,-2.156 0.242,0 0.238,5.039 0.238,-4.801 0.243,-0.238 0.48,0"
                     style="fill:none;stroke:#ff0000;stroke-opacity:1;stroke-width:0.499999;stroke-linecap:butt;stroke-linejoin:round;stroke-miterlimit:10;stroke-dasharray:none"
                     id="path246" /></g><g
                   transform="translate(0,479)"
                   id="g248"><path
                     d="m 349.199,-192.043 0,-0.957 0,2.16 0.239,0.481 0,3.597 0.242,-0.238 0,4.078 0.238,1.922 0,4.32 0.238,2.16 0,8.879 0.242,3.36 0,6.48 0.239,8.399 0,6.961 0.242,17.039 0,5.519 0.238,0.723 0,6.48 0.242,20.637 0,7.203 0.239,7.438 0,7.441 0.242,5.52 0,3.121 0.238,3.84 0,5.039 0.238,2.878 0.243,1.204 0,1.679 0.238,0 0,0.477 0.242,1.683 0,1.2 0.238,0.718 0,1.442 0.243,1.199 0,0.481 0.238,1.199 0,-1.442 0,1.203 0.242,1.2 0,-0.481 0.238,0.481 0,0.718 0,-0.718 0.239,0.48 0,0.481 0.242,-0.723 0,1.199 0.238,-0.719 0,1.922 0.242,-1.679 0,1.679 0.239,-0.48 0,0.48 0,-1.441 0.242,1.199 0,0.242 0,-0.242 0.238,0.242 0,-0.722 0.238,0 0,0.722 0,-0.722 0.242,0.722 0.239,-0.242 0,-0.238 0.242,0.48 0.238,-0.242 0,-0.238 0,0.238 0.242,0.242 0.957,0 0,-0.722 0.243,-1.438 0,0.238 0.238,1.68 0,-0.48 0,0.722 0.48,0 0,-0.48 -0.238,0.48 0.481,0 0,-1.203 0,1.203 0.238,-1.679 0,-0.243 0,1.922 0,-1.679 0.242,0.476 0,-1.918 0,3.121 0,-0.242 0.238,-0.961 0,-1.68 0,2.883 0.239,-0.961 0,-1.441 0,0.961 0.242,0.961 0,0.48 0.48,-1.203 -0.242,0 0.242,-0.957 0.239,0.238 0,-0.48 0,0.242 0.242,-0.723 0,1.442 0.238,0 0,-2.16"
                     style="fill:none;stroke:#ff0000;stroke-opacity:1;stroke-width:0.499999;stroke-linecap:butt;stroke-linejoin:round;stroke-miterlimit:10;stroke-dasharray:none"
                     id="path250" /></g><g
                   transform="translate(0,479)"
                   id="g252"><path
                     d="m 673.918,-41.563 0.48,2.883 0.481,2.399 0.48,1.441 0.481,0.957 0.476,0.481 0.481,0.242 0.48,0.238 1.442,0 0.48,-0.238 0.481,0.238 0.476,-0.238 2.403,0 0.48,-0.481 0.481,-2.16 0.48,-1.199 0.477,-2.641 0.48,-6.718 0.481,-6.243 0.48,-18.238 0.48,-25.68 0.481,-39.121 0.48,-36.961 0.719,-10.32 0.481,-9.359 0.48,-3.602 0.481,-2.879 0.48,-2.16 0.477,-0.961 0.48,0.242 0.723,-0.718 5.039,0 0.719,0.238 0.48,-0.238 0.48,1.679 0.481,0.957 0.48,3.364 0.719,4.316 0.481,13.441 0.48,17.039 0.481,44.161 0.718,41.519 0.481,18 0.48,12.961 0.481,5.762 0.718,1.199 0.481,2.641 1.199,2.398 0.481,-3.84 0.48,4.082 5.52,0 0.718,-0.722 0.481,-3.598 0.48,-3.121 0.481,-8.399 0.719,-22.8 0.48,-46.321 0.48,-29.039 0.719,-31.441 0.481,-9.121 0.48,-6.961 0.719,-1.918 0.48,-1.922 0.481,-0.719 0.719,-1.918 0.48,0 0.723,-0.242 0.476,-0.961 0.481,0.242 0.722,0.239 0.481,-0.481 0.719,1.922 0.48,-0.242 0.481,0.723 0.718,0.96 0.481,-1.683 0.48,0 0.719,3.121 0.48,2.879 0.719,4.562 0.481,7.68 0.48,26.879 0.719,38.16 0.48,39.84 0.481,24.961 0.719,7.68 0.48,3.121 0.723,2.879 0.476,-4.079 1.203,9.84 5.758,0 0.481,-0.48 0.718,-0.723 0.481,-2.398 0.723,-3.84 0.48,-8.16 0.477,-21.36 0.722,-50.16 0.481,-28.32 0.718,-32.16 0.481,-9.36 0.48,-7.441 0.719,-3.598 0.481,-0.242 0.718,-1.437 6.961,0 0.481,0.476 0.719,0.961 0.48,4.082 0.48,6.238 0.719,9.602 0.481,34.797 0.718,31.683 0.481,45.36 0.48,21.359 0.723,9.121 0.477,2.637 0.722,2.402 0.481,0.961 6.957,0 0.48,-1.203 0.723,-0.476 0.476,-1.922 0.481,-2.399 0.723,-5.281 0.48,-16.559 0.477,-24.96 0.722,-35.282 0.481,-51.597 0.476,-16.082 0.723,-5.282 0.48,-3.359 0.481,-2.879 0.719,-2.398 0.48,0.476 0.481,0.481 0.718,-0.957 0.481,0 0.719,0.238 0.48,0 0.48,-0.238 2.399,0 0.48,0.238 0.481,0 0.719,0.719 0.48,0.961 0.481,2.878 0.718,6.481 0.481,6.48 0.48,23.282 0.481,43.679 0.718,30.481 0.481,31.437 0.48,12.243 0.481,2.64 0.719,5.52 0.48,1.679 0.481,0.961 7.199,0 0.961,-1.922 0.718,-1.441 0.481,-4.316 0.48,-4.321 0.481,-14.64 0.719,-36.243 1.441,-90.238 0.719,-6.242 0.48,-5.52 0.481,-2.398 1.199,-1.199 0.48,-0.723 0.481,0 0.48,-0.238 4.321,0 0.48,0.238 0.481,0 0.238,0.242 0.48,0.961 0.481,0.239 0.48,0.961 0.481,4.32 0.238,0.719 0.48,6.48 0.481,9.84 0.238,13.441 0.481,30.719 0.48,28.559 0.238,22.8 0.481,22.321 0.242,12.238 0.481,2.883 0.238,6.238 0.48,1.922 0.481,1.437 0.238,0.723 0.481,0.238 0.242,1.68 0.476,0.242 7.203,0 5.52,-166.8 1.437,0.238"
                     style="fill:none;stroke:#00ff00;stroke-opacity:1;stroke-width:0.499999;stroke-linecap:butt;stroke-linejoin:round;stroke-miterlimit:10;stroke-dasharray:none"
                     id="path254" /></g><g
                   transform="translate(0,479)"
                   id="g256"><path
                     d="m 604.078,-200.203 0,-0.477 0.238,-0.242 0,-1.199 0,3.121 0.243,-0.723 0,-1.437 0,1.918 0.238,-1.199 0,-1.918 0.242,1.679 0,-1.441 0.481,0 0,0.719 0,-0.719 0.238,2.16 0,-2.16 0,0.961 0.242,-0.961 0,1.441 0.238,-0.48 0,-0.961 0,1.68 0,-1.442 0.239,0.481 0,0.722 0,-1.441 0.242,1.199 0,-1.199 0,0.719 0.238,-0.719 0,0.961 0,-0.723 0.242,-0.238 0,1.918 0.239,-1.918 0,1.199 0.242,-0.719 0,0.719 0.238,-0.719 0,1.2 0.238,-1.68 0,1.441 0,-1.203 0.242,0.242 0,1.68 0,-1.441 0.239,0.48 0,1.199 0.242,-0.957 0,0.239 0,-0.481 0.238,0 0,1.199 0,-1.918 0.242,1.2 0,0.238 0,-1.438 0.239,0.961 0,0.477 0.242,-0.957 0,2.16 0,-0.961 0.238,0.961 0,-0.242 0,2.16 0.238,-0.719 0,0.719 0,-0.719 0.481,1.199 1.922,79.922 0.238,3.598 0.961,58.562 0,3.598 0.238,1.442 0,1.679 0.242,3.598 0,-0.719 0.239,1.199 0,-0.238 0,2.879 0.242,-0.481 0,1.68 0.238,0.481 0,0.722 0.242,0 0,0.957 0.239,0.723 0,0.719 0.242,0.48 0,0.481 0.238,0.238 0,-1.918 0.238,1.918 0,1.922 0.243,-1.442 0,0.719 0.238,-2.16 0.242,2.16 0,0.242 0.238,-2.402 0,-1.437 0.243,3.597 0,-0.476 0.238,1.679 0,-0.961 0.48,0.961 -0.238,0 0.719,0 0,-0.48 0.238,0.48 1.922,0 0.238,-0.48 0,0.48 0.723,0 0.238,-0.48 0,0.48 0.238,0 0,-0.722 0.243,0.722 0.718,0 0,-0.961 0.243,0 0.238,-0.48 0.242,0 0,1.199 0.238,0.242 0.239,-1.441 0,-0.238 0.242,-0.723 0.238,0.242 0.242,0.719 0,-0.719 0.239,0.957 0.242,-1.199 0.476,-1.438 0,-1.441 0.242,-2.16 0.239,-0.719 0.242,-3.601 0.238,-0.961 0.242,-4.078 0,-6 0.239,-4.801 0.242,-9.36 0.238,-14.402 0.238,-13.68 0.243,-19.199 0.238,-4.558 0,-19.442 0.242,-18 0.238,-12.719 0.243,-5.039 0.238,-7.203 0.242,-2.637 0.238,-5.281 0.239,-2.16 0.242,-0.961 0.238,-1.918 0.242,-1.441 0.239,0.238 0,-1.68 0.242,-1.199 0.238,0.242 0.238,0 0.242,-0.722 0.239,-0.957 0.242,0.238 0.238,-0.238 6.481,0 0.48,0.238 0.238,0.719 0.243,0.242 0.238,1.918 0.48,2.16 0.243,2.641 0.238,2.878 0.242,5.52 0.477,12.723 0.242,10.078 0.238,25.441 0.481,22.321 0.242,15.839 0.238,26.161 0.238,15.359 0.481,6.238 0.242,7.442 0.238,2.398 0.481,1.922 0.242,3.121 0.238,0.719 0.481,1.199 0.238,-0.238 0.242,0.48 0.481,0.719 0.238,0.719 0.48,0.722 2.399,0 0.242,-0.242 1.918,0 0.242,-0.719 0.481,0.719 0.238,-2.398 0.48,0.48 0.481,-1.68 0.238,-1.683 0.481,-1.918 0.242,-4.801 0.476,-6.238 0.481,-12.723 0.242,-24.957 0.961,-53.281 0.238,-27.84 0.481,-9.602 0.238,-9.597 0.48,-4.801 0.481,-3.121 0.242,-1.68 0.477,-1.199 0.48,0.238 0.242,-1.918 0.481,-0.48 0.476,-0.238 4.321,0 0.242,0.238 0.48,-0.238 0.957,0 0.242,0.238 0.481,0.961 0.48,0.719 0.481,2.878 0.476,3.36 0.481,6 0.48,15.601 0.481,16.559 0.48,37.684 0.239,36.476 0.48,17.762 0.481,14.398 0.48,8.16"
                     style="fill:none;stroke:#00ff00;stroke-opacity:1;stroke-width:0.499999;stroke-linecap:butt;stroke-linejoin:round;stroke-miterlimit:10;stroke-dasharray:none"
                     id="path258" /></g><g
                   transform="translate(0,479)"
                   id="g260"><path
                     d="m 594.719,-36.52 0,1.918 0,-0.961 0.238,-0.238 0,-1.199 0,2.398 0,-0.961 0.242,-2.64 0,-0.477 0,2.16 0,-0.722 0.239,-0.238 0,-1.2 0,2.399 0,-0.239 0.242,-1.441 0,-0.961 0,1.199 0,-0.48 0.238,-0.719 0,-0.961 0,2.403 0,-1.922 0.238,-0.957 0,-0.961 0,1.918 0,-0.239 0.242,-0.961 0,-1.441 0,3.84 0,-3.117 0.239,0.238 0,-2.16 0.242,-0.961 0,0.961 0,-4.801 0.238,1.203 0,-3.601 0.242,-0.961 0,-4.559 0.239,-0.242 0,-6 0.242,-2.156 0,-12.481 0.238,-2.64 0,-29.04 0.238,-1.203 0,1.203 0,-8.64 0.243,-0.242 0,-2.879 0.238,-1.199 0,-4.563 0,1.684 0.242,0.476 0,1.442 0,-38.879 0.238,-2.16 0,-9.84 0.243,-1.442 0,-6 0.238,-0.718 0,-3.36 0.242,-0.723 0,-1.917 0,2.64 0,-2.64 0.238,-1.442 0,-1.437 0.239,0.238 0,-1.922 0.242,-1.199 0,-0.719 0,1.918 0,-0.957 0.238,-0.242 0,-2.879 0,3.121 0,-1.203 0.242,-1.199 0,-0.719 0,1.441 0,-0.722 0.239,-1.68 0,-0.238 0,2.16 0.242,-1.199 0,-1.204 0,1.68 0.238,0 0,-1.68 0.238,0.481 0,-2.879 0.242,1.68 0,-1.68 0,1.199 0.239,-0.238 0,0.719 0,-0.481 0.242,0 0,-1.441 0,1.683 0.238,-1.203 0,-1.437 0,3.359 0,-0.961 0.242,-0.238 0,0.238 0,-1.441 0.239,-0.719 0,-0.48 0.242,-0.239 0,3.36 0,-1.199 0.238,-0.723"
                     style="fill:none;stroke:#00ff00;stroke-opacity:1;stroke-width:0.499999;stroke-linecap:butt;stroke-linejoin:round;stroke-miterlimit:10;stroke-dasharray:none"
                     id="path262" /></g></g></g></g></g></g></g><g
       id="g264"><g
         id="g266"
         transform="translate(0,-0.3992)"><g
           id="g268" /><g
           id="g274"><g
             clip-path="url(#clipPath270)"
             id="g276"><g
               id="g278"><path
                 d="m 66.719,210.398 771.602,0 0,-169.918 -771.602,0 0,169.918 z"
                 style="fill:#ffffff;fill-opacity:1;fill-rule:evenodd;stroke:none"
                 id="path280" /><g
                 transform="translate(0,479)"
                 id="g282"><path
                   d="m 66.719,-438.52 0,169.918 771.597,0 0,-169.918 -771.597,0"
                   style="fill:none;stroke:#ffffff;stroke-opacity:1;stroke-width:0.499999;stroke-linecap:butt;stroke-linejoin:round;stroke-miterlimit:10;stroke-dasharray:none"
                   id="path284" /></g><g
                 transform="translate(0,479)"
                 id="g286"><path
                   d="m 66.719,-438.52 771.597,0"
                   style="fill:none;stroke:#000000;stroke-opacity:1;stroke-width:0.499999;stroke-linecap:butt;stroke-linejoin:round;stroke-miterlimit:10;stroke-dasharray:none"
                   id="path288" /></g><g
                 transform="translate(0,479)"
                 id="g290"><path
                   d="m 66.719,-438.52 0,169.918"
                   style="fill:none;stroke:#000000;stroke-opacity:1;stroke-width:0.499999;stroke-linecap:butt;stroke-linejoin:round;stroke-miterlimit:10;stroke-dasharray:none"
                   id="path292" /></g><g
                 transform="translate(0,479)"
                 id="g294"><path
                   d="m 66.719,-438.52 0,7.918"
                   style="fill:none;stroke:#000000;stroke-opacity:1;stroke-width:0.499999;stroke-linecap:butt;stroke-linejoin:round;stroke-miterlimit:10;stroke-dasharray:none"
                   id="path296" /></g><text
                 transform="matrix(1,0,0,-1,62.400038,22.719238)"
                 id="text298"><tspan
                   style="fill:#000000;fill-opacity:1;fill-rule:nonzero;stroke:none;font-family:Arial;font-variant:normal;font-weight:normal;font-size:16.000013;writing-mode:lr;-inkscape-font-specification:ArialMT"
                   x="0"
                   y="0"
                   id="tspan300">0</tspan></text>
<g
                 transform="translate(0,479)"
                 id="g302"><path
                   d="m 142.801,-438.52 0,7.918"
                   style="fill:none;stroke:#000000;stroke-opacity:1;stroke-width:0.499999;stroke-linecap:butt;stroke-linejoin:round;stroke-miterlimit:10;stroke-dasharray:none"
                   id="path304" /></g><text
                 transform="matrix(1,0,0,-1,122.87979,22.719238)"
                 id="text306"><tspan
                   style="fill:#000000;fill-opacity:1;fill-rule:nonzero;stroke:none;font-family:Arial;font-variant:normal;font-weight:normal;font-size:16.000013;writing-mode:lr;-inkscape-font-specification:ArialMT"
                   x="0 8.89600723 13.32801083 22.22401806 31.12002529"
                   y="0"
                   sodipodi:role="line"
                   id="tspan308">0.005</tspan></text>
<g
                 transform="translate(0,479)"
                 id="g310"><path
                   d="m 219.117,-438.52 0,7.918"
                   style="fill:none;stroke:#000000;stroke-opacity:1;stroke-width:0.499999;stroke-linecap:butt;stroke-linejoin:round;stroke-miterlimit:10;stroke-dasharray:none"
                   id="path312" /></g><text
                 transform="matrix(1,0,0,-1,203.75885,22.719238)"
                 id="text314"><tspan
                   style="fill:#000000;fill-opacity:1;fill-rule:nonzero;stroke:none;font-family:Arial;font-variant:normal;font-weight:normal;font-size:16.000013;writing-mode:lr;-inkscape-font-specification:ArialMT"
                   x="0 8.89600723 13.32801083 22.22401806"
                   y="0"
                   sodipodi:role="line"
                   id="tspan316">0.01</tspan></text>
<g
                 transform="translate(0,479)"
                 id="g318"><path
                   d="m 295.199,-438.52 0,7.918"
                   style="fill:none;stroke:#000000;stroke-opacity:1;stroke-width:0.499999;stroke-linecap:butt;stroke-linejoin:round;stroke-miterlimit:10;stroke-dasharray:none"
                   id="path320" /></g><text
                 transform="matrix(1,0,0,-1,275.27891,22.719238)"
                 id="text322"><tspan
                   style="fill:#000000;fill-opacity:1;fill-rule:nonzero;stroke:none;font-family:Arial;font-variant:normal;font-weight:normal;font-size:16.000013;writing-mode:lr;-inkscape-font-specification:ArialMT"
                   x="0 8.89600723 13.32801083 22.22401806 31.12002529"
                   y="0"
                   sodipodi:role="line"
                   id="tspan324">0.015</tspan></text>
<g
                 transform="translate(0,479)"
                 id="g326"><path
                   d="m 371.52,-438.52 0,7.918"
                   style="fill:none;stroke:#000000;stroke-opacity:1;stroke-width:0.499999;stroke-linecap:butt;stroke-linejoin:round;stroke-miterlimit:10;stroke-dasharray:none"
                   id="path328" /></g><text
                 transform="matrix(1,0,0,-1,356.15897,22.719238)"
                 id="text330"><tspan
                   style="fill:#000000;fill-opacity:1;fill-rule:nonzero;stroke:none;font-family:Arial;font-variant:normal;font-weight:normal;font-size:16.000013;writing-mode:lr;-inkscape-font-specification:ArialMT"
                   x="0 8.89600723 13.32801083 22.22401806"
                   y="0"
                   sodipodi:role="line"
                   id="tspan332">0.02</tspan></text>
<g
                 transform="translate(0,479)"
                 id="g334"><path
                   d="m 447.598,-438.52 0,7.918"
                   style="fill:none;stroke:#000000;stroke-opacity:1;stroke-width:0.499999;stroke-linecap:butt;stroke-linejoin:round;stroke-miterlimit:10;stroke-dasharray:none"
                   id="path336" /></g><text
                 transform="matrix(1,0,0,-1,427.67903,22.719238)"
                 id="text338"><tspan
                   style="fill:#000000;fill-opacity:1;fill-rule:nonzero;stroke:none;font-family:Arial;font-variant:normal;font-weight:normal;font-size:16.000013;writing-mode:lr;-inkscape-font-specification:ArialMT"
                   x="0 8.89600723 13.32801083 22.22401806 31.12002529"
                   y="0"
                   sodipodi:role="line"
                   id="tspan340">0.025</tspan></text>
<g
                 transform="translate(0,479)"
                 id="g342"><path
                   d="m 523.918,-438.52 0,7.918"
                   style="fill:none;stroke:#000000;stroke-opacity:1;stroke-width:0.499999;stroke-linecap:butt;stroke-linejoin:round;stroke-miterlimit:10;stroke-dasharray:none"
                   id="path344" /></g><text
                 transform="matrix(1,0,0,-1,508.5591,22.719238)"
                 id="text346"><tspan
                   style="fill:#000000;fill-opacity:1;fill-rule:nonzero;stroke:none;font-family:Arial;font-variant:normal;font-weight:normal;font-size:16.000013;writing-mode:lr;-inkscape-font-specification:ArialMT"
                   x="0 8.89600723 13.32801083 22.22401806"
                   y="0"
                   sodipodi:role="line"
                   id="tspan348">0.03</tspan></text>
<g
                 transform="translate(0,479)"
                 id="g350"><path
                   d="m 600,-438.52 0,7.918"
                   style="fill:none;stroke:#000000;stroke-opacity:1;stroke-width:0.499999;stroke-linecap:butt;stroke-linejoin:round;stroke-miterlimit:10;stroke-dasharray:none"
                   id="path352" /></g><text
                 transform="matrix(1,0,0,-1,580.07915,22.719238)"
                 id="text354"><tspan
                   style="fill:#000000;fill-opacity:1;fill-rule:nonzero;stroke:none;font-family:Arial;font-variant:normal;font-weight:normal;font-size:16.000013;writing-mode:lr;-inkscape-font-specification:ArialMT"
                   x="0 8.89600723 13.32801083 22.22401806 31.12002529"
                   y="0"
                   sodipodi:role="line"
                   id="tspan356">0.035</tspan></text>
<g
                 transform="translate(0,479)"
                 id="g358"><path
                   d="m 676.316,-438.52 0,7.918"
                   style="fill:none;stroke:#000000;stroke-opacity:1;stroke-width:0.499999;stroke-linecap:butt;stroke-linejoin:round;stroke-miterlimit:10;stroke-dasharray:none"
                   id="path360" /></g><text
                 transform="matrix(1,0,0,-1,660.95922,22.719238)"
                 id="text362"><tspan
                   style="fill:#000000;fill-opacity:1;fill-rule:nonzero;stroke:none;font-family:Arial;font-variant:normal;font-weight:normal;font-size:16.000013;writing-mode:lr;-inkscape-font-specification:ArialMT"
                   x="0 8.89600723 13.32801083 22.22401806"
                   y="0"
                   sodipodi:role="line"
                   id="tspan364">0.04</tspan></text>
<g
                 transform="translate(0,479)"
                 id="g366"><path
                   d="m 752.637,-438.52 0,7.918"
                   style="fill:none;stroke:#000000;stroke-opacity:1;stroke-width:0.499999;stroke-linecap:butt;stroke-linejoin:round;stroke-miterlimit:10;stroke-dasharray:none"
                   id="path368" /></g><text
                 transform="matrix(1,0,0,-1,732.71927,22.719238)"
                 id="text370"><tspan
                   style="fill:#000000;fill-opacity:1;fill-rule:nonzero;stroke:none;font-family:Arial;font-variant:normal;font-weight:normal;font-size:16.000013;writing-mode:lr;-inkscape-font-specification:ArialMT"
                   x="0 8.89600723 13.32801083 22.22401806 31.12002529"
                   y="0"
                   sodipodi:role="line"
                   id="tspan372">0.045</tspan></text>
<g
                 transform="translate(0,479)"
                 id="g374"><path
                   d="m 828.719,-438.52 0,7.918"
                   style="fill:none;stroke:#000000;stroke-opacity:1;stroke-width:0.499999;stroke-linecap:butt;stroke-linejoin:round;stroke-miterlimit:10;stroke-dasharray:none"
                   id="path376" /></g><text
                 transform="matrix(1,0,0,-1,813.35934,22.719238)"
                 id="text378"><tspan
                   style="fill:#000000;fill-opacity:1;fill-rule:nonzero;stroke:none;font-family:Arial;font-variant:normal;font-weight:normal;font-size:16.000013;writing-mode:lr;-inkscape-font-specification:ArialMT"
                   x="0 8.89600723 13.32801083 22.22401806"
                   y="0"
                   sodipodi:role="line"
                   id="tspan380">0.05</tspan></text>
<g
                 transform="translate(0,479)"
                 id="g382"><path
                   d="m 66.719,-438.52 7.679,0"
                   style="fill:none;stroke:#000000;stroke-opacity:1;stroke-width:0.499999;stroke-linecap:butt;stroke-linejoin:round;stroke-miterlimit:10;stroke-dasharray:none"
                   id="path384" /></g><text
                 transform="matrix(1,0,0,-1,45.600024,34.719248)"
                 id="text386"><tspan
                   style="fill:#000000;fill-opacity:1;fill-rule:nonzero;stroke:none;font-family:Arial;font-variant:normal;font-weight:normal;font-size:16.000013;writing-mode:lr;-inkscape-font-specification:ArialMT"
                   x="0"
                   y="0"
                   id="tspan388">−</tspan></text>
<text
                 transform="matrix(1,0,0,-1,54.928032,34.719248)"
                 id="text390"><tspan
                   style="fill:#000000;fill-opacity:1;fill-rule:nonzero;stroke:none;font-family:Arial;font-variant:normal;font-weight:normal;font-size:16.000013;writing-mode:lr;-inkscape-font-specification:ArialMT"
                   x="0"
                   y="0"
                   id="tspan392">1</tspan></text>
<g
                 transform="translate(0,479)"
                 id="g394"><path
                   d="m 66.719,-396.039 7.679,0"
                   style="fill:none;stroke:#000000;stroke-opacity:1;stroke-width:0.499999;stroke-linecap:butt;stroke-linejoin:round;stroke-miterlimit:10;stroke-dasharray:none"
                   id="path396" /></g><text
                 transform="matrix(1,0,0,-1,32.400014,77.199282)"
                 id="text398"><tspan
                   style="fill:#000000;fill-opacity:1;fill-rule:nonzero;stroke:none;font-family:Arial;font-variant:normal;font-weight:normal;font-size:16.000013;writing-mode:lr;-inkscape-font-specification:ArialMT"
                   x="0"
                   y="0"
                   id="tspan400">−</tspan></text>
<text
                 transform="matrix(1,0,0,-1,41.728022,77.199282)"
                 id="text402"><tspan
                   style="fill:#000000;fill-opacity:1;fill-rule:nonzero;stroke:none;font-family:Arial;font-variant:normal;font-weight:normal;font-size:16.000013;writing-mode:lr;-inkscape-font-specification:ArialMT"
                   x="0 8.89600723 13.32801083"
                   y="0"
                   sodipodi:role="line"
                   id="tspan404">0.5</tspan></text>
<g
                 transform="translate(0,479)"
                 id="g406"><path
                   d="m 66.719,-353.563 7.679,0"
                   style="fill:none;stroke:#000000;stroke-opacity:1;stroke-width:0.499999;stroke-linecap:butt;stroke-linejoin:round;stroke-miterlimit:10;stroke-dasharray:none"
                   id="path408" /></g><text
                 transform="matrix(1,0,0,-1,54.960032,119.67962)"
                 id="text410"><tspan
                   style="fill:#000000;fill-opacity:1;fill-rule:nonzero;stroke:none;font-family:Arial;font-variant:normal;font-weight:normal;font-size:16.000013;writing-mode:lr;-inkscape-font-specification:ArialMT"
                   x="0"
                   y="0"
                   id="tspan412">0</tspan></text>
<g
                 transform="translate(0,479)"
                 id="g414"><path
                   d="m 66.719,-311.082 7.679,0"
                   style="fill:none;stroke:#000000;stroke-opacity:1;stroke-width:0.499999;stroke-linecap:butt;stroke-linejoin:round;stroke-miterlimit:10;stroke-dasharray:none"
                   id="path416" /></g><text
                 transform="matrix(1,0,0,-1,41.760021,162.15965)"
                 id="text418"><tspan
                   style="fill:#000000;fill-opacity:1;fill-rule:nonzero;stroke:none;font-family:Arial;font-variant:normal;font-weight:normal;font-size:16.000013;writing-mode:lr;-inkscape-font-specification:ArialMT"
                   x="0 8.89600723 13.32801083"
                   y="0"
                   sodipodi:role="line"
                   id="tspan420">0.5</tspan></text>
<g
                 transform="translate(0,479)"
                 id="g422"><path
                   d="m 66.719,-268.602 7.679,0"
                   style="fill:none;stroke:#000000;stroke-opacity:1;stroke-width:0.499999;stroke-linecap:butt;stroke-linejoin:round;stroke-miterlimit:10;stroke-dasharray:none"
                   id="path424" /></g><text
                 transform="matrix(1,0,0,-1,54.960032,204.63968)"
                 id="text426"><tspan
                   style="fill:#000000;fill-opacity:1;fill-rule:nonzero;stroke:none;font-family:Arial;font-variant:normal;font-weight:normal;font-size:16.000013;writing-mode:lr;-inkscape-font-specification:ArialMT"
                   x="0"
                   y="0"
                   id="tspan428">1</tspan></text>
<text
                 transform="matrix(0,1,1,0,17.040001,117.75961)"
                 id="text430"><tspan
                   style="fill:#000000;fill-opacity:1;fill-rule:nonzero;stroke:none;font-family:Arial;font-variant:normal;font-weight:normal;font-size:16.000013;writing-mode:lr;-inkscape-font-specification:ArialMT"
                   x="0"
                   y="0"
                   id="tspan432">n</tspan></text>
<text
                 transform="matrix(0,1,1,0,24.960008,126.63962)"
                 id="text434"><tspan
                   style="fill:#000000;fill-opacity:1;fill-rule:nonzero;stroke:none;font-family:Arial;font-variant:normal;font-weight:normal;font-size:12.00001;writing-mode:lr;-inkscape-font-specification:ArialMT"
                   x="0"
                   y="0"
                   id="tspan436">z</tspan></text>
<text
                 transform="matrix(1,0,0,-1,335.27896,6.159215)"
                 id="text438"><tspan
                   style="font-size:16.00001335px;font-variant:normal;font-weight:normal;writing-mode:lr-tb;fill:#000000;fill-opacity:1;fill-rule:nonzero;stroke:none;font-family:Arial;-inkscape-font-specification:ArialMT"
                   sodipodi:role="line"
                   id="tspan440"
                   x="0"
                   y="0">Cumulative distance in channel [m]</tspan></text>
</g></g></g></g></g><g
       id="g442"><g
         id="g444"
         clip-path="url(#clipPath446)"><g
           id="g450"
           transform="translate(0,-0.3992)"><g
             id="g452" /><g
             id="g458"><g
               clip-path="url(#clipPath454)"
               id="g460"><g
                 id="g462"><g
                   transform="translate(0,479)"
                   id="g464"><path
                     d="m 197.758,-356.441 0.722,8.402 0.719,0.238 0.481,-0.238 0.718,4.316 0.481,-5.039 0.719,0 0.722,-0.238 0.481,0 0.719,0.238 0.48,0 0.719,-0.48 0.719,0.242 0.48,0 0.723,0.719 0.476,0 0.723,0.48 0.719,0.238 0.48,0 0.719,0.723 0.48,0.238 0.723,1.2 0.719,1.203 0.48,0.238 0.719,-6.719 0.48,2.16 0.719,-2.16 0.723,-2.16 1.199,-1.68 0.48,0 0.719,-1.203 0.719,0.243 0.48,-0.481 0.719,0.481 0.481,0.238 0.722,-0.238 0.719,0 0.481,0.238 0.718,0 0.481,0.242 0.719,0.48 0.48,0.481 0.723,0.719 0.718,1.918 0.481,2.16 0.719,1.922 1.199,6.718 0.722,0.481 0.481,-2.641 0.719,-1.918 0.48,-0.722 0.719,-0.719 0.719,-0.238 0.48,-0.243 0.723,-0.48 0.719,0.242 1.199,-1.199 1.922,0 0.476,-0.242 0.723,0 0.48,0.961 0.719,0.48 0.719,0.238 0.48,0.481 0.719,1.199 0.481,1.199 0.718,-0.718 0.723,-2.399 0.48,-2.883 0.719,-1.918 0.481,-1.199 0.718,-1.199 0.723,0 0.477,-0.242 0.722,-0.239 0.481,-0.48 0.718,-0.242 0.719,-0.481 0.481,0 0.718,-0.476 0.481,0 0.723,-0.242 0.48,0.48 0.719,0 0.719,0.719 0.48,0.722 0.719,0 0.48,0.719 0.723,1.442 0.476,2.398 0.723,-4.32 0.481,9.121 0.718,0 0.481,-1.442 0.719,-0.48 0.718,-0.238 0.481,0 0.722,-0.243 0.481,-0.476 0.719,-0.481 0.48,0 0.719,-0.242 0.48,0.481 0.719,-0.239 2.402,0 0.481,-0.242 0.719,0 0.718,-0.238 0.481,0.238 0.719,-0.238 0.48,-0.723 0.481,-4.078 0.718,0.961 0.481,-1.922 0.722,-0.48 0.481,-0.957 0.719,0 0.48,-0.481 0.719,0.481 0.48,-0.242 0.719,0 0.481,-0.239 0.718,-0.242 0.481,-0.48 0.722,0.242 0.481,-0.242 0.719,0 0.48,-0.719 0.481,-0.238 0.718,-0.481 0.481,0 0.719,0.238 0.48,-0.238 0.48,-0.242 0.719,-0.481 0.481,0 0.718,1.922 0.481,3.121 0.723,-0.242 0.48,1.442 0.719,0.48 0.48,1.199 0.481,-0.238 0.718,0 0.481,0.477 0.719,-0.719 0.48,0.242 0.481,0.238 0.718,0.239 0.481,-0.239 0.719,-0.48 0.48,0.242 0.481,-0.242 0.718,0 0.481,0.242 0.722,-0.48 0.481,-0.243 0.476,-0.238 0.723,-0.961 0.481,-0.238 0.48,-0.961 0.719,-1.68 0.48,-2.16 0.481,6.961 0.718,-10.562 0.481,0 0.48,0.961 0.719,0 0.961,0.96 0.719,-0.242 0.48,0.242 0.481,0.239 0.719,0.242 0.48,0.238 1.199,0 0.481,0.481 0.48,-0.243 0.719,-0.718 0.48,-0.239 0.481,0.239 0.48,-0.239 0.719,-0.96 0.481,-0.481 0.48,-0.238 0.719,-0.242 0.48,-0.481 0.481,-0.719 1.199,4.078 0.48,-0.476 0.481,3.117 0.719,1.922 0.48,0.961 0.481,1.199 0.48,0 0.719,0.719 0.48,0.719 0.481,-0.477 0.48,0.477 0.481,0.242 0.48,0.48 0.481,-0.48 0.48,0.238 1.199,0 0.481,-0.48 0.476,0 0.481,0.48 0.48,0 0.242,-0.48 0.481,-0.239 0.476,-0.238 0.243,0.238 0.48,-0.238 0.481,0.477 0.238,0 0.48,-0.719 0.481,-0.481 0.238,-1.199 0.481,-0.961 0.242,0.723 0.476,-3.363 0.481,-0.477 0.242,-0.242 0.48,0.242 0.239,0.238 0.48,-0.238 0.481,0 0.238,0.477 0.723,0 0.48,-0.477 0.957,0 0.242,0.238 0.481,-0.238 0.238,0.238 0.48,0 0.239,0.239 0.48,-0.719 0.242,-0.481 0.481,0.243 0.476,0 0.481,0.238 0.242,0 0.719,0.719 0.48,-0.239 0.239,-0.48 0.242,0.719 0.238,-0.239 0.242,0.239 0.481,0 0.238,0.242 0.238,-0.481 0.242,0 0.239,-0.238 0.242,-0.48 0.238,0 0.242,-0.481 0,0.719 0.481,0 0.238,-0.238 0,0.48 0.238,0.477 0.243,0.961 0.238,4.8 0,-2.16 0.242,-0.719 0,-0.722 0.238,0.48 0,0.723 0.243,0.476 0,0.481 0.238,0.48 0,0.243 0.242,0.48 0.238,0.477 0,0.242 0,-0.242 0.239,0.722 0,-0.242 0.242,0.242 0,-0.48 0,0.238 0.238,0.242 0,-0.242 0,0.723"
                     style="fill:none;stroke:#0100ff;stroke-opacity:1;stroke-width:0.499999;stroke-linecap:butt;stroke-linejoin:round;stroke-miterlimit:10;stroke-dasharray:none"
                     id="path466" /></g><g
                   transform="translate(0,479)"
                   id="g468"><path
                     d="m 70.801,-358.84 0,0.481 0.238,-0.961 0.481,0.48 -0.239,0 0.239,0 0.242,-0.48 0.238,0.48 0,-0.242 0.238,-0.481 0.242,-0.238 0,0.238 0.239,-0.238 0.242,0.238 0.238,0 0.242,-0.238 0.239,-0.238 0.242,0.238 0.238,0.238 0.481,0 -0.243,0 0.243,0 0.238,-0.238 0.242,0.481 0.238,-1.2 0,0.481 0.243,-0.242 0.238,-0.719 0.238,-0.48 0,-0.481 0.242,0.238 0.239,0 0.242,-0.238 0.238,-0.719 0,-0.242 0.242,-0.238 0.239,-0.719 0.48,-0.48 0.238,-0.243 0.242,-0.238 0,-0.961 0.239,-1.679 0.242,0 0.238,-0.481 0.242,-0.719 0.239,-0.242 0.242,0.242 0.238,1.68 0.238,2.641 0,-1.922 0.243,0.48 0.238,1.442 0.242,1.437 0.238,1.199 0.243,1.922 0.476,1.922 0.242,0.719 0.239,0.48 0.242,0.481 0.238,0.238 0.242,-0.238 0.239,-0.242 0.242,1.199 0.476,0.961 0.481,0.48 0.961,0 0.242,0.719 0.238,-0.719 0.961,0 0.238,0.238 0.243,-0.238 0.718,0 0.239,-0.238 0.48,0 0.242,-0.481 0.239,-0.48 0.242,0 0.476,0.238 0.242,-0.718 0.239,-0.243 0.48,-0.718 0.242,0.48 0.239,-0.238 0.48,-0.723 0.238,0.723 0.243,-1.203 0.48,-0.957 0.238,-1.442 0.243,-2.16 0.476,-2.641 0.242,-1.437 0.239,-0.723 0.48,1.442 0.242,-4.082 0.481,-0.239 0.238,0.961 0.238,0.957 0.481,1.922 0.242,1.199 0.48,0.961 0.239,0.719 0.48,-0.238 0.238,0.48 0.481,0.719 0.242,0.481 0.481,0 0.718,0.718 0.481,0.242 0.961,0 0.476,0.239 0.242,0 0.481,-0.239 0.48,-0.242 0.719,-0.718 0.238,-0.243 0.961,-0.476 0.243,0 0.476,-0.242 0.481,-0.481 0.48,-0.238 0.242,-0.719 0.481,-0.961 0.476,-0.961 0.481,-1.441 0.242,-1.199 0.48,-1.68 0.481,3.84 0.238,-0.239 0.481,0.481 0.48,3.598 0.481,1.679 0.476,1.922 0.242,1.438 0.481,0.48 0.48,1.199 0.481,0.481 0.476,0.48 0.481,0 0.48,0.481 0.723,0 0.476,0.242 0.961,0.476 0.481,0.243 0.48,0.48 0.481,0 0.48,-0.242 0.481,0.48 0.476,-0.48 0.481,0 0.48,-0.238 0.481,0 0.48,0.238 0.481,-1.438 0.48,-0.722 0.477,-1.918 0.48,-2.403 0.961,2.883 0.481,-7.679 0.48,0.48 0.48,1.199 0.481,0.719 0.477,0.719 0.48,-0.238 0.48,0 0.719,0.48 0.481,0.719 0.48,0.48 0.481,-0.238 0.48,0 0.481,-0.242 0.718,0.242 0.481,0.238 0.48,0 0.481,0.481 0.48,-0.243 0.719,0.961 0.48,-0.48 0.481,-0.238 0.48,0.238 0.481,-0.238 0.476,-0.243 0.723,0 0.48,-0.238 0.481,0.481 1.199,3.597 0.481,1.922 0.476,0.719 0.481,0.242 0.722,0.481 0.481,0 0.476,0.718 0.723,-0.238 0.48,0.238 0.481,0.481 0.719,-0.242 0.48,0.961 0.481,0.242 0.718,-0.723 0.481,0.723 1.68,0 0.48,0.476 0.719,0.243 0.48,-0.243 0.719,0.243 0.48,0.718 0.481,0.242 0.719,-0.242 0.48,-5.519 0.481,1.441 0.718,-1.68 0.481,-1.679 0.48,-0.723 0.723,-0.238 0.477,0 0.722,0.238 0.481,-0.238 0.476,-0.242 0.723,-0.239 0.48,-0.48 0.719,0.48 0.481,-0.961 0.718,0.481 0.481,-0.481 0.719,0.243 0.48,0.238 0.48,0.242 0.719,-0.242 0.481,-0.719 0.722,0 0.481,-0.242 0.719,0 0.48,0.48 0.719,0.961 0.48,1.68 0.719,1.922 0.48,0.719 0.719,0.718 0.481,0.243 0.722,0.238 0.481,-0.238 0.719,0 0.48,0.718 0.719,0.961 0.48,0.239 0.719,-0.239 0.48,0.719 0.719,0 0.481,0.481 0.722,-0.243 0.481,0.243 0.719,0 0.718,0.48 0.481,0.238 0.719,0 0.48,0.723 0.723,0.238 0.476,-8.879 0.723,4.801 0.48,-1.684 0.719,-1.917 0.481,-0.719 0.718,-0.481 0.481,-0.48 0.719,0 0.48,-0.242 0.723,-0.719 0.718,0.48 0.481,0 0.719,0.481 0.48,0.238 0.719,0.242 0.48,0.239 0.723,-0.239 0.477,0.239 0.722,-0.481 0.719,1.199 0.48,0.481 0.719,0.242 0.481,0.719 0.718,2.64 0.481,-4.8"
                     style="fill:none;stroke:#0100ff;stroke-opacity:1;stroke-width:0.499999;stroke-linecap:butt;stroke-linejoin:round;stroke-miterlimit:10;stroke-dasharray:none"
                     id="path470" /></g><g
                   transform="translate(0,479)"
                   id="g472"><path
                     d="m 66.719,-358.84 0,0.719 0.242,0.242 0,-0.48 0.238,0.238 0.242,-0.238 0.481,0 -0.242,0 0.48,0 0.238,0.238 0,-0.238 0.243,0.238 0.238,0.719 0.242,-0.719 0.238,0.719 0.481,-0.719 -0.238,0 0.238,0 0.238,0.242 0,-0.242 0.242,-0.481 0.239,-0.238 0,-0.242 0.242,0.242"
                     style="fill:none;stroke:#0100ff;stroke-opacity:1;stroke-width:0.499999;stroke-linecap:butt;stroke-linejoin:round;stroke-miterlimit:10;stroke-dasharray:none"
                     id="path474" /></g><g
                   transform="translate(0,479)"
                   id="g476"><path
                     d="m 487.68,-350.441 0.238,0 0.48,0.718 0.481,0 0.48,0.243 0.481,-0.243 1.199,0 0.481,0.481 0.48,-0.481 0.238,0.243 0.481,-0.719 0.48,0.238 0.481,0.481 0.476,0.238 0.481,-0.238 0.242,0.238 0.48,0 0.481,-0.481 0.476,0.243 0.961,-0.243 0.481,-0.476 0.242,0 0.477,0.238 0.48,0.481 0.481,-0.243 0.48,-4.078 0.48,0.481 0.481,-1.2 0.48,-0.96 0.239,-0.481 0.48,0 0.481,-0.238 0.961,-0.961 0.48,0.238 0.477,0.242 0.48,-0.722 0.481,-0.239 0.242,0.239 0.476,-0.239 0.481,-0.238 0.48,-0.242 0.481,0.242 0.48,0 0.481,0.238 0.48,-0.238 0.481,0.477 0.48,-0.477 0.238,0 0.481,0.238 0.961,0.961 0.476,-0.242 0.481,0.242 0.48,0.239 0.481,1.441 0.48,1.199 0.481,1.442 0.48,1.199 0.481,-7.442 0.48,8.403 0.477,-0.242 0.48,0 0.481,0.242 0.48,-0.242 0.48,0.718 0.481,0 0.48,-0.476 0.481,-0.242 0.476,0.242 0.481,0 0.48,0.476 0.481,0 0.48,0.243 0.481,0 0.48,0.238 0.481,-0.238 0.476,0.718 0.481,-0.238 0.48,-0.48 0.481,-0.243 0.48,0.243 0.481,0 0.48,0.238 0.481,0 0.48,0.242 0.477,-0.242 0.48,-0.957 0.481,-4.801 0.48,0.238 0.719,-0.961 0.48,-0.476 0.481,-0.481 0.48,-0.242 0.481,0 0.48,-0.719 0.481,-0.238 0.48,-0.48 0.477,0 0.48,-0.243 0.481,0.243 0.48,-0.243 0.48,-0.238 0.481,0.238 0.48,0.243 0.481,0.238 0.719,-0.481 0.961,0 0.48,-0.238 0.477,0 0.48,-0.242 0.481,0 0.48,0.242 0.719,0 0.48,-0.242 0.481,0 0.48,-0.481 0.481,0.243 0.48,8.879 0.481,-5.758 0.48,1.437 0.477,1.68 0.722,0.723 0.481,0.238 0.476,0.242 0.481,0.238 0.48,0.481 0.481,0.238 0.48,0 0.719,-0.238 0.48,0.238 0.481,-0.238 0.48,-0.242 0.481,0.242 0.48,-0.242 0.481,0.961 0.476,0.48 0.481,0 0.48,0.481 0.481,0 0.48,0.238 0.481,-0.238 0.48,-0.243 1.438,0 0.48,0.481 0.481,-0.238 0.242,-0.481 0.476,-1.68 0.481,-1.679 0.48,-0.719 0.481,-1.684 0.48,-0.476 0.238,-0.242 0.481,-0.719 0.48,-0.242 0.481,-0.239 0.242,-0.48 0.477,0.242 0.48,0.238 0.723,0 0.476,0.239 1.203,0 0.481,0.242 0.476,-0.242 0.243,-0.239 0.961,0 0.238,-0.238 0.48,0.477 0.481,0.242 0.238,-0.481 0.481,-0.238 0.242,0.477 0.476,-0.239 0.481,0.481 0.242,-0.242 0.48,-0.239 1.2,0 0.238,-0.238 0.48,0.957 0.481,2.883 0.242,0.238 0.238,0.481 0.481,0.961 0.238,0.238 0.242,0.719 0.239,0 0.48,0.48 0.238,0.481 0.242,0.718 0.239,0.243 0.242,-0.243 0.48,-0.238 0.239,-0.48 0.242,-0.239 0.238,-0.242 0.238,0.242 0.243,0.239 0.238,0.242 0.242,0 0.238,-0.242 0.243,0 0.238,0.242 0.242,0.238 0.238,0.238 0.239,0.243 0.242,0 0.238,-0.243 0.242,-0.238 0.239,0.238 0,0.481 0.242,0.242 0.238,0 0.48,0.48 0.239,-0.242 0.242,0 0.48,-0.48 0.239,0.48 0.242,-0.238 0.238,0 0.238,0.238 0.243,-0.238 0,0.238 0.238,0.481 0.48,0 -0.238,0 0.238,0 0.243,0.718 0,-0.476 0.238,0 0.242,-0.242 0,-0.719 0.238,-0.242 0.239,0 0,0.48 0.242,0 0.238,0.242 0.242,0 0,0.481 0.239,0.238 0,0.481 0.242,-0.243 0.238,-0.476 0.48,-0.481 -0.242,0 0.242,0 0.239,-4.32 0,3.36 0,-2.879 0.242,0.718 0,-0.48 0.238,-1.199 0,0.238 0.242,1.68 0,-0.239 0.239,-0.48 0,0.242 0.242,-0.242 0,-1.199 0.238,-0.243 0,-0.238 0.238,0.238 0.243,-0.476 0,-0.723 0.238,-0.238 0,-0.723 0.242,-0.238 0,-0.719 0.238,-0.242 0,0.723 0,-0.481 0.243,-0.242 0,0.723 0,-0.481 0.238,1.2 0,0.238 0,-0.238 0.242,-0.719 0,-0.481 0,0.239 0.238,0.48 0,-0.238 0,0.957 0,-0.481 0.239,-0.238 0,-2.641 0.242,0.243 0,-0.243"
                     style="fill:none;stroke:#ff0000;stroke-opacity:1;stroke-width:0.499999;stroke-linecap:butt;stroke-linejoin:round;stroke-miterlimit:10;stroke-dasharray:none"
                     id="path478" /></g><g
                   transform="translate(0,479)"
                   id="g480"><path
                     d="m 399.359,-350.441 0.239,-0.239 0,-0.48 0.242,0.48 0.238,0.239 0.238,-0.481 0.243,0.242 0.238,-0.242 0.48,0 0.243,0.242 0,0.239 0.238,-0.239 0.242,0.239 0,-0.481 0.238,0.242 0.481,0.481 0,-0.242 0.238,-0.239 0.242,-0.48 0.239,0 0.242,-0.242 0,-0.239 0.238,0.719 0.238,-0.719 0.242,0.481 0,-0.242 0.239,0.242 0.242,-0.481 0.238,0.239 0.481,-0.239 -0.239,0 0.719,0 0.238,-0.48 0,0.242 0.243,-0.723 0.238,0.243 0.242,-0.243 0.481,0 0.238,-0.238 0.242,-0.48 0.238,-0.961 0.239,-0.719 0.242,0 0.238,-0.723 0,-1.199 0.242,-0.238 0.239,-1.442 0.242,0.723 0.238,6.477 0.238,-7.438 0.242,-1.68 0.239,-0.242 0,-0.238 0.242,-0.48 0.238,0.718 0.481,0 0.242,0.242 0.238,0.719 0.238,-0.238 0.243,0.238 0.238,0.238 0,0.243 0.242,-0.243 0.238,0.243 0.243,0.238 0.238,0 0.242,0.48 0.238,-0.48 0.239,0.723 0.242,0 0.238,-0.243 0.242,0.243 0.239,-0.243 0.48,0.481 0.238,0 0.242,0.242 0.239,-0.242 0.242,0 0.238,-0.481 0.242,-0.238 0.481,0.481 0.238,0 0.238,-0.723 0.243,0.242 0.238,0.719 0.242,-0.238 0.238,0 0.243,-0.481 0.238,0.481 0.242,-0.961 0.477,0 0.242,0.238 0.238,0 0.481,0.48 0.242,0 0.238,-0.718 0.238,0 0.242,0.718 0.239,0.723 0.48,0.238 0.242,0.239 0.239,-0.477 0.242,0.719 0.238,0.719 0.238,0.48 0.243,1.68 0.238,0.961 0.242,0.48 0.238,0.961 0.243,0.238 0.48,0.481 0.477,0.719 0.242,0.242 0.238,0.476 0.242,-0.238 0.239,-0.238 0.718,0 0.481,-0.723 0.242,0.242 0.238,0 0.242,0.239 0.239,0.242 0.242,0.238 0.238,0.238 0.719,0 0.242,-0.476 0.238,0.238 0.243,0 0.238,-0.238 0.242,0.476 0.477,0.481 0.242,0 0.238,0.242 0.242,-0.242 0.239,0.242 0.48,-0.48 0.238,0.238 0.242,0 0.239,-0.719 0.242,0 0.48,-0.719 0.239,-0.48 0.961,0 0.238,-0.481 0.242,0.239 0.719,-0.719 0.242,0 0.238,-1.199 0.239,-0.481 0.48,-0.719 0.242,-0.96 0.239,-1.2 0.242,3.598 0.476,-4.32 0.242,-1.918 0.239,-0.243 0.48,-0.238 0.242,0.238 0.239,-0.476 0.961,0 0.238,0.476 0.48,0 0.243,0.481 0.238,-0.238 0.48,0.48 0.239,0.481 0.242,-0.243 0.48,0.243 0.239,0 0.242,0.238 0.238,0.242 0.48,0.238 0.239,0.239 1.441,0 0.238,0.242 1.442,0 0.242,-0.242 0.238,0.242 0.481,0 0.238,-0.242 0.481,0.242 0.242,0.48 0.238,0.239 0.48,0.242 0.239,0.238 0.48,0.719 0.242,0 0.481,0.722 0.238,0.957 0.481,-0.718 0.238,0.242 0.48,3.84 0.243,1.199 0.718,0 0.239,0.238 0.48,-0.238 0.242,-0.48 0.481,0 0.238,0.238 0.719,0 0.48,-0.238 0.242,0 0.481,0.48 0.238,-0.48 0.961,0 0.238,0.48 0.481,-0.242 0.242,0 0.477,0.242 0.242,-0.48 0.48,-0.243 0.239,0 0.48,-0.238 0.719,-0.719 0.48,0.719 0.242,-0.238 0.481,-0.481 0.238,0.481 0.481,-0.242 0.48,0.242 0.238,0.238 0.481,0.238 0.242,0 0.477,-0.238 0.48,-0.48 0.242,-0.481 0.481,-0.957 0.238,-1.441 0.48,-1.2 0.481,-0.96 0.238,-0.243 0.481,0.481 0.718,-0.719 0.481,-0.719 0.242,-0.242 0.481,-0.238 1.199,0 0.48,-0.481 0.239,0 0.48,0.481 0.48,0.238 0.239,0 0.48,-0.719 0.481,0 0.242,0.481 0.476,0 0.481,-0.242 0.48,0.48 0.243,-0.48 0.957,0 0.242,-0.239 0.48,-0.718 0.481,0.48 1.679,0 0.481,0.477 0.238,2.16 0.481,1.203 0.48,0.476 0.481,0.961 0.48,0.481 0.238,0.719 0.481,0 0.48,0.722 0.481,0.239"
                     style="fill:none;stroke:#ff0000;stroke-opacity:1;stroke-width:0.499999;stroke-linecap:butt;stroke-linejoin:round;stroke-miterlimit:10;stroke-dasharray:none"
                     id="path482" /></g><g
                   transform="translate(0,479)"
                   id="g484"><path
                     d="m 360.238,-355.961 0.239,-0.48 0,-0.719 0.242,0 0,0.48 0.238,0.481 0,0.238 0.242,0.238 0,-0.238 0,0.238 0.239,0 0,0.481 0.242,-0.238 0,-0.719 0.238,-0.242 0,0.718 0,-0.238 0.238,0 0.242,-0.238 0,0.238 0,-0.238 0.239,-0.242 0,0.242 0.242,-0.723 0,0.723 0.238,0.238 0,-0.48 0,0.242 0.242,-0.242 0,0.48 0.239,0 0,-0.719 0,0.719 0.242,-0.238 0,0.476 0,-0.238 0.238,-0.238 0,-0.242 0.238,0.242 0,-0.242 0,0.242 0.243,0.238 0,0.961 0.238,0.238 0,0.242 0.242,-0.48 0,0.238 0,-0.48 0.238,0.242 0,0.961 0.243,0.238 0,0.238 0,-0.238 0.238,0.719 0,-0.238 0,0.238 0.242,0.961 0,-0.481 0,0.723 0.238,-0.723 0,-0.718 0.239,-0.243 0,-0.476 0,0.719 0,-0.243 0.242,0.723 0,3.36 0.238,0.238 0,1.441 0.242,0.238 0,0.243 0.239,0.238 0,-0.238 0,0.238 0.242,-0.719 0,-0.961 0.476,-0.48 -0.238,0 0.238,0.722 0.242,0.239 0.239,-0.239 0,-0.242 0,0.242 0.242,-0.242 0,-0.238 0.48,0.48 0.239,-0.722 0,0.48 0.242,-0.238 0,0.48 0.238,0 0,-0.48 0.238,-0.48 0,0.238 0,-0.481 0.243,0.481 0,0.48 0.238,0 0,-0.48 0.242,0.242 0,-0.48 0,0.48 0.238,-0.242 0,-0.238 0,0.48 0.243,-0.242 0,0.722 0.238,-0.242 0,-0.718 0,0.48 0.242,0.238 0,-0.238 0,0.238 0.238,-0.238 0,-0.242 0,0.961 0.239,-0.481 0,0.723 0.242,-0.242 0,-0.719 0.238,0.48 0,0.719 0.242,-0.48 0,0.242 0,-0.481 0.481,-0.48 -0.242,0 0.242,0.719 0.476,-0.719 0,-0.242 0.481,0 0,0.48 0.242,-0.238 0,0.48 0.238,-0.242 0,0.242 0.242,-0.48 0,0.719 0.239,-0.481 0,1.199 0.242,-0.238 0.476,-0.48 0,-0.481 0,0.481 0.243,-0.239 0,0.239 0,-0.239 0.238,0.239 0,0.48 0.48,0 0,0.238 0.243,-0.238 0,0.481 0.238,-0.719 0,0.476 0.242,0.243 0,-0.243 0.238,0.243 0,0.238 0.239,-0.238 0,-0.481 0,0.238 0.242,-0.238 0.238,0.481 0,0.718 0.242,-0.238 0,0.238 0,-0.48 0.239,-0.238 0,-0.243 0.242,-0.238 0.238,-0.238 0,0.957 0.238,-0.238 0,0.238 0,-0.238 0.242,0.48 0,-0.48 0,0.48 0.239,-0.242 0,0.242 0.242,-0.242 0,-0.719 0.238,-6.719 0,0.239 0.242,5.039 0,-4.559 0,3.36 0.239,-1.2 0,1.68 0.242,-0.48 0,-0.961 0.238,-0.477 0,-0.242 0.238,0.242 0,-0.48 0.243,-0.243 0,-0.48 0.238,-0.238 0,-0.481 0.242,-0.238 0.238,-0.242 0.243,0 0.48,0.48 -0.242,0 0.242,0.238 0.719,-0.718 -0.242,0 0.242,0 0.238,0.718 0,-0.238 0.242,-0.48 0.239,-0.239 0,-0.242 0.242,-0.48 0,-0.481 0.238,0.481 0,-0.238 0.238,-0.243 0,-0.476 0.242,-0.481 0,0.239 0.239,0.242 0.48,0.238 0,-0.48 0.242,0.242 0,-0.242 0.239,0.242 0,0.476 0.242,-0.238 0,0.238 0.238,-0.476 0,0.238 0,-0.719 0.481,0.239 0,-0.481 0.238,-0.238 0.242,0.719 0,-0.239 0.481,0 -0.243,0 0.243,0 0.48,-0.48 0,-0.242 0.238,0 0.239,0.242 0.242,0.238 0,0.242 0.238,0.239 0,-0.481 0.242,-0.238 0.239,-0.242 0,-0.477 0.242,0.238 0.238,0.239 0.238,0 0.242,0.242 0,-0.242 0.239,0.242 0.242,0 0.238,-0.242 0.242,0.242 0,-0.481 0.239,0.481 0.48,0 0,0.48 0.238,-0.48 0.243,0 0,0.48 0.238,0.481 0,0.238 0.242,0.481 0.238,1.441 0,-2.402 0.243,2.878 0,0.243 0.238,0.48 0.242,0.961 0,0.238 0.238,0.481 0.239,0.238 0,0.242 0.242,0.481 0,0.238 0.238,-0.48 0.481,0 -0.239,0 0.239,0 0.242,0.48 0,-0.238 0.238,0.476 0.238,0.243 0.242,-0.481 0.239,-0.238 0.242,0 0.238,-0.242 0.242,0"
                     style="fill:none;stroke:#ff0000;stroke-opacity:1;stroke-width:0.499999;stroke-linecap:butt;stroke-linejoin:round;stroke-miterlimit:10;stroke-dasharray:none"
                     id="path486" /></g><g
                   transform="translate(0,479)"
                   id="g488"><path
                     d="m 349.199,-350.68 0,0.481 0,-0.481 0.239,0 0,0.719 0.242,-0.238 0,0.957 0.238,-0.238 0,-0.481 0,0.481 0.238,-0.243 0,-0.238 0,0.238 0.242,0 0,-0.476 0.239,0 0,-0.723 0.242,-1.437 0,-1.922 0.238,-0.239 0,1.438 0,-0.238 0.242,-0.243 0,-0.238 0.239,-0.961 0,-0.48 0.242,-0.238 0.238,-0.243 0,-0.476 0.481,-0.481 -0.243,0 0.243,0 0.238,-0.242 0,-0.48 0.242,0.242 0.481,0 -0.243,0 0.243,0.238 0.238,-0.48 0,-0.477 0.242,0.238 0,0.239 0.238,0.242 0,0.48 0.239,-0.242 0,-0.238 0.242,-0.242 0,0.242 0,-0.481 0.238,0.481 0,-0.242 0,0.242 0.481,-0.481 0,-0.48 0.242,0.242 0,0.477 0.238,0 0,-0.477 0.238,0 0.242,-0.242 0,0.242 0.239,0.477 0,0.48 0.242,-0.238 0,0.48 0,-0.242 0.238,0.242 0,-0.48 0.242,0.238 0,0.242 0.481,0 0,0.957 0.238,-0.476 0,0.238 0.238,-0.238 0,0.957 0.243,-0.238 0,-0.243 0.238,0.481 0,-1.199 0.242,0.242 0,-0.242 0,0.961 0.238,-0.243 0,-0.476 0,0.719 0,-0.243 0.243,0.243 0,-0.481 0,0.719 0,-0.238 0.238,-0.243 0,-0.238 0,0.481 0,-0.243 0.242,-0.476 0,-0.723 0,2.402 0.238,-0.242 0,-1.199"
                     style="fill:none;stroke:#ff0000;stroke-opacity:1;stroke-width:0.499999;stroke-linecap:butt;stroke-linejoin:round;stroke-miterlimit:10;stroke-dasharray:none"
                     id="path490" /></g><g
                   transform="translate(0,479)"
                   id="g492"><path
                     d="m 673.918,-364.121 0.48,0 0.481,0.48 0.48,0.719 0.481,0.242 0.476,0 0.481,0.239 0.48,0.242 0.481,0 0.48,-0.242 1.442,0 0.476,-0.239 0.481,0.239 0.961,0 0.48,-0.481 0.481,-0.238 0.48,-0.242 0.481,-0.719 0.48,-0.961 0.477,-0.719 0.48,-0.48 0.481,-1.199 0.48,-1.922 0.48,0.961 0.481,2.402 0.48,2.637 0.719,2.64 0.481,2.403 0.48,1.437 0.481,0.723 0.48,1.199 0.477,0 0.48,0.48 0.723,0.481 0.957,1.199 0.48,0.238 0.481,0.243 0.48,-0.243 0.719,0 0.48,-0.48 0.481,0 0.48,-0.481 0.481,0.481 0.719,0 0.48,-0.957 0.48,0 0.481,-0.961 0.48,-1.441 0.719,-0.239 0.481,-2.64 0.48,-2.16 0.481,7.679 0.718,-10.558 0.481,0.238 0.48,0.961 0.481,1.437 0.718,0 0.481,0.723 0.48,0.48 0.719,0.481 0.481,0 0.48,0.719 0.481,-0.481 0.718,0.238 0.961,0 0.719,0.481 0.48,0 0.481,0.242 0.719,0 0.48,0.481 0.481,-0.481 0.718,0.481 0.481,-0.723 0.48,0.48 0.481,0.243 0.719,0.238 0.48,4.558 0.48,-0.957 0.719,1.438 0.481,0.723 0.48,-0.243 0.719,0.723 0.961,0 0.719,0.238 0.48,0 0.723,-0.48 0.476,0.242 0.481,0.238 0.722,0.239 0.481,0 0.719,0.48 0.48,0 0.481,0.481 0.718,0 0.481,0.48 0.48,0.238 0.719,0.243 0.48,0.238 0.719,0.722 0.481,0 0.48,-0.242 0.719,-4.558 0.48,0.718 0.481,-1.918 0.719,-1.203 0.48,-0.238 0.723,-0.961 0.476,0.242 1.203,-0.242 0.481,-0.238 2.398,0 0.481,0.238 1.199,0 0.719,0.242 0.48,0.239 1.199,0 0.481,0.48 0.723,0.719 0.48,1.203 0.477,1.68 0.722,-1.204 0.481,4.801 1.199,0 0.48,0.242 0.719,-0.722 0.481,-0.238 1.199,0 0.719,-0.243 0.48,0.481 0.723,-0.238 0.476,-0.481 0.481,-0.238 0.722,0.476 0.481,0 0.719,-0.476 0.48,0.476 0.481,0.723 0.718,0.48 0.481,0.481 0.719,-0.481 0.48,0 0.48,0.481 0.719,0.238 0.481,-0.719 0.718,-4.562 0.481,1.441 0.48,-2.398 0.723,-1.203 0.477,-0.238 0.722,-0.243 0.481,-0.718 0.476,-0.239 0.723,0 0.48,0.239 0.719,0 0.481,-0.719 0.48,0 0.719,0.48 0.48,-0.242 0.719,0.481 0.481,0.242 0.48,0.476 0.719,0.481 0.48,0.961 0.723,0.718 0.476,0.723 0.481,0.961 0.723,0.957 0.48,2.402 0.477,1.68 0.722,-4.562 0.481,7.922 0.476,-1.922 0.723,-0.477 0.48,-0.961 0.481,0 0.719,-0.242 0.48,-0.481 0.481,0 0.718,-0.238 0.481,-0.238 1.199,0 0.48,0.238 0.719,0 0.481,0.238 0.48,0 0.719,0.243 0.48,0.48 0.481,0.719 0.719,0.961 0.48,0 0.481,1.437 0.718,1.684 0.481,1.199 0.48,2.399 0.481,-5.758 0.718,2.16 0.481,-3.84 0.48,-2.883 0.481,-1.199 0.719,-1.68 0.48,-0.48 0.481,-0.719 0.718,-0.723 0.961,-0.476 0.481,-0.242 0.718,0 0.481,-0.239 0.961,0 0.719,-0.242 0.48,0.242 0.481,0.719 0.718,0.481 0.481,0.718 0.48,0.723 0.481,0.719 0.718,1.68 0.481,1.679 0.48,2.399 0.481,4.32 0.719,2.16 1.441,0.961 0.719,-2.16 0.48,-1.442 0.481,-1.199 0.48,-0.48 0.719,-0.481 0.48,-0.718 0.481,0 0.48,-0.481 0.481,-0.238 0.48,0 0.481,-0.242 0.476,0.242 0.481,0.238 0.48,-0.238 0.481,0.238 0.48,0 0.481,-0.238 0.48,0.961 0.481,0.476 0.238,0 0.48,0.481 0.481,0.242 0.48,0.719 0.481,1.199 0.238,1.203 0.48,1.918 0.481,2.641 0.238,1.679 0.481,-2.398 0.48,-1.684 0.238,1.203 0.481,-3.839 0.242,-2.641 0.481,-1.922 0.238,-1.68 0.48,-1.437 0.481,-0.961 0.238,-0.723 0.481,-0.476 0.242,-0.481 0.476,-0.48 0.723,0 0.238,-0.481 0.481,-0.238 0.242,0.238 0.476,0.239 0.243,-0.239 0.48,0.239 0.238,-0.239 0.481,-0.238 0.242,0 0.477,-0.242 0.242,0.719 0.48,0 0.239,0.242 0.48,0.238 0.238,1.199 0.242,0 0.481,0.961 0.48,0.242 5.52,7.2 1.437,-2.403"
                     style="fill:none;stroke:#00ff00;stroke-opacity:1;stroke-width:0.499999;stroke-linecap:butt;stroke-linejoin:round;stroke-miterlimit:10;stroke-dasharray:none"
                     id="path494" /></g><g
                   transform="translate(0,479)"
                   id="g496"><path
                     d="m 602.879,-345.641 0,-0.238 0,0.477 0.238,0.48 0,-0.957 0.242,-0.242 0,0.242 0,-0.242 0.239,-0.238 0,-0.481 0.242,0.238 0,0.481 0.238,0.242 0,0.238 0,-0.961 0.238,-0.718 0,0.238 0,-0.238 0.243,-0.243 0,-0.238 0,0.481 0,-0.243 0.238,0.481 0,-0.238 0,0.238 0.242,-0.238 0,1.199 0,-0.481 0.238,-0.238 0,-0.242 0.243,0.723 0,-0.243 0,0.481 0.238,0.242 0,0.238 0,-0.238 0.242,-0.242 0,-0.238 0.238,0.718 0,-0.238 0,0.719 0.239,0.48 0,-0.242 0.242,0.242 0,0.481 0,-0.723 0.48,0 0,-0.238 0.239,0.238 0,-0.48 0.242,0.242 0,-0.242 0,0.242 0.238,0.48 0,0.239 0,-0.239 0.238,0.239 0,0.242 0.242,-0.242 0,0.718 0.239,0.243 0,-0.243 0,0.481 0.242,0.242 0,-0.242 0.238,-0.719 0,-0.238 0,0.238 0.242,0.238 0,0.481 0.239,0 0,-0.719 0.242,0.238 0,0.723 0.238,0.238 0,0.723 0,-0.242 0.238,0.242 0,0.957 0.481,0 1.922,-8.16 0.238,2.883 0.961,5.039 0,-1.2 0.238,-1.203 0,-0.476 0.242,-0.723 0,-0.238 0.239,-0.481 0,-0.961 0.242,-0.961 0,-0.476 0.238,-0.242 0.481,-0.961 0,-0.481 0.242,-0.238 0,-0.238 0.476,-0.723 0,-0.48 0.243,0.48 0,-0.48 0.238,-0.239 0.242,-0.48 0,-0.481 0.238,-0.238 0,0.238 0.243,-0.718 0,0.238 0.238,-0.238 0,-0.243 0.242,-0.718 0.238,-0.239 0.239,-0.242 0,0.242 0.242,0.239 0,-0.239 0.238,-0.48 0.242,0 0.239,-0.242 0.48,0.48 0,-0.238 0.238,-0.48 0.242,0.238 0,-0.238 0.239,0.48 0.242,0.238 0.238,-0.238 0.242,0.48 0.239,-0.48 0,0.238 0.242,-0.238 0.238,-0.48 0,0.48 0.238,0 0.243,-0.48 0.238,-0.243 0.242,0 0.238,0.481 0,0.242 0.243,-0.242 0.238,0.242 0.242,-0.48 0.238,-0.481 0.239,0.238 0.242,0.481 0.238,-0.238 0.242,0.238 0,-0.238 0.239,-0.243 0.48,0 0.238,-0.238 0,-0.719 0.242,0.481 0.239,-0.242 0.242,0.48 0.48,0.481 0.239,0.718 0.242,0.481 0.238,0.718 0.238,0.481 0.243,-0.719 0.238,1.199 0,1.2 0.242,0.722 0.238,0.719 0.243,0.238 0.238,-0.238 0.242,-0.238 0.238,0.238 0.239,-0.238 0.242,0.238 0.238,0.238 0.242,0.481 0.239,-0.719 0.242,0.238 0.238,-0.238 0.238,-0.48 0.481,0.48 0.242,0.719 0.238,-0.481 0.242,0 0.481,-0.238 0.238,0.238 0.238,0.243 0.243,-0.243 0.48,0 0.238,0.243 0.243,-0.243 0.238,0.243 0.242,-0.481 0.238,0.238 0.239,-0.238 0.242,0 0.238,-0.238 0.242,0.238 0.239,0.238 0.48,-0.238 0.238,-0.48 0.242,0 0.239,-0.961 0.242,-0.239 0.238,0.239 0.242,0 0.239,-0.239 0.48,-0.238 0.238,0.477 0.243,0.242 0.238,0 0.48,-1.199 0.243,0 0.238,-0.723 0.242,-0.481 0.477,-1.437 0.242,-0.723 0.238,-0.238 0.481,-0.238 0.242,-1.922 0.238,-1.442 0.238,0 0.481,0.243 0.242,0 0.238,0.48 0.723,0 0.238,-0.48 0.481,-0.481 0.238,0.238 0.242,0 0.481,-0.476 0.238,0.476 0.48,0.243 0.719,0.718 0.242,0 0.239,-0.48 0.48,-0.238 0.238,-0.243 0.481,0 0.242,-0.476 0.48,-0.242 0.239,0.242 0.48,-0.242 0.238,0 0.481,-0.481 0.242,0.242 0.481,-0.48 0.238,-0.961 0.48,-0.238 0.481,0 0.238,-0.961 0.481,-0.719 0.242,-0.961 0.476,-0.48 0.481,-1.442 0.242,0.481 0.961,2.402 0.238,2.156 0.481,1.684 0.238,1.68 0.48,1.437 0.481,0.242 0.242,0.957 0.477,0.243 0.48,0.718 0.723,0.723 1.199,0 0.48,-0.242 0.481,0.718 0.476,-0.238 0.243,0 0.48,-0.238 0.481,0.238 0.48,-0.48 0.477,0.48 0.242,0.481 0.48,0.48 0.481,-0.723 0.476,0.243 0.242,-0.481 0.481,-0.238 0.48,-0.723 0.481,-0.961 0.476,-1.437 0.481,-1.68 0.48,-2.16 0.481,-2.402 0.48,1.441 0.239,-4.32 0.48,0 0.481,1.199 0.48,0.961"
                     style="fill:none;stroke:#00ff00;stroke-opacity:1;stroke-width:0.499999;stroke-linecap:butt;stroke-linejoin:round;stroke-miterlimit:10;stroke-dasharray:none"
                     id="path498" /></g><g
                   transform="translate(0,479)"
                   id="g500"><path
                     d="m 594.719,-358.602 0,0.481 0,-0.238 0.238,0.238 0,-0.481 0,1.2 0,-0.239 0.242,-0.238 0,1.438 0,-0.481 0.239,0.481 0,-0.239 0,0.719 0.242,-0.238 0,-0.961 0,1.199 0,-0.48 0.238,0.242 0,1.199 0.238,0.238 0,0.723 0.242,0 0,0.957 0,-0.481 0.239,0.481 0,-0.719 0,1.922 0,-0.961 0.242,0.238 0,-0.238 0,0.961 0.238,0.238 0,1.2 0.242,0.48 0,-0.238 0,0.957 0.239,0.242 0,1.918 0.242,-0.238 0,1.441 0.238,0.238 0,-5.281 0.238,0.242 0,0.481 0,-2.883 0.243,0.48 0,-0.48 0,2.16 0.238,0.242 0,0.957 0,-1.437 0.242,-0.242 0,-0.719 0,9.359 0.238,0.242 0,-0.96 0.243,-0.243 0,-0.238 0,0.719 0.238,-0.238 0,-0.719 0.242,-0.242 0,-0.481 0,0.481 0.238,0.242 0,-1.922 0.239,0 0,-0.719 0,0.719 0.242,-0.238 0,-0.243 0,0.481 0.238,-0.238 0,0.238 0,-0.961 0.242,0.242 0,-0.242 0.239,0.242 0,-0.242 0,0.723 0.242,0.238 0,-0.481 0.238,-0.48 0,-0.481 0,0.961 0.238,0.243 0,0.238 0,-0.719 0.242,0.238 0,0.481 0,-0.238 0.239,0.238 0,-0.238 0,0.48 0.242,0.238"
                     style="fill:none;stroke:#00ff00;stroke-opacity:1;stroke-width:0.499999;stroke-linecap:butt;stroke-linejoin:round;stroke-miterlimit:10;stroke-dasharray:none"
                     id="path502" /></g><g
                   transform="translate(0,479)"
                   id="g504"><path
                     d="m 597.359,-367.242 -20.402,-20.16"
                     style="fill:none;stroke:#000000;stroke-opacity:1;stroke-width:0.499999;stroke-linecap:butt;stroke-linejoin:round;stroke-miterlimit:10;stroke-dasharray:6,6;stroke-dashoffset:0"
                     id="path506" /></g></g></g></g></g></g></g><g
       id="g508"><g
         id="g510"
         transform="translate(0,-0.3992)"><g
           id="g512" /><g
           id="g518"><g
             clip-path="url(#clipPath514)"
             id="g520"><g
               id="g522"><text
                 transform="matrix(1,0,0,-1,576.95915,87.99929)"
                 id="text524"><tspan
                   style="fill:#000000;fill-opacity:1;fill-rule:nonzero;stroke:none;font-family:Arial;font-variant:normal;font-weight:normal;font-size:10.000008;writing-mode:lr;-inkscape-font-specification:ArialMT"
                   x="0"
                   y="0"
                   id="tspan526">1</tspan></text>
</g></g></g></g></g></g></svg>