<?xml version="1.0" encoding="UTF-8" standalone="no"?>
<!-- Created with Inkscape (http://www.inkscape.org/) -->

<svg
   xmlns:dc="http://purl.org/dc/elements/1.1/"
   xmlns:cc="http://creativecommons.org/ns#"
   xmlns:rdf="http://www.w3.org/1999/02/22-rdf-syntax-ns#"
   xmlns:svg="http://www.w3.org/2000/svg"
   xmlns="http://www.w3.org/2000/svg"
   xmlns:sodipodi="http://sodipodi.sourceforge.net/DTD/sodipodi-0.dtd"
   xmlns:inkscape="http://www.inkscape.org/namespaces/inkscape"
   id="svg2"
   version="1.1"
   inkscape:version="0.48.4 r9939"
   width="1061.25"
   height="598.75"
   xml:space="preserve"
   sodipodi:docname="October_11_Particle_2_run_2_winding.svg"><metadata
     id="metadata8"><rdf:RDF><cc:Work
         rdf:about=""><dc:format>image/svg+xml</dc:format><dc:type
           rdf:resource="http://purl.org/dc/dcmitype/StillImage" /><dc:title /></cc:Work></rdf:RDF></metadata><defs
     id="defs6"><clipPath
       clipPathUnits="userSpaceOnUse"
       id="clipPath18"><path
         d="m 2.66797,1.83203 3534.33003,0 0,1994.16997 -3534.33003,0 0,-1994.16997 z"
         id="path20" /></clipPath><clipPath
       clipPathUnits="userSpaceOnUse"
       id="clipPath178"><path
         d="m 280.668,1859.83 3216.992,0 0,-709 -3216.992,0 0,709 z"
         id="path180" /></clipPath><clipPath
       clipPathUnits="userSpaceOnUse"
       id="clipPath206"><path
         d="m 2,1 0,1995 3535,0 L 3537,1 2,1 z"
         id="path208" /></clipPath><clipPath
       clipPathUnits="userSpaceOnUse"
       id="clipPath362"><path
         d="m 280.668,876.832 3216.992,0 0,-709 -3216.992,0 0,709 z"
         id="path364" /></clipPath><clipPath
       clipPathUnits="userSpaceOnUse"
       id="clipPath376"><path
         d="m 2,1 0,1995 3535,0 L 3537,1 2,1 z"
         id="path378" /></clipPath><clipPath
       clipPathUnits="userSpaceOnUse"
       id="clipPath396"><path
         d="m 280.668,876.832 3216.992,0 0,-709 -3216.992,0 0,709 z"
         id="path398" /></clipPath><clipPath
       clipPathUnits="userSpaceOnUse"
       id="clipPath418"><path
         d="m 2,1 0,1995 3535,0 L 3537,1 2,1 z"
         id="path420" /></clipPath><clipPath
       clipPathUnits="userSpaceOnUse"
       id="clipPath436"><path
         d="m 280.668,876.832 3216.992,0 0,-709 -3216.992,0 0,709 z"
         id="path438" /></clipPath><clipPath
       clipPathUnits="userSpaceOnUse"
       id="clipPath446"><path
         d="m 2,1 0,1995 3535,0 L 3537,1 2,1 z"
         id="path448" /></clipPath><clipPath
       clipPathUnits="userSpaceOnUse"
       id="clipPath460"><path
         d="m 0,0 3537,0 0,1996 L 0,1996 0,0 z"
         id="path462" /></clipPath></defs><sodipodi:namedview
     pagecolor="#ffffff"
     bordercolor="#666666"
     borderopacity="1"
     objecttolerance="10"
     gridtolerance="10"
     guidetolerance="10"
     inkscape:pageopacity="0"
     inkscape:pageshadow="2"
     inkscape:window-width="1366"
     inkscape:window-height="705"
     id="namedview4"
     showgrid="false"
     inkscape:zoom="0.78830894"
     inkscape:cx="536.67526"
     inkscape:cy="259.79501"
     inkscape:window-x="-8"
     inkscape:window-y="-8"
     inkscape:window-maximized="1"
     inkscape:current-layer="g10" /><g
     id="g10"
     inkscape:groupmode="layer"
     inkscape:label="October_11_Particle_2_run_2_winding"
     transform="matrix(1.25,0,0,-1.25,0,598.75)"><g
       id="g12"
       transform="scale(0.24,0.24)"><g
         id="g14"><g
           id="g16"
           clip-path="url(#clipPath18)"><path
             d="m 2.66797,1.83203 3534.33003,0 0,1994.16997 -3534.33003,0 0,-1994.16997 z"
             style="fill:#ffffff;fill-opacity:1;fill-rule:nonzero;stroke:none"
             id="path22" /><path
             d="m 280.668,1151.83 3215,0 0,708 -3215,0 0,-708 z"
             style="fill:#ffffff;fill-opacity:1;fill-rule:evenodd;stroke:none"
             id="path24" /><path
             d="m 280.668,1151.83 0,708 3214.992,0 0,-708 -3214.992,0"
             style="fill:none;stroke:#ffffff;stroke-opacity:1;stroke-width:2.08333;stroke-linecap:butt;stroke-linejoin:round;stroke-miterlimit:10;stroke-dasharray:none"
             id="path26" /><path
             d="m 280.668,1151.83 3214.992,0"
             style="fill:none;stroke:#000000;stroke-opacity:1;stroke-width:2.08333;stroke-linecap:butt;stroke-linejoin:round;stroke-miterlimit:10;stroke-dasharray:none"
             id="path28" /><path
             d="m 280.668,1151.83 0,708"
             style="fill:none;stroke:#000000;stroke-opacity:1;stroke-width:2.08333;stroke-linecap:butt;stroke-linejoin:round;stroke-miterlimit:10;stroke-dasharray:none"
             id="path30" /><path
             d="m 280.668,1151.83 0,33"
             style="fill:none;stroke:#000000;stroke-opacity:1;stroke-width:2.08333;stroke-linecap:butt;stroke-linejoin:round;stroke-miterlimit:10;stroke-dasharray:none"
             id="path32" /><g
             id="g34"
             transform="scale(4.16667,4.16667)"><text
   transform="matrix(1,0,0,-1,63.0403,258.68)"
   id="text36"><tspan
     style="fill:#000000;fill-opacity:1;fill-rule:nonzero;stroke:none;font-family:Helvetica;font-variant:normal;font-weight:normal;font-size:16;writing-mode:lr;-inkscape-font-specification:Helvetica"
     x="0"
     y="0"
     id="tspan38">0</tspan></text>

</g><path
             d="m 597.664,1151.83 0,33"
             style="fill:none;stroke:#000000;stroke-opacity:1;stroke-width:2.08333;stroke-linecap:butt;stroke-linejoin:round;stroke-miterlimit:10;stroke-dasharray:none"
             id="path40" /><g
             id="g42"
             transform="scale(4.16667,4.16667)"><text
   transform="matrix(1,0,0,-1,123.52,258.68)"
   id="text44"><tspan
     style="fill:#000000;fill-opacity:1;fill-rule:nonzero;stroke:none;font-family:Helvetica;font-variant:normal;font-weight:normal;font-size:16;writing-mode:lr;-inkscape-font-specification:Helvetica"
     x="0 8.896 13.344 22.24 31.136"
     y="0"
     sodipodi:role="line"
     id="tspan46">0.005</tspan></text>

</g><path
             d="m 915.664,1151.83 0,33"
             style="fill:none;stroke:#000000;stroke-opacity:1;stroke-width:2.08333;stroke-linecap:butt;stroke-linejoin:round;stroke-miterlimit:10;stroke-dasharray:none"
             id="path48" /><g
             id="g50"
             transform="scale(4.16667,4.16667)"><text
   transform="matrix(1,0,0,-1,204.399,258.68)"
   id="text52"><tspan
     style="fill:#000000;fill-opacity:1;fill-rule:nonzero;stroke:none;font-family:Helvetica;font-variant:normal;font-weight:normal;font-size:16;writing-mode:lr;-inkscape-font-specification:Helvetica"
     x="0 8.896 13.344 22.24"
     y="0"
     sodipodi:role="line"
     id="tspan54">0.01</tspan></text>

</g><path
             d="m 1232.66,1151.83 0,33"
             style="fill:none;stroke:#000000;stroke-opacity:1;stroke-width:2.08333;stroke-linecap:butt;stroke-linejoin:round;stroke-miterlimit:10;stroke-dasharray:none"
             id="path56" /><g
             id="g58"
             transform="scale(4.16667,4.16667)"><text
   transform="matrix(1,0,0,-1,275.919,258.68)"
   id="text60"><tspan
     style="fill:#000000;fill-opacity:1;fill-rule:nonzero;stroke:none;font-family:Helvetica;font-variant:normal;font-weight:normal;font-size:16;writing-mode:lr;-inkscape-font-specification:Helvetica"
     x="0 8.896 13.344 22.24 31.136"
     y="0"
     sodipodi:role="line"
     id="tspan62">0.015</tspan></text>

</g><path
             d="m 1550.66,1151.83 0,33"
             style="fill:none;stroke:#000000;stroke-opacity:1;stroke-width:2.08333;stroke-linecap:butt;stroke-linejoin:round;stroke-miterlimit:10;stroke-dasharray:none"
             id="path64" /><g
             id="g66"
             transform="scale(4.16667,4.16667)"><text
   transform="matrix(1,0,0,-1,356.799,258.68)"
   id="text68"><tspan
     style="fill:#000000;fill-opacity:1;fill-rule:nonzero;stroke:none;font-family:Helvetica;font-variant:normal;font-weight:normal;font-size:16;writing-mode:lr;-inkscape-font-specification:Helvetica"
     x="0 8.896 13.344 22.24"
     y="0"
     sodipodi:role="line"
     id="tspan70">0.02</tspan></text>

</g><path
             d="m 1867.66,1151.83 0,33"
             style="fill:none;stroke:#000000;stroke-opacity:1;stroke-width:2.08333;stroke-linecap:butt;stroke-linejoin:round;stroke-miterlimit:10;stroke-dasharray:none"
             id="path72" /><g
             id="g74"
             transform="scale(4.16667,4.16667)"><text
   transform="matrix(1,0,0,-1,428.319,258.68)"
   id="text76"><tspan
     style="fill:#000000;fill-opacity:1;fill-rule:nonzero;stroke:none;font-family:Helvetica;font-variant:normal;font-weight:normal;font-size:16;writing-mode:lr;-inkscape-font-specification:Helvetica"
     x="0 8.896 13.344 22.24 31.136"
     y="0"
     sodipodi:role="line"
     id="tspan78">0.025</tspan></text>

</g><path
             d="m 2185.66,1151.83 0,33"
             style="fill:none;stroke:#000000;stroke-opacity:1;stroke-width:2.08333;stroke-linecap:butt;stroke-linejoin:round;stroke-miterlimit:10;stroke-dasharray:none"
             id="path80" /><g
             id="g82"
             transform="scale(4.16667,4.16667)"><text
   transform="matrix(1,0,0,-1,509.199,258.68)"
   id="text84"><tspan
     style="fill:#000000;fill-opacity:1;fill-rule:nonzero;stroke:none;font-family:Helvetica;font-variant:normal;font-weight:normal;font-size:16;writing-mode:lr;-inkscape-font-specification:Helvetica"
     x="0 8.896 13.344 22.24"
     y="0"
     sodipodi:role="line"
     id="tspan86">0.03</tspan></text>

</g><path
             d="m 2502.66,1151.83 0,33"
             style="fill:none;stroke:#000000;stroke-opacity:1;stroke-width:2.08333;stroke-linecap:butt;stroke-linejoin:round;stroke-miterlimit:10;stroke-dasharray:none"
             id="path88" /><g
             id="g90"
             transform="scale(4.16667,4.16667)"><text
   transform="matrix(1,0,0,-1,580.719,258.68)"
   id="text92"><tspan
     style="fill:#000000;fill-opacity:1;fill-rule:nonzero;stroke:none;font-family:Helvetica;font-variant:normal;font-weight:normal;font-size:16;writing-mode:lr;-inkscape-font-specification:Helvetica"
     x="0 8.896 13.344 22.24 31.136"
     y="0"
     sodipodi:role="line"
     id="tspan94">0.035</tspan></text>

</g><path
             d="m 2820.66,1151.83 0,33"
             style="fill:none;stroke:#000000;stroke-opacity:1;stroke-width:2.08333;stroke-linecap:butt;stroke-linejoin:round;stroke-miterlimit:10;stroke-dasharray:none"
             id="path96" /><g
             id="g98"
             transform="scale(4.16667,4.16667)"><text
   transform="matrix(1,0,0,-1,661.599,258.68)"
   id="text100"><tspan
     style="fill:#000000;fill-opacity:1;fill-rule:nonzero;stroke:none;font-family:Helvetica;font-variant:normal;font-weight:normal;font-size:16;writing-mode:lr;-inkscape-font-specification:Helvetica"
     x="0 8.896 13.344 22.24"
     y="0"
     sodipodi:role="line"
     id="tspan102">0.04</tspan></text>

</g><path
             d="m 3138.66,1151.83 0,33"
             style="fill:none;stroke:#000000;stroke-opacity:1;stroke-width:2.08333;stroke-linecap:butt;stroke-linejoin:round;stroke-miterlimit:10;stroke-dasharray:none"
             id="path104" /><g
             id="g106"
             transform="scale(4.16667,4.16667)"><text
   transform="matrix(1,0,0,-1,733.359,258.68)"
   id="text108"><tspan
     style="fill:#000000;fill-opacity:1;fill-rule:nonzero;stroke:none;font-family:Helvetica;font-variant:normal;font-weight:normal;font-size:16;writing-mode:lr;-inkscape-font-specification:Helvetica"
     x="0 8.896 13.344 22.24 31.136"
     y="0"
     sodipodi:role="line"
     id="tspan110">0.045</tspan></text>

</g><path
             d="m 3455.66,1151.83 0,33"
             style="fill:none;stroke:#000000;stroke-opacity:1;stroke-width:2.08333;stroke-linecap:butt;stroke-linejoin:round;stroke-miterlimit:10;stroke-dasharray:none"
             id="path112" /><g
             id="g114"
             transform="scale(4.16667,4.16667)"><text
   transform="matrix(1,0,0,-1,813.999,258.68)"
   id="text116"><tspan
     style="fill:#000000;fill-opacity:1;fill-rule:nonzero;stroke:none;font-family:Helvetica;font-variant:normal;font-weight:normal;font-size:16;writing-mode:lr;-inkscape-font-specification:Helvetica"
     x="0 8.896 13.344 22.24"
     y="0"
     sodipodi:role="line"
     id="tspan118">0.05</tspan></text>

</g><path
             d="m 280.668,1151.83 32,0"
             style="fill:none;stroke:#000000;stroke-opacity:1;stroke-width:2.08333;stroke-linecap:butt;stroke-linejoin:round;stroke-miterlimit:10;stroke-dasharray:none"
             id="path120" /><g
             id="g122"
             transform="scale(4.16667,4.16667)"><text
   transform="matrix(1,0,0,-1,46.2403,270.68)"
   id="text124"><tspan
     style="fill:#000000;fill-opacity:1;fill-rule:nonzero;stroke:none;font-family:Helvetica;font-variant:normal;font-weight:normal;font-size:16;writing-mode:lr;-inkscape-font-specification:Helvetica"
     x="0 9.344"
     y="0"
     sodipodi:role="line"
     id="tspan126">−1</tspan></text>

</g><path
             d="m 280.668,1328.83 32,0"
             style="fill:none;stroke:#000000;stroke-opacity:1;stroke-width:2.08333;stroke-linecap:butt;stroke-linejoin:round;stroke-miterlimit:10;stroke-dasharray:none"
             id="path128" /><g
             id="g130"
             transform="scale(4.16667,4.16667)"><text
   transform="matrix(1,0,0,-1,33.0403,313.16)"
   id="text132"><tspan
     style="fill:#000000;fill-opacity:1;fill-rule:nonzero;stroke:none;font-family:Helvetica;font-variant:normal;font-weight:normal;font-size:16;writing-mode:lr;-inkscape-font-specification:Helvetica"
     x="0 9.344 18.24 22.688"
     y="0"
     sodipodi:role="line"
     id="tspan134">−0.5</tspan></text>

</g><path
             d="m 280.668,1505.83 32,0"
             style="fill:none;stroke:#000000;stroke-opacity:1;stroke-width:2.08333;stroke-linecap:butt;stroke-linejoin:round;stroke-miterlimit:10;stroke-dasharray:none"
             id="path136" /><g
             id="g138"
             transform="scale(4.16667,4.16667)"><text
   transform="matrix(1,0,0,-1,55.6003,355.64)"
   id="text140"><tspan
     style="fill:#000000;fill-opacity:1;fill-rule:nonzero;stroke:none;font-family:Helvetica;font-variant:normal;font-weight:normal;font-size:16;writing-mode:lr;-inkscape-font-specification:Helvetica"
     x="0"
     y="0"
     id="tspan142">0</tspan></text>

</g><path
             d="m 280.668,1682.83 32,0"
             style="fill:none;stroke:#000000;stroke-opacity:1;stroke-width:2.08333;stroke-linecap:butt;stroke-linejoin:round;stroke-miterlimit:10;stroke-dasharray:none"
             id="path144" /><g
             id="g146"
             transform="scale(4.16667,4.16667)"><text
   transform="matrix(1,0,0,-1,42.4003,398.12)"
   id="text148"><tspan
     style="fill:#000000;fill-opacity:1;fill-rule:nonzero;stroke:none;font-family:Helvetica;font-variant:normal;font-weight:normal;font-size:16;writing-mode:lr;-inkscape-font-specification:Helvetica"
     x="0 8.896 13.344"
     y="0"
     sodipodi:role="line"
     id="tspan150">0.5</tspan></text>

</g><path
             d="m 280.668,1859.83 32,0"
             style="fill:none;stroke:#000000;stroke-opacity:1;stroke-width:2.08333;stroke-linecap:butt;stroke-linejoin:round;stroke-miterlimit:10;stroke-dasharray:none"
             id="path152" /><g
             id="g154"
             transform="scale(4.16667,4.16667)"><text
   transform="matrix(1,0,0,-1,55.6003,440.6)"
   id="text156"><tspan
     style="fill:#000000;fill-opacity:1;fill-rule:nonzero;stroke:none;font-family:Helvetica;font-variant:normal;font-weight:normal;font-size:16;writing-mode:lr;-inkscape-font-specification:Helvetica"
     x="0"
     y="0"
     id="tspan158">1</tspan><tspan
     style="fill:#000000;fill-opacity:1;fill-rule:nonzero;stroke:none;font-family:Helvetica;font-variant:normal;font-weight:normal;font-size:16;writing-mode:lr;-inkscape-font-specification:Helvetica"
     x="215.999 226.671 236.015 247.567 252.015 256.463 267.135 270.687 279.583 284.031 288.479 297.375 301.823 306.271 314.271 323.167 332.063 340.063 348.959 356.959 365.855 370.303 373.855 381.855 390.751 395.199 403.199 407.647 412.975 421.871 426.319 434.319 443.215 452.111 460.111 464.559 473.455 482.351 491.247 494.799 503.695 511.695 516.143 520.591 529.487 533.039 541.039 545.487 554.383 563.279 571.279"
     y="-18.24"
     sodipodi:role="line"
     id="tspan160">A−C: Plot of consecutive stretches against distance</tspan></text>

<text
   transform="matrix(0,1,1,0,17.6803,353.72)"
   id="text162"><tspan
     style="fill:#000000;fill-opacity:1;fill-rule:nonzero;stroke:none;font-family:Helvetica;font-variant:normal;font-weight:normal;font-size:16;writing-mode:lr;-inkscape-font-specification:Helvetica"
     x="0"
     y="0"
     id="tspan164">n</tspan></text>

<text
   transform="matrix(0,1,1,0,25.6003,362.6)"
   id="text166"><tspan
     style="fill:#000000;fill-opacity:1;fill-rule:nonzero;stroke:none;font-family:Helvetica;font-variant:normal;font-weight:normal;font-size:12;writing-mode:lr;-inkscape-font-specification:Helvetica"
     x="0"
     y="0"
     id="tspan168">x</tspan></text>

<text
   transform="matrix(1,0,0,-1,335.919,242.12)"
   id="text170"><tspan
     style="font-size:16px;font-variant:normal;font-weight:normal;writing-mode:lr-tb;fill:#000000;fill-opacity:1;fill-rule:nonzero;stroke:none;font-family:Helvetica;-inkscape-font-specification:Helvetica"
     sodipodi:role="line"
     id="tspan172"
     x="0"
     y="0">Cumulative distance in channel [m]</tspan></text>

</g></g></g><g
         id="g174"><g
           id="g176"
           clip-path="url(#clipPath178)"><path
             d="m 824.664,1715.83 2,-281 3,-63 3,-131 2,-40 3,32 2,-66 3,-6 3,-3 2,-5 24,0 2,12 3,-1 2,4 3,23 3,50 2,80 3,194 2,202 3,65 3,44 5,19 2,15 3,-2 3,2 2,0 3,-3 2,3 13,0 3,-3 2,-1 3,-6 3,-17 2,-25 3,-42 5,-366 3,-121 2,-75 3,-28 2,-9 3,-7 3,-6 8,0 2,-1 11,0 2,2 3,-2 2,0 3,7 2.996,3 2,20 3,25 2,77 3,121 3,217 2,96 3,86 2,32 3,15 3,8 2,-6 3,6 5,0 3,-1 2,1 8,0 2,-3 3,0 3,-3 2,-5 3,-6 2,-14 3,-42 2,-53 3,-233 2,-158 3,-87 2,-55 3,-34 3,-6 2,-3 3,-4 2,-1 15,0 3,1 2,-1 3,2 2,3 3,0 3,11 2,18 3,22 2,75 2,227 3,76 2,164 3,40 2,35 3,17 2,10 3,3 2,4 5,0 3,-2 2,2 10,0 2,-4 3,2 2,-2 3,-9 2,-8 2,-15 3,-17 2,-64 3,-163 2,-91 3,-204 2,-75 3,-22 2,-23 2,-11 3,4 2,-5 3,3 2,-2 2,-1 5,0 3,3 2,-3 2,0 3,9 2,-9 3,7 2,-7 2,6 3,7 2,13 2,3 3,48 2,56 2,232 3,129 2,117 2,32 3,33 2,9 2,4 3,6 2,5 2,-1 3,3 2,-3 2,-2 3,8 2,-10 2,5 3,-1 2,1 2,-8 2,2 3,1 2,0 2,-16 3,-6 2,-28 2,-33 5,-294 2,-141 2,-99 3,-42 2,-11 2,-15 2,17 3,-23 2,-2 2,-2 2,0 2,2 2,-2 11,0 2,12 2,-12 3,0 2,1 2,6 1,1 2,5 2,4 1,15 2,13 2,33 1,62 2,81 1,133 2,128 2,72 1,63 2,26 1,15 2,14 2,9 1,4 2,0 1,11 2,-5 1,7 2,-1 1,3 1,-4 2,6 1,1 2,4 1,-5 2,-4 1,9 9,0 1,-1 2,-3 1,4 1,-2 1,2 1,-11 1,-8 2,0 1,-5 1,-2 1,-8 1,-3 1,-11 1,-8 0,-14 1,-12 1,-30 1,-30 0,-46 1,-38 1,-69 1,-81 0,22 1,-39 0,-39 1,-55 0,-44 1,-24 0,-26 1,-21 0,-9 1,-14 0,-14 1,-2 0,-11 1,-12 0,-4 1,-2 0,-7 1,2 0,-6 0,14"
             style="fill:none;stroke:#0100ff;stroke-opacity:1;stroke-width:2.08333;stroke-linecap:butt;stroke-linejoin:round;stroke-miterlimit:10;stroke-dasharray:none"
             id="path182" /><path
             d="m 291.668,1859.83 6,0 1,-2 1,2 8,0 1,-1 1,0 1,1 2,0 1,-1 1,-4 1,-2 2,6 -1,0 3,0 0,-2 1,-1 1,1 1,1 1,-6 0,2 1,-7 1,-1 1,-5 1,3 1,-12 1,-14 0,-4 1,-40 1,0 1,-20 1,-39 1,-35 1,-65 1,-55 1,-67 0,-80 1,-53 1,-63 1,-43 1,-21 1,-24 1,-24 1,-1 1,-8 1,-10 1,2 1,-6 1,-2 1,-1 1,15 1,-21 4,0 1,1 1,-1 24,0 1,6 1,1 2,4 1,1 1,7 2,5 1,22 1,27 2,45 1,45 1,109 2,74 1,107 2,97 1,42 1,44 2,24 1,9 2,10 1,6 2,5 1,10 2,-3 1,3 2,5 1,-1 2,2 17,0 2,-1 2,1 1,0 2,-5 2,-2 2,-7 1,-5 2,-11 2,-11 2,-27 1,-33 2,-83 2,-143 1,-83 2,-143 2,-75 2,-25 2,-26 1,-11 2,-8 2,-3 2,-5 31,0 2,1 1.996,9 2,12 2,12 2,36 2,71 4,230 2,188 2,50 2,37 2,21 2,6 2,11 2,9 3,-1 2,1 2,2 2,0 2,6 2,1 3,2 2,-5 2,1 2,7 2,0 3,-10 2,10 2,0 2,-8 2,-4 2,-6 3,-18 2,-34 2,-90 5,-306 2,-138 2,-48 2,-25 3,-13 2,-10 2,-7 31,0 2,10 3,4 2,20 2,41 3,58 2,231 2,142 3,85 2,65 2,29 3,7 2,6 3,2 2,7 2,0 3,-3 2,3 3,-2 2,0 3,2 2,-1 3,1 4,0 3,-3 2,-1 3,-18 2,-5 3,-26 2,-73 3,-110 2,-198 3,-168 2,-52 3,-25 2,-16 3,-4 2,-5 3,-2 2,-1 20,0 3,1 3,-1 2,8 3,15 2,66 3,24 2,286 3,106 2,94 3,59 2,18 3,10 2,11 3,7 2,3 3,-1 3,1 15,0 2,-1 3,1 3,-4 2,-9 3,-13 2,-29 3,-89"
             style="fill:none;stroke:#0100ff;stroke-opacity:1;stroke-width:2.08333;stroke-linecap:butt;stroke-linejoin:round;stroke-miterlimit:10;stroke-dasharray:none"
             id="path184" /><path
             d="m 280.668,1818.83 0,11 1,1 1,3 0,3 1,8 0,2 0,-4 1,5 0,-2 1,3 1,-1 1,2 0,5 1,5 0,-3 1,2 0,1 1,-2 0,-3 1,5"
             style="fill:none;stroke:#0100ff;stroke-opacity:1;stroke-width:2.08333;stroke-linecap:butt;stroke-linejoin:round;stroke-miterlimit:10;stroke-dasharray:none"
             id="path186" /><path
             d="m 2052.66,1152.83 18,0 4,7 2,8 1,14 2,15 2,42 2,88 2,197 2,50 2,145 2,54 1,41 2,17 2,15 2,7 2,2 2,2 2,3 23,0 1,-1 2,-3 2,2 2,-11 2,-14 2,-14 2,-37 2,-85 2,-104 2,-139 2,-161 2,24 2,-121 2,-9 2,-13 2,-10 2,-6 2,-3 2,-1 2,1 2,-2 10,0 2,1 2,-1 10,0 2,5 2,8 2,10 2,10 2,25 2,59 2,81 2,157 2,180 3,74 2,45 2,31 2,11 2,4 2,1 2,6 2,-4 2,2 2,2 2,-4 2,-1 2,5 4,0 2,-3 3,3 4,0 2,-1 2,1 4,0 2,-7 3,-16 2,-8 2,-19 2,-45 2,-57 2,-225 2,-114 2,-89 2,-66 3,-38 2,-5 2,-5 2,-13 29,0 2,1 2,5 2,8 2,1 2,-2 2,6 2,16 2,43 1,39 2,120 2,133 2,119 2,114 2,49 1,18 2,14 2,10 2,10 1,1 2,2 2,0 2,-1 1,1 4,0 2,-1 1,1 2,-6 2,5 1,0 2,1 2,-4 1,4 2,-7 2,5 1,2 2,-3 1,-3 2,-8 2,4 1,-11 2,-1 1,-13 2,-15 2,-17 1,-34 2,-62 2,-166 1,-25 1,-103 2,-105 1,-36 1,-42 1,-27 2,-10 1,-10 1,-3 1,-6 1,-1 2,0 1,-6 1,2 1,2 1,0 1,-8 1,1 1,0 1,3 1,-4 3,0 1,1 1,-1 4,0 1,4 1,0 1,3 0,2 1,0 1,-5 1,4 1,7 0,-10 1,0 1,-4 1,1 0,1 1,-1 1,1 0,3 1,4 1,-2 0,1 1,6 1,-6 0,12 1,2 1,0 0,6 1,4 1,4 1,3 1,-4 0,11 1,11 0,3 1,5 0,-1 1,15 0,8 1,17 0,20 1,14 0,28 1,37 1,131 0,-62 0,69 1,9 0,3 1,2 0,7 1,62 0,74 1,27 0,41 1,16 0,24 1,12 0,-2 0,11 1,1 0,11 1,4 0,12 1,0 0,14 1,-1 0,5 1,5 0,-6 0,6 1,2 0,8 1,-6 0,7 0,-2 1,3 0,-5 0,8 0,-1 1,-1 0,-5 0,11 0,-4 1,-1 0,-1 0,10 0,-7 1,3 0,-10 0,13"
             style="fill:none;stroke:#ff0000;stroke-opacity:1;stroke-width:2.08333;stroke-linecap:butt;stroke-linejoin:round;stroke-miterlimit:10;stroke-dasharray:none"
             id="path188" /><path
             d="m 1673.66,1152.83 1,0 1,4 0,-4 5,0 1,1 1,-1 1,0 1,1 1,-1 6,0 0,6 1,-2 1,-2 1,7 1,-4 0,7 1,0 1,4 1,-2 1,3 1,8 1,7 0,3 1,-3 1,13 1,12 1,16 1,19 0,30 1,35 1,55 1,89 1,37 1,57 1,60 1,72 0,53 1,35 1,13 1,13 1,16 1,8 1,10 1,1 1,9 1,3 0,2 1,6 1,1 1,7 1,-4 1,7 2,0 1,-1 1,1 3,0 0,-2 1,2 4,0 1,-2 1,2 8,0 1,-1 1,1 1,0 1,-2 1,2 1,-7 1,-3 1,1 1,-2 1,-2 1,2 1,-7 1,-3 1,-12 2,-7 1,-16 1,-13 1,-23 1,-46 1,-42 1,-95 1,-78 1,-44 1,-107 1,-67 1,-35 1,-32 2,-19 1,-18 1,-6 1,-7 1,-1 1,-8 1,-7 1,4 2,-6 1,-1 1,0 1,2 1,-2 25,0 1,5 1,0 2,5 1,1 1,0 1,6 2,2 1,12 1,19 1,10 2,35 1,56 1,57 1,147 2,50 1,88 1,77 2,54 1,17 1,24 2,11 1,13 1,1 1,5 2,2 1,5 1,4 2,1 1,-4 1,4 14,0 1,-1 1,-3 2,1 1,2 2,1 1,-1 1,-4 2,4 1,-2 2,0 1,-10 1,-6 2,2 1,-13 2,-8 1,-28 2,-77 1,-39 2,-60 1,-115 2,-75 1,-117 1,-70 2,-25 1,-22 2,-18 1,-5 2,-3 1,-11 2,4 1,-6 2,4 1,-5 2,-1 25,0 1,6 2,1 2,10 1,4 2,6 1,16 2,32 2,37 1,89 2,153 1,59 2,138 2,71 1,26 2,18 2,16 1,12 2,1 1,6 2,5 2,1 18,0 2,-1 2,1 3,0 2,-1 1,-6 2,0 2,-11 2,-18 1,15 2,-18 2,-22 2,-29 1,-105 2,-136 2,-49 2,-153 2,-63 1,-49 2,-29 2,-19 2,1 1,14 2,-26 2,-3 13,0"
             style="fill:none;stroke:#ff0000;stroke-opacity:1;stroke-width:2.08333;stroke-linecap:butt;stroke-linejoin:round;stroke-miterlimit:10;stroke-dasharray:none"
             id="path190" /><path
             d="m 1510.66,1844.83 0,6 1,0 0,-5 0,2 1,-7 0,10 0,-7 1,2 0,-5 1,3 0,-3 0,5 0,-5 1,-5 0,-2 0,6 1,1 0,-8 0,6 1,-2 0,-11 1,-1 0,11 0,-7 1,3 0,-9 1,-5 0,3 0,-5 1,3 0,-9 0,5 1,-3 0,-11 0,13 0,-7 1,-8 0,-6 1,-5 0,-17 0,1 1,-5 0,-23 1,-5 0,-33 1,-22 0,-57 1,-29 0,-82 1,-10 0,-3 1,-6 0,-91 1,-18 0,-55 1,-15 0,-37 1,-9 0,-35 1,1 0,-18 1,-6 0,-12 1,-7 0,-9 1,-7 0,8 0,-10 1,6 0,-6 1,-7 0,4 1,-7 0,4 0,-4 1,1 0,-8 1,5 0,1 0,-6 1,2 0,2 0,-7 1,1 0,-2 0,4 1,0 0,-6 0,2 1,-2 0,3 1,-4 2,0 0,5 0,-5 1,1 1,-1 2,0 1,2 0,-2 8,0 1,1 1,-1 6,0 1,1 1,5 0,-6 0,5 1,2 0,1 1,-4 0,-1 0,2 1,7 0,-6 1,4 0,-2 0,4 1,-3 0,4 1,0 0,-3 1,2 0,8 0,-4 1,10 0,-1 1,-9 0,6 0,-2 1,3 0,10 1,2 0,7 1,1 0,9 1,6 0,9 1,16 0,13 1,8 0,26 1,23 0,12 1,28 0,54 1,125 0,-13 1,6 0,-3 0,15 1,-4 0,83 1,39 0,54 1,13 0,21 1,9 0,27 1,6 0,11 1,8 0,9 1,9 0,1 1,4 0,6 1,6 0,1 1,5 0,6 1,-7 0,5 1,2 0,5 1,-2 0,3 0,-3 1,2 0,3 1,-3 0,1 1,4 0,-1 0,1 1,2 0,-1 1,-6 0,6 1,2 0,-2 1,1 0,3 1,-5 1,-1 0,7 1,0 1,-2 0,2 2,0 1,-3 0,3 1,-3 0,3 0,-1 1,-1 0,2 1,0 1,-6 0,6 4,0 1,-1 0,1 1,-3 0,3 1,-3 0,3 4,0 1,-4 1,2 0,-2 1,-3 0,6 1,-6 0,-1 1,-7 1,-1 0,-2 1,-1 0,-5 1,-2 0,-4 1,-11 1,-6 0,-9 1,-7 0,-16 1,-18 1,-15 0,-21 1,-32 0,-28 1,-53 1,-80 0,-29 1,1 0,-18 1,-95 1,-57 0,-31 1,-32 1,-31 0,-14 1,-15 0,-13 1,-8 1,-5 0,-9 1,-6 1,-4 0,-4 1,-2 1,-2 0,-1 1,-6 4,0 1,9 0,-9 1,0 1,21 1,-20 1,-1 2,0"
             style="fill:none;stroke:#ff0000;stroke-opacity:1;stroke-width:2.08333;stroke-linecap:butt;stroke-linejoin:round;stroke-miterlimit:10;stroke-dasharray:none"
             id="path192" /><path
             d="m 1457.66,1195.83 0,-4 0,9 1,2 0,15 1,-1 0,17 1,8 0,18 1,9 0,37 1,14 0,27 1,35 0,29 1,71 0,23 1,3 0,27 1,86 0,30 1,31 0,31 1,23 0,13 1,16 0,21 1,12 1,5 0,7 1,0 0,2 1,7 0,5 1,3 0,6 1,5 0,2 1,5 0,-6 0,5 1,5 0,-2 1,2 0,3 0,-3 1,2 0,2 1,-3 0,5 1,-3 0,8 1,-7 0,7 1,-2 0,2 0,-6 1,5 0,1 0,-1 1,1 0,-3 1,0 0,3 0,-3 1,3 1,-1 0,-1 1,2 1,-1 0,-1 0,1 1,1 4,0 0,-3 1,-6 0,1 1,7 0,-2 0,3 2,0 0,-2 -1,2 2,0 0,-5 0,5 1,-7 0,-1 0,8 0,-7 1,2 0,-8 0,13 0,-1 1,-4 0,-7 0,12 1,-4 0,-6 0,4 1,4 0,2 2,-5 -1,0 1,-4 1,1 0,-2 0,1 1,-3 0,6 1,0 0,-9"
             style="fill:none;stroke:#ff0000;stroke-opacity:1;stroke-width:2.08333;stroke-linecap:butt;stroke-linejoin:round;stroke-miterlimit:10;stroke-dasharray:none"
             id="path194" /><path
             d="m 2810.66,1822.83 2,12 2,10 2,6 2,4 2,2 2,1 2,1 6,0 2,-1 2,1 2,-1 10,0 2,-2 2,-9 2,-5 2,-11 2,-28 2,-26 2,-76 2,-107 2,-163 2,-154 3,-43 2,-39 2,-15 2,-12 2,-9 2,-4 2,1 3,-3 21,0 3,1 2,-1 2,7 2,4 2,14 3,18 2,56 2,71 2,184 3,173 2,75 2,54 2,24 3,5 2,11 2,4 3,6 2,-16 2,17 23,0 3,-3 2,-15 2,-13 2,-35 3,-95 2,-193 2,-121 3,-131 2,-38 2,-29 3,-8 2,-8 2,-3 3,-8 2,0 3,-1 2,-4 2,1 3,1 2,-2 3,8 2,-1 2,3 3,4 2,-7 2,0 3,13 2,12 3,19 2,32 2,112 3,159 2,166 2,104 3,32 2,13 3,12 2,-17 5,41 24,0 2,-2 3,-3 2,-10 3,-16 2,-34 2,-89 3,-209 2,-118 3,-134 2,-39 2,-31 3,-15 2,-1 3,-6 29,0 2,2 3,4 2,17 2,26 3,40 2,145 3,132 2,189 2,89 3,38 2,11 3,10 2,4 29,0 2,-5 3,-2 2,-8 2,-10 3,-22 2,-69 2,-104 3,-147 2,-215 2,-67 3,-22 2,-14 2,-12 3,-10 2,2 2,2 3,-4 2,0 3,1 2,0 2,-1 10,0 2,1 2,0 3,3 2,4 2,12 3,27 2,27 2,97 2,182 3,127 2,131 2,51 2,11 3,23 2,7 2,4 30,0 2,-4 2,-4 3,-6 2,-18 2,-18 2,-61 3,-151 6,-376 3,-26 2,-23 2,-10 2,-2 3,-3 2,-3 2,0 2,-1 18,0 2,1 2,0 1,1 2,4 2,1 2,4 2,18 1,3 2,27 2,41 1,56 2,128 2,119 1,95 2,93 1,51 2,12 1,26 2,8 2,6 1,3 2,1 1,7 2,1 30,0 23,-695 6,1"
             style="fill:none;stroke:#00ff00;stroke-opacity:1;stroke-width:2.08333;stroke-linecap:butt;stroke-linejoin:round;stroke-miterlimit:10;stroke-dasharray:none"
             id="path196" /><path
             d="m 2519.66,1161.83 0,-2 1,-1 0,-5 0,13 1,-3 0,-6 0,8 1,-5 0,-8 1,7 0,-6 2,0 0,3 0,-3 1,9 0,-9 0,4 1,-4 0,6 1,-2 0,-4 0,7 0,-6 1,2 0,3 0,-6 1,5 0,-5 0,3 1,-3 0,4 0,-3 1,-1 0,8 1,-8 0,5 1,-3 0,3 1,-3 0,5 1,-7 0,6 0,-5 1,1 0,7 0,-6 1,2 0,5 1,-4 0,1 0,-2 1,0 0,5 0,-8 1,5 0,1 0,-6 1,4 0,2 1,-4 0,9 0,-4 1,4 0,-1 0,9 1,-3 0,3 0,-3 2,5 8,333 1,15 4,244 0,15 1,6 0,7 1,15 0,-3 1,5 0,-1 0,12 1,-2 0,7 1,2 0,3 1,0 0,4 1,3 0,3 1,2 0,2 1,1 0,-8 1,8 0,8 1,-6 0,3 1,-9 1,9 0,1 1,-10 0,-6 1,15 0,-2 1,7 0,-4 2,4 -1,0 3,0 0,-2 1,2 8,0 1,-2 0,2 3,0 1,-2 0,2 1,0 0,-3 1,3 3,0 0,-4 1,0 1,-2 1,0 0,5 1,1 1,-6 0,-1 1,-3 1,1 1,3 0,-3 1,4 1,-5 1,-3 1,-3 0,-6 1,-9 1,-3 1,-15 1,-4 1,-17 0,-25 1,-20 1,-39 1,-60 1,-57 1,-80 1,-19 0,-81 1,-75 1,-53 1,-21 1,-30 1,-11 1,-22 1,-9 1,-4 1,-8 1,-6 1,1 0,-7 1,-5 1,1 1,0 1,-3 1,-4 1,1 1,-1 27,0 2,1 1,3 1,1 1,8 2,9 1,11 1,12 1,23 2,53 1,42 1,106 2,93 1,66 1,109 1,64 2,26 1,31 1,10 2,8 1,13 1,3 2,5 1,-1 1,2 2,3 1,3 2,3 10,0 1,-1 8,0 1,-3 2,3 1,-10 2,2 2,-7 1,-7 2,-8 1,-20 2,-26 2,-53 1,-104 4,-222 1,-116 2,-40 1,-40 2,-20 2,-13 1,-7 2,-5 2,1 1,-8 2,-2 2,-1 18,0 1,1 2,-1 4,0 1,1 2,4 2,3 2,12 2,14 2,25 2,65 2,69 2,157 1,152 2,74 2,60 2,34"
             style="fill:none;stroke:#00ff00;stroke-opacity:1;stroke-width:2.08333;stroke-linecap:butt;stroke-linejoin:round;stroke-miterlimit:10;stroke-dasharray:none"
             id="path198" /><path
             d="m 2480.66,1843.83 0,8 0,-4 1,-1 0,-5 0,10 0,-4 1,-11 0,-2 0,9 0,-3 1,-1 0,-5 0,10 0,-1 1,-6 0,-4 0,5 0,-2 1,-3 0,-4 0,10 0,-8 1,-4 0,-4 0,8 0,-1 1,-4 0,-6 0,16 0,-13 1,1 0,-9 1,-4 0,4 0,-20 1,5 0,-15 1,-4 0,-19 1,-1 0,-25 1,-9 0,-52 1,-11 0,-121 1,-5 0,5 0,-36 1,-1 0,-12 1,-5 0,-19 0,7 1,2 0,6 0,-162 1,-9 0,-41 1,-6 0,-25 1,-3 0,-14 1,-3 0,-8 0,11 0,-11 1,-6 0,-6 1,1 0,-8 1,-5 0,-3 0,8 0,-4 1,-1 0,-12 0,13 0,-5 1,-5 0,-3 0,6 0,-3 1,-7 0,-1 0,9 1,-5 0,-5 0,7 1,0 0,-7 1,2 0,-12 1,7 0,-7 0,5 1,-1 0,3 0,-2 1,0 0,-6 0,7 1,-5 0,-6 0,14 0,-4 1,-1 0,1 0,-6 1,-3 0,-2 1,-1 0,14 0,-5 1,-3"
             style="fill:none;stroke:#00ff00;stroke-opacity:1;stroke-width:2.08333;stroke-linecap:butt;stroke-linejoin:round;stroke-miterlimit:10;stroke-dasharray:none"
             id="path200" /></g></g><g
         id="g202"><g
           id="g204"
           clip-path="url(#clipPath206)"><path
             d="m 280.668,168.832 3215,0 0,708 -3215,0 0,-708 z"
             style="fill:#ffffff;fill-opacity:1;fill-rule:evenodd;stroke:none"
             id="path210" /><path
             d="m 280.668,168.832 0,708 3214.992,0 0,-708 -3214.992,0"
             style="fill:none;stroke:#ffffff;stroke-opacity:1;stroke-width:2.08333;stroke-linecap:butt;stroke-linejoin:round;stroke-miterlimit:10;stroke-dasharray:none"
             id="path212" /><path
             d="m 280.668,168.832 3214.992,0"
             style="fill:none;stroke:#000000;stroke-opacity:1;stroke-width:2.08333;stroke-linecap:butt;stroke-linejoin:round;stroke-miterlimit:10;stroke-dasharray:none"
             id="path214" /><path
             d="m 280.668,168.832 0,708"
             style="fill:none;stroke:#000000;stroke-opacity:1;stroke-width:2.08333;stroke-linecap:butt;stroke-linejoin:round;stroke-miterlimit:10;stroke-dasharray:none"
             id="path216" /><path
             d="m 280.668,168.832 0,33"
             style="fill:none;stroke:#000000;stroke-opacity:1;stroke-width:2.08333;stroke-linecap:butt;stroke-linejoin:round;stroke-miterlimit:10;stroke-dasharray:none"
             id="path218" /><g
             id="g220"
             transform="scale(4.16667,4.16667)"><text
   transform="matrix(1,0,0,-1,63.0403,22.7597)"
   id="text222"><tspan
     style="fill:#000000;fill-opacity:1;fill-rule:nonzero;stroke:none;font-family:Helvetica;font-variant:normal;font-weight:normal;font-size:16;writing-mode:lr;-inkscape-font-specification:Helvetica"
     x="0"
     y="0"
     id="tspan224">0</tspan></text>

</g><path
             d="m 597.664,168.832 0,33"
             style="fill:none;stroke:#000000;stroke-opacity:1;stroke-width:2.08333;stroke-linecap:butt;stroke-linejoin:round;stroke-miterlimit:10;stroke-dasharray:none"
             id="path226" /><g
             id="g228"
             transform="scale(4.16667,4.16667)"><text
   transform="matrix(1,0,0,-1,123.52,22.7597)"
   id="text230"><tspan
     style="fill:#000000;fill-opacity:1;fill-rule:nonzero;stroke:none;font-family:Helvetica;font-variant:normal;font-weight:normal;font-size:16;writing-mode:lr;-inkscape-font-specification:Helvetica"
     x="0 8.896 13.344 22.24 31.136"
     y="0"
     sodipodi:role="line"
     id="tspan232">0.005</tspan></text>

</g><path
             d="m 915.664,168.832 0,33"
             style="fill:none;stroke:#000000;stroke-opacity:1;stroke-width:2.08333;stroke-linecap:butt;stroke-linejoin:round;stroke-miterlimit:10;stroke-dasharray:none"
             id="path234" /><g
             id="g236"
             transform="scale(4.16667,4.16667)"><text
   transform="matrix(1,0,0,-1,204.399,22.7597)"
   id="text238"><tspan
     style="fill:#000000;fill-opacity:1;fill-rule:nonzero;stroke:none;font-family:Helvetica;font-variant:normal;font-weight:normal;font-size:16;writing-mode:lr;-inkscape-font-specification:Helvetica"
     x="0 8.896 13.344 22.24"
     y="0"
     sodipodi:role="line"
     id="tspan240">0.01</tspan></text>

</g><path
             d="m 1232.66,168.832 0,33"
             style="fill:none;stroke:#000000;stroke-opacity:1;stroke-width:2.08333;stroke-linecap:butt;stroke-linejoin:round;stroke-miterlimit:10;stroke-dasharray:none"
             id="path242" /><g
             id="g244"
             transform="scale(4.16667,4.16667)"><text
   transform="matrix(1,0,0,-1,275.919,22.7597)"
   id="text246"><tspan
     style="fill:#000000;fill-opacity:1;fill-rule:nonzero;stroke:none;font-family:Helvetica;font-variant:normal;font-weight:normal;font-size:16;writing-mode:lr;-inkscape-font-specification:Helvetica"
     x="0 8.896 13.344 22.24 31.136"
     y="0"
     sodipodi:role="line"
     id="tspan248">0.015</tspan></text>

</g><path
             d="m 1550.66,168.832 0,33"
             style="fill:none;stroke:#000000;stroke-opacity:1;stroke-width:2.08333;stroke-linecap:butt;stroke-linejoin:round;stroke-miterlimit:10;stroke-dasharray:none"
             id="path250" /><g
             id="g252"
             transform="scale(4.16667,4.16667)"><text
   transform="matrix(1,0,0,-1,356.799,22.7597)"
   id="text254"><tspan
     style="fill:#000000;fill-opacity:1;fill-rule:nonzero;stroke:none;font-family:Helvetica;font-variant:normal;font-weight:normal;font-size:16;writing-mode:lr;-inkscape-font-specification:Helvetica"
     x="0 8.896 13.344 22.24"
     y="0"
     sodipodi:role="line"
     id="tspan256">0.02</tspan></text>

</g><path
             d="m 1867.66,168.832 0,33"
             style="fill:none;stroke:#000000;stroke-opacity:1;stroke-width:2.08333;stroke-linecap:butt;stroke-linejoin:round;stroke-miterlimit:10;stroke-dasharray:none"
             id="path258" /><g
             id="g260"
             transform="scale(4.16667,4.16667)"><text
   transform="matrix(1,0,0,-1,428.319,22.7597)"
   id="text262"><tspan
     style="fill:#000000;fill-opacity:1;fill-rule:nonzero;stroke:none;font-family:Helvetica;font-variant:normal;font-weight:normal;font-size:16;writing-mode:lr;-inkscape-font-specification:Helvetica"
     x="0 8.896 13.344 22.24 31.136"
     y="0"
     sodipodi:role="line"
     id="tspan264">0.025</tspan></text>

</g><path
             d="m 2185.66,168.832 0,33"
             style="fill:none;stroke:#000000;stroke-opacity:1;stroke-width:2.08333;stroke-linecap:butt;stroke-linejoin:round;stroke-miterlimit:10;stroke-dasharray:none"
             id="path266" /><g
             id="g268"
             transform="scale(4.16667,4.16667)"><text
   transform="matrix(1,0,0,-1,509.199,22.7597)"
   id="text270"><tspan
     style="fill:#000000;fill-opacity:1;fill-rule:nonzero;stroke:none;font-family:Helvetica;font-variant:normal;font-weight:normal;font-size:16;writing-mode:lr;-inkscape-font-specification:Helvetica"
     x="0 8.896 13.344 22.24"
     y="0"
     sodipodi:role="line"
     id="tspan272">0.03</tspan></text>

</g><path
             d="m 2502.66,168.832 0,33"
             style="fill:none;stroke:#000000;stroke-opacity:1;stroke-width:2.08333;stroke-linecap:butt;stroke-linejoin:round;stroke-miterlimit:10;stroke-dasharray:none"
             id="path274" /><g
             id="g276"
             transform="scale(4.16667,4.16667)"><text
   transform="matrix(1,0,0,-1,580.719,22.7597)"
   id="text278"><tspan
     style="fill:#000000;fill-opacity:1;fill-rule:nonzero;stroke:none;font-family:Helvetica;font-variant:normal;font-weight:normal;font-size:16;writing-mode:lr;-inkscape-font-specification:Helvetica"
     x="0 8.896 13.344 22.24 31.136"
     y="0"
     sodipodi:role="line"
     id="tspan280">0.035</tspan></text>

</g><path
             d="m 2820.66,168.832 0,33"
             style="fill:none;stroke:#000000;stroke-opacity:1;stroke-width:2.08333;stroke-linecap:butt;stroke-linejoin:round;stroke-miterlimit:10;stroke-dasharray:none"
             id="path282" /><g
             id="g284"
             transform="scale(4.16667,4.16667)"><text
   transform="matrix(1,0,0,-1,661.599,22.7597)"
   id="text286"><tspan
     style="fill:#000000;fill-opacity:1;fill-rule:nonzero;stroke:none;font-family:Helvetica;font-variant:normal;font-weight:normal;font-size:16;writing-mode:lr;-inkscape-font-specification:Helvetica"
     x="0 8.896 13.344 22.24"
     y="0"
     sodipodi:role="line"
     id="tspan288">0.04</tspan></text>

</g><path
             d="m 3138.66,168.832 0,33"
             style="fill:none;stroke:#000000;stroke-opacity:1;stroke-width:2.08333;stroke-linecap:butt;stroke-linejoin:round;stroke-miterlimit:10;stroke-dasharray:none"
             id="path290" /><g
             id="g292"
             transform="scale(4.16667,4.16667)"><text
   transform="matrix(1,0,0,-1,733.359,22.7597)"
   id="text294"><tspan
     style="fill:#000000;fill-opacity:1;fill-rule:nonzero;stroke:none;font-family:Helvetica;font-variant:normal;font-weight:normal;font-size:16;writing-mode:lr;-inkscape-font-specification:Helvetica"
     x="0 8.896 13.344 22.24 31.136"
     y="0"
     sodipodi:role="line"
     id="tspan296">0.045</tspan></text>

</g><path
             d="m 3455.66,168.832 0,33"
             style="fill:none;stroke:#000000;stroke-opacity:1;stroke-width:2.08333;stroke-linecap:butt;stroke-linejoin:round;stroke-miterlimit:10;stroke-dasharray:none"
             id="path298" /><g
             id="g300"
             transform="scale(4.16667,4.16667)"><text
   transform="matrix(1,0,0,-1,813.999,22.7597)"
   id="text302"><tspan
     style="fill:#000000;fill-opacity:1;fill-rule:nonzero;stroke:none;font-family:Helvetica;font-variant:normal;font-weight:normal;font-size:16;writing-mode:lr;-inkscape-font-specification:Helvetica"
     x="0 8.896 13.344 22.24"
     y="0"
     sodipodi:role="line"
     id="tspan304">0.05</tspan></text>

</g><path
             d="m 280.668,168.832 32,0"
             style="fill:none;stroke:#000000;stroke-opacity:1;stroke-width:2.08333;stroke-linecap:butt;stroke-linejoin:round;stroke-miterlimit:10;stroke-dasharray:none"
             id="path306" /><g
             id="g308"
             transform="scale(4.16667,4.16667)"><text
   transform="matrix(1,0,0,-1,46.2403,34.7597)"
   id="text310"><tspan
     style="fill:#000000;fill-opacity:1;fill-rule:nonzero;stroke:none;font-family:Helvetica;font-variant:normal;font-weight:normal;font-size:16;writing-mode:lr;-inkscape-font-specification:Helvetica"
     x="0 9.344"
     y="0"
     sodipodi:role="line"
     id="tspan312">−1</tspan></text>

</g><path
             d="m 280.668,345.832 32,0"
             style="fill:none;stroke:#000000;stroke-opacity:1;stroke-width:2.08333;stroke-linecap:butt;stroke-linejoin:round;stroke-miterlimit:10;stroke-dasharray:none"
             id="path314" /><g
             id="g316"
             transform="scale(4.16667,4.16667)"><text
   transform="matrix(1,0,0,-1,33.0403,77.2397)"
   id="text318"><tspan
     style="fill:#000000;fill-opacity:1;fill-rule:nonzero;stroke:none;font-family:Helvetica;font-variant:normal;font-weight:normal;font-size:16;writing-mode:lr;-inkscape-font-specification:Helvetica"
     x="0 9.344 18.24 22.688"
     y="0"
     sodipodi:role="line"
     id="tspan320">−0.5</tspan></text>

</g><path
             d="m 280.668,522.832 32,0"
             style="fill:none;stroke:#000000;stroke-opacity:1;stroke-width:2.08333;stroke-linecap:butt;stroke-linejoin:round;stroke-miterlimit:10;stroke-dasharray:none"
             id="path322" /><g
             id="g324"
             transform="scale(4.16667,4.16667)"><text
   transform="matrix(1,0,0,-1,55.6003,119.72)"
   id="text326"><tspan
     style="fill:#000000;fill-opacity:1;fill-rule:nonzero;stroke:none;font-family:Helvetica;font-variant:normal;font-weight:normal;font-size:16;writing-mode:lr;-inkscape-font-specification:Helvetica"
     x="0"
     y="0"
     id="tspan328">0</tspan></text>

</g><path
             d="m 280.668,699.832 32,0"
             style="fill:none;stroke:#000000;stroke-opacity:1;stroke-width:2.08333;stroke-linecap:butt;stroke-linejoin:round;stroke-miterlimit:10;stroke-dasharray:none"
             id="path330" /><g
             id="g332"
             transform="scale(4.16667,4.16667)"><text
   transform="matrix(1,0,0,-1,42.4003,162.2)"
   id="text334"><tspan
     style="fill:#000000;fill-opacity:1;fill-rule:nonzero;stroke:none;font-family:Helvetica;font-variant:normal;font-weight:normal;font-size:16;writing-mode:lr;-inkscape-font-specification:Helvetica"
     x="0 8.896 13.344"
     y="0"
     sodipodi:role="line"
     id="tspan336">0.5</tspan></text>

</g><path
             d="m 280.668,876.832 32,0"
             style="fill:none;stroke:#000000;stroke-opacity:1;stroke-width:2.08333;stroke-linecap:butt;stroke-linejoin:round;stroke-miterlimit:10;stroke-dasharray:none"
             id="path338" /><g
             id="g340"
             transform="scale(4.16667,4.16667)"><text
   transform="matrix(1,0,0,-1,55.6003,204.68)"
   id="text342"><tspan
     style="fill:#000000;fill-opacity:1;fill-rule:nonzero;stroke:none;font-family:Helvetica;font-variant:normal;font-weight:normal;font-size:16;writing-mode:lr;-inkscape-font-specification:Helvetica"
     x="0"
     y="0"
     id="tspan344">1</tspan></text>

<text
   transform="matrix(0,1,1,0,17.6803,117.8)"
   id="text346"><tspan
     style="fill:#000000;fill-opacity:1;fill-rule:nonzero;stroke:none;font-family:Helvetica;font-variant:normal;font-weight:normal;font-size:16;writing-mode:lr;-inkscape-font-specification:Helvetica"
     x="0"
     y="0"
     id="tspan348">n</tspan></text>

<text
   transform="matrix(0,1,1,0,25.6003,126.68)"
   id="text350"><tspan
     style="fill:#000000;fill-opacity:1;fill-rule:nonzero;stroke:none;font-family:Helvetica;font-variant:normal;font-weight:normal;font-size:12;writing-mode:lr;-inkscape-font-specification:Helvetica"
     x="0"
     y="0"
     id="tspan352">z</tspan></text>

<text
   transform="matrix(1,0,0,-1,335.919,6.19969)"
   id="text354"><tspan
     style="font-size:16px;font-variant:normal;font-weight:normal;writing-mode:lr-tb;fill:#000000;fill-opacity:1;fill-rule:nonzero;stroke:none;font-family:Helvetica;-inkscape-font-specification:Helvetica"
     sodipodi:role="line"
     id="tspan356"
     x="0"
     y="0">Cumulative distance in channel [m]</tspan></text>

</g></g></g><g
         id="g358"><g
           id="g360"
           clip-path="url(#clipPath362)"><path
             d="m 826.664,510.832 3,35 3,1 2,-1 3,18 2,-21 3,0 3,-1 2,0 3,1 2,0 3,-2 3,1 2,0 3,3 2,0 3,2 3,1 2,0 3,3 2,1 3,5 3,5 2,1 3,-28 2,9 3,-9 3,-9 5,-7 2,0 3,-5 3,1 2,-2 3,2 2,1 3,-1 3,0 2,1 3,0 2,1 3,2 2,2 3,3 3,8 2,9 3,8 5,28 3,2 2,-11 3,-8 2,-3 3,-3 3,-1 2,-1 3,-2 3,1 2,-2 3,-3 8,0 2,-1 3,0 2,4 3,2 2.996,1 2,2 3,5 2,5 3,-3 3,-10 2,-12 3,-8 2,-5 3,-5 3,0 2,-1 3,-1 2,-2 3,-1 3,-2 2,0 3,-2 2,0 3,-1 2,2 3,0 3,3 2,3 3,0 2,3 3,6 2,10 3,-18 2,38 3,0 2,-6 3,-2 3,-1 2,0 3,-1 2,-2 3,-2 2,0 3,-1 2,2 3,-1 10,0 2,-1 3,0 3,-1 2,1 3,-1 2,-3 2,-17 3,4 2,-8 3,-2 2,-4 3,0 2,-2 3,2 2,-1 3,0 2,-1 3,-1 2,-2 3,1 2,-1 3,0 2,-3 2,-1 3,-2 2,0 3,1 2,-1 2,-1 3,-2 2,0 3,8 2,13 3,-1 2,6 3,2 2,5 2,-1 3,0 2,2 3,-3 2,1 2,1 3,1 2,-1 3,-2 2,1 2,-1 3,0 2,1 3,-2 2,-1 2,-1 3,-4 2,-1 2,-4 3,-7 2,-9 2,29 3,-44 2,0 2,4 3,0 2,2 2,2 3,-1 2,1 2,1 3,1 2,1 5,0 2,2 2,-1 3,-3 2,-1 2,1 2,-1 3,-4 2,-2 2,-1 3,-1 2,-2 2,-3 5,17 2,-2 2,13 3,8 2,4 2,5 2,0 3,3 2,3 2,-2 2,2 2,1 2,2 2,-2 2,1 5,0 2,-2 2,0 2,2 2,0 1,-2 2,-1 2,-1 1,1 2,-1 2,2 1,0 2,-3 2,-2 1,-5 2,-4 1,3 2,-14 2,-2 1,-1 2,1 1,1 2,-1 2,0 1,2 3,0 2,-2 4,0 1,1 2,-1 1,1 2,0 1,1 2,-3 1,-2 2,1 2,0 2,1 1,0 2,2 1,1 2,-1 1,-2 1,3 1,-1 1,1 2,0 1,1 1,-2 1,0 1,-1 1,-2 1,0 1,-2 0,3 2,0 1,-1 0,2 1,2 1,4 1,20 0,-9 1,-3 0,-3 1,2 0,3 1,2 0,2 1,2 0,1 1,2 1,2 0,1 0,-1 1,3 0,-1 1,1 0,-2 0,1 1,1 0,-1 0,3"
             style="fill:none;stroke:#0100ff;stroke-opacity:1;stroke-width:2.08333;stroke-linecap:butt;stroke-linejoin:round;stroke-miterlimit:10;stroke-dasharray:none"
             id="path366" /><path
             d="m 297.668,500.832 0,2 1,-4 2,2 -1,0 1,0 1,-2 1,2 0,-1 1,-2 1,-1 0,1 1,-1 1,1 1,0 1,-1 1,-1 1,1 1,1 2,0 -1,0 1,0 1,-1 1,2 1,-5 0,2 1,-1 1,-3 1,-2 0,-2 1,1 1,0 1,-1 1,-3 0,-1 1,-1 1,-3 1,-1 1,-1 1,-1 1,-1 0,-4 1,-7 1,0 1,-2 1,-3 1,-1 1,1 1,7 1,11 0,-8 1,2 1,6 1,6 1,5 1,8 1,4 1,4 1,3 1,2 1,2 1,1 1,-1 1,-1 1,5 1,2 1,2 2,2 4,0 1,3 1,-3 4,0 1,1 1,-1 3,0 1,-1 2,0 1,-2 1,-2 1,0 2,1 1,-3 1,-1 2,-3 1,2 1,-1 2,-3 1,3 1,-5 2,-4 1,-6 1,-9 2,-11 1,-6 1,-3 2,6 1,-17 2,-1 1,4 1,4 2,8 1,5 2,4 1,3 2,-1 1,2 2,3 1,2 2,0 1,1 2,2 2,1 4,0 2,1 1,0 2,-1 2,-1 1,-1 2,-2 1,-1 2,-1 2,-1 1,0 2,-1 2,-2 2,-1 1,-3 2,-4 2,-4 2,-6 1,-5 2,-7 2,16 1,-1 2,2 2,15 2,7 2,8 1,6 2,2 2,5 2,2 2,2 2,0 2,2 3,0 2,1 2,1 2,1 2,1 2,2 2,0 2,-1 2,2 2,-2 2,0 2,-1 2,0 2,1 2,-6 2,-3 1.996,-8 2,-10 4,12 2,-32 2,2 2,5 2,3 2,3 2,-1 2,0 3,2 2,3 2,2 2,-1 2,0 2,-1 3,1 2,1 2,0 2,2 2,-1 3,4 2,-2 2,-1 2,1 2,-1 2,-1 3,0 2,-1 2,2 5,15 2,8 2,3 2,1 3,2 2,0 2,3 3,-1 2,1 2,2 3,-1 2,4 2,1 3,-3 2,3 7,0 2,2 3,1 2,-1 3,1 2,3 2,1 3,-1 2,-23 2,6 3,-7 2,-7 2,-3 3,-1 2,0 3,1 2,-1 2,-1 3,-1 2,-2 3,2 2,-4 3,2 2,-2 3,1 2,1 2,1 3,-1 2,-3 3,0 2,-1 3,0 2,2 3,4 2,7 3,8 2,3 3,3 2,1 3,1 2,-1 3,0 2,3 3,4 2,1 3,-1 2,3 3,0 2,2 3,-1 2,1 3,0 3,2 2,1 3,0 2,3 3,1 2,-37 3,20 2,-7 3,-8 2,-3 3,-2 2,-2 3,0 2,-1 3,-3 3,2 2,0 3,2 2,1 3,1 2,1 3,-1 2,1 3,-2 3,5 2,2 3,1 2,3 3,11 2,-20"
             style="fill:none;stroke:#0100ff;stroke-opacity:1;stroke-width:2.08333;stroke-linecap:butt;stroke-linejoin:round;stroke-miterlimit:10;stroke-dasharray:none"
             id="path368" /><path
             d="m 280.668,500.832 0,3 1,1 0,-2 1,1 1,-1 2,0 -1,0 2,0 1,1 0,-1 1,1 1,3 1,-3 1,3 2,-3 -1,0 1,0 1,1 0,-1 1,-2 1,-1 0,-1 1,1"
             style="fill:none;stroke:#0100ff;stroke-opacity:1;stroke-width:2.08333;stroke-linecap:butt;stroke-linejoin:round;stroke-miterlimit:10;stroke-dasharray:none"
             id="path370" /></g></g><g
         id="g372"><g
           id="g374"
           clip-path="url(#clipPath376)"><path
             d="m 472.668,469.832 c 0,-6.625 -5.375,-12 -12,-12 -6.625,0 -12,5.375 -12,12 0,6.625 5.375,12 12,12 6.625,0 12,-5.375 12,-12"
             style="fill:none;stroke:#ff0000;stroke-opacity:1;stroke-width:2.08333;stroke-linecap:butt;stroke-linejoin:round;stroke-miterlimit:10;stroke-dasharray:none"
             id="path380" /><path
             d="m 1396.66,520.832 c 0,-6.625 -5.37,-12 -12,-12 -6.62,0 -12,5.375 -12,12 0,6.625 5.38,12 12,12 6.63,0 12,-5.375 12,-12"
             style="fill:none;stroke:#ff0000;stroke-opacity:1;stroke-width:2.08333;stroke-linecap:butt;stroke-linejoin:round;stroke-miterlimit:10;stroke-dasharray:none"
             id="path382" /><path
             d="m 939.664,576.832 24,0"
             style="fill:none;stroke:#ff0000;stroke-opacity:1;stroke-width:2.08333;stroke-linecap:butt;stroke-linejoin:round;stroke-miterlimit:10;stroke-dasharray:none"
             id="path384" /><path
             d="m 951.664,588.832 0,-24"
             style="fill:none;stroke:#ff0000;stroke-opacity:1;stroke-width:2.08333;stroke-linecap:butt;stroke-linejoin:round;stroke-miterlimit:10;stroke-dasharray:none"
             id="path386" /><path
             d="m 943.664,584.832 16,-16"
             style="fill:none;stroke:#ff0000;stroke-opacity:1;stroke-width:2.08333;stroke-linecap:butt;stroke-linejoin:round;stroke-miterlimit:10;stroke-dasharray:none"
             id="path388" /><path
             d="m 959.664,584.832 -16,-16"
             style="fill:none;stroke:#ff0000;stroke-opacity:1;stroke-width:2.08333;stroke-linecap:butt;stroke-linejoin:round;stroke-miterlimit:10;stroke-dasharray:none"
             id="path390" /></g></g><g
         id="g392"><g
           id="g394"
           clip-path="url(#clipPath396)"><path
             d="m 2034.66,535.832 1,0 2,3 2,0 2,1 2,-1 5,0 2,2 2,-2 1,1 2,-3 2,1 2,2 2,1 2,-1 1,1 2,0 2,-2 2,1 4,-1 2,-2 1,0 2,1 2,2 2,-1 2,-17 2,2 2,-5 2,-4 1,-2 2,0 2,-1 2,-2 2,-2 2,1 2,1 2,-3 2,-1 1,1 2,-1 2,-1 2,-1 2,1 2,0 2,1 2,-1 2,2 2,-2 1,0 2,1 2,2 2,2 2,-1 2,1 2,1 2,6 2,5 2,6 2,5 2,-31 2,35 2,-1 2,0 2,1 2,-1 2,3 2,0 2,-2 2,-1 2,1 2,0 2,2 2,0 2,1 2,0 2,1 2,-1 2,3 2,-1 2,-2 2,-1 2,1 2,0 2,1 2,0 2,1 2,-1 2,-4 2,-20 2,1 3,-4 2,-2 2,-2 2,-1 2,0 2,-3 2,-1 2,-2 2,0 2,-1 2,1 2,-1 2,-1 2,1 2,1 2,1 3,-2 4,0 2,-1 2,0 2,-1 2,0 2,1 3,0 2,-1 2,0 2,-2 2,1 2,37 2,-24 2,6 2,7 3,3 2,1 2,1 2,1 2,2 2,1 2,0 3,-1 2,1 2,-1 2,-1 2,1 2,-1 2,4 2,2 2,0 2,2 2,0 2,1 2,-1 2,-1 6,0 2,2 2,-1 1,-2 2,-7 2,-7 2,-3 2,-7 2,-2 1,-1 2,-3 2,-1 2,-1 1,-2 2,1 2,1 3,0 2,1 5,0 2,1 2,-1 1,-1 4,0 1,-1 2,2 2,1 1,-2 2,-1 1,2 2,-1 2,2 1,-1 2,-1 5,0 1,-1 2,4 2,12 1,1 1,2 2,4 1,1 1,3 1,0 2,2 1,2 1,3 1,1 1,-1 2,-1 1,-2 1,-1 1,-1 1,1 1,1 1,1 1,0 1,-1 1,0 1,1 1,1 1,1 1,1 1,0 1,-1 1,-1 1,1 0,2 1,1 1,0 1,1 1,1 1,-1 1,0 1,-1 1,-1 1,2 1,-1 1,0 1,1 1,-1 0,1 1,2 2,0 -1,0 1,0 1,3 0,-2 1,0 1,-1 0,-3 1,-1 1,0 0,2 1,0 1,1 1,0 0,2 1,1 0,2 1,-1 1,-2 2,-2 -1,0 1,0 1,-18 0,14 0,-12 1,3 0,-2 1,-5 0,1 1,7 0,-1 1,-2 0,1 1,-1 0,-5 1,-1 0,-1 1,1 1,-2 0,-3 1,-1 0,-3 1,-1 0,-3 1,-1 0,3 0,-2 1,-1 0,3 0,-2 1,5 0,1 0,-1 1,-3 0,-2 0,1 1,2 0,-1 0,4 0,-2 1,-1 0,-11 1,1 0,-1"
             style="fill:none;stroke:#ff0000;stroke-opacity:1;stroke-width:2.08333;stroke-linecap:butt;stroke-linejoin:round;stroke-miterlimit:10;stroke-dasharray:none"
             id="path400" /><path
             d="m 1666.66,535.832 1,-1 0,-2 1,2 1,1 1,-2 1,1 1,-1 2,0 1,1 0,1 1,-1 1,1 0,-2 1,1 1,1 1,1 0,-1 1,-1 1,-2 1,0 1,-1 0,-1 1,3 1,-3 1,2 0,-1 1,1 1,-2 1,1 2,-1 -1,0 3,0 1,-2 0,1 1,-3 1,1 1,-1 2,0 1,-1 1,-2 1,-4 1,-3 1,0 1,-3 0,-5 1,-1 1,-6 1,3 1,27 1,-31 1,-7 1,-1 0,-1 1,-2 1,3 2,0 1,1 1,3 1,-1 1,1 1,1 0,1 1,-1 1,1 1,1 1,0 1,2 1,-2 1,3 1,0 1,-1 1,1 1,-1 1,1 1,1 1,0 1,1 1,-1 1,0 1,-2 1,-1 1,1 1,1 1,0 1,-3 1,1 1,3 1,-1 1,0 1,-2 1,2 1,-4 2,0 1,1 1,0 1,1 1,1 1,0 1,-3 1,0 1,3 1,3 2,1 1,1 1,-2 1,3 1,3 1,2 1,7 1,4 1,2 1,4 1,1 1,1 1,1 2,3 1,1 1,2 1,-1 1,-1 3,0 2,-3 1,1 1,0 1,1 1,1 1,1 1,1 3,0 1,-2 1,1 1,0 1,-1 1,2 2,2 1,0 1,1 1,-1 1,1 2,-2 1,1 1,0 1,-3 1,0 2,-3 1,-2 4,0 1,-2 1,1 1,-1 2,-2 1,0 1,-5 1,-2 2,-3 1,-4 1,-5 1,15 2,-18 1,-8 1,-1 2,-1 1,1 1,-2 4,0 1,2 2,0 1,2 1,-1 2,2 1,2 1,-1 2,1 1,0 1,1 1,1 2,1 1,1 6,0 1,1 6,0 1,-1 1,1 2,0 1,-1 2,1 1,2 1,1 2,1 1,1 2,3 1,0 2,3 1,4 2,-3 1,1 2,16 1,5 3,0 1,1 2,-1 1,-2 2,0 1,1 3,0 2,-1 1,0 2,2 1,-2 4,0 1,2 2,-1 1,0 2,1 1,-2 2,-1 1,0 2,-1 1,-1 2,-2 2,3 1,-1 2,-2 1,2 2,-1 2,1 1,1 2,1 1,0 2,-1 2,-2 1,-2 2,-4 1,-6 2,-5 2,-4 1,-1 2,2 2,-2 1,-1 2,-3 1,-1 2,-1 5,0 2,-2 1,0 2,2 2,1 1,0 2,-3 2,0 1,2 2,0 2,-1 2,2 1,-2 4,0 1,-1 2,-3 2,2 7,0 2,2 1,9 2,5 2,2 2,4 2,2 1,3 2,0 2,3 2,1"
             style="fill:none;stroke:#ff0000;stroke-opacity:1;stroke-width:2.08333;stroke-linecap:butt;stroke-linejoin:round;stroke-miterlimit:10;stroke-dasharray:none"
             id="path402" /><path
             d="m 1503.66,512.832 1,-2 0,-3 1,0 0,2 1,2 0,1 1,1 0,-1 0,1 1,0 0,2 1,-1 0,-3 1,-1 0,3 0,-1 1,0 1,-1 0,1 0,-1 1,-1 0,1 1,-3 0,3 1,1 0,-2 0,1 1,-1 0,2 1,0 0,-3 0,3 1,-1 0,2 0,-1 1,-1 0,-1 1,1 0,-1 0,1 1,1 0,4 1,1 0,1 1,-2 0,1 0,-2 1,1 0,4 1,1 0,1 0,-1 1,3 0,-1 0,1 1,4 0,-2 0,3 1,-3 0,-3 1,-1 0,-2 0,3 0,-1 1,3 0,14 1,1 0,6 1,1 0,1 1,1 0,-1 0,1 1,-3 0,-4 2,-2 -1,0 1,3 1,1 1,-1 0,-1 0,1 1,-1 0,-1 2,2 0,0 1,-3 0,2 1,-1 0,2 1,0 0,-2 1,-2 0,1 0,-2 1,2 0,2 1,0 0,-2 1,1 0,-2 0,2 1,-1 0,-1 0,2 1,-1 0,3 1,-1 0,-3 0,2 1,1 0,-1 0,1 1,-1 0,-1 0,4 1,-2 0,3 1,-1 0,-3 1,2 0,3 1,-2 0,1 0,-2 2,-2 -1,0 1,3 2,-3 0,-1 2,0 0,2 1,-1 0,2 1,-1 0,1 1,-2 0,3 1,-2 0,5 1,-1 2,-2 0,-2 0,2 1,-1 0,1 0,-1 1,1 0,2 2,0 0,1 1,-1 0,2 1,-3 0,2 1,1 0,-1 1,1 0,1 1,-1 0,-2 0,1 1,-1 1,2 0,3 1,-1 0,1 0,-2 1,-1 0,-1 1,-1 1,-1 0,4 1,-1 0,1 0,-1 1,2 0,-2 0,2 1,-1 0,1 1,-1 0,-3 1,-28 0,1 1,21 0,-19 0,14 1,-5 0,7 1,-2 0,-4 1,-2 0,-1 1,1 0,-2 1,-1 0,-2 1,-1 0,-2 1,-1 1,-1 1,0 2,2 -1,0 1,1 1,-1 2,-2 -1,0 1,0 1,3 0,-1 1,-2 1,-1 0,-1 1,-2 0,-2 1,2 0,-1 1,-1 0,-2 1,-2 0,1 1,1 2,1 0,-2 1,1 0,-1 1,1 0,2 1,-1 0,1 1,-2 0,1 0,-3 2,1 0,-2 1,-1 1,3 0,-1 2,0 -1,0 1,0 2,-2 0,-1 1,0 1,1 1,1 0,1 1,1 0,-2 1,-1 1,-1 0,-2 1,1 1,1 1,0 1,1 0,-1 1,1 1,0 1,-1 1,1 0,-2 1,2 2,0 0,2 1,-2 1,0 0,2 1,2 0,1 1,2 1,6 0,-10 1,12 0,1 1,2 1,4 0,1 1,2 1,1 0,1 1,2 0,1 1,-2 2,0 -1,0 1,0 1,2 0,-1 1,2 1,1 1,-2 1,-1 1,0 1,-1 1,0"
             style="fill:none;stroke:#ff0000;stroke-opacity:1;stroke-width:2.08333;stroke-linecap:butt;stroke-linejoin:round;stroke-miterlimit:10;stroke-dasharray:none"
             id="path404" /><path
             d="m 1457.66,534.832 0,2 0,-2 1,0 0,3 1,-1 0,4 1,-1 0,-2 0,2 1,-1 0,-1 0,1 1,0 0,-2 1,0 0,-3 1,-6 0,-8 1,-1 0,6 0,-1 1,-1 0,-1 1,-4 0,-2 1,-1 1,-1 0,-2 2,-2 -1,0 1,0 1,-1 0,-2 1,1 2,0 -1,0 1,1 1,-2 0,-2 1,1 0,1 1,1 0,2 1,-1 0,-1 1,-1 0,1 0,-2 1,2 0,-1 0,1 1,-1 1,-1 0,-2 1,1 0,2 1,0 0,-2 1,0 1,-1 0,1 1,2 0,2 1,-1 0,2 0,-1 1,1 0,-2 1,1 0,1 2,0 0,4 1,-2 0,1 1,-1 0,4 1,-1 0,-1 1,2 0,-5 1,1 0,-1 0,4 1,-1 0,-2 0,3 0,-1 1,1 0,-2 0,3 0,-1 1,-1 0,-1 0,2 0,-1 1,-2 0,-3 0,10 1,-1 0,-5"
             style="fill:none;stroke:#ff0000;stroke-opacity:1;stroke-width:2.08333;stroke-linecap:butt;stroke-linejoin:round;stroke-miterlimit:10;stroke-dasharray:none"
             id="path406" /><path
             d="m 2810.66,478.832 2,0 2,2 2,3 2,1 2,0 2,1 2,1 2,0 2,-1 6,0 2,-1 2,1 4,0 2,-2 2,-1 2,-1 2,-3 2,-4 2,-3 2,-2 2,-5 2,-8 2,4 2,10 2,11 3,11 2,10 2,6 2,3 2,5 2,0 2,2 3,2 4,5 2,1 2,1 2,-1 3,0 2,-2 2,0 2,-2 2,2 3,0 2,-4 2,0 2,-4 2,-6 3,-1 2,-11 2,-9 2,32 3,-44 2,1 2,4 2,6 3,0 2,3 2,2 3,2 2,0 2,3 2,-2 3,1 4,0 3,2 2,0 2,1 3,0 2,2 2,-2 3,2 2,-3 2,2 2,1 3,1 2,19 2,-4 3,6 2,3 2,-1 3,3 4,0 3,1 2,0 3,-2 2,1 2,1 3,1 2,0 3,2 2,0 2,2 3,0 2,2 2,1 3,1 2,1 3,3 2,0 2,-1 3,-19 2,3 2,-8 3,-5 2,-1 3,-4 2,1 5,-1 2,-1 10,0 2,1 5,0 3,1 2,1 5,0 2,2 3,3 2,5 2,7 3,-5 2,20 5,0 2,1 3,-3 2,-1 5,0 3,-1 2,2 3,-1 2,-2 2,-1 3,2 2,0 3,-2 2,2 2,3 3,2 2,2 3,-2 2,0 2,2 3,1 2,-3 3,-19 2,6 2,-10 3,-5 2,-1 3,-1 2,-3 2,-1 3,0 2,1 3,0 2,-3 2,0 3,2 2,-1 3,2 2,1 2,2 3,2 2,4 3,3 2,3 2,4 3,4 2,10 2,7 3,-19 2,33 2,-8 3,-2 2,-4 2,0 3,-1 2,-2 2,0 3,-1 2,-1 5,0 2,1 3,0 2,1 2,0 3,1 2,2 2,3 3,4 2,0 2,6 3,7 2,5 2,10 2,-24 3,9 2,-16 2,-12 2,-5 3,-7 2,-2 2,-3 3,-3 2,-1 2,-1 2,-1 3,0 2,-1 4,0 3,-1 2,1 2,3 3,2 2,3 2,3 2,3 3,7 2,7 2,10 2,18 3,9 6,4 3,-9 2,-6 2,-5 2,-2 3,-2 2,-3 2,0 2,-2 2,-1 2,0 2,-1 2,1 2,1 2,-1 2,1 2,0 2,-1 2,4 2,2 1,0 2,2 2,1 2,3 2,5 1,5 2,8 2,11 1,7 2,-10 2,-7 1,5 2,-16 1,-11 2,-8 1,-7 2,-6 2,-4 1,-3 2,-2 1,-2 2,-2 3,0 1,-2 2,-1 1,1 2,1 1,-1 2,1 1,-1 2,-1 1,0 2,-1 1,3 2,0 1,1 2,1 1,5 1,0 2,4 2,1 23,30 6,-10"
             style="fill:none;stroke:#00ff00;stroke-opacity:1;stroke-width:2.08333;stroke-linecap:butt;stroke-linejoin:round;stroke-miterlimit:10;stroke-dasharray:none"
             id="path408" /><path
             d="m 2514.66,555.832 0,-1 0,2 1,2 0,-4 1,-1 0,1 0,-1 1,-1 0,-2 1,1 0,2 1,1 0,1 0,-4 1,-3 0,1 0,-1 1,-1 0,-1 0,2 0,-1 1,2 0,-1 0,1 1,-1 0,5 0,-2 1,-1 0,-1 1,3 0,-1 0,2 1,1 0,1 0,-1 1,-1 0,-1 1,3 0,-1 0,3 1,2 0,-1 1,1 0,2 0,-3 2,0 0,-1 1,1 0,-2 1,1 0,-1 0,1 1,2 0,1 0,-1 1,1 0,1 1,-1 0,3 1,1 0,-1 0,2 1,1 0,-1 1,-3 0,-1 0,1 1,1 0,2 1,0 0,-3 1,1 0,3 1,1 0,3 0,-1 1,1 0,4 2,0 8,-34 1,12 4,21 0,-5 1,-5 0,-2 1,-3 0,-1 1,-2 0,-4 1,-4 0,-2 1,-1 2,-4 0,-2 1,-1 0,-1 2,-3 0,-2 1,2 0,-2 1,-1 1,-2 0,-2 1,-1 0,1 1,-3 0,1 1,-1 0,-1 1,-3 1,-1 1,-1 0,1 1,1 0,-1 1,-2 1,0 1,-1 1,1 1,1 0,-1 1,-2 1,1 0,-1 1,2 1,1 1,-1 1,2 1,-2 0,1 1,-1 1,-2 0,2 1,0 1,-2 1,-1 1,0 1,2 0,1 1,-1 1,1 1,-2 1,-2 1,1 1,2 1,-1 1,1 0,-1 1,-1 2,0 1,-1 0,-3 1,2 1,-1 1,2 1,1 1,1 1,3 1,2 1,3 1,2 1,-3 1,5 0,5 1,3 1,3 1,1 1,-1 1,-1 1,1 1,-1 1,1 1,1 1,2 1,-3 1,1 1,-1 1,-2 1,1 1,1 1,3 1,-2 1,0 2,-1 1,1 1,1 1,-1 2,0 1,1 1,-1 1,1 1,-2 1,1 1,-1 1,0 1,-1 1,1 1,1 2,-1 1,-2 1,0 1,-4 1,-1 1,1 1,0 1,-1 2,-1 1,2 1,1 1,0 2,-5 1,0 1,-3 1,-2 2,-6 1,-3 1,-1 2,-1 1,-8 1,-6 1,0 2,1 1,0 1,2 3,0 1,-2 2,-2 1,1 1,0 2,-2 1,2 2,1 1,1 2,2 1,0 1,-2 2,-1 1,-1 2,0 1,-2 2,-1 1,1 2,-1 1,0 2,-2 1,1 2,-2 1,-4 2,-1 2,0 1,-4 2,-3 1,-4 2,-2 2,-6 1,2 4,10 1,9 2,7 1,7 2,6 2,1 1,4 2,1 2,3 1,1 2,2 5,0 2,-1 2,3 2,-1 1,0 2,-1 2,1 2,-2 2,2 1,2 2,2 2,-3 2,1 1,-2 2,-1 2,-3 2,-4 2,-6 2,-7 2,-9 2,-10 2,6 1,-18 2,0 2,5 2,4"
             style="fill:none;stroke:#00ff00;stroke-opacity:1;stroke-width:2.08333;stroke-linecap:butt;stroke-linejoin:round;stroke-miterlimit:10;stroke-dasharray:none"
             id="path410" /><path
             d="m 2480.66,501.832 0,2 0,-1 1,1 0,-2 0,5 0,-1 1,-1 0,6 0,-2 1,2 0,-1 0,3 1,-1 0,-4 0,5 0,-2 1,1 0,5 1,1 0,3 1,0 0,4 0,-2 1,2 0,-3 0,8 0,-4 1,1 0,-1 0,4 1,1 0,5 1,2 0,-1 0,4 1,1 0,8 1,-1 0,6 1,1 0,-22 1,1 0,2 0,-12 1,2 0,-2 0,9 1,1 0,4 0,-6 1,-1 0,-3 0,39 1,1 0,-4 1,-1 0,-1 0,3 1,-1 0,-3 1,-1 0,-2 0,2 1,1 0,-8 1,0 0,-3 0,3 1,-1 0,-1 0,2 1,-1 0,1 0,-4 1,1 0,-1 1,1 0,-1 0,3 1,1 0,-2 1,-2 0,-2 0,4 1,1 0,1 0,-3 1,1 0,2 0,-1 1,1 0,-1 0,2 1,1"
             style="fill:none;stroke:#00ff00;stroke-opacity:1;stroke-width:2.08333;stroke-linecap:butt;stroke-linejoin:round;stroke-miterlimit:10;stroke-dasharray:none"
             id="path412" /></g></g><g
         id="g414"><g
           id="g416"
           clip-path="url(#clipPath418)"><path
             d="m 2876.66,470.832 c 0,-6.625 -5.37,-12 -12,-12 -6.62,0 -12,5.375 -12,12 0,6.625 5.38,12 12,12 6.63,0 12,-5.375 12,-12"
             style="fill:none;stroke:#ff00ff;stroke-opacity:1;stroke-width:2.08333;stroke-linecap:butt;stroke-linejoin:round;stroke-miterlimit:10;stroke-dasharray:none"
             id="path422" /><path
             d="m 3342.66,583.832 24,0"
             style="fill:none;stroke:#ff00ff;stroke-opacity:1;stroke-width:2.08333;stroke-linecap:butt;stroke-linejoin:round;stroke-miterlimit:10;stroke-dasharray:none"
             id="path424" /><path
             d="m 3354.66,595.832 0,-24"
             style="fill:none;stroke:#ff00ff;stroke-opacity:1;stroke-width:2.08333;stroke-linecap:butt;stroke-linejoin:round;stroke-miterlimit:10;stroke-dasharray:none"
             id="path426" /><path
             d="m 3346.66,591.832 16,-16"
             style="fill:none;stroke:#ff00ff;stroke-opacity:1;stroke-width:2.08333;stroke-linecap:butt;stroke-linejoin:round;stroke-miterlimit:10;stroke-dasharray:none"
             id="path428" /><path
             d="m 3362.66,591.832 -16,-16"
             style="fill:none;stroke:#ff00ff;stroke-opacity:1;stroke-width:2.08333;stroke-linecap:butt;stroke-linejoin:round;stroke-miterlimit:10;stroke-dasharray:none"
             id="path430" /></g></g><g
         id="g432"><g
           id="g434"
           clip-path="url(#clipPath436)"><path
             d="m 2491.66,465.832 -85,-84"
             style="fill:none;stroke:#000000;stroke-opacity:1;stroke-width:2.08333;stroke-linecap:butt;stroke-linejoin:round;stroke-miterlimit:10;stroke-dasharray:25;stroke-dashoffset:0"
             id="path440" /></g></g><g
         id="g442"><g
           id="g444"
           clip-path="url(#clipPath446)"><g
             id="g450"
             transform="scale(4.16667,4.16667)"><text
   transform="matrix(1,0,0,-1,577.599,88.0397)"
   id="text452"><tspan
     style="fill:#000000;fill-opacity:1;fill-rule:nonzero;stroke:none;font-family:Helvetica;font-variant:normal;font-weight:normal;font-size:10;writing-mode:lr;-inkscape-font-specification:Helvetica"
     x="0"
     y="0"
     id="tspan454">1</tspan></text>

</g></g></g><g
         id="g456"><g
           id="g458"
           clip-path="url(#clipPath460)" /></g></g></g></svg>